solid OpenSCAD_Model
  facet normal 0 0 1
    outer loop
      vertex 76.1469 -62 515.005
      vertex 146.147 -62 515.005
      vertex 156.147 -59.3205 515.005
    endloop
  endfacet
  facet normal 0 0 1
    outer loop
      vertex 146.147 -50 515.005
      vertex 76.1469 -62 515.005
      vertex 163.467 -52 515.005
    endloop
  endfacet
  facet normal 0 0 1
    outer loop
      vertex 163.467 -52 515.005
      vertex 76.1469 -62 515.005
      vertex 156.147 -59.3205 515.005
    endloop
  endfacet
  facet normal 0 0 1
    outer loop
      vertex 154.147 -42 515.005
      vertex 153.538 -45.0615 515.005
      vertex 166.147 -42 515.005
    endloop
  endfacet
  facet normal 0 0 1
    outer loop
      vertex 154.147 42 515.005
      vertex 166.147 42 515.005
      vertex 164.624 49.6537 515.005
    endloop
  endfacet
  facet normal 0 0 1
    outer loop
      vertex 150.147 48.9282 515.005
      vertex 153.075 46 515.005
      vertex 160.289 56.1421 515.005
    endloop
  endfacet
  facet normal 0 0 1
    outer loop
      vertex 146.147 50 515.005
      vertex 150.147 48.9282 515.005
      vertex 153.8 60.4776 515.005
    endloop
  endfacet
  facet normal 0 0 1
    outer loop
      vertex 76.1469 62 515.005
      vertex 76.1469 50 515.005
      vertex 146.147 62 515.005
    endloop
  endfacet
  facet normal 0 0 1
    outer loop
      vertex 146.147 62 515.005
      vertex 146.147 50 515.005
      vertex 153.8 60.4776 515.005
    endloop
  endfacet
  facet normal 0 0 1
    outer loop
      vertex 153.8 60.4776 515.005
      vertex 150.147 48.9282 515.005
      vertex 160.289 56.1421 515.005
    endloop
  endfacet
  facet normal 0 0 1
    outer loop
      vertex 160.289 56.1421 515.005
      vertex 153.075 46 515.005
      vertex 164.624 49.6537 515.005
    endloop
  endfacet
  facet normal 0 0 1
    outer loop
      vertex 153.075 46 515.005
      vertex 154.147 42 515.005
      vertex 164.624 49.6537 515.005
    endloop
  endfacet
  facet normal 0 0 1
    outer loop
      vertex 166.147 42 515.005
      vertex 154.147 -42 515.005
      vertex 166.147 -42 515.005
    endloop
  endfacet
  facet normal 0 0 1
    outer loop
      vertex 166.147 -42 515.005
      vertex 153.538 -45.0615 515.005
      vertex 163.467 -52 515.005
    endloop
  endfacet
  facet normal 0 0 1
    outer loop
      vertex 153.538 -45.0615 515.005
      vertex 151.804 -47.6569 515.005
      vertex 163.467 -52 515.005
    endloop
  endfacet
  facet normal 0 0 1
    outer loop
      vertex 151.804 -47.6569 515.005
      vertex 149.208 -49.391 515.005
      vertex 163.467 -52 515.005
    endloop
  endfacet
  facet normal 0 0 1
    outer loop
      vertex 149.208 -49.391 515.005
      vertex 146.147 -50 515.005
      vertex 163.467 -52 515.005
    endloop
  endfacet
  facet normal 0 0 1
    outer loop
      vertex 154.147 42 515.005
      vertex 154.147 -42 515.005
      vertex 166.147 42 515.005
    endloop
  endfacet
  facet normal 0 0 1
    outer loop
      vertex 76.1469 50 515.005
      vertex 146.147 50 515.005
      vertex 146.147 62 515.005
    endloop
  endfacet
  facet normal 0 0 1
    outer loop
      vertex 146.147 -50 515.005
      vertex 76.1469 -50 515.005
      vertex 76.1469 -62 515.005
    endloop
  endfacet
  facet normal 0 -1 0
    outer loop
      vertex -49.7769 50 -2.75708
      vertex -46.7661 50 -17.2921
      vertex -39.6207 50 -30.3027
    endloop
  endfacet
  facet normal 0 -1 0
    outer loop
      vertex -15.7543 50 -47.3995
      vertex -49.7769 50 -2.75708
      vertex -28.9706 50 -40.6422
    endloop
  endfacet
  facet normal 0 -1 0
    outer loop
      vertex -28.9706 50 -40.6422
      vertex -49.7769 50 -2.75708
      vertex -39.6207 50 -30.3027
    endloop
  endfacet
  facet normal 0 -1 0
    outer loop
      vertex -1.1366 50 -49.979
      vertex -49.7769 50 -2.75708
      vertex -15.7543 50 -47.3995
    endloop
  endfacet
  facet normal 0 -1 0
    outer loop
      vertex 13.5944 50 -48.1531
      vertex -49.7769 50 -2.75708
      vertex -1.1366 50 -49.979
    endloop
  endfacet
  facet normal 0 -1 0
    outer loop
      vertex -17.4867 50 -24.2659
      vertex -49.7769 50 -2.75708
      vertex 13.5944 50 -48.1531
    endloop
  endfacet
  facet normal 0 -1 0
    outer loop
      vertex 29.9825 50 -3.13123
      vertex 26.1276 50 -14.9954
      vertex 107.233 50 -22.0055
    endloop
  endfacet
  facet normal 0 -1 0
    outer loop
      vertex 12.349 50 27.411
      vertex 22.4413 50 20.0786
      vertex 111.147 50 20.0046
    endloop
  endfacet
  facet normal 0 -1 0
    outer loop
      vertex 146.147 50 515.005
      vertex 111.147 50 20.0046
      vertex 146.147 50 20.0046
    endloop
  endfacet
  facet normal 0 -1 0
    outer loop
      vertex 76.1469 50 515.005
      vertex -49.7769 50 -2.75708
      vertex 146.147 50 515.005
    endloop
  endfacet
  facet normal 0 -1 0
    outer loop
      vertex -48.3877 50 12.0214
      vertex -49.7769 50 -2.75708
      vertex 76.1469 50 515.005
    endloop
  endfacet
  facet normal 0 -1 0
    outer loop
      vertex 146.147 50 515.005
      vertex -49.7769 50 -2.75708
      vertex 51.3291 50 235.518
    endloop
  endfacet
  facet normal 0 -1 0
    outer loop
      vertex 59.5687 50 213.792
      vertex 52.7715 50 223.64
      vertex 111.147 50 20.0046
    endloop
  endfacet
  facet normal 0 -1 0
    outer loop
      vertex 146.147 50 515.005
      vertex 51.3291 50 235.518
      vertex 55.5723 50 246.706
    endloop
  endfacet
  facet normal 0 -1 0
    outer loop
      vertex 70.1639 50 208.231
      vertex 59.5687 50 213.792
      vertex 111.147 50 20.0046
    endloop
  endfacet
  facet normal 0 -1 0
    outer loop
      vertex 146.147 50 515.005
      vertex 55.5723 50 246.706
      vertex 64.5288 50 254.641
    endloop
  endfacet
  facet normal 0 -1 0
    outer loop
      vertex 82.1296 50 208.231
      vertex 70.1639 50 208.231
      vertex 111.147 50 20.0046
    endloop
  endfacet
  facet normal 0 -1 0
    outer loop
      vertex 146.147 50 515.005
      vertex 64.5288 50 254.641
      vertex 76.1469 50 257.505
    endloop
  endfacet
  facet normal 0 -1 0
    outer loop
      vertex 146.147 50 515.005
      vertex 76.1469 50 257.505
      vertex 87.765 50 254.641
    endloop
  endfacet
  facet normal 0 -1 0
    outer loop
      vertex 146.147 50 515.005
      vertex 87.765 50 254.641
      vertex 96.7214 50 246.706
    endloop
  endfacet
  facet normal 0 -1 0
    outer loop
      vertex 146.147 50 515.005
      vertex 100.964 50 235.518
      vertex 111.147 50 20.0046
    endloop
  endfacet
  facet normal 0 -1 0
    outer loop
      vertex 146.147 50 515.005
      vertex 96.7214 50 246.706
      vertex 100.964 50 235.518
    endloop
  endfacet
  facet normal 0 -1 0
    outer loop
      vertex 100.964 50 235.518
      vertex 99.5222 50 223.64
      vertex 111.147 50 20.0046
    endloop
  endfacet
  facet normal 0 -1 0
    outer loop
      vertex 51.3291 50 235.518
      vertex -49.7769 50 -2.75708
      vertex 52.7715 50 223.64
    endloop
  endfacet
  facet normal 0 -1 0
    outer loop
      vertex -17.4867 50 -24.2659
      vertex -25.8339 50 -14.9954
      vertex -49.7769 50 -2.75708
    endloop
  endfacet
  facet normal 0 -1 0
    outer loop
      vertex 22.4413 50 20.0786
      vertex 28.6785 50 9.27515
      vertex 111.147 50 20.0046
    endloop
  endfacet
  facet normal 0 -1 0
    outer loop
      vertex 28.6785 50 9.27515
      vertex 29.9825 50 -3.13123
      vertex 111.147 50 20.0046
    endloop
  endfacet
  facet normal 0 -1 0
    outer loop
      vertex 52.7715 50 223.64
      vertex -49.7769 50 -2.75708
      vertex -28.3848 50 9.27515
    endloop
  endfacet
  facet normal 0 -1 0
    outer loop
      vertex 52.7715 50 223.64
      vertex -28.3848 50 9.27515
      vertex -22.1475 50 20.0786
    endloop
  endfacet
  facet normal 0 -1 0
    outer loop
      vertex 52.7715 50 223.64
      vertex -22.1475 50 20.0786
      vertex -12.0552 50 27.411
    endloop
  endfacet
  facet normal 0 -1 0
    outer loop
      vertex 52.7715 50 223.64
      vertex 0.146851 50 30.0046
      vertex 111.147 50 20.0046
    endloop
  endfacet
  facet normal 0 -1 0
    outer loop
      vertex 52.7715 50 223.64
      vertex -12.0552 50 27.411
      vertex 0.146851 50 30.0046
    endloop
  endfacet
  facet normal 0 -1 0
    outer loop
      vertex 0.146851 50 30.0046
      vertex 12.349 50 27.411
      vertex 111.147 50 20.0046
    endloop
  endfacet
  facet normal 0 -1 0
    outer loop
      vertex 111.147 50 20.0046
      vertex 29.9825 50 -3.13123
      vertex 107.233 50 -22.0055
    endloop
  endfacet
  facet normal 0 -1 0
    outer loop
      vertex 107.233 50 -22.0055
      vertex 26.1276 50 -14.9954
      vertex 13.5944 50 -48.1531
    endloop
  endfacet
  facet normal 0 -1 0
    outer loop
      vertex 26.1276 50 -14.9954
      vertex 17.7804 50 -24.2659
      vertex 13.5944 50 -48.1531
    endloop
  endfacet
  facet normal 0 -1 0
    outer loop
      vertex -29.6888 50 -3.13123
      vertex -28.3848 50 9.27515
      vertex -49.7769 50 -2.75708
    endloop
  endfacet
  facet normal 0 -1 0
    outer loop
      vertex 17.7804 50 -24.2659
      vertex 6.38428 50 -29.3397
      vertex 13.5944 50 -48.1531
    endloop
  endfacet
  facet normal 0 -1 0
    outer loop
      vertex 6.38428 50 -29.3397
      vertex -6.09058 50 -29.3397
      vertex 13.5944 50 -48.1531
    endloop
  endfacet
  facet normal 0 -1 0
    outer loop
      vertex -6.09058 50 -29.3397
      vertex -17.4867 50 -24.2659
      vertex 13.5944 50 -48.1531
    endloop
  endfacet
  facet normal 0 -1 0
    outer loop
      vertex 99.5222 50 223.64
      vertex 92.7249 50 213.792
      vertex 111.147 50 20.0046
    endloop
  endfacet
  facet normal 0 -1 0
    outer loop
      vertex 92.7249 50 213.792
      vertex 82.1296 50 208.231
      vertex 111.147 50 20.0046
    endloop
  endfacet
  facet normal 0 -1 0
    outer loop
      vertex -25.8339 50 -14.9954
      vertex -29.6888 50 -3.13123
      vertex -49.7769 50 -2.75708
    endloop
  endfacet
  facet normal -0.97069 0 0.240335
    outer loop
      vertex 76.1469 50 515.005
      vertex 76.1469 62 515.005
      vertex -48.3877 50 12.0214
    endloop
  endfacet
  facet normal -0.97069 0 0.240335
    outer loop
      vertex -48.3877 50 12.0214
      vertex 76.1469 62 515.005
      vertex -48.3877 62 12.0214
    endloop
  endfacet
  facet normal 0 -1 0
    outer loop
      vertex -49.7769 -62 -2.75708
      vertex -46.7661 -62 -17.2921
      vertex -39.6207 -62 -30.3027
    endloop
  endfacet
  facet normal 0 -1 0
    outer loop
      vertex -15.7543 -62 -47.3995
      vertex -49.7769 -62 -2.75708
      vertex -28.9706 -62 -40.6422
    endloop
  endfacet
  facet normal 0 -1 0
    outer loop
      vertex -28.9706 -62 -40.6422
      vertex -49.7769 -62 -2.75708
      vertex -39.6207 -62 -30.3027
    endloop
  endfacet
  facet normal 0 -1 0
    outer loop
      vertex -1.1366 -62 -49.979
      vertex -49.7769 -62 -2.75708
      vertex -15.7543 -62 -47.3995
    endloop
  endfacet
  facet normal 0 -1 0
    outer loop
      vertex 13.5944 -62 -48.1531
      vertex -49.7769 -62 -2.75708
      vertex -1.1366 -62 -49.979
    endloop
  endfacet
  facet normal 0 -1 0
    outer loop
      vertex -17.4867 -62 -24.2659
      vertex -49.7769 -62 -2.75708
      vertex 13.5944 -62 -48.1531
    endloop
  endfacet
  facet normal 0 -1 0
    outer loop
      vertex 29.9825 -62 -3.13123
      vertex 26.1276 -62 -14.9954
      vertex 107.233 -62 -22.0055
    endloop
  endfacet
  facet normal 0 -1 0
    outer loop
      vertex 12.349 -62 27.411
      vertex 22.4413 -62 20.0786
      vertex 111.147 -62 20.0046
    endloop
  endfacet
  facet normal 0 -1 0
    outer loop
      vertex 146.147 -62 515.005
      vertex 111.147 -62 20.0046
      vertex 146.147 -62 20.0046
    endloop
  endfacet
  facet normal 0 -1 0
    outer loop
      vertex 76.1469 -62 515.005
      vertex -49.7769 -62 -2.75708
      vertex 146.147 -62 515.005
    endloop
  endfacet
  facet normal 0 -1 0
    outer loop
      vertex -48.3877 -62 12.0214
      vertex -49.7769 -62 -2.75708
      vertex 76.1469 -62 515.005
    endloop
  endfacet
  facet normal 0 -1 0
    outer loop
      vertex -17.4867 -62 -24.2659
      vertex -25.8339 -62 -14.9954
      vertex -49.7769 -62 -2.75708
    endloop
  endfacet
  facet normal 0 -1 0
    outer loop
      vertex 22.4413 -62 20.0786
      vertex 28.6785 -62 9.27515
      vertex 111.147 -62 20.0046
    endloop
  endfacet
  facet normal 0 -1 0
    outer loop
      vertex 28.6785 -62 9.27515
      vertex 29.9825 -62 -3.13123
      vertex 111.147 -62 20.0046
    endloop
  endfacet
  facet normal 0 -1 0
    outer loop
      vertex 146.147 -62 515.005
      vertex -49.7769 -62 -2.75708
      vertex -28.3848 -62 9.27515
    endloop
  endfacet
  facet normal 0 -1 0
    outer loop
      vertex 52.7715 -62 223.64
      vertex 51.3291 -62 235.518
      vertex -12.0552 -62 27.411
    endloop
  endfacet
  facet normal 0 -1 0
    outer loop
      vertex 146.147 -62 515.005
      vertex -28.3848 -62 9.27515
      vertex -22.1475 -62 20.0786
    endloop
  endfacet
  facet normal 0 -1 0
    outer loop
      vertex 51.3291 -62 235.518
      vertex -22.1475 -62 20.0786
      vertex -12.0552 -62 27.411
    endloop
  endfacet
  facet normal 0 -1 0
    outer loop
      vertex 82.1296 -62 208.231
      vertex 0.146851 -62 30.0046
      vertex 111.147 -62 20.0046
    endloop
  endfacet
  facet normal 0 -1 0
    outer loop
      vertex 0.146851 -62 30.0046
      vertex 12.349 -62 27.411
      vertex 111.147 -62 20.0046
    endloop
  endfacet
  facet normal 0 -1 0
    outer loop
      vertex 111.147 -62 20.0046
      vertex 29.9825 -62 -3.13123
      vertex 107.233 -62 -22.0055
    endloop
  endfacet
  facet normal 0 -1 0
    outer loop
      vertex 107.233 -62 -22.0055
      vertex 26.1276 -62 -14.9954
      vertex 13.5944 -62 -48.1531
    endloop
  endfacet
  facet normal 0 -1 0
    outer loop
      vertex 26.1276 -62 -14.9954
      vertex 17.7804 -62 -24.2659
      vertex 13.5944 -62 -48.1531
    endloop
  endfacet
  facet normal 0 -1 0
    outer loop
      vertex -29.6888 -62 -3.13123
      vertex -28.3848 -62 9.27515
      vertex -49.7769 -62 -2.75708
    endloop
  endfacet
  facet normal 0 -1 0
    outer loop
      vertex 17.7804 -62 -24.2659
      vertex 6.38428 -62 -29.3397
      vertex 13.5944 -62 -48.1531
    endloop
  endfacet
  facet normal 0 -1 0
    outer loop
      vertex 6.38428 -62 -29.3397
      vertex -6.09058 -62 -29.3397
      vertex 13.5944 -62 -48.1531
    endloop
  endfacet
  facet normal 0 -1 0
    outer loop
      vertex -6.09058 -62 -29.3397
      vertex -17.4867 -62 -24.2659
      vertex 13.5944 -62 -48.1531
    endloop
  endfacet
  facet normal 0 -1 0
    outer loop
      vertex 146.147 -62 515.005
      vertex -22.1475 -62 20.0786
      vertex 51.3291 -62 235.518
    endloop
  endfacet
  facet normal 0 -1 0
    outer loop
      vertex 55.5723 -62 246.706
      vertex 64.5288 -62 254.641
      vertex 146.147 -62 515.005
    endloop
  endfacet
  facet normal 0 -1 0
    outer loop
      vertex 146.147 -62 515.005
      vertex 51.3291 -62 235.518
      vertex 55.5723 -62 246.706
    endloop
  endfacet
  facet normal 0 -1 0
    outer loop
      vertex 92.7249 -62 213.792
      vertex 82.1296 -62 208.231
      vertex 111.147 -62 20.0046
    endloop
  endfacet
  facet normal 0 -1 0
    outer loop
      vertex 70.1639 -62 208.231
      vertex 59.5687 -62 213.792
      vertex 0.146851 -62 30.0046
    endloop
  endfacet
  facet normal 0 -1 0
    outer loop
      vertex 59.5687 -62 213.792
      vertex 52.7715 -62 223.64
      vertex -12.0552 -62 27.411
    endloop
  endfacet
  facet normal 0 -1 0
    outer loop
      vertex 146.147 -62 515.005
      vertex 76.1469 -62 257.505
      vertex 87.765 -62 254.641
    endloop
  endfacet
  facet normal 0 -1 0
    outer loop
      vertex 146.147 -62 515.005
      vertex 87.765 -62 254.641
      vertex 96.7214 -62 246.706
    endloop
  endfacet
  facet normal 0 -1 0
    outer loop
      vertex 146.147 -62 515.005
      vertex 100.964 -62 235.518
      vertex 111.147 -62 20.0046
    endloop
  endfacet
  facet normal 0 -1 0
    outer loop
      vertex 146.147 -62 515.005
      vertex 96.7214 -62 246.706
      vertex 100.964 -62 235.518
    endloop
  endfacet
  facet normal 0 -1 0
    outer loop
      vertex 100.964 -62 235.518
      vertex 99.5222 -62 223.64
      vertex 111.147 -62 20.0046
    endloop
  endfacet
  facet normal 0 -1 0
    outer loop
      vertex 70.1639 -62 208.231
      vertex 0.146851 -62 30.0046
      vertex 82.1296 -62 208.231
    endloop
  endfacet
  facet normal 0 -1 0
    outer loop
      vertex 59.5687 -62 213.792
      vertex -12.0552 -62 27.411
      vertex 0.146851 -62 30.0046
    endloop
  endfacet
  facet normal 0 -1 0
    outer loop
      vertex 99.5222 -62 223.64
      vertex 92.7249 -62 213.792
      vertex 111.147 -62 20.0046
    endloop
  endfacet
  facet normal 0 -1 0
    outer loop
      vertex 64.5288 -62 254.641
      vertex 76.1469 -62 257.505
      vertex 146.147 -62 515.005
    endloop
  endfacet
  facet normal 0 -1 0
    outer loop
      vertex -25.8339 -62 -14.9954
      vertex -29.6888 -62 -3.13123
      vertex -49.7769 -62 -2.75708
    endloop
  endfacet
  facet normal -0.97069 0 0.240335
    outer loop
      vertex 76.1469 -62 515.005
      vertex 76.1469 -50 515.005
      vertex -48.3877 -62 12.0214
    endloop
  endfacet
  facet normal -0.97069 0 0.240335
    outer loop
      vertex -48.3877 -62 12.0214
      vertex 76.1469 -50 515.005
      vertex -48.3877 -50 12.0214
    endloop
  endfacet
  facet normal 0 1 0
    outer loop
      vertex -48.3877 -50 12.0214
      vertex 76.1469 -50 515.005
      vertex -49.7769 -50 -2.75708
    endloop
  endfacet
  facet normal 0 1 0
    outer loop
      vertex -49.7769 -50 -2.75708
      vertex 76.1469 -50 515.005
      vertex 146.147 -50 515.005
    endloop
  endfacet
  facet normal 0 1 0
    outer loop
      vertex 111.147 -50 20.0046
      vertex 146.147 -50 515.005
      vertex 146.147 -50 20.0046
    endloop
  endfacet
  facet normal 0 1 0
    outer loop
      vertex 99.5222 -50 223.64
      vertex 146.147 -50 515.005
      vertex 111.147 -50 20.0046
    endloop
  endfacet
  facet normal 0 1 0
    outer loop
      vertex 28.6785 -50 9.27515
      vertex 111.147 -50 20.0046
      vertex 29.9825 -50 -3.13123
    endloop
  endfacet
  facet normal 0 1 0
    outer loop
      vertex -29.6888 -50 -3.13123
      vertex -49.7769 -50 -2.75708
      vertex -28.3848 -50 9.27515
    endloop
  endfacet
  facet normal 0 1 0
    outer loop
      vertex 6.38428 -50 -29.3397
      vertex 107.233 -50 -22.0055
      vertex 13.5944 -50 -48.1531
    endloop
  endfacet
  facet normal 0 1 0
    outer loop
      vertex -49.7769 -50 -2.75708
      vertex 13.5944 -50 -48.1531
      vertex -1.1366 -50 -49.979
    endloop
  endfacet
  facet normal 0 1 0
    outer loop
      vertex -49.7769 -50 -2.75708
      vertex -1.1366 -50 -49.979
      vertex -15.7543 -50 -47.3995
    endloop
  endfacet
  facet normal 0 1 0
    outer loop
      vertex -49.7769 -50 -2.75708
      vertex -15.7543 -50 -47.3995
      vertex -28.9706 -50 -40.6422
    endloop
  endfacet
  facet normal 0 1 0
    outer loop
      vertex -49.7769 -50 -2.75708
      vertex -28.9706 -50 -40.6422
      vertex -39.6207 -50 -30.3027
    endloop
  endfacet
  facet normal 0 1 0
    outer loop
      vertex -49.7769 -50 -2.75708
      vertex -39.6207 -50 -30.3027
      vertex -46.7661 -50 -17.2921
    endloop
  endfacet
  facet normal 0 1 0
    outer loop
      vertex 29.9825 -50 -3.13123
      vertex 107.233 -50 -22.0055
      vertex 26.1276 -50 -14.9954
    endloop
  endfacet
  facet normal 0 1 0
    outer loop
      vertex -49.7769 -50 -2.75708
      vertex -25.8339 -50 -14.9954
      vertex -17.4867 -50 -24.2659
    endloop
  endfacet
  facet normal 0 1 0
    outer loop
      vertex -49.7769 -50 -2.75708
      vertex -17.4867 -50 -24.2659
      vertex 13.5944 -50 -48.1531
    endloop
  endfacet
  facet normal 0 1 0
    outer loop
      vertex 26.1276 -50 -14.9954
      vertex 107.233 -50 -22.0055
      vertex 17.7804 -50 -24.2659
    endloop
  endfacet
  facet normal 0 1 0
    outer loop
      vertex 17.7804 -50 -24.2659
      vertex 107.233 -50 -22.0055
      vertex 6.38428 -50 -29.3397
    endloop
  endfacet
  facet normal 0 1 0
    outer loop
      vertex -6.09058 -50 -29.3397
      vertex 6.38428 -50 -29.3397
      vertex 13.5944 -50 -48.1531
    endloop
  endfacet
  facet normal 0 1 0
    outer loop
      vertex -6.09058 -50 -29.3397
      vertex 13.5944 -50 -48.1531
      vertex -17.4867 -50 -24.2659
    endloop
  endfacet
  facet normal 0 1 0
    outer loop
      vertex -28.3848 -50 9.27515
      vertex -49.7769 -50 -2.75708
      vertex -22.1475 -50 20.0786
    endloop
  endfacet
  facet normal 0 1 0
    outer loop
      vertex 64.5288 -50 254.641
      vertex 146.147 -50 515.005
      vertex 76.1469 -50 257.505
    endloop
  endfacet
  facet normal 0 1 0
    outer loop
      vertex 70.1639 -50 208.231
      vertex 12.349 -50 27.411
      vertex 59.5687 -50 213.792
    endloop
  endfacet
  facet normal 0 1 0
    outer loop
      vertex 55.5723 -50 246.706
      vertex 146.147 -50 515.005
      vertex 64.5288 -50 254.641
    endloop
  endfacet
  facet normal 0 1 0
    outer loop
      vertex -49.7769 -50 -2.75708
      vertex 146.147 -50 515.005
      vertex -22.1475 -50 20.0786
    endloop
  endfacet
  facet normal 0 1 0
    outer loop
      vertex 52.7715 -50 223.64
      vertex -12.0552 -50 27.411
      vertex 51.3291 -50 235.518
    endloop
  endfacet
  facet normal 0 1 0
    outer loop
      vertex -22.1475 -50 20.0786
      vertex 146.147 -50 515.005
      vertex 51.3291 -50 235.518
    endloop
  endfacet
  facet normal 0 1 0
    outer loop
      vertex -22.1475 -50 20.0786
      vertex 51.3291 -50 235.518
      vertex -12.0552 -50 27.411
    endloop
  endfacet
  facet normal 0 1 0
    outer loop
      vertex 59.5687 -50 213.792
      vertex 0.146851 -50 30.0046
      vertex 52.7715 -50 223.64
    endloop
  endfacet
  facet normal 0 1 0
    outer loop
      vertex -12.0552 -50 27.411
      vertex 52.7715 -50 223.64
      vertex 0.146851 -50 30.0046
    endloop
  endfacet
  facet normal 0 1 0
    outer loop
      vertex 70.1639 -50 208.231
      vertex 22.4413 -50 20.0786
      vertex 12.349 -50 27.411
    endloop
  endfacet
  facet normal 0 1 0
    outer loop
      vertex 0.146851 -50 30.0046
      vertex 59.5687 -50 213.792
      vertex 12.349 -50 27.411
    endloop
  endfacet
  facet normal 0 1 0
    outer loop
      vertex 82.1296 -50 208.231
      vertex 28.6785 -50 9.27515
      vertex 70.1639 -50 208.231
    endloop
  endfacet
  facet normal 0 1 0
    outer loop
      vertex 22.4413 -50 20.0786
      vertex 70.1639 -50 208.231
      vertex 28.6785 -50 9.27515
    endloop
  endfacet
  facet normal 0 1 0
    outer loop
      vertex 76.1469 -50 257.505
      vertex 146.147 -50 515.005
      vertex 87.765 -50 254.641
    endloop
  endfacet
  facet normal 0 1 0
    outer loop
      vertex 28.6785 -50 9.27515
      vertex 82.1296 -50 208.231
      vertex 111.147 -50 20.0046
    endloop
  endfacet
  facet normal 0 1 0
    outer loop
      vertex 87.765 -50 254.641
      vertex 146.147 -50 515.005
      vertex 96.7214 -50 246.706
    endloop
  endfacet
  facet normal 0 1 0
    outer loop
      vertex 82.1296 -50 208.231
      vertex 92.7249 -50 213.792
      vertex 111.147 -50 20.0046
    endloop
  endfacet
  facet normal 0 1 0
    outer loop
      vertex 100.964 -50 235.518
      vertex 146.147 -50 515.005
      vertex 99.5222 -50 223.64
    endloop
  endfacet
  facet normal 0 1 0
    outer loop
      vertex 92.7249 -50 213.792
      vertex 99.5222 -50 223.64
      vertex 111.147 -50 20.0046
    endloop
  endfacet
  facet normal 0 1 0
    outer loop
      vertex 96.7214 -50 246.706
      vertex 146.147 -50 515.005
      vertex 100.964 -50 235.518
    endloop
  endfacet
  facet normal 0 1 0
    outer loop
      vertex 51.3291 -50 235.518
      vertex 146.147 -50 515.005
      vertex 55.5723 -50 246.706
    endloop
  endfacet
  facet normal 0 1 0
    outer loop
      vertex -25.8339 -50 -14.9954
      vertex -49.7769 -50 -2.75708
      vertex -29.6888 -50 -3.13123
    endloop
  endfacet
  facet normal 0 1 0
    outer loop
      vertex 107.233 -50 -22.0055
      vertex 29.9825 -50 -3.13123
      vertex 111.147 -50 20.0046
    endloop
  endfacet
  facet normal -0.195095 0.980784 0
    outer loop
      vertex 146.147 -50 515.005
      vertex 149.208 -49.391 515.005
      vertex 146.147 -50 20.0046
    endloop
  endfacet
  facet normal -0.195095 0.980784 0
    outer loop
      vertex 146.147 -50 20.0046
      vertex 149.208 -49.391 515.005
      vertex 149.208 -49.391 20.0046
    endloop
  endfacet
  facet normal -0.555559 0.831477 0
    outer loop
      vertex 149.208 -49.391 515.005
      vertex 151.804 -47.6569 515.005
      vertex 149.208 -49.391 20.0046
    endloop
  endfacet
  facet normal -0.555559 0.831477 0
    outer loop
      vertex 149.208 -49.391 20.0046
      vertex 151.804 -47.6569 515.005
      vertex 151.804 -47.6569 20.0046
    endloop
  endfacet
  facet normal -0.831477 0.555559 0
    outer loop
      vertex 151.804 -47.6569 515.005
      vertex 153.538 -45.0615 515.005
      vertex 151.804 -47.6569 20.0046
    endloop
  endfacet
  facet normal -0.831477 0.555559 0
    outer loop
      vertex 151.804 -47.6569 20.0046
      vertex 153.538 -45.0615 515.005
      vertex 153.538 -45.0615 20.0046
    endloop
  endfacet
  facet normal -0.980783 0.195104 0
    outer loop
      vertex 153.538 -45.0615 515.005
      vertex 154.147 -42 515.005
      vertex 153.538 -45.0615 20.0046
    endloop
  endfacet
  facet normal -0.980783 0.195104 0
    outer loop
      vertex 153.538 -45.0615 20.0046
      vertex 154.147 -42 515.005
      vertex 154.147 -42 20.0046
    endloop
  endfacet
  facet normal -1 0 0
    outer loop
      vertex 154.147 -42 515.005
      vertex 154.147 42 515.005
      vertex 154.147 -42 20.0046
    endloop
  endfacet
  facet normal -1 0 0
    outer loop
      vertex 154.147 -42 20.0046
      vertex 154.147 42 515.005
      vertex 154.147 42 20.0046
    endloop
  endfacet
  facet normal -0.965927 -0.258815 0
    outer loop
      vertex 154.147 42 20.0046
      vertex 154.147 42 515.005
      vertex 153.075 46 20.0046
    endloop
  endfacet
  facet normal -0.965927 -0.258815 0
    outer loop
      vertex 153.075 46 20.0046
      vertex 154.147 42 515.005
      vertex 153.075 46 515.005
    endloop
  endfacet
  facet normal -0.707105 -0.707109 0
    outer loop
      vertex 150.147 48.9282 20.0046
      vertex 153.075 46 20.0046
      vertex 153.075 46 515.005
    endloop
  endfacet
  facet normal -0.707105 -0.707109 0
    outer loop
      vertex 150.147 48.9282 515.005
      vertex 150.147 48.9282 20.0046
      vertex 153.075 46 515.005
    endloop
  endfacet
  facet normal -0.258819 -0.965926 0
    outer loop
      vertex 146.147 50 20.0046
      vertex 150.147 48.9282 20.0046
      vertex 150.147 48.9282 515.005
    endloop
  endfacet
  facet normal -0.258819 -0.965926 0
    outer loop
      vertex 146.147 50 515.005
      vertex 146.147 50 20.0046
      vertex 150.147 48.9282 515.005
    endloop
  endfacet
  facet normal 0 1 0
    outer loop
      vertex -48.3877 62 12.0214
      vertex 76.1469 62 515.005
      vertex -49.7769 62 -2.75708
    endloop
  endfacet
  facet normal 0 1 0
    outer loop
      vertex -49.7769 62 -2.75708
      vertex 76.1469 62 515.005
      vertex 146.147 62 515.005
    endloop
  endfacet
  facet normal 0 1 0
    outer loop
      vertex 111.147 62 20.0046
      vertex 146.147 62 515.005
      vertex 146.147 62 20.0046
    endloop
  endfacet
  facet normal 0 1 0
    outer loop
      vertex 99.5222 62 223.64
      vertex 146.147 62 515.005
      vertex 111.147 62 20.0046
    endloop
  endfacet
  facet normal 0 1 0
    outer loop
      vertex 28.6785 62 9.27515
      vertex 111.147 62 20.0046
      vertex 29.9825 62 -3.13123
    endloop
  endfacet
  facet normal 0 1 0
    outer loop
      vertex 59.5687 62 213.792
      vertex 111.147 62 20.0046
      vertex 52.7715 62 223.64
    endloop
  endfacet
  facet normal 0 1 0
    outer loop
      vertex 6.38428 62 -29.3397
      vertex 107.233 62 -22.0055
      vertex 13.5944 62 -48.1531
    endloop
  endfacet
  facet normal 0 1 0
    outer loop
      vertex -49.7769 62 -2.75708
      vertex 13.5944 62 -48.1531
      vertex -1.1366 62 -49.979
    endloop
  endfacet
  facet normal 0 1 0
    outer loop
      vertex -49.7769 62 -2.75708
      vertex -1.1366 62 -49.979
      vertex -15.7543 62 -47.3995
    endloop
  endfacet
  facet normal 0 1 0
    outer loop
      vertex -49.7769 62 -2.75708
      vertex -15.7543 62 -47.3995
      vertex -28.9706 62 -40.6422
    endloop
  endfacet
  facet normal 0 1 0
    outer loop
      vertex -49.7769 62 -2.75708
      vertex -28.9706 62 -40.6422
      vertex -39.6207 62 -30.3027
    endloop
  endfacet
  facet normal 0 1 0
    outer loop
      vertex -49.7769 62 -2.75708
      vertex -39.6207 62 -30.3027
      vertex -46.7661 62 -17.2921
    endloop
  endfacet
  facet normal 0 1 0
    outer loop
      vertex -49.7769 62 -2.75708
      vertex 146.147 62 515.005
      vertex 51.3291 62 235.518
    endloop
  endfacet
  facet normal 0 1 0
    outer loop
      vertex -49.7769 62 -2.75708
      vertex 51.3291 62 235.518
      vertex 52.7715 62 223.64
    endloop
  endfacet
  facet normal 0 1 0
    outer loop
      vertex 28.6785 62 9.27515
      vertex 52.7715 62 223.64
      vertex 111.147 62 20.0046
    endloop
  endfacet
  facet normal 0 1 0
    outer loop
      vertex -29.6888 62 -3.13123
      vertex -49.7769 62 -2.75708
      vertex -28.3848 62 9.27515
    endloop
  endfacet
  facet normal 0 1 0
    outer loop
      vertex 96.7214 62 246.706
      vertex 146.147 62 515.005
      vertex 100.964 62 235.518
    endloop
  endfacet
  facet normal 0 1 0
    outer loop
      vertex 64.5288 62 254.641
      vertex 146.147 62 515.005
      vertex 76.1469 62 257.505
    endloop
  endfacet
  facet normal 0 1 0
    outer loop
      vertex 59.5687 62 213.792
      vertex 70.1639 62 208.231
      vertex 111.147 62 20.0046
    endloop
  endfacet
  facet normal 0 1 0
    outer loop
      vertex 76.1469 62 257.505
      vertex 146.147 62 515.005
      vertex 87.765 62 254.641
    endloop
  endfacet
  facet normal 0 1 0
    outer loop
      vertex 70.1639 62 208.231
      vertex 82.1296 62 208.231
      vertex 111.147 62 20.0046
    endloop
  endfacet
  facet normal 0 1 0
    outer loop
      vertex 87.765 62 254.641
      vertex 146.147 62 515.005
      vertex 96.7214 62 246.706
    endloop
  endfacet
  facet normal 0 1 0
    outer loop
      vertex 82.1296 62 208.231
      vertex 92.7249 62 213.792
      vertex 111.147 62 20.0046
    endloop
  endfacet
  facet normal 0 1 0
    outer loop
      vertex 100.964 62 235.518
      vertex 146.147 62 515.005
      vertex 99.5222 62 223.64
    endloop
  endfacet
  facet normal 0 1 0
    outer loop
      vertex 92.7249 62 213.792
      vertex 99.5222 62 223.64
      vertex 111.147 62 20.0046
    endloop
  endfacet
  facet normal 0 1 0
    outer loop
      vertex 55.5723 62 246.706
      vertex 146.147 62 515.005
      vertex 64.5288 62 254.641
    endloop
  endfacet
  facet normal 0 1 0
    outer loop
      vertex 51.3291 62 235.518
      vertex 146.147 62 515.005
      vertex 55.5723 62 246.706
    endloop
  endfacet
  facet normal 0 1 0
    outer loop
      vertex 29.9825 62 -3.13123
      vertex 107.233 62 -22.0055
      vertex 26.1276 62 -14.9954
    endloop
  endfacet
  facet normal 0 1 0
    outer loop
      vertex -49.7769 62 -2.75708
      vertex -25.8339 62 -14.9954
      vertex -17.4867 62 -24.2659
    endloop
  endfacet
  facet normal 0 1 0
    outer loop
      vertex -49.7769 62 -2.75708
      vertex -17.4867 62 -24.2659
      vertex 13.5944 62 -48.1531
    endloop
  endfacet
  facet normal 0 1 0
    outer loop
      vertex 26.1276 62 -14.9954
      vertex 107.233 62 -22.0055
      vertex 17.7804 62 -24.2659
    endloop
  endfacet
  facet normal 0 1 0
    outer loop
      vertex 17.7804 62 -24.2659
      vertex 107.233 62 -22.0055
      vertex 6.38428 62 -29.3397
    endloop
  endfacet
  facet normal 0 1 0
    outer loop
      vertex -6.09058 62 -29.3397
      vertex 6.38428 62 -29.3397
      vertex 13.5944 62 -48.1531
    endloop
  endfacet
  facet normal 0 1 0
    outer loop
      vertex -6.09058 62 -29.3397
      vertex 13.5944 62 -48.1531
      vertex -17.4867 62 -24.2659
    endloop
  endfacet
  facet normal 0 1 0
    outer loop
      vertex -28.3848 62 9.27515
      vertex -49.7769 62 -2.75708
      vertex -22.1475 62 20.0786
    endloop
  endfacet
  facet normal 0 1 0
    outer loop
      vertex 22.4413 62 20.0786
      vertex 52.7715 62 223.64
      vertex 28.6785 62 9.27515
    endloop
  endfacet
  facet normal 0 1 0
    outer loop
      vertex 12.349 62 27.411
      vertex 52.7715 62 223.64
      vertex 22.4413 62 20.0786
    endloop
  endfacet
  facet normal 0 1 0
    outer loop
      vertex 0.146851 62 30.0046
      vertex 52.7715 62 223.64
      vertex 12.349 62 27.411
    endloop
  endfacet
  facet normal 0 1 0
    outer loop
      vertex -12.0552 62 27.411
      vertex 52.7715 62 223.64
      vertex 0.146851 62 30.0046
    endloop
  endfacet
  facet normal 0 1 0
    outer loop
      vertex -22.1475 62 20.0786
      vertex 52.7715 62 223.64
      vertex -12.0552 62 27.411
    endloop
  endfacet
  facet normal 0 1 0
    outer loop
      vertex -49.7769 62 -2.75708
      vertex 52.7715 62 223.64
      vertex -22.1475 62 20.0786
    endloop
  endfacet
  facet normal 0 1 0
    outer loop
      vertex -25.8339 62 -14.9954
      vertex -49.7769 62 -2.75708
      vertex -29.6888 62 -3.13123
    endloop
  endfacet
  facet normal 0 1 0
    outer loop
      vertex 107.233 62 -22.0055
      vertex 29.9825 62 -3.13123
      vertex 111.147 62 20.0046
    endloop
  endfacet
  facet normal 0.195093 0.980785 0
    outer loop
      vertex 146.147 62 515.005
      vertex 153.8 60.4776 515.005
      vertex 146.147 62 20.0046
    endloop
  endfacet
  facet normal 0.195093 0.980785 0
    outer loop
      vertex 146.147 62 20.0046
      vertex 153.8 60.4776 515.005
      vertex 153.8 60.4776 20.0046
    endloop
  endfacet
  facet normal 0.55556 0.831477 0
    outer loop
      vertex 153.8 60.4776 515.005
      vertex 160.289 56.1421 515.005
      vertex 153.8 60.4776 20.0046
    endloop
  endfacet
  facet normal 0.55556 0.831477 0
    outer loop
      vertex 153.8 60.4776 20.0046
      vertex 160.289 56.1421 515.005
      vertex 160.289 56.1421 20.0046
    endloop
  endfacet
  facet normal 0.831477 0.555559 0
    outer loop
      vertex 160.289 56.1421 20.0046
      vertex 160.289 56.1421 515.005
      vertex 164.624 49.6537 515.005
    endloop
  endfacet
  facet normal 0.831477 0.555559 0
    outer loop
      vertex 164.624 49.6537 20.0046
      vertex 160.289 56.1421 20.0046
      vertex 164.624 49.6537 515.005
    endloop
  endfacet
  facet normal 0.980784 0.195097 0
    outer loop
      vertex 164.624 49.6537 20.0046
      vertex 164.624 49.6537 515.005
      vertex 166.147 42 515.005
    endloop
  endfacet
  facet normal 0.980784 0.195097 0
    outer loop
      vertex 166.147 42 20.0046
      vertex 164.624 49.6537 20.0046
      vertex 166.147 42 515.005
    endloop
  endfacet
  facet normal 1 0 0
    outer loop
      vertex 166.147 -42 20.0046
      vertex 166.147 42 20.0046
      vertex 166.147 42 515.005
    endloop
  endfacet
  facet normal 1 0 0
    outer loop
      vertex 166.147 -42 515.005
      vertex 166.147 -42 20.0046
      vertex 166.147 42 515.005
    endloop
  endfacet
  facet normal 0.965927 -0.258815 0
    outer loop
      vertex 163.467 -52 20.0046
      vertex 166.147 -42 20.0046
      vertex 166.147 -42 515.005
    endloop
  endfacet
  facet normal 0.965927 -0.258815 0
    outer loop
      vertex 163.467 -52 515.005
      vertex 163.467 -52 20.0046
      vertex 166.147 -42 515.005
    endloop
  endfacet
  facet normal 0.707105 -0.707109 0
    outer loop
      vertex 156.147 -59.3205 20.0046
      vertex 163.467 -52 20.0046
      vertex 163.467 -52 515.005
    endloop
  endfacet
  facet normal 0.707105 -0.707109 0
    outer loop
      vertex 156.147 -59.3205 515.005
      vertex 156.147 -59.3205 20.0046
      vertex 163.467 -52 515.005
    endloop
  endfacet
  facet normal 0.258819 -0.965926 0
    outer loop
      vertex 146.147 -62 20.0046
      vertex 156.147 -59.3205 20.0046
      vertex 156.147 -59.3205 515.005
    endloop
  endfacet
  facet normal 0.258819 -0.965926 0
    outer loop
      vertex 146.147 -62 515.005
      vertex 146.147 -62 20.0046
      vertex 156.147 -59.3205 515.005
    endloop
  endfacet
  facet normal -0.979214 0 -0.202831
    outer loop
      vertex -49.7769 62 -2.75708
      vertex -46.7661 62 -17.2921
      vertex -49.7769 50 -2.75708
    endloop
  endfacet
  facet normal -0.979214 0 -0.202831
    outer loop
      vertex -49.7769 50 -2.75708
      vertex -46.7661 62 -17.2921
      vertex -46.7661 50 -17.2921
    endloop
  endfacet
  facet normal -0.995611 0 0.0935865
    outer loop
      vertex -48.3877 50 12.0214
      vertex -48.3877 62 12.0214
      vertex -49.7769 50 -2.75708
    endloop
  endfacet
  facet normal -0.995611 0 0.0935865
    outer loop
      vertex -49.7769 50 -2.75708
      vertex -48.3877 62 12.0214
      vertex -49.7769 62 -2.75708
    endloop
  endfacet
  facet normal 0 0 -1
    outer loop
      vertex 111.147 -50 20.0046
      vertex 146.147 -50 20.0046
      vertex 111.147 -62 20.0046
    endloop
  endfacet
  facet normal 0 0 -1
    outer loop
      vertex 111.147 -62 20.0046
      vertex 146.147 -50 20.0046
      vertex 149.208 -49.391 20.0046
    endloop
  endfacet
  facet normal 0 0 -1
    outer loop
      vertex 151.804 -47.6569 20.0046
      vertex 166.147 -42 20.0046
      vertex 149.208 -49.391 20.0046
    endloop
  endfacet
  facet normal 0 0 -1
    outer loop
      vertex 153.538 -45.0615 20.0046
      vertex 166.147 -42 20.0046
      vertex 151.804 -47.6569 20.0046
    endloop
  endfacet
  facet normal 0 0 -1
    outer loop
      vertex 146.147 50 20.0046
      vertex 111.147 50 20.0046
      vertex 111.147 62 20.0046
    endloop
  endfacet
  facet normal 0 0 -1
    outer loop
      vertex 146.147 50 20.0046
      vertex 111.147 62 20.0046
      vertex 150.147 48.9282 20.0046
    endloop
  endfacet
  facet normal 0 0 -1
    outer loop
      vertex 150.147 48.9282 20.0046
      vertex 111.147 62 20.0046
      vertex 146.147 62 20.0046
    endloop
  endfacet
  facet normal 0 0 -1
    outer loop
      vertex 150.147 48.9282 20.0046
      vertex 146.147 62 20.0046
      vertex 153.075 46 20.0046
    endloop
  endfacet
  facet normal 0 0 -1
    outer loop
      vertex 153.075 46 20.0046
      vertex 146.147 62 20.0046
      vertex 153.8 60.4776 20.0046
    endloop
  endfacet
  facet normal 0 0 -1
    outer loop
      vertex 153.075 46 20.0046
      vertex 153.8 60.4776 20.0046
      vertex 154.147 42 20.0046
    endloop
  endfacet
  facet normal 0 0 -1
    outer loop
      vertex 154.147 42 20.0046
      vertex 153.8 60.4776 20.0046
      vertex 160.289 56.1421 20.0046
    endloop
  endfacet
  facet normal 0 0 -1
    outer loop
      vertex 154.147 42 20.0046
      vertex 160.289 56.1421 20.0046
      vertex 154.147 -42 20.0046
    endloop
  endfacet
  facet normal 0 0 -1
    outer loop
      vertex 154.147 -42 20.0046
      vertex 160.289 56.1421 20.0046
      vertex 164.624 49.6537 20.0046
    endloop
  endfacet
  facet normal 0 0 -1
    outer loop
      vertex 154.147 -42 20.0046
      vertex 164.624 49.6537 20.0046
      vertex 166.147 42 20.0046
    endloop
  endfacet
  facet normal 0 0 -1
    outer loop
      vertex 154.147 -42 20.0046
      vertex 166.147 42 20.0046
      vertex 166.147 -42 20.0046
    endloop
  endfacet
  facet normal 0 0 -1
    outer loop
      vertex 154.147 -42 20.0046
      vertex 166.147 -42 20.0046
      vertex 153.538 -45.0615 20.0046
    endloop
  endfacet
  facet normal 0 0 -1
    outer loop
      vertex 149.208 -49.391 20.0046
      vertex 166.147 -42 20.0046
      vertex 163.467 -52 20.0046
    endloop
  endfacet
  facet normal 0 0 -1
    outer loop
      vertex 149.208 -49.391 20.0046
      vertex 163.467 -52 20.0046
      vertex 111.147 -62 20.0046
    endloop
  endfacet
  facet normal 0 0 -1
    outer loop
      vertex 111.147 -62 20.0046
      vertex 163.467 -52 20.0046
      vertex 156.147 -59.3205 20.0046
    endloop
  endfacet
  facet normal 0 0 -1
    outer loop
      vertex 111.147 -62 20.0046
      vertex 156.147 -59.3205 20.0046
      vertex 146.147 -62 20.0046
    endloop
  endfacet
  facet normal 0.995688 0 -0.0927649
    outer loop
      vertex 107.233 50 -22.0055
      vertex 107.233 62 -22.0055
      vertex 111.147 62 20.0046
    endloop
  endfacet
  facet normal 0.995688 0 -0.0927649
    outer loop
      vertex 111.147 50 20.0046
      vertex 107.233 50 -22.0055
      vertex 111.147 62 20.0046
    endloop
  endfacet
  facet normal 0.268951 0 -0.963154
    outer loop
      vertex 13.5944 62 -48.1531
      vertex 107.233 62 -22.0055
      vertex 13.5944 50 -48.1531
    endloop
  endfacet
  facet normal 0.268951 0 -0.963154
    outer loop
      vertex 13.5944 50 -48.1531
      vertex 107.233 62 -22.0055
      vertex 107.233 50 -22.0055
    endloop
  endfacet
  facet normal 0.12301 0 -0.992405
    outer loop
      vertex -1.1366 62 -49.979
      vertex 13.5944 62 -48.1531
      vertex -1.1366 50 -49.979
    endloop
  endfacet
  facet normal 0.12301 0 -0.992405
    outer loop
      vertex -1.1366 50 -49.979
      vertex 13.5944 62 -48.1531
      vertex 13.5944 50 -48.1531
    endloop
  endfacet
  facet normal -0.173777 0 -0.984785
    outer loop
      vertex -15.7543 62 -47.3995
      vertex -1.1366 62 -49.979
      vertex -15.7543 50 -47.3995
    endloop
  endfacet
  facet normal -0.173777 0 -0.984785
    outer loop
      vertex -15.7543 50 -47.3995
      vertex -1.1366 62 -49.979
      vertex -1.1366 50 -49.979
    endloop
  endfacet
  facet normal -0.455235 0 -0.890371
    outer loop
      vertex -28.9706 62 -40.6422
      vertex -15.7543 62 -47.3995
      vertex -28.9706 50 -40.6422
    endloop
  endfacet
  facet normal -0.455235 0 -0.890371
    outer loop
      vertex -28.9706 50 -40.6422
      vertex -15.7543 62 -47.3995
      vertex -15.7543 50 -47.3995
    endloop
  endfacet
  facet normal -0.696565 0 -0.717494
    outer loop
      vertex -39.6207 62 -30.3027
      vertex -28.9706 62 -40.6422
      vertex -39.6207 50 -30.3027
    endloop
  endfacet
  facet normal -0.696565 0 -0.717494
    outer loop
      vertex -39.6207 50 -30.3027
      vertex -28.9706 62 -40.6422
      vertex -28.9706 50 -40.6422
    endloop
  endfacet
  facet normal -0.876513 0 -0.481378
    outer loop
      vertex -46.7661 62 -17.2921
      vertex -39.6207 62 -30.3027
      vertex -46.7661 50 -17.2921
    endloop
  endfacet
  facet normal -0.876513 0 -0.481378
    outer loop
      vertex -46.7661 50 -17.2921
      vertex -39.6207 62 -30.3027
      vertex -39.6207 50 -30.3027
    endloop
  endfacet
  facet normal 0.992708 0 0.120542
    outer loop
      vertex 51.3291 50 235.518
      vertex 52.7715 50 223.64
      vertex 52.7715 62 223.64
    endloop
  endfacet
  facet normal 0.992708 0 0.120542
    outer loop
      vertex 51.3291 62 235.518
      vertex 51.3291 50 235.518
      vertex 52.7715 62 223.64
    endloop
  endfacet
  facet normal 0.935015 0 -0.354607
    outer loop
      vertex 51.3291 50 235.518
      vertex 51.3291 62 235.518
      vertex 55.5723 62 246.706
    endloop
  endfacet
  facet normal 0.935015 0 -0.354607
    outer loop
      vertex 55.5723 50 246.706
      vertex 51.3291 50 235.518
      vertex 55.5723 62 246.706
    endloop
  endfacet
  facet normal 0.822988 0 0.568059
    outer loop
      vertex 52.7715 50 223.64
      vertex 59.5687 50 213.792
      vertex 59.5687 62 213.792
    endloop
  endfacet
  facet normal 0.822988 0 0.568059
    outer loop
      vertex 52.7715 62 223.64
      vertex 52.7715 50 223.64
      vertex 59.5687 62 213.792
    endloop
  endfacet
  facet normal 0.464723 0 0.885456
    outer loop
      vertex 59.5687 50 213.792
      vertex 70.1639 50 208.231
      vertex 70.1639 62 208.231
    endloop
  endfacet
  facet normal 0.464723 0 0.885456
    outer loop
      vertex 59.5687 62 213.792
      vertex 59.5687 50 213.792
      vertex 70.1639 62 208.231
    endloop
  endfacet
  facet normal 0 0 1
    outer loop
      vertex 70.1639 50 208.231
      vertex 82.1296 50 208.231
      vertex 82.1296 62 208.231
    endloop
  endfacet
  facet normal 0 0 1
    outer loop
      vertex 70.1639 62 208.231
      vertex 70.1639 50 208.231
      vertex 82.1296 62 208.231
    endloop
  endfacet
  facet normal -0.464723 0 0.885456
    outer loop
      vertex 82.1296 50 208.231
      vertex 92.7249 50 213.792
      vertex 92.7249 62 213.792
    endloop
  endfacet
  facet normal -0.464723 0 0.885456
    outer loop
      vertex 82.1296 62 208.231
      vertex 82.1296 50 208.231
      vertex 92.7249 62 213.792
    endloop
  endfacet
  facet normal -0.822983 0 0.568066
    outer loop
      vertex 99.5222 50 223.64
      vertex 99.5222 62 223.64
      vertex 92.7249 50 213.792
    endloop
  endfacet
  facet normal -0.822983 0 0.568066
    outer loop
      vertex 92.7249 50 213.792
      vertex 99.5222 62 223.64
      vertex 92.7249 62 213.792
    endloop
  endfacet
  facet normal -0.992709 0 0.120532
    outer loop
      vertex 100.964 50 235.518
      vertex 100.964 62 235.518
      vertex 99.5222 50 223.64
    endloop
  endfacet
  facet normal -0.992709 0 0.120532
    outer loop
      vertex 99.5222 50 223.64
      vertex 100.964 62 235.518
      vertex 99.5222 62 223.64
    endloop
  endfacet
  facet normal -0.935019 0 -0.354598
    outer loop
      vertex 96.7214 62 246.706
      vertex 100.964 62 235.518
      vertex 96.7214 50 246.706
    endloop
  endfacet
  facet normal -0.935019 0 -0.354598
    outer loop
      vertex 96.7214 50 246.706
      vertex 100.964 62 235.518
      vertex 100.964 50 235.518
    endloop
  endfacet
  facet normal -0.663128 0 -0.748506
    outer loop
      vertex 87.765 62 254.641
      vertex 96.7214 62 246.706
      vertex 87.765 50 254.641
    endloop
  endfacet
  facet normal -0.663128 0 -0.748506
    outer loop
      vertex 87.765 50 254.641
      vertex 96.7214 62 246.706
      vertex 96.7214 50 246.706
    endloop
  endfacet
  facet normal -0.239308 0 -0.970944
    outer loop
      vertex 76.1469 62 257.505
      vertex 87.765 62 254.641
      vertex 76.1469 50 257.505
    endloop
  endfacet
  facet normal -0.239308 0 -0.970944
    outer loop
      vertex 76.1469 50 257.505
      vertex 87.765 62 254.641
      vertex 87.765 50 254.641
    endloop
  endfacet
  facet normal 0.239311 0 -0.970943
    outer loop
      vertex 64.5288 62 254.641
      vertex 76.1469 62 257.505
      vertex 64.5288 50 254.641
    endloop
  endfacet
  facet normal 0.239311 0 -0.970943
    outer loop
      vertex 64.5288 50 254.641
      vertex 76.1469 62 257.505
      vertex 76.1469 50 257.505
    endloop
  endfacet
  facet normal 0.663123 0 -0.74851
    outer loop
      vertex 55.5723 62 246.706
      vertex 64.5288 62 254.641
      vertex 55.5723 50 246.706
    endloop
  endfacet
  facet normal 0.663123 0 -0.74851
    outer loop
      vertex 55.5723 50 246.706
      vertex 64.5288 62 254.641
      vertex 64.5288 50 254.641
    endloop
  endfacet
  facet normal 0.951054 0 0.309024
    outer loop
      vertex -29.6888 50 -3.13123
      vertex -25.8339 50 -14.9954
      vertex -25.8339 62 -14.9954
    endloop
  endfacet
  facet normal 0.951054 0 0.309024
    outer loop
      vertex -29.6888 62 -3.13123
      vertex -29.6888 50 -3.13123
      vertex -25.8339 62 -14.9954
    endloop
  endfacet
  facet normal 0.994521 0 -0.104538
    outer loop
      vertex -29.6888 50 -3.13123
      vertex -29.6888 62 -3.13123
      vertex -28.3848 62 9.27515
    endloop
  endfacet
  facet normal 0.994521 0 -0.104538
    outer loop
      vertex -28.3848 50 9.27515
      vertex -29.6888 50 -3.13123
      vertex -28.3848 62 9.27515
    endloop
  endfacet
  facet normal 0.743146 0 0.669129
    outer loop
      vertex -25.8339 50 -14.9954
      vertex -17.4867 50 -24.2659
      vertex -17.4867 62 -24.2659
    endloop
  endfacet
  facet normal 0.743146 0 0.669129
    outer loop
      vertex -25.8339 62 -14.9954
      vertex -25.8339 50 -14.9954
      vertex -17.4867 62 -24.2659
    endloop
  endfacet
  facet normal 0.406735 0 0.913546
    outer loop
      vertex -17.4867 50 -24.2659
      vertex -6.09058 50 -29.3397
      vertex -6.09058 62 -29.3397
    endloop
  endfacet
  facet normal 0.406735 0 0.913546
    outer loop
      vertex -17.4867 62 -24.2659
      vertex -17.4867 50 -24.2659
      vertex -6.09058 62 -29.3397
    endloop
  endfacet
  facet normal 0 0 1
    outer loop
      vertex -6.09058 50 -29.3397
      vertex 6.38428 50 -29.3397
      vertex 6.38428 62 -29.3397
    endloop
  endfacet
  facet normal 0 0 1
    outer loop
      vertex -6.09058 62 -29.3397
      vertex -6.09058 50 -29.3397
      vertex 6.38428 62 -29.3397
    endloop
  endfacet
  facet normal -0.406735 0 0.913546
    outer loop
      vertex 6.38428 50 -29.3397
      vertex 17.7804 50 -24.2659
      vertex 17.7804 62 -24.2659
    endloop
  endfacet
  facet normal -0.406735 0 0.913546
    outer loop
      vertex 6.38428 62 -29.3397
      vertex 6.38428 50 -29.3397
      vertex 17.7804 62 -24.2659
    endloop
  endfacet
  facet normal -0.743146 0 0.669129
    outer loop
      vertex 26.1276 50 -14.9954
      vertex 26.1276 62 -14.9954
      vertex 17.7804 50 -24.2659
    endloop
  endfacet
  facet normal -0.743146 0 0.669129
    outer loop
      vertex 17.7804 50 -24.2659
      vertex 26.1276 62 -14.9954
      vertex 17.7804 62 -24.2659
    endloop
  endfacet
  facet normal -0.951054 0 0.309024
    outer loop
      vertex 29.9825 50 -3.13123
      vertex 29.9825 62 -3.13123
      vertex 26.1276 50 -14.9954
    endloop
  endfacet
  facet normal -0.951054 0 0.309024
    outer loop
      vertex 26.1276 50 -14.9954
      vertex 29.9825 62 -3.13123
      vertex 26.1276 62 -14.9954
    endloop
  endfacet
  facet normal -0.994521 0 -0.104538
    outer loop
      vertex 28.6785 62 9.27515
      vertex 29.9825 62 -3.13123
      vertex 28.6785 50 9.27515
    endloop
  endfacet
  facet normal -0.994521 0 -0.104538
    outer loop
      vertex 28.6785 50 9.27515
      vertex 29.9825 62 -3.13123
      vertex 29.9825 50 -3.13123
    endloop
  endfacet
  facet normal -0.866032 0 -0.499988
    outer loop
      vertex 22.4413 62 20.0786
      vertex 28.6785 62 9.27515
      vertex 22.4413 50 20.0786
    endloop
  endfacet
  facet normal -0.866032 0 -0.499988
    outer loop
      vertex 22.4413 50 20.0786
      vertex 28.6785 62 9.27515
      vertex 28.6785 50 9.27515
    endloop
  endfacet
  facet normal -0.587781 0 -0.80902
    outer loop
      vertex 12.349 62 27.411
      vertex 22.4413 62 20.0786
      vertex 12.349 50 27.411
    endloop
  endfacet
  facet normal -0.587781 0 -0.80902
    outer loop
      vertex 12.349 50 27.411
      vertex 22.4413 62 20.0786
      vertex 22.4413 50 20.0786
    endloop
  endfacet
  facet normal -0.20791 0 -0.978148
    outer loop
      vertex 0.146851 62 30.0046
      vertex 12.349 62 27.411
      vertex 0.146851 50 30.0046
    endloop
  endfacet
  facet normal -0.20791 0 -0.978148
    outer loop
      vertex 0.146851 50 30.0046
      vertex 12.349 62 27.411
      vertex 12.349 50 27.411
    endloop
  endfacet
  facet normal 0.207912 0 -0.978147
    outer loop
      vertex -12.0552 62 27.411
      vertex 0.146851 62 30.0046
      vertex -12.0552 50 27.411
    endloop
  endfacet
  facet normal 0.207912 0 -0.978147
    outer loop
      vertex -12.0552 50 27.411
      vertex 0.146851 62 30.0046
      vertex 0.146851 50 30.0046
    endloop
  endfacet
  facet normal 0.587781 0 -0.80902
    outer loop
      vertex -22.1475 62 20.0786
      vertex -12.0552 62 27.411
      vertex -22.1475 50 20.0786
    endloop
  endfacet
  facet normal 0.587781 0 -0.80902
    outer loop
      vertex -22.1475 50 20.0786
      vertex -12.0552 62 27.411
      vertex -12.0552 50 27.411
    endloop
  endfacet
  facet normal 0.866028 0 -0.499995
    outer loop
      vertex -28.3848 50 9.27515
      vertex -28.3848 62 9.27515
      vertex -22.1475 62 20.0786
    endloop
  endfacet
  facet normal 0.866028 0 -0.499995
    outer loop
      vertex -22.1475 50 20.0786
      vertex -28.3848 50 9.27515
      vertex -22.1475 62 20.0786
    endloop
  endfacet
  facet normal -0.979214 0 -0.202831
    outer loop
      vertex -49.7769 -50 -2.75708
      vertex -46.7661 -50 -17.2921
      vertex -49.7769 -62 -2.75708
    endloop
  endfacet
  facet normal -0.979214 0 -0.202831
    outer loop
      vertex -49.7769 -62 -2.75708
      vertex -46.7661 -50 -17.2921
      vertex -46.7661 -62 -17.2921
    endloop
  endfacet
  facet normal -0.995611 0 0.0935865
    outer loop
      vertex -48.3877 -62 12.0214
      vertex -48.3877 -50 12.0214
      vertex -49.7769 -62 -2.75708
    endloop
  endfacet
  facet normal -0.995611 0 0.0935865
    outer loop
      vertex -49.7769 -62 -2.75708
      vertex -48.3877 -50 12.0214
      vertex -49.7769 -50 -2.75708
    endloop
  endfacet
  facet normal 0.995688 0 -0.0927649
    outer loop
      vertex 107.233 -62 -22.0055
      vertex 107.233 -50 -22.0055
      vertex 111.147 -50 20.0046
    endloop
  endfacet
  facet normal 0.995688 0 -0.0927649
    outer loop
      vertex 111.147 -62 20.0046
      vertex 107.233 -62 -22.0055
      vertex 111.147 -50 20.0046
    endloop
  endfacet
  facet normal 0.268951 0 -0.963154
    outer loop
      vertex 13.5944 -50 -48.1531
      vertex 107.233 -50 -22.0055
      vertex 13.5944 -62 -48.1531
    endloop
  endfacet
  facet normal 0.268951 0 -0.963154
    outer loop
      vertex 13.5944 -62 -48.1531
      vertex 107.233 -50 -22.0055
      vertex 107.233 -62 -22.0055
    endloop
  endfacet
  facet normal 0.12301 0 -0.992405
    outer loop
      vertex -1.1366 -50 -49.979
      vertex 13.5944 -50 -48.1531
      vertex -1.1366 -62 -49.979
    endloop
  endfacet
  facet normal 0.12301 0 -0.992405
    outer loop
      vertex -1.1366 -62 -49.979
      vertex 13.5944 -50 -48.1531
      vertex 13.5944 -62 -48.1531
    endloop
  endfacet
  facet normal -0.173777 0 -0.984785
    outer loop
      vertex -15.7543 -50 -47.3995
      vertex -1.1366 -50 -49.979
      vertex -15.7543 -62 -47.3995
    endloop
  endfacet
  facet normal -0.173777 0 -0.984785
    outer loop
      vertex -15.7543 -62 -47.3995
      vertex -1.1366 -50 -49.979
      vertex -1.1366 -62 -49.979
    endloop
  endfacet
  facet normal -0.455235 0 -0.890371
    outer loop
      vertex -28.9706 -50 -40.6422
      vertex -15.7543 -50 -47.3995
      vertex -28.9706 -62 -40.6422
    endloop
  endfacet
  facet normal -0.455235 0 -0.890371
    outer loop
      vertex -28.9706 -62 -40.6422
      vertex -15.7543 -50 -47.3995
      vertex -15.7543 -62 -47.3995
    endloop
  endfacet
  facet normal -0.696565 0 -0.717494
    outer loop
      vertex -39.6207 -50 -30.3027
      vertex -28.9706 -50 -40.6422
      vertex -39.6207 -62 -30.3027
    endloop
  endfacet
  facet normal -0.696565 0 -0.717494
    outer loop
      vertex -39.6207 -62 -30.3027
      vertex -28.9706 -50 -40.6422
      vertex -28.9706 -62 -40.6422
    endloop
  endfacet
  facet normal -0.876513 0 -0.481378
    outer loop
      vertex -46.7661 -50 -17.2921
      vertex -39.6207 -50 -30.3027
      vertex -46.7661 -62 -17.2921
    endloop
  endfacet
  facet normal -0.876513 0 -0.481378
    outer loop
      vertex -46.7661 -62 -17.2921
      vertex -39.6207 -50 -30.3027
      vertex -39.6207 -62 -30.3027
    endloop
  endfacet
  facet normal 0.951054 0 0.309024
    outer loop
      vertex -29.6888 -62 -3.13123
      vertex -25.8339 -62 -14.9954
      vertex -25.8339 -50 -14.9954
    endloop
  endfacet
  facet normal 0.951054 0 0.309024
    outer loop
      vertex -29.6888 -50 -3.13123
      vertex -29.6888 -62 -3.13123
      vertex -25.8339 -50 -14.9954
    endloop
  endfacet
  facet normal 0.994521 0 -0.104538
    outer loop
      vertex -29.6888 -62 -3.13123
      vertex -29.6888 -50 -3.13123
      vertex -28.3848 -50 9.27515
    endloop
  endfacet
  facet normal 0.994521 0 -0.104538
    outer loop
      vertex -28.3848 -62 9.27515
      vertex -29.6888 -62 -3.13123
      vertex -28.3848 -50 9.27515
    endloop
  endfacet
  facet normal 0.743146 0 0.669129
    outer loop
      vertex -25.8339 -62 -14.9954
      vertex -17.4867 -62 -24.2659
      vertex -17.4867 -50 -24.2659
    endloop
  endfacet
  facet normal 0.743146 0 0.669129
    outer loop
      vertex -25.8339 -50 -14.9954
      vertex -25.8339 -62 -14.9954
      vertex -17.4867 -50 -24.2659
    endloop
  endfacet
  facet normal 0.406735 0 0.913546
    outer loop
      vertex -17.4867 -62 -24.2659
      vertex -6.09058 -62 -29.3397
      vertex -6.09058 -50 -29.3397
    endloop
  endfacet
  facet normal 0.406735 0 0.913546
    outer loop
      vertex -17.4867 -50 -24.2659
      vertex -17.4867 -62 -24.2659
      vertex -6.09058 -50 -29.3397
    endloop
  endfacet
  facet normal 0 0 1
    outer loop
      vertex -6.09058 -62 -29.3397
      vertex 6.38428 -62 -29.3397
      vertex 6.38428 -50 -29.3397
    endloop
  endfacet
  facet normal 0 0 1
    outer loop
      vertex -6.09058 -50 -29.3397
      vertex -6.09058 -62 -29.3397
      vertex 6.38428 -50 -29.3397
    endloop
  endfacet
  facet normal -0.406735 0 0.913546
    outer loop
      vertex 6.38428 -62 -29.3397
      vertex 17.7804 -62 -24.2659
      vertex 17.7804 -50 -24.2659
    endloop
  endfacet
  facet normal -0.406735 0 0.913546
    outer loop
      vertex 6.38428 -50 -29.3397
      vertex 6.38428 -62 -29.3397
      vertex 17.7804 -50 -24.2659
    endloop
  endfacet
  facet normal -0.743146 0 0.669129
    outer loop
      vertex 26.1276 -62 -14.9954
      vertex 26.1276 -50 -14.9954
      vertex 17.7804 -62 -24.2659
    endloop
  endfacet
  facet normal -0.743146 0 0.669129
    outer loop
      vertex 17.7804 -62 -24.2659
      vertex 26.1276 -50 -14.9954
      vertex 17.7804 -50 -24.2659
    endloop
  endfacet
  facet normal -0.951054 0 0.309024
    outer loop
      vertex 29.9825 -62 -3.13123
      vertex 29.9825 -50 -3.13123
      vertex 26.1276 -62 -14.9954
    endloop
  endfacet
  facet normal -0.951054 0 0.309024
    outer loop
      vertex 26.1276 -62 -14.9954
      vertex 29.9825 -50 -3.13123
      vertex 26.1276 -50 -14.9954
    endloop
  endfacet
  facet normal -0.994521 0 -0.104538
    outer loop
      vertex 28.6785 -50 9.27515
      vertex 29.9825 -50 -3.13123
      vertex 28.6785 -62 9.27515
    endloop
  endfacet
  facet normal -0.994521 0 -0.104538
    outer loop
      vertex 28.6785 -62 9.27515
      vertex 29.9825 -50 -3.13123
      vertex 29.9825 -62 -3.13123
    endloop
  endfacet
  facet normal -0.866032 0 -0.499988
    outer loop
      vertex 22.4413 -50 20.0786
      vertex 28.6785 -50 9.27515
      vertex 22.4413 -62 20.0786
    endloop
  endfacet
  facet normal -0.866032 0 -0.499988
    outer loop
      vertex 22.4413 -62 20.0786
      vertex 28.6785 -50 9.27515
      vertex 28.6785 -62 9.27515
    endloop
  endfacet
  facet normal -0.587781 0 -0.80902
    outer loop
      vertex 12.349 -50 27.411
      vertex 22.4413 -50 20.0786
      vertex 12.349 -62 27.411
    endloop
  endfacet
  facet normal -0.587781 0 -0.80902
    outer loop
      vertex 12.349 -62 27.411
      vertex 22.4413 -50 20.0786
      vertex 22.4413 -62 20.0786
    endloop
  endfacet
  facet normal -0.20791 0 -0.978148
    outer loop
      vertex 0.146851 -50 30.0046
      vertex 12.349 -50 27.411
      vertex 0.146851 -62 30.0046
    endloop
  endfacet
  facet normal -0.20791 0 -0.978148
    outer loop
      vertex 0.146851 -62 30.0046
      vertex 12.349 -50 27.411
      vertex 12.349 -62 27.411
    endloop
  endfacet
  facet normal 0.207912 0 -0.978147
    outer loop
      vertex -12.0552 -50 27.411
      vertex 0.146851 -50 30.0046
      vertex -12.0552 -62 27.411
    endloop
  endfacet
  facet normal 0.207912 0 -0.978147
    outer loop
      vertex -12.0552 -62 27.411
      vertex 0.146851 -50 30.0046
      vertex 0.146851 -62 30.0046
    endloop
  endfacet
  facet normal 0.587781 0 -0.80902
    outer loop
      vertex -22.1475 -50 20.0786
      vertex -12.0552 -50 27.411
      vertex -22.1475 -62 20.0786
    endloop
  endfacet
  facet normal 0.587781 0 -0.80902
    outer loop
      vertex -22.1475 -62 20.0786
      vertex -12.0552 -50 27.411
      vertex -12.0552 -62 27.411
    endloop
  endfacet
  facet normal 0.866028 0 -0.499995
    outer loop
      vertex -28.3848 -62 9.27515
      vertex -28.3848 -50 9.27515
      vertex -22.1475 -50 20.0786
    endloop
  endfacet
  facet normal 0.866028 0 -0.499995
    outer loop
      vertex -22.1475 -62 20.0786
      vertex -28.3848 -62 9.27515
      vertex -22.1475 -50 20.0786
    endloop
  endfacet
  facet normal 0.992708 0 0.120542
    outer loop
      vertex 51.3291 -62 235.518
      vertex 52.7715 -62 223.64
      vertex 52.7715 -50 223.64
    endloop
  endfacet
  facet normal 0.992708 0 0.120542
    outer loop
      vertex 51.3291 -50 235.518
      vertex 51.3291 -62 235.518
      vertex 52.7715 -50 223.64
    endloop
  endfacet
  facet normal 0.935015 0 -0.354607
    outer loop
      vertex 51.3291 -62 235.518
      vertex 51.3291 -50 235.518
      vertex 55.5723 -50 246.706
    endloop
  endfacet
  facet normal 0.935015 0 -0.354607
    outer loop
      vertex 55.5723 -62 246.706
      vertex 51.3291 -62 235.518
      vertex 55.5723 -50 246.706
    endloop
  endfacet
  facet normal 0.822988 0 0.568059
    outer loop
      vertex 52.7715 -62 223.64
      vertex 59.5687 -62 213.792
      vertex 59.5687 -50 213.792
    endloop
  endfacet
  facet normal 0.822988 0 0.568059
    outer loop
      vertex 52.7715 -50 223.64
      vertex 52.7715 -62 223.64
      vertex 59.5687 -50 213.792
    endloop
  endfacet
  facet normal 0.464723 0 0.885456
    outer loop
      vertex 59.5687 -62 213.792
      vertex 70.1639 -62 208.231
      vertex 70.1639 -50 208.231
    endloop
  endfacet
  facet normal 0.464723 0 0.885456
    outer loop
      vertex 59.5687 -50 213.792
      vertex 59.5687 -62 213.792
      vertex 70.1639 -50 208.231
    endloop
  endfacet
  facet normal 0 0 1
    outer loop
      vertex 70.1639 -62 208.231
      vertex 82.1296 -62 208.231
      vertex 82.1296 -50 208.231
    endloop
  endfacet
  facet normal 0 0 1
    outer loop
      vertex 70.1639 -50 208.231
      vertex 70.1639 -62 208.231
      vertex 82.1296 -50 208.231
    endloop
  endfacet
  facet normal -0.464723 0 0.885456
    outer loop
      vertex 82.1296 -62 208.231
      vertex 92.7249 -62 213.792
      vertex 92.7249 -50 213.792
    endloop
  endfacet
  facet normal -0.464723 0 0.885456
    outer loop
      vertex 82.1296 -50 208.231
      vertex 82.1296 -62 208.231
      vertex 92.7249 -50 213.792
    endloop
  endfacet
  facet normal -0.822983 0 0.568066
    outer loop
      vertex 99.5222 -62 223.64
      vertex 99.5222 -50 223.64
      vertex 92.7249 -62 213.792
    endloop
  endfacet
  facet normal -0.822983 0 0.568066
    outer loop
      vertex 92.7249 -62 213.792
      vertex 99.5222 -50 223.64
      vertex 92.7249 -50 213.792
    endloop
  endfacet
  facet normal -0.992709 0 0.120532
    outer loop
      vertex 100.964 -62 235.518
      vertex 100.964 -50 235.518
      vertex 99.5222 -62 223.64
    endloop
  endfacet
  facet normal -0.992709 0 0.120532
    outer loop
      vertex 99.5222 -62 223.64
      vertex 100.964 -50 235.518
      vertex 99.5222 -50 223.64
    endloop
  endfacet
  facet normal -0.935019 0 -0.354598
    outer loop
      vertex 96.7214 -50 246.706
      vertex 100.964 -50 235.518
      vertex 96.7214 -62 246.706
    endloop
  endfacet
  facet normal -0.935019 0 -0.354598
    outer loop
      vertex 96.7214 -62 246.706
      vertex 100.964 -50 235.518
      vertex 100.964 -62 235.518
    endloop
  endfacet
  facet normal -0.663128 0 -0.748506
    outer loop
      vertex 87.765 -50 254.641
      vertex 96.7214 -50 246.706
      vertex 87.765 -62 254.641
    endloop
  endfacet
  facet normal -0.663128 0 -0.748506
    outer loop
      vertex 87.765 -62 254.641
      vertex 96.7214 -50 246.706
      vertex 96.7214 -62 246.706
    endloop
  endfacet
  facet normal -0.239308 0 -0.970944
    outer loop
      vertex 76.1469 -50 257.505
      vertex 87.765 -50 254.641
      vertex 76.1469 -62 257.505
    endloop
  endfacet
  facet normal -0.239308 0 -0.970944
    outer loop
      vertex 76.1469 -62 257.505
      vertex 87.765 -50 254.641
      vertex 87.765 -62 254.641
    endloop
  endfacet
  facet normal 0.239311 0 -0.970943
    outer loop
      vertex 64.5288 -50 254.641
      vertex 76.1469 -50 257.505
      vertex 64.5288 -62 254.641
    endloop
  endfacet
  facet normal 0.239311 0 -0.970943
    outer loop
      vertex 64.5288 -62 254.641
      vertex 76.1469 -50 257.505
      vertex 76.1469 -62 257.505
    endloop
  endfacet
  facet normal 0.663123 0 -0.74851
    outer loop
      vertex 55.5723 -50 246.706
      vertex 64.5288 -50 254.641
      vertex 55.5723 -62 246.706
    endloop
  endfacet
  facet normal 0.663123 0 -0.74851
    outer loop
      vertex 55.5723 -62 246.706
      vertex 64.5288 -50 254.641
      vertex 64.5288 -62 254.641
    endloop
  endfacet
endsolid OpenSCAD_Model
