solid Nedre
   facet normal 9.887073e-001 0.000000e+000 -1.498595e-001
      outer loop
         vertex 2.126957e-001 1.200000e-002 1.716916e-001
         vertex 2.126957e-001 0.000000e+000 1.716916e-001
         vertex 2.082349e-001 0.000000e+000 1.455970e-001
      endloop
   endfacet
   facet normal 9.823439e-001 0.000000e+000 -1.870843e-001
      outer loop
         vertex 2.126957e-001 1.200000e-002 1.716916e-001
         vertex 2.082349e-001 0.000000e+000 1.455970e-001
         vertex 2.082349e-001 1.200000e-002 1.455970e-001
      endloop
   endfacet
   facet normal 9.654531e-001 0.000000e+000 -2.605769e-001
      outer loop
         vertex 2.082349e-001 1.200000e-002 1.455970e-001
         vertex 2.082349e-001 0.000000e+000 1.455970e-001
         vertex 2.008553e-001 0.000000e+000 1.201732e-001
      endloop
   endfacet
   facet normal 9.549258e-001 0.000000e+000 -2.968447e-001
      outer loop
         vertex 2.082349e-001 1.200000e-002 1.455970e-001
         vertex 2.008553e-001 0.000000e+000 1.201732e-001
         vertex 2.008553e-001 1.200000e-002 1.201732e-001
      endloop
   endfacet
   facet normal 9.298419e-001 0.000000e+000 -3.679592e-001
      outer loop
         vertex 2.008553e-001 1.200000e-002 1.201732e-001
         vertex 2.008553e-001 0.000000e+000 1.201732e-001
         vertex 1.906512e-001 0.000000e+000 9.574565e-002
      endloop
   endfacet
   facet normal 9.152855e-001 0.000000e+000 -4.028058e-001
      outer loop
         vertex 2.008553e-001 1.200000e-002 1.201732e-001
         vertex 1.906512e-001 0.000000e+000 9.574565e-002
         vertex 1.906512e-001 1.200000e-002 9.574565e-002
      endloop
   endfacet
   facet normal 8.823296e-001 0.000000e+000 -4.706319e-001
      outer loop
         vertex 1.906512e-001 1.200000e-002 9.574565e-002
         vertex 1.906512e-001 0.000000e+000 9.574565e-002
         vertex 1.777532e-001 0.000000e+000 7.262702e-002
      endloop
   endfacet
   facet normal 8.639303e-001 0.000000e+000 -5.036113e-001
      outer loop
         vertex 1.906512e-001 1.200000e-002 9.574565e-002
         vertex 1.777532e-001 0.000000e+000 7.262702e-002
         vertex 1.777532e-001 1.200000e-002 7.262702e-002
      endloop
   endfacet
   facet normal 8.235243e-001 0.000000e+000 -5.672809e-001
      outer loop
         vertex 1.777532e-001 1.200000e-002 7.262702e-002
         vertex 1.777532e-001 0.000000e+000 7.262702e-002
         vertex 1.623265e-001 0.000000e+000 5.111319e-002
      endloop
   endfacet
   facet normal 8.015177e-001 0.000000e+000 -5.979711e-001
      outer loop
         vertex 1.777532e-001 1.200000e-002 7.262702e-002
         vertex 1.623265e-001 0.000000e+000 5.111319e-002
         vertex 1.623265e-001 1.200000e-002 5.111319e-002
      endloop
   endfacet
   facet normal 7.541786e-001 0.000000e+000 -6.566693e-001
      outer loop
         vertex 1.623265e-001 1.200000e-002 5.111319e-002
         vertex 1.623265e-001 0.000000e+000 5.111319e-002
         vertex 1.445685e-001 0.000000e+000 3.147952e-002
      endloop
   endfacet
   facet normal 7.288463e-001 0.000000e+000 -6.846774e-001
      outer loop
         vertex 1.623265e-001 1.200000e-002 5.111319e-002
         vertex 1.445685e-001 0.000000e+000 3.147952e-002
         vertex 1.445685e-001 1.200000e-002 3.147952e-002
      endloop
   endfacet
   facet normal 6.751801e-001 0.000000e+000 -7.376529e-001
      outer loop
         vertex 1.445685e-001 1.200000e-002 3.147952e-002
         vertex 1.445685e-001 0.000000e+000 3.147952e-002
         vertex 1.247065e-001 0.000000e+000 1.397729e-002
      endloop
   endfacet
   facet normal 6.468462e-001 0.000000e+000 -7.626204e-001
      outer loop
         vertex 1.445685e-001 1.200000e-002 3.147952e-002
         vertex 1.247065e-001 0.000000e+000 1.397729e-002
         vertex 1.247065e-001 1.200000e-002 1.397729e-002
      endloop
   endfacet
   facet normal 5.875399e-001 0.000000e+000 -8.091952e-001
      outer loop
         vertex 1.247065e-001 1.200000e-002 1.397729e-002
         vertex 1.247065e-001 0.000000e+000 1.397729e-002
         vertex 1.029947e-001 0.000000e+000 -1.169475e-003
      endloop
   endfacet
   facet normal 5.565673e-001 0.000000e+000 -8.308025e-001
      outer loop
         vertex 1.247065e-001 1.200000e-002 1.397729e-002
         vertex 1.029947e-001 0.000000e+000 -1.169475e-003
         vertex 1.029947e-001 1.200000e-002 -1.169475e-003
      endloop
   endfacet
   facet normal 4.923797e-001 0.000000e+000 -8.703805e-001
      outer loop
         vertex 1.029947e-001 1.200000e-002 -1.169475e-003
         vertex 1.029947e-001 0.000000e+000 -1.169475e-003
         vertex 7.971091e-002 0.000000e+000 -1.376692e-002
      endloop
   endfacet
   facet normal 4.591647e-001 0.000000e+000 -8.883511e-001
      outer loop
         vertex 1.029947e-001 1.200000e-002 -1.169475e-003
         vertex 7.971091e-002 0.000000e+000 -1.376692e-002
         vertex 7.971091e-002 1.200000e-002 -1.376692e-002
      endloop
   endfacet
   facet normal 3.909175e-001 0.000000e+000 -9.204258e-001
      outer loop
         vertex 7.971091e-002 1.200000e-002 -1.376692e-002
         vertex 7.971091e-002 0.000000e+000 -1.376692e-002
         vertex 5.515327e-002 0.000000e+000 -2.365378e-002
      endloop
   endfacet
   facet normal 3.558852e-001 0.000000e+000 -9.345297e-001
      outer loop
         vertex 7.971091e-002 1.200000e-002 -1.376692e-002
         vertex 5.515327e-002 0.000000e+000 -2.365378e-002
         vertex 5.515327e-002 1.200000e-002 -2.365378e-002
      endloop
   endfacet
   facet normal 2.844518e-001 0.000000e+000 -9.586903e-001
      outer loop
         vertex 5.515327e-002 1.200000e-002 -2.365378e-002
         vertex 5.515327e-002 0.000000e+000 -2.365378e-002
         vertex 2.963605e-002 0.000000e+000 -3.070355e-002
      endloop
   endfacet
   facet normal 2.480507e-001 0.000000e+000 -9.687470e-001
      outer loop
         vertex 5.515327e-002 1.200000e-002 -2.365378e-002
         vertex 2.963605e-002 0.000000e+000 -3.070355e-002
         vertex 2.963605e-002 1.200000e-002 -3.070355e-002
      endloop
   endfacet
   facet normal 1.743455e-001 0.000000e+000 -9.846845e-001
      outer loop
         vertex 2.963605e-002 1.200000e-002 -3.070355e-002
         vertex 2.963605e-002 0.000000e+000 -3.070355e-002
         vertex 3.485837e-003 0.000000e+000 -3.482598e-002
      endloop
   endfacet
   facet normal 1.370414e-001 0.000000e+000 -9.905653e-001
      outer loop
         vertex 2.963605e-002 1.200000e-002 -3.070355e-002
         vertex 3.485837e-003 0.000000e+000 -3.482598e-002
         vertex 3.485837e-003 1.200000e-002 -3.482598e-002
      endloop
   endfacet
   facet normal -9.785236e-001 0.000000e+000 2.061346e-001
      outer loop
         vertex 1.431399e-001 1.200000e-002 1.795648e-001
         vertex 1.431399e-001 0.000000e+000 1.795648e-001
         vertex 1.456577e-001 0.000000e+000 1.892034e-001
      endloop
   endfacet
   facet normal -9.543256e-001 0.000000e+000 2.987686e-001
      outer loop
         vertex 1.431399e-001 1.200000e-002 1.795648e-001
         vertex 1.456577e-001 0.000000e+000 1.892034e-001
         vertex 1.456577e-001 1.200000e-002 1.892034e-001
      endloop
   endfacet
   facet normal -8.808118e-001 0.000000e+000 4.734667e-001
      outer loop
         vertex 1.456577e-001 1.200000e-002 1.892034e-001
         vertex 1.456577e-001 0.000000e+000 1.892034e-001
         vertex 1.507891e-001 0.000000e+000 1.977422e-001
      endloop
   endfacet
   facet normal -8.314959e-001 0.000000e+000 5.555309e-001
      outer loop
         vertex 1.456577e-001 1.200000e-002 1.892034e-001
         vertex 1.507891e-001 0.000000e+000 1.977422e-001
         vertex 1.507891e-001 1.200000e-002 1.977422e-001
      endloop
   endfacet
   facet normal -7.117417e-001 0.000000e+000 7.024413e-001
      outer loop
         vertex 1.507891e-001 1.200000e-002 1.977422e-001
         vertex 1.507891e-001 0.000000e+000 1.977422e-001
         vertex 1.581182e-001 0.000000e+000 2.044895e-001
      endloop
   endfacet
   facet normal -6.413033e-001 0.000000e+000 7.672875e-001
      outer loop
         vertex 1.507891e-001 1.200000e-002 1.977422e-001
         vertex 1.581182e-001 0.000000e+000 2.044895e-001
         vertex 1.581182e-001 1.200000e-002 2.044895e-001
      endloop
   endfacet
   facet normal -4.850106e-001 0.000000e+000 8.745083e-001
      outer loop
         vertex 1.581182e-001 1.200000e-002 2.044895e-001
         vertex 1.581182e-001 0.000000e+000 2.044895e-001
         vertex 1.670514e-001 0.000000e+000 2.088986e-001
      endloop
   endfacet
   facet normal -3.991562e-001 0.000000e+000 9.168829e-001
      outer loop
         vertex 1.581182e-001 1.200000e-002 2.044895e-001
         vertex 1.670514e-001 0.000000e+000 2.088986e-001
         vertex 1.670514e-001 1.200000e-002 2.088986e-001
      endloop
   endfacet
   facet normal -2.189867e-001 0.000000e+000 9.757279e-001
      outer loop
         vertex 1.670514e-001 1.200000e-002 2.088986e-001
         vertex 1.670514e-001 0.000000e+000 2.088986e-001
         vertex 1.768649e-001 0.000000e+000 2.106123e-001
      endloop
   endfacet
   facet normal -1.246718e-001 0.000000e+000 9.921981e-001
      outer loop
         vertex 1.670514e-001 1.200000e-002 2.088986e-001
         vertex 1.768649e-001 0.000000e+000 2.106123e-001
         vertex 1.768649e-001 1.200000e-002 2.106123e-001
      endloop
   endfacet
   facet normal 6.477803e-002 0.000000e+000 9.978997e-001
      outer loop
         vertex 1.768649e-001 1.200000e-002 2.106123e-001
         vertex 1.768649e-001 0.000000e+000 2.106123e-001
         vertex 1.867637e-001 0.000000e+000 2.094919e-001
      endloop
   endfacet
   facet normal 1.599128e-001 0.000000e+000 9.871311e-001
      outer loop
         vertex 1.768649e-001 1.200000e-002 2.106123e-001
         vertex 1.867637e-001 0.000000e+000 2.094919e-001
         vertex 1.867637e-001 1.200000e-002 2.094919e-001
      endloop
   endfacet
   facet normal 3.432949e-001 0.000000e+000 9.392277e-001
      outer loop
         vertex 1.867637e-001 1.200000e-002 2.094919e-001
         vertex 1.867637e-001 0.000000e+000 2.094919e-001
         vertex 1.959459e-001 0.000000e+000 2.056279e-001
      endloop
   endfacet
   facet normal 4.315422e-001 0.000000e+000 9.020928e-001
      outer loop
         vertex 1.867637e-001 1.200000e-002 2.094919e-001
         vertex 1.959459e-001 0.000000e+000 2.056279e-001
         vertex 1.959459e-001 1.200000e-002 2.056279e-001
      endloop
   endfacet
   facet normal 5.940000e-001 0.000000e+000 8.044650e-001
      outer loop
         vertex 1.959459e-001 1.200000e-002 2.056279e-001
         vertex 1.959459e-001 0.000000e+000 2.056279e-001
         vertex 2.036676e-001 0.000000e+000 1.993336e-001
      endloop
   endfacet
   facet normal 6.682106e-001 0.000000e+000 7.439721e-001
      outer loop
         vertex 1.959459e-001 1.200000e-002 2.056279e-001
         vertex 2.036676e-001 0.000000e+000 1.993336e-001
         vertex 2.036676e-001 1.200000e-002 1.993336e-001
      endloop
   endfacet
   facet normal 7.965829e-001 0.000000e+000 6.045293e-001
      outer loop
         vertex 2.036676e-001 1.200000e-002 1.993336e-001
         vertex 2.036676e-001 0.000000e+000 1.993336e-001
         vertex 2.093031e-001 0.000000e+000 1.911189e-001
      endloop
   endfacet
   facet normal 8.507445e-001 0.000000e+000 5.255794e-001
      outer loop
         vertex 2.036676e-001 1.200000e-002 1.993336e-001
         vertex 2.093031e-001 0.000000e+000 1.911189e-001
         vertex 2.093031e-001 1.200000e-002 1.911189e-001
      endloop
   endfacet
   facet normal 9.346312e-001 0.000000e+000 3.556184e-001
      outer loop
         vertex 2.093031e-001 1.200000e-002 1.911189e-001
         vertex 2.093031e-001 0.000000e+000 1.911189e-001
         vertex 2.123960e-001 0.000000e+000 1.816491e-001
      endloop
   endfacet
   facet normal 9.643562e-001 0.000000e+000 2.646073e-001
      outer loop
         vertex 2.093031e-001 1.200000e-002 1.911189e-001
         vertex 2.123960e-001 0.000000e+000 1.816491e-001
         vertex 2.123960e-001 1.200000e-002 1.816491e-001
      endloop
   endfacet
   facet normal 9.969614e-001 0.000000e+000 7.789724e-002
      outer loop
         vertex 2.123960e-001 1.200000e-002 1.816491e-001
         vertex 2.123960e-001 0.000000e+000 1.816491e-001
         vertex 2.126957e-001 0.000000e+000 1.716916e-001
      endloop
   endfacet
   facet normal 9.998415e-001 0.000000e+000 -1.780172e-002
      outer loop
         vertex 2.123960e-001 1.200000e-002 1.816491e-001
         vertex 2.126957e-001 0.000000e+000 1.716916e-001
         vertex 2.126957e-001 1.200000e-002 1.716916e-001
      endloop
   endfacet
   facet normal -9.875503e-001 0.000000e+000 1.573033e-001
      outer loop
         vertex 1.431399e-001 0.000000e+000 1.795648e-001
         vertex 1.431399e-001 1.200000e-002 1.795648e-001
         vertex 1.391410e-001 1.200000e-002 1.576675e-001
      endloop
   endfacet
   facet normal -9.794059e-001 0.000000e+000 2.019012e-001
      outer loop
         vertex 1.431399e-001 0.000000e+000 1.795648e-001
         vertex 1.391410e-001 1.200000e-002 1.576675e-001
         vertex 1.391410e-001 0.000000e+000 1.576675e-001
      endloop
   endfacet
   facet normal -9.571528e-001 0.000000e+000 2.895834e-001
      outer loop
         vertex 1.391410e-001 0.000000e+000 1.576675e-001
         vertex 1.391410e-001 1.200000e-002 1.576675e-001
         vertex 1.322138e-001 1.200000e-002 1.365135e-001
      endloop
   endfacet
   facet normal -9.430441e-001 0.000000e+000 3.326677e-001
      outer loop
         vertex 1.391410e-001 0.000000e+000 1.576675e-001
         vertex 1.322138e-001 1.200000e-002 1.365135e-001
         vertex 1.322138e-001 0.000000e+000 1.365135e-001
      endloop
   endfacet
   facet normal -9.091225e-001 0.000000e+000 4.165289e-001
      outer loop
         vertex 1.322138e-001 0.000000e+000 1.365135e-001
         vertex 1.322138e-001 1.200000e-002 1.365135e-001
         vertex 1.224858e-001 1.200000e-002 1.164924e-001
      endloop
   endfacet
   facet normal -8.893095e-001 0.000000e+000 4.573058e-001
      outer loop
         vertex 1.322138e-001 0.000000e+000 1.365135e-001
         vertex 1.224858e-001 1.200000e-002 1.164924e-001
         vertex 1.224858e-001 0.000000e+000 1.164924e-001
      endloop
   endfacet
   facet normal -8.443443e-001 0.000000e+000 5.358011e-001
      outer loop
         vertex 1.224858e-001 0.000000e+000 1.164924e-001
         vertex 1.224858e-001 1.200000e-002 1.164924e-001
         vertex 1.101362e-001 1.200000e-002 9.797300e-002
      endloop
   endfacet
   facet normal -8.191920e-001 0.000000e+000 5.735193e-001
      outer loop
         vertex 1.224858e-001 0.000000e+000 1.164924e-001
         vertex 1.101362e-001 1.200000e-002 9.797300e-002
         vertex 1.101362e-001 0.000000e+000 9.797300e-002
      endloop
   endfacet
   facet normal -7.640116e-001 0.000000e+000 6.452025e-001
      outer loop
         vertex 1.101362e-001 0.000000e+000 9.797300e-002
         vertex 1.101362e-001 1.200000e-002 9.797300e-002
         vertex 9.539261e-002 1.200000e-002 8.129650e-002
      endloop
   endfacet
   facet normal -7.339833e-001 0.000000e+000 6.791675e-001
      outer loop
         vertex 1.101362e-001 0.000000e+000 9.797300e-002
         vertex 9.539261e-002 1.200000e-002 8.129650e-002
         vertex 9.539261e-002 0.000000e+000 8.129650e-002
      endloop
   endfacet
   facet normal -6.696041e-001 0.000000e+000 7.427182e-001
      outer loop
         vertex 9.539261e-002 0.000000e+000 8.129650e-002
         vertex 9.539261e-002 1.200000e-002 8.129650e-002
         vertex 7.852656e-002 1.200000e-002 6.677012e-002
      endloop
   endfacet
   facet normal -6.352531e-001 0.000000e+000 7.723040e-001
      outer loop
         vertex 9.539261e-002 0.000000e+000 8.129650e-002
         vertex 7.852656e-002 1.200000e-002 6.677012e-002
         vertex 7.852656e-002 0.000000e+000 6.677012e-002
      endloop
   endfacet
   facet normal -5.628611e-001 0.000000e+000 8.265514e-001
      outer loop
         vertex 7.852656e-002 0.000000e+000 6.677012e-002
         vertex 7.852656e-002 1.200000e-002 6.677012e-002
         vertex 5.984877e-002 1.200000e-002 5.466145e-002
      endloop
   endfacet
   facet normal -5.248202e-001 0.000000e+000 8.512131e-001
      outer loop
         vertex 7.852656e-002 0.000000e+000 6.677012e-002
         vertex 5.984877e-002 1.200000e-002 5.466145e-002
         vertex 5.984877e-002 0.000000e+000 5.466145e-002
      endloop
   endfacet
   facet normal -4.457492e-001 0.000000e+000 8.951579e-001
      outer loop
         vertex 5.984877e-002 0.000000e+000 5.466145e-002
         vertex 5.984877e-002 1.200000e-002 5.466145e-002
         vertex 3.970333e-002 1.200000e-002 4.519357e-002
      endloop
   endfacet
   facet normal -4.047192e-001 0.000000e+000 9.144410e-001
      outer loop
         vertex 5.984877e-002 0.000000e+000 5.466145e-002
         vertex 3.970333e-002 1.200000e-002 4.519357e-002
         vertex 3.970333e-002 0.000000e+000 4.519357e-002
      endloop
   endfacet
   facet normal -3.204257e-001 0.000000e+000 9.472737e-001
      outer loop
         vertex 3.970333e-002 0.000000e+000 4.519357e-002
         vertex 3.970333e-002 1.200000e-002 4.519357e-002
         vertex 1.846135e-002 1.200000e-002 3.854090e-002
      endloop
   endfacet
   facet normal -2.771623e-001 0.000000e+000 9.608231e-001
      outer loop
         vertex 3.970333e-002 0.000000e+000 4.519357e-002
         vertex 1.846135e-002 1.200000e-002 3.854090e-002
         vertex 1.846135e-002 0.000000e+000 3.854090e-002
      endloop
   endfacet
   facet normal -1.891992e-001 0.000000e+000 9.819387e-001
      outer loop
         vertex 1.846135e-002 0.000000e+000 3.854090e-002
         vertex 1.846135e-002 1.200000e-002 3.854090e-002
         vertex -3.485836e-003 1.200000e-002 3.482598e-002
      endloop
   endfacet
   facet normal -1.444995e-001 0.000000e+000 9.895049e-001
      outer loop
         vertex 1.846135e-002 0.000000e+000 3.854090e-002
         vertex -3.485836e-003 1.200000e-002 3.482598e-002
         vertex -3.485836e-003 0.000000e+000 3.482598e-002
      endloop
   endfacet
   facet normal 4.850483e-003 0.000000e+000 -9.999883e-001
      outer loop
         vertex 3.485837e-003 1.200000e-002 -3.482598e-002
         vertex 3.485837e-003 0.000000e+000 -3.482598e-002
         vertex -6.466977e-003 0.000000e+000 -3.439735e-002
      endloop
   endfacet
   facet normal -9.080315e-002 0.000000e+000 -9.958689e-001
      outer loop
         vertex 3.485837e-003 1.200000e-002 -3.482598e-002
         vertex -6.466977e-003 0.000000e+000 -3.439735e-002
         vertex -6.466977e-003 1.200000e-002 -3.439735e-002
      endloop
   endfacet
   facet normal -2.770752e-001 0.000000e+000 -9.608482e-001
      outer loop
         vertex -6.466977e-003 1.200000e-002 -3.439735e-002
         vertex -6.466977e-003 0.000000e+000 -3.439735e-002
         vertex -1.589588e-002 0.000000e+000 -3.118207e-002
      endloop
   endfacet
   facet normal -3.676937e-001 0.000000e+000 -9.299470e-001
      outer loop
         vertex -6.466977e-003 1.200000e-002 -3.439735e-002
         vertex -1.589588e-002 0.000000e+000 -3.118207e-002
         vertex -1.589588e-002 1.200000e-002 -3.118207e-002
      endloop
   endfacet
   facet normal -5.365539e-001 0.000000e+000 -8.438661e-001
      outer loop
         vertex -1.589588e-002 1.200000e-002 -3.118207e-002
         vertex -1.589588e-002 0.000000e+000 -3.118207e-002
         vertex -2.403698e-002 0.000000e+000 -2.544059e-002
      endloop
   endfacet
   facet normal -6.147958e-001 0.000000e+000 -7.886863e-001
      outer loop
         vertex -1.589588e-002 1.200000e-002 -3.118207e-002
         vertex -2.403698e-002 0.000000e+000 -2.544059e-002
         vertex -2.403698e-002 1.200000e-002 -2.544059e-002
      endloop
   endfacet
   facet normal -7.525643e-001 0.000000e+000 -6.585188e-001
      outer loop
         vertex -2.403698e-002 1.200000e-002 -2.544059e-002
         vertex -2.403698e-002 0.000000e+000 -2.544059e-002
         vertex -3.023076e-002 0.000000e+000 -1.763806e-002
      endloop
   endfacet
   facet normal -8.120909e-001 0.000000e+000 -5.835310e-001
      outer loop
         vertex -2.403698e-002 1.200000e-002 -2.544059e-002
         vertex -3.023076e-002 0.000000e+000 -1.763806e-002
         vertex -3.023076e-002 1.200000e-002 -1.763806e-002
      endloop
   endfacet
   facet normal -9.076063e-001 0.000000e+000 -4.198223e-001
      outer loop
         vertex -3.023076e-002 1.200000e-002 -1.763806e-002
         vertex -3.023076e-002 0.000000e+000 -1.763806e-002
         vertex -3.397541e-002 0.000000e+000 -8.406611e-003
      endloop
   endfacet
   facet normal -9.435952e-001 0.000000e+000 -3.311014e-001
      outer loop
         vertex -3.023076e-002 1.200000e-002 -1.763806e-002
         vertex -3.397541e-002 0.000000e+000 -8.406611e-003
         vertex -3.397541e-002 1.200000e-002 -8.406611e-003
      endloop
   endfacet
   facet normal -9.891195e-001 0.000000e+000 -1.471143e-001
      outer loop
         vertex -3.397541e-002 1.200000e-002 -8.406611e-003
         vertex -3.397541e-002 0.000000e+000 -8.406611e-003
         vertex -3.496759e-002 0.000000e+000 1.505895e-003
      endloop
   endfacet
   facet normal -9.986550e-001 0.000000e+000 -5.184799e-002
      outer loop
         vertex -3.397541e-002 1.200000e-002 -8.406611e-003
         vertex -3.496759e-002 0.000000e+000 1.505895e-003
         vertex -3.496759e-002 1.200000e-002 1.505895e-003
      endloop
   endfacet
   facet normal -9.905001e-001 0.000000e+000 1.375120e-001
      outer loop
         vertex -3.496759e-002 1.200000e-002 1.505895e-003
         vertex -3.496759e-002 0.000000e+000 1.505895e-003
         vertex -3.312689e-002 0.000000e+000 1.129640e-002
      endloop
   endfacet
   facet normal -9.728097e-001 0.000000e+000 2.316058e-001
      outer loop
         vertex -3.496759e-002 1.200000e-002 1.505895e-003
         vertex -3.312689e-002 0.000000e+000 1.129640e-002
         vertex -3.312689e-002 1.200000e-002 1.129640e-002
      endloop
   endfacet
   facet normal -9.116362e-001 0.000000e+000 4.109980e-001
      outer loop
         vertex -3.312689e-002 1.200000e-002 1.129640e-002
         vertex -3.312689e-002 0.000000e+000 1.129640e-002
         vertex -2.860246e-002 0.000000e+000 2.017174e-002
      endloop
   endfacet
   facet normal -8.681532e-001 0.000000e+000 4.962963e-001
      outer loop
         vertex -3.312689e-002 1.200000e-002 1.129640e-002
         vertex -2.860246e-002 0.000000e+000 2.017174e-002
         vertex -2.860246e-002 1.200000e-002 2.017174e-002
      endloop
   endfacet
   facet normal -7.589171e-001 0.000000e+000 6.511873e-001
      outer loop
         vertex -2.860246e-002 1.200000e-002 2.017174e-002
         vertex -2.860246e-002 0.000000e+000 2.017174e-002
         vertex -2.176082e-002 0.000000e+000 2.741289e-002
      endloop
   endfacet
   facet normal -6.931641e-001 0.000000e+000 7.207798e-001
      outer loop
         vertex -2.860246e-002 1.200000e-002 2.017174e-002
         vertex -2.176082e-002 0.000000e+000 2.741289e-002
         vertex -2.176082e-002 1.200000e-002 2.741289e-002
      endloop
   endfacet
   facet normal -5.447149e-001 0.000000e+000 8.386213e-001
      outer loop
         vertex -2.176082e-002 1.200000e-002 2.741289e-002
         vertex -2.176082e-002 0.000000e+000 2.741289e-002
         vertex -1.315625e-002 0.000000e+000 3.243321e-002
      endloop
   endfacet
   facet normal -4.620188e-001 0.000000e+000 8.868701e-001
      outer loop
         vertex -2.176082e-002 1.200000e-002 2.741289e-002
         vertex -1.315625e-002 0.000000e+000 3.243321e-002
         vertex -1.315625e-002 1.200000e-002 3.243321e-002
      endloop
   endfacet
   facet normal -2.863833e-001 0.000000e+000 9.581152e-001
      outer loop
         vertex -1.315625e-002 1.200000e-002 3.243321e-002
         vertex -1.315625e-002 0.000000e+000 3.243321e-002
         vertex -3.485836e-003 0.000000e+000 3.482598e-002
      endloop
   endfacet
   facet normal -1.934437e-001 0.000000e+000 9.811114e-001
      outer loop
         vertex -1.315625e-002 1.200000e-002 3.243321e-002
         vertex -3.485836e-003 0.000000e+000 3.482598e-002
         vertex -3.485836e-003 1.200000e-002 3.482598e-002
      endloop
   endfacet
   facet normal -9.932998e-001 0.000000e+000 -1.155660e-001
      outer loop
         vertex 2.014101e-001 0.000000e+000 1.841787e-001
         vertex 2.029178e-001 1.200000e-002 1.756282e-001
         vertex 2.029178e-001 0.000000e+000 1.756282e-001
      endloop
   endfacet
   facet normal -9.932998e-001 0.000000e+000 1.155660e-001
      outer loop
         vertex 2.029178e-001 0.000000e+000 1.756282e-001
         vertex 2.029178e-001 1.200000e-002 1.756282e-001
         vertex 2.014101e-001 1.200000e-002 1.670777e-001
      endloop
   endfacet
   facet normal -9.729224e-001 0.000000e+000 2.311320e-001
      outer loop
         vertex 2.029178e-001 0.000000e+000 1.756282e-001
         vertex 2.014101e-001 1.200000e-002 1.670777e-001
         vertex 2.014101e-001 0.000000e+000 1.670777e-001
      endloop
   endfacet
   facet normal -8.938706e-001 0.000000e+000 4.483251e-001
      outer loop
         vertex 2.014101e-001 0.000000e+000 1.670777e-001
         vertex 2.014101e-001 1.200000e-002 1.670777e-001
         vertex 1.970689e-001 1.200000e-002 1.595585e-001
      endloop
   endfacet
   facet normal -8.351962e-001 0.000000e+000 5.499521e-001
      outer loop
         vertex 2.014101e-001 0.000000e+000 1.670777e-001
         vertex 1.970689e-001 1.200000e-002 1.595585e-001
         vertex 1.970689e-001 0.000000e+000 1.595585e-001
      endloop
   endfacet
   facet normal -6.866274e-001 0.000000e+000 7.270095e-001
      outer loop
         vertex 1.970689e-001 0.000000e+000 1.595585e-001
         vertex 1.970689e-001 1.200000e-002 1.595585e-001
         vertex 1.904178e-001 1.200000e-002 1.539775e-001
      endloop
   endfacet
   facet normal -5.967330e-001 0.000000e+000 8.024399e-001
      outer loop
         vertex 1.970689e-001 0.000000e+000 1.595585e-001
         vertex 1.904178e-001 1.200000e-002 1.539775e-001
         vertex 1.904178e-001 0.000000e+000 1.539775e-001
      endloop
   endfacet
   facet normal -3.965668e-001 0.000000e+000 9.180059e-001
      outer loop
         vertex 1.904178e-001 0.000000e+000 1.539775e-001
         vertex 1.904178e-001 1.200000e-002 1.539775e-001
         vertex 1.822590e-001 1.200000e-002 1.510080e-001
      endloop
   endfacet
   facet normal -2.862950e-001 0.000000e+000 9.581415e-001
      outer loop
         vertex 1.904178e-001 0.000000e+000 1.539775e-001
         vertex 1.822590e-001 1.200000e-002 1.510080e-001
         vertex 1.822590e-001 0.000000e+000 1.510080e-001
      endloop
   endfacet
   facet normal -5.867440e-002 0.000000e+000 9.982772e-001
      outer loop
         vertex 1.822590e-001 0.000000e+000 1.510080e-001
         vertex 1.822590e-001 1.200000e-002 1.510080e-001
         vertex 1.735766e-001 1.200000e-002 1.510080e-001
      endloop
   endfacet
   facet normal 5.867440e-002 0.000000e+000 9.982772e-001
      outer loop
         vertex 1.822590e-001 0.000000e+000 1.510080e-001
         vertex 1.735766e-001 1.200000e-002 1.510080e-001
         vertex 1.735766e-001 0.000000e+000 1.510080e-001
      endloop
   endfacet
   facet normal 2.862950e-001 0.000000e+000 9.581415e-001
      outer loop
         vertex 1.735766e-001 0.000000e+000 1.510080e-001
         vertex 1.735766e-001 1.200000e-002 1.510080e-001
         vertex 1.654178e-001 1.200000e-002 1.539775e-001
      endloop
   endfacet
   facet normal 3.965668e-001 0.000000e+000 9.180059e-001
      outer loop
         vertex 1.735766e-001 0.000000e+000 1.510080e-001
         vertex 1.654178e-001 1.200000e-002 1.539775e-001
         vertex 1.654178e-001 0.000000e+000 1.539775e-001
      endloop
   endfacet
   facet normal 5.967330e-001 0.000000e+000 8.024399e-001
      outer loop
         vertex 1.654178e-001 0.000000e+000 1.539775e-001
         vertex 1.654178e-001 1.200000e-002 1.539775e-001
         vertex 1.587667e-001 1.200000e-002 1.595585e-001
      endloop
   endfacet
   facet normal 6.866274e-001 0.000000e+000 7.270095e-001
      outer loop
         vertex 1.654178e-001 0.000000e+000 1.539775e-001
         vertex 1.587667e-001 1.200000e-002 1.595585e-001
         vertex 1.587667e-001 0.000000e+000 1.595585e-001
      endloop
   endfacet
   facet normal 8.351962e-001 0.000000e+000 5.499521e-001
      outer loop
         vertex 1.587667e-001 0.000000e+000 1.595585e-001
         vertex 1.587667e-001 1.200000e-002 1.595585e-001
         vertex 1.544255e-001 1.200000e-002 1.670777e-001
      endloop
   endfacet
   facet normal 8.938706e-001 0.000000e+000 4.483251e-001
      outer loop
         vertex 1.587667e-001 0.000000e+000 1.595585e-001
         vertex 1.544255e-001 1.200000e-002 1.670777e-001
         vertex 1.544255e-001 0.000000e+000 1.670777e-001
      endloop
   endfacet
   facet normal 9.729224e-001 0.000000e+000 2.311320e-001
      outer loop
         vertex 1.544255e-001 0.000000e+000 1.670777e-001
         vertex 1.544255e-001 1.200000e-002 1.670777e-001
         vertex 1.529178e-001 1.200000e-002 1.756282e-001
      endloop
   endfacet
   facet normal 9.932998e-001 0.000000e+000 1.155660e-001
      outer loop
         vertex 1.544255e-001 0.000000e+000 1.670777e-001
         vertex 1.529178e-001 1.200000e-002 1.756282e-001
         vertex 1.529178e-001 0.000000e+000 1.756282e-001
      endloop
   endfacet
   facet normal 9.932998e-001 0.000000e+000 -1.155660e-001
      outer loop
         vertex 1.529178e-001 0.000000e+000 1.756282e-001
         vertex 1.529178e-001 1.200000e-002 1.756282e-001
         vertex 1.544255e-001 1.200000e-002 1.841787e-001
      endloop
   endfacet
   facet normal 9.729224e-001 0.000000e+000 -2.311320e-001
      outer loop
         vertex 1.529178e-001 0.000000e+000 1.756282e-001
         vertex 1.544255e-001 1.200000e-002 1.841787e-001
         vertex 1.544255e-001 0.000000e+000 1.841787e-001
      endloop
   endfacet
   facet normal 8.938706e-001 0.000000e+000 -4.483251e-001
      outer loop
         vertex 1.544255e-001 0.000000e+000 1.841787e-001
         vertex 1.544255e-001 1.200000e-002 1.841787e-001
         vertex 1.587667e-001 1.200000e-002 1.916979e-001
      endloop
   endfacet
   facet normal 8.351962e-001 0.000000e+000 -5.499521e-001
      outer loop
         vertex 1.544255e-001 0.000000e+000 1.841787e-001
         vertex 1.587667e-001 1.200000e-002 1.916979e-001
         vertex 1.587667e-001 0.000000e+000 1.916979e-001
      endloop
   endfacet
   facet normal 6.866274e-001 0.000000e+000 -7.270095e-001
      outer loop
         vertex 1.587667e-001 0.000000e+000 1.916979e-001
         vertex 1.587667e-001 1.200000e-002 1.916979e-001
         vertex 1.654178e-001 1.200000e-002 1.972788e-001
      endloop
   endfacet
   facet normal 5.967330e-001 0.000000e+000 -8.024399e-001
      outer loop
         vertex 1.587667e-001 0.000000e+000 1.916979e-001
         vertex 1.654178e-001 1.200000e-002 1.972788e-001
         vertex 1.654178e-001 0.000000e+000 1.972788e-001
      endloop
   endfacet
   facet normal 3.965668e-001 0.000000e+000 -9.180059e-001
      outer loop
         vertex 1.654178e-001 0.000000e+000 1.972788e-001
         vertex 1.654178e-001 1.200000e-002 1.972788e-001
         vertex 1.735766e-001 1.200000e-002 2.002484e-001
      endloop
   endfacet
   facet normal 2.862950e-001 0.000000e+000 -9.581415e-001
      outer loop
         vertex 1.654178e-001 0.000000e+000 1.972788e-001
         vertex 1.735766e-001 1.200000e-002 2.002484e-001
         vertex 1.735766e-001 0.000000e+000 2.002484e-001
      endloop
   endfacet
   facet normal 5.867440e-002 0.000000e+000 -9.982772e-001
      outer loop
         vertex 1.735766e-001 0.000000e+000 2.002484e-001
         vertex 1.735766e-001 1.200000e-002 2.002484e-001
         vertex 1.822590e-001 1.200000e-002 2.002484e-001
      endloop
   endfacet
   facet normal -5.867440e-002 0.000000e+000 -9.982772e-001
      outer loop
         vertex 1.735766e-001 0.000000e+000 2.002484e-001
         vertex 1.822590e-001 1.200000e-002 2.002484e-001
         vertex 1.822590e-001 0.000000e+000 2.002484e-001
      endloop
   endfacet
   facet normal -2.862950e-001 0.000000e+000 -9.581415e-001
      outer loop
         vertex 1.822590e-001 0.000000e+000 2.002484e-001
         vertex 1.822590e-001 1.200000e-002 2.002484e-001
         vertex 1.904178e-001 1.200000e-002 1.972788e-001
      endloop
   endfacet
   facet normal -3.965668e-001 0.000000e+000 -9.180059e-001
      outer loop
         vertex 1.822590e-001 0.000000e+000 2.002484e-001
         vertex 1.904178e-001 1.200000e-002 1.972788e-001
         vertex 1.904178e-001 0.000000e+000 1.972788e-001
      endloop
   endfacet
   facet normal -5.967330e-001 0.000000e+000 -8.024399e-001
      outer loop
         vertex 1.904178e-001 0.000000e+000 1.972788e-001
         vertex 1.904178e-001 1.200000e-002 1.972788e-001
         vertex 1.970689e-001 1.200000e-002 1.916979e-001
      endloop
   endfacet
   facet normal -6.866274e-001 0.000000e+000 -7.270095e-001
      outer loop
         vertex 1.904178e-001 0.000000e+000 1.972788e-001
         vertex 1.970689e-001 1.200000e-002 1.916979e-001
         vertex 1.970689e-001 0.000000e+000 1.916979e-001
      endloop
   endfacet
   facet normal -8.351962e-001 0.000000e+000 -5.499521e-001
      outer loop
         vertex 1.970689e-001 0.000000e+000 1.916979e-001
         vertex 1.970689e-001 1.200000e-002 1.916979e-001
         vertex 2.014101e-001 1.200000e-002 1.841787e-001
      endloop
   endfacet
   facet normal -8.938706e-001 0.000000e+000 -4.483251e-001
      outer loop
         vertex 1.970689e-001 0.000000e+000 1.916979e-001
         vertex 2.014101e-001 1.200000e-002 1.841787e-001
         vertex 2.014101e-001 0.000000e+000 1.841787e-001
      endloop
   endfacet
   facet normal -9.729224e-001 0.000000e+000 -2.311320e-001
      outer loop
         vertex 2.014101e-001 0.000000e+000 1.841787e-001
         vertex 2.014101e-001 1.200000e-002 1.841787e-001
         vertex 2.029178e-001 1.200000e-002 1.756282e-001
      endloop
   endfacet
   facet normal 0.000000e+000 1.000000e+000 0.000000e+000
      outer loop
         vertex 2.014101e-001 1.200000e-002 1.670777e-001
         vertex 2.029178e-001 1.200000e-002 1.756282e-001
         vertex 2.126957e-001 1.200000e-002 1.716916e-001
      endloop
   endfacet
   facet normal 0.000000e+000 1.000000e+000 0.000000e+000
      outer loop
         vertex -1.915111e-002 1.200000e-002 1.606969e-002
         vertex -2.349232e-002 1.200000e-002 8.550508e-003
         vertex -3.312689e-002 1.200000e-002 1.129640e-002
      endloop
   endfacet
   facet normal 0.000000e+000 1.000000e+000 0.000000e+000
      outer loop
         vertex 1.735766e-001 1.200000e-002 2.002484e-001
         vertex 1.768649e-001 1.200000e-002 2.106123e-001
         vertex 1.822590e-001 1.200000e-002 2.002484e-001
      endloop
   endfacet
   facet normal 0.000000e+000 1.000000e+000 0.000000e+000
      outer loop
         vertex 1.822590e-001 1.200000e-002 2.002484e-001
         vertex 1.768649e-001 1.200000e-002 2.106123e-001
         vertex 1.867637e-001 1.200000e-002 2.094919e-001
      endloop
   endfacet
   facet normal 0.000000e+000 1.000000e+000 0.000000e+000
      outer loop
         vertex 1.822590e-001 1.200000e-002 2.002484e-001
         vertex 1.867637e-001 1.200000e-002 2.094919e-001
         vertex 1.904178e-001 1.200000e-002 1.972788e-001
      endloop
   endfacet
   facet normal 0.000000e+000 1.000000e+000 0.000000e+000
      outer loop
         vertex 1.904178e-001 1.200000e-002 1.972788e-001
         vertex 1.867637e-001 1.200000e-002 2.094919e-001
         vertex 1.959459e-001 1.200000e-002 2.056279e-001
      endloop
   endfacet
   facet normal 0.000000e+000 1.000000e+000 0.000000e+000
      outer loop
         vertex 1.904178e-001 1.200000e-002 1.972788e-001
         vertex 1.959459e-001 1.200000e-002 2.056279e-001
         vertex 1.970689e-001 1.200000e-002 1.916979e-001
      endloop
   endfacet
   facet normal 0.000000e+000 1.000000e+000 0.000000e+000
      outer loop
         vertex 1.970689e-001 1.200000e-002 1.916979e-001
         vertex 1.959459e-001 1.200000e-002 2.056279e-001
         vertex 2.036676e-001 1.200000e-002 1.993336e-001
      endloop
   endfacet
   facet normal 0.000000e+000 1.000000e+000 0.000000e+000
      outer loop
         vertex 1.970689e-001 1.200000e-002 1.916979e-001
         vertex 2.036676e-001 1.200000e-002 1.993336e-001
         vertex 2.014101e-001 1.200000e-002 1.841787e-001
      endloop
   endfacet
   facet normal 0.000000e+000 1.000000e+000 0.000000e+000
      outer loop
         vertex 2.014101e-001 1.200000e-002 1.841787e-001
         vertex 2.036676e-001 1.200000e-002 1.993336e-001
         vertex 2.093031e-001 1.200000e-002 1.911189e-001
      endloop
   endfacet
   facet normal 0.000000e+000 1.000000e+000 0.000000e+000
      outer loop
         vertex 2.014101e-001 1.200000e-002 1.841787e-001
         vertex 2.093031e-001 1.200000e-002 1.911189e-001
         vertex 2.029178e-001 1.200000e-002 1.756282e-001
      endloop
   endfacet
   facet normal 0.000000e+000 1.000000e+000 0.000000e+000
      outer loop
         vertex 2.029178e-001 1.200000e-002 1.756282e-001
         vertex 2.093031e-001 1.200000e-002 1.911189e-001
         vertex 2.123960e-001 1.200000e-002 1.816491e-001
      endloop
   endfacet
   facet normal 0.000000e+000 1.000000e+000 0.000000e+000
      outer loop
         vertex 2.029178e-001 1.200000e-002 1.756282e-001
         vertex 2.123960e-001 1.200000e-002 1.816491e-001
         vertex 2.126957e-001 1.200000e-002 1.716916e-001
      endloop
   endfacet
   facet normal 0.000000e+000 1.000000e+000 0.000000e+000
      outer loop
         vertex -3.312689e-002 1.200000e-002 1.129640e-002
         vertex -2.349232e-002 1.200000e-002 8.550508e-003
         vertex -3.496759e-002 1.200000e-002 1.505895e-003
      endloop
   endfacet
   facet normal 0.000000e+000 1.000000e+000 0.000000e+000
      outer loop
         vertex -3.496759e-002 1.200000e-002 1.505895e-003
         vertex -2.349232e-002 1.200000e-002 8.550508e-003
         vertex -2.500000e-002 1.200000e-002 -1.710162e-009
      endloop
   endfacet
   facet normal 0.000000e+000 1.000000e+000 0.000000e+000
      outer loop
         vertex -3.496759e-002 1.200000e-002 1.505895e-003
         vertex -2.500000e-002 1.200000e-002 -1.710162e-009
         vertex -3.397541e-002 1.200000e-002 -8.406611e-003
      endloop
   endfacet
   facet normal 0.000000e+000 1.000000e+000 0.000000e+000
      outer loop
         vertex -3.397541e-002 1.200000e-002 -8.406611e-003
         vertex -2.500000e-002 1.200000e-002 -1.710162e-009
         vertex -2.349232e-002 1.200000e-002 -8.550497e-003
      endloop
   endfacet
   facet normal 0.000000e+000 1.000000e+000 0.000000e+000
      outer loop
         vertex -3.397541e-002 1.200000e-002 -8.406611e-003
         vertex -2.349232e-002 1.200000e-002 -8.550497e-003
         vertex -3.023076e-002 1.200000e-002 -1.763806e-002
      endloop
   endfacet
   facet normal 0.000000e+000 1.000000e+000 0.000000e+000
      outer loop
         vertex -3.023076e-002 1.200000e-002 -1.763806e-002
         vertex -2.349232e-002 1.200000e-002 -8.550497e-003
         vertex -1.915111e-002 1.200000e-002 -1.606970e-002
      endloop
   endfacet
   facet normal 0.000000e+000 1.000000e+000 0.000000e+000
      outer loop
         vertex -3.023076e-002 1.200000e-002 -1.763806e-002
         vertex -1.915111e-002 1.200000e-002 -1.606970e-002
         vertex -2.403698e-002 1.200000e-002 -2.544059e-002
      endloop
   endfacet
   facet normal 0.000000e+000 1.000000e+000 0.000000e+000
      outer loop
         vertex 2.349232e-002 1.200000e-002 8.550508e-003
         vertex 1.915111e-002 1.200000e-002 1.606969e-002
         vertex 7.852656e-002 1.200000e-002 6.677012e-002
      endloop
   endfacet
   facet normal 0.000000e+000 1.000000e+000 0.000000e+000
      outer loop
         vertex -3.312689e-002 1.200000e-002 1.129640e-002
         vertex -2.860246e-002 1.200000e-002 2.017174e-002
         vertex -1.915111e-002 1.200000e-002 1.606969e-002
      endloop
   endfacet
   facet normal 0.000000e+000 1.000000e+000 0.000000e+000
      outer loop
         vertex -1.915111e-002 1.200000e-002 1.606969e-002
         vertex -2.860246e-002 1.200000e-002 2.017174e-002
         vertex -2.176082e-002 1.200000e-002 2.741289e-002
      endloop
   endfacet
   facet normal 0.000000e+000 1.000000e+000 0.000000e+000
      outer loop
         vertex -1.915111e-002 1.200000e-002 1.606969e-002
         vertex -2.176082e-002 1.200000e-002 2.741289e-002
         vertex -1.250000e-002 1.200000e-002 2.165064e-002
      endloop
   endfacet
   facet normal 0.000000e+000 1.000000e+000 0.000000e+000
      outer loop
         vertex -1.250000e-002 1.200000e-002 2.165064e-002
         vertex -2.176082e-002 1.200000e-002 2.741289e-002
         vertex -1.315625e-002 1.200000e-002 3.243321e-002
      endloop
   endfacet
   facet normal 0.000000e+000 1.000000e+000 0.000000e+000
      outer loop
         vertex -1.250000e-002 1.200000e-002 2.165064e-002
         vertex -1.315625e-002 1.200000e-002 3.243321e-002
         vertex -4.341204e-003 1.200000e-002 2.462019e-002
      endloop
   endfacet
   facet normal 0.000000e+000 1.000000e+000 0.000000e+000
      outer loop
         vertex -4.341204e-003 1.200000e-002 2.462019e-002
         vertex -1.315625e-002 1.200000e-002 3.243321e-002
         vertex -3.485836e-003 1.200000e-002 3.482598e-002
      endloop
   endfacet
   facet normal 0.000000e+000 1.000000e+000 0.000000e+000
      outer loop
         vertex -4.341204e-003 1.200000e-002 2.462019e-002
         vertex -3.485836e-003 1.200000e-002 3.482598e-002
         vertex 4.341204e-003 1.200000e-002 2.462019e-002
      endloop
   endfacet
   facet normal 0.000000e+000 1.000000e+000 0.000000e+000
      outer loop
         vertex 4.341204e-003 1.200000e-002 2.462019e-002
         vertex -3.485836e-003 1.200000e-002 3.482598e-002
         vertex 1.846135e-002 1.200000e-002 3.854090e-002
      endloop
   endfacet
   facet normal 0.000000e+000 1.000000e+000 0.000000e+000
      outer loop
         vertex 4.341204e-003 1.200000e-002 2.462019e-002
         vertex 1.846135e-002 1.200000e-002 3.854090e-002
         vertex 1.250000e-002 1.200000e-002 2.165064e-002
      endloop
   endfacet
   facet normal 0.000000e+000 1.000000e+000 0.000000e+000
      outer loop
         vertex 1.250000e-002 1.200000e-002 2.165064e-002
         vertex 1.846135e-002 1.200000e-002 3.854090e-002
         vertex 3.970333e-002 1.200000e-002 4.519357e-002
      endloop
   endfacet
   facet normal 0.000000e+000 1.000000e+000 0.000000e+000
      outer loop
         vertex 1.250000e-002 1.200000e-002 2.165064e-002
         vertex 3.970333e-002 1.200000e-002 4.519357e-002
         vertex 1.915111e-002 1.200000e-002 1.606969e-002
      endloop
   endfacet
   facet normal 0.000000e+000 1.000000e+000 0.000000e+000
      outer loop
         vertex 1.915111e-002 1.200000e-002 1.606969e-002
         vertex 3.970333e-002 1.200000e-002 4.519357e-002
         vertex 5.984877e-002 1.200000e-002 5.466145e-002
      endloop
   endfacet
   facet normal 0.000000e+000 1.000000e+000 0.000000e+000
      outer loop
         vertex 1.915111e-002 1.200000e-002 1.606969e-002
         vertex 5.984877e-002 1.200000e-002 5.466145e-002
         vertex 7.852656e-002 1.200000e-002 6.677012e-002
      endloop
   endfacet
   facet normal 0.000000e+000 1.000000e+000 0.000000e+000
      outer loop
         vertex 9.539261e-002 1.200000e-002 8.129650e-002
         vertex 1.101362e-001 1.200000e-002 9.797300e-002
         vertex 1.029947e-001 1.200000e-002 -1.169475e-003
      endloop
   endfacet
   facet normal 0.000000e+000 1.000000e+000 0.000000e+000
      outer loop
         vertex -2.403698e-002 1.200000e-002 -2.544059e-002
         vertex -1.915111e-002 1.200000e-002 -1.606970e-002
         vertex -1.589588e-002 1.200000e-002 -3.118207e-002
      endloop
   endfacet
   facet normal 0.000000e+000 1.000000e+000 0.000000e+000
      outer loop
         vertex -1.589588e-002 1.200000e-002 -3.118207e-002
         vertex -1.915111e-002 1.200000e-002 -1.606970e-002
         vertex -1.250000e-002 1.200000e-002 -2.165063e-002
      endloop
   endfacet
   facet normal 0.000000e+000 1.000000e+000 0.000000e+000
      outer loop
         vertex -1.589588e-002 1.200000e-002 -3.118207e-002
         vertex -1.250000e-002 1.200000e-002 -2.165063e-002
         vertex -6.466977e-003 1.200000e-002 -3.439735e-002
      endloop
   endfacet
   facet normal 0.000000e+000 1.000000e+000 0.000000e+000
      outer loop
         vertex -6.466977e-003 1.200000e-002 -3.439735e-002
         vertex -1.250000e-002 1.200000e-002 -2.165063e-002
         vertex -4.341204e-003 1.200000e-002 -2.462019e-002
      endloop
   endfacet
   facet normal 0.000000e+000 1.000000e+000 0.000000e+000
      outer loop
         vertex -6.466977e-003 1.200000e-002 -3.439735e-002
         vertex -4.341204e-003 1.200000e-002 -2.462019e-002
         vertex 3.485837e-003 1.200000e-002 -3.482598e-002
      endloop
   endfacet
   facet normal 0.000000e+000 1.000000e+000 0.000000e+000
      outer loop
         vertex 3.485837e-003 1.200000e-002 -3.482598e-002
         vertex -4.341204e-003 1.200000e-002 -2.462019e-002
         vertex 4.341204e-003 1.200000e-002 -2.462019e-002
      endloop
   endfacet
   facet normal 0.000000e+000 1.000000e+000 0.000000e+000
      outer loop
         vertex 3.485837e-003 1.200000e-002 -3.482598e-002
         vertex 4.341204e-003 1.200000e-002 -2.462019e-002
         vertex 2.963605e-002 1.200000e-002 -3.070355e-002
      endloop
   endfacet
   facet normal 0.000000e+000 1.000000e+000 0.000000e+000
      outer loop
         vertex 1.654178e-001 1.200000e-002 1.539775e-001
         vertex 1.224858e-001 1.200000e-002 1.164924e-001
         vertex 1.587667e-001 1.200000e-002 1.595585e-001
      endloop
   endfacet
   facet normal 0.000000e+000 1.000000e+000 0.000000e+000
      outer loop
         vertex 1.587667e-001 1.200000e-002 1.595585e-001
         vertex 1.224858e-001 1.200000e-002 1.164924e-001
         vertex 1.322138e-001 1.200000e-002 1.365135e-001
      endloop
   endfacet
   facet normal 0.000000e+000 1.000000e+000 0.000000e+000
      outer loop
         vertex 1.587667e-001 1.200000e-002 1.595585e-001
         vertex 1.322138e-001 1.200000e-002 1.365135e-001
         vertex 1.544255e-001 1.200000e-002 1.670777e-001
      endloop
   endfacet
   facet normal 0.000000e+000 1.000000e+000 0.000000e+000
      outer loop
         vertex 1.544255e-001 1.200000e-002 1.670777e-001
         vertex 1.322138e-001 1.200000e-002 1.365135e-001
         vertex 1.391410e-001 1.200000e-002 1.576675e-001
      endloop
   endfacet
   facet normal 0.000000e+000 1.000000e+000 0.000000e+000
      outer loop
         vertex 1.544255e-001 1.200000e-002 1.670777e-001
         vertex 1.391410e-001 1.200000e-002 1.576675e-001
         vertex 1.529178e-001 1.200000e-002 1.756282e-001
      endloop
   endfacet
   facet normal 0.000000e+000 1.000000e+000 0.000000e+000
      outer loop
         vertex 1.529178e-001 1.200000e-002 1.756282e-001
         vertex 1.391410e-001 1.200000e-002 1.576675e-001
         vertex 1.431399e-001 1.200000e-002 1.795648e-001
      endloop
   endfacet
   facet normal 0.000000e+000 1.000000e+000 0.000000e+000
      outer loop
         vertex 1.529178e-001 1.200000e-002 1.756282e-001
         vertex 1.431399e-001 1.200000e-002 1.795648e-001
         vertex 1.544255e-001 1.200000e-002 1.841787e-001
      endloop
   endfacet
   facet normal 0.000000e+000 1.000000e+000 0.000000e+000
      outer loop
         vertex 1.544255e-001 1.200000e-002 1.841787e-001
         vertex 1.431399e-001 1.200000e-002 1.795648e-001
         vertex 1.456577e-001 1.200000e-002 1.892034e-001
      endloop
   endfacet
   facet normal 0.000000e+000 1.000000e+000 0.000000e+000
      outer loop
         vertex 1.544255e-001 1.200000e-002 1.841787e-001
         vertex 1.456577e-001 1.200000e-002 1.892034e-001
         vertex 1.587667e-001 1.200000e-002 1.916979e-001
      endloop
   endfacet
   facet normal 0.000000e+000 1.000000e+000 0.000000e+000
      outer loop
         vertex 1.587667e-001 1.200000e-002 1.916979e-001
         vertex 1.456577e-001 1.200000e-002 1.892034e-001
         vertex 1.507891e-001 1.200000e-002 1.977422e-001
      endloop
   endfacet
   facet normal 0.000000e+000 1.000000e+000 0.000000e+000
      outer loop
         vertex 1.587667e-001 1.200000e-002 1.916979e-001
         vertex 1.507891e-001 1.200000e-002 1.977422e-001
         vertex 1.654178e-001 1.200000e-002 1.972788e-001
      endloop
   endfacet
   facet normal 0.000000e+000 1.000000e+000 0.000000e+000
      outer loop
         vertex 1.654178e-001 1.200000e-002 1.972788e-001
         vertex 1.507891e-001 1.200000e-002 1.977422e-001
         vertex 1.581182e-001 1.200000e-002 2.044895e-001
      endloop
   endfacet
   facet normal 0.000000e+000 1.000000e+000 0.000000e+000
      outer loop
         vertex 1.654178e-001 1.200000e-002 1.972788e-001
         vertex 1.581182e-001 1.200000e-002 2.044895e-001
         vertex 1.735766e-001 1.200000e-002 2.002484e-001
      endloop
   endfacet
   facet normal 0.000000e+000 1.000000e+000 0.000000e+000
      outer loop
         vertex 1.735766e-001 1.200000e-002 2.002484e-001
         vertex 1.581182e-001 1.200000e-002 2.044895e-001
         vertex 1.670514e-001 1.200000e-002 2.088986e-001
      endloop
   endfacet
   facet normal 0.000000e+000 1.000000e+000 0.000000e+000
      outer loop
         vertex 1.735766e-001 1.200000e-002 2.002484e-001
         vertex 1.670514e-001 1.200000e-002 2.088986e-001
         vertex 1.768649e-001 1.200000e-002 2.106123e-001
      endloop
   endfacet
   facet normal 0.000000e+000 1.000000e+000 0.000000e+000
      outer loop
         vertex 1.735766e-001 1.200000e-002 1.510080e-001
         vertex 1.623265e-001 1.200000e-002 5.111319e-002
         vertex 1.654178e-001 1.200000e-002 1.539775e-001
      endloop
   endfacet
   facet normal 0.000000e+000 1.000000e+000 0.000000e+000
      outer loop
         vertex 1.654178e-001 1.200000e-002 1.539775e-001
         vertex 1.623265e-001 1.200000e-002 5.111319e-002
         vertex 1.445685e-001 1.200000e-002 3.147952e-002
      endloop
   endfacet
   facet normal 0.000000e+000 1.000000e+000 0.000000e+000
      outer loop
         vertex 1.101362e-001 1.200000e-002 9.797300e-002
         vertex 1.224858e-001 1.200000e-002 1.164924e-001
         vertex 1.029947e-001 1.200000e-002 -1.169475e-003
      endloop
   endfacet
   facet normal 0.000000e+000 1.000000e+000 0.000000e+000
      outer loop
         vertex 1.029947e-001 1.200000e-002 -1.169475e-003
         vertex 1.224858e-001 1.200000e-002 1.164924e-001
         vertex 1.654178e-001 1.200000e-002 1.539775e-001
      endloop
   endfacet
   facet normal 0.000000e+000 1.000000e+000 0.000000e+000
      outer loop
         vertex 1.029947e-001 1.200000e-002 -1.169475e-003
         vertex 1.654178e-001 1.200000e-002 1.539775e-001
         vertex 1.247065e-001 1.200000e-002 1.397729e-002
      endloop
   endfacet
   facet normal 0.000000e+000 1.000000e+000 0.000000e+000
      outer loop
         vertex 1.247065e-001 1.200000e-002 1.397729e-002
         vertex 1.654178e-001 1.200000e-002 1.539775e-001
         vertex 1.445685e-001 1.200000e-002 3.147952e-002
      endloop
   endfacet
   facet normal 0.000000e+000 1.000000e+000 0.000000e+000
      outer loop
         vertex 2.014101e-001 1.200000e-002 1.670777e-001
         vertex 2.126957e-001 1.200000e-002 1.716916e-001
         vertex 1.970689e-001 1.200000e-002 1.595585e-001
      endloop
   endfacet
   facet normal 0.000000e+000 1.000000e+000 0.000000e+000
      outer loop
         vertex 1.970689e-001 1.200000e-002 1.595585e-001
         vertex 2.126957e-001 1.200000e-002 1.716916e-001
         vertex 2.082349e-001 1.200000e-002 1.455970e-001
      endloop
   endfacet
   facet normal 0.000000e+000 1.000000e+000 0.000000e+000
      outer loop
         vertex 1.970689e-001 1.200000e-002 1.595585e-001
         vertex 2.082349e-001 1.200000e-002 1.455970e-001
         vertex 1.904178e-001 1.200000e-002 1.539775e-001
      endloop
   endfacet
   facet normal 0.000000e+000 1.000000e+000 0.000000e+000
      outer loop
         vertex 1.904178e-001 1.200000e-002 1.539775e-001
         vertex 2.082349e-001 1.200000e-002 1.455970e-001
         vertex 2.008553e-001 1.200000e-002 1.201732e-001
      endloop
   endfacet
   facet normal 0.000000e+000 1.000000e+000 0.000000e+000
      outer loop
         vertex 1.904178e-001 1.200000e-002 1.539775e-001
         vertex 2.008553e-001 1.200000e-002 1.201732e-001
         vertex 1.822590e-001 1.200000e-002 1.510080e-001
      endloop
   endfacet
   facet normal 0.000000e+000 1.000000e+000 0.000000e+000
      outer loop
         vertex 1.822590e-001 1.200000e-002 1.510080e-001
         vertex 2.008553e-001 1.200000e-002 1.201732e-001
         vertex 1.906512e-001 1.200000e-002 9.574565e-002
      endloop
   endfacet
   facet normal 0.000000e+000 1.000000e+000 0.000000e+000
      outer loop
         vertex 1.822590e-001 1.200000e-002 1.510080e-001
         vertex 1.906512e-001 1.200000e-002 9.574565e-002
         vertex 1.735766e-001 1.200000e-002 1.510080e-001
      endloop
   endfacet
   facet normal 0.000000e+000 1.000000e+000 0.000000e+000
      outer loop
         vertex 1.735766e-001 1.200000e-002 1.510080e-001
         vertex 1.906512e-001 1.200000e-002 9.574565e-002
         vertex 1.777532e-001 1.200000e-002 7.262702e-002
      endloop
   endfacet
   facet normal 0.000000e+000 1.000000e+000 0.000000e+000
      outer loop
         vertex 1.735766e-001 1.200000e-002 1.510080e-001
         vertex 1.777532e-001 1.200000e-002 7.262702e-002
         vertex 1.623265e-001 1.200000e-002 5.111319e-002
      endloop
   endfacet
   facet normal 0.000000e+000 1.000000e+000 0.000000e+000
      outer loop
         vertex 7.852656e-002 1.200000e-002 6.677012e-002
         vertex 9.539261e-002 1.200000e-002 8.129650e-002
         vertex 2.349232e-002 1.200000e-002 8.550508e-003
      endloop
   endfacet
   facet normal 0.000000e+000 1.000000e+000 0.000000e+000
      outer loop
         vertex 2.349232e-002 1.200000e-002 8.550508e-003
         vertex 9.539261e-002 1.200000e-002 8.129650e-002
         vertex 1.029947e-001 1.200000e-002 -1.169475e-003
      endloop
   endfacet
   facet normal 0.000000e+000 1.000000e+000 0.000000e+000
      outer loop
         vertex 2.349232e-002 1.200000e-002 8.550508e-003
         vertex 1.029947e-001 1.200000e-002 -1.169475e-003
         vertex 2.500000e-002 1.200000e-002 -1.710162e-009
      endloop
   endfacet
   facet normal 0.000000e+000 1.000000e+000 0.000000e+000
      outer loop
         vertex 2.500000e-002 1.200000e-002 -1.710162e-009
         vertex 1.029947e-001 1.200000e-002 -1.169475e-003
         vertex 7.971091e-002 1.200000e-002 -1.376692e-002
      endloop
   endfacet
   facet normal 0.000000e+000 1.000000e+000 0.000000e+000
      outer loop
         vertex 2.500000e-002 1.200000e-002 -1.710162e-009
         vertex 7.971091e-002 1.200000e-002 -1.376692e-002
         vertex 2.349232e-002 1.200000e-002 -8.550497e-003
      endloop
   endfacet
   facet normal 0.000000e+000 1.000000e+000 0.000000e+000
      outer loop
         vertex 2.349232e-002 1.200000e-002 -8.550497e-003
         vertex 7.971091e-002 1.200000e-002 -1.376692e-002
         vertex 5.515327e-002 1.200000e-002 -2.365378e-002
      endloop
   endfacet
   facet normal 0.000000e+000 1.000000e+000 0.000000e+000
      outer loop
         vertex 2.349232e-002 1.200000e-002 -8.550497e-003
         vertex 5.515327e-002 1.200000e-002 -2.365378e-002
         vertex 1.915111e-002 1.200000e-002 -1.606970e-002
      endloop
   endfacet
   facet normal 0.000000e+000 1.000000e+000 0.000000e+000
      outer loop
         vertex 1.915111e-002 1.200000e-002 -1.606970e-002
         vertex 5.515327e-002 1.200000e-002 -2.365378e-002
         vertex 2.963605e-002 1.200000e-002 -3.070355e-002
      endloop
   endfacet
   facet normal 0.000000e+000 1.000000e+000 0.000000e+000
      outer loop
         vertex 1.915111e-002 1.200000e-002 -1.606970e-002
         vertex 2.963605e-002 1.200000e-002 -3.070355e-002
         vertex 1.250000e-002 1.200000e-002 -2.165063e-002
      endloop
   endfacet
   facet normal 0.000000e+000 1.000000e+000 0.000000e+000
      outer loop
         vertex 1.250000e-002 1.200000e-002 -2.165063e-002
         vertex 2.963605e-002 1.200000e-002 -3.070355e-002
         vertex 4.341204e-003 1.200000e-002 -2.462019e-002
      endloop
   endfacet
   facet normal 0.000000e+000 -1.000000e+000 0.000000e+000
      outer loop
         vertex 2.963605e-002 0.000000e+000 -3.070355e-002
         vertex 1.250000e-002 0.000000e+000 -2.165063e-002
         vertex 3.485837e-003 0.000000e+000 -3.482598e-002
      endloop
   endfacet
   facet normal 0.000000e+000 -1.000000e+000 0.000000e+000
      outer loop
         vertex 3.485837e-003 0.000000e+000 -3.482598e-002
         vertex 1.250000e-002 0.000000e+000 -2.165063e-002
         vertex 4.341204e-003 0.000000e+000 -2.462019e-002
      endloop
   endfacet
   facet normal 0.000000e+000 -1.000000e+000 0.000000e+000
      outer loop
         vertex 3.485837e-003 0.000000e+000 -3.482598e-002
         vertex 4.341204e-003 0.000000e+000 -2.462019e-002
         vertex -6.466977e-003 0.000000e+000 -3.439735e-002
      endloop
   endfacet
   facet normal 0.000000e+000 -1.000000e+000 0.000000e+000
      outer loop
         vertex -6.466977e-003 0.000000e+000 -3.439735e-002
         vertex 4.341204e-003 0.000000e+000 -2.462019e-002
         vertex -4.341204e-003 0.000000e+000 -2.462019e-002
      endloop
   endfacet
   facet normal 0.000000e+000 -1.000000e+000 0.000000e+000
      outer loop
         vertex -6.466977e-003 0.000000e+000 -3.439735e-002
         vertex -4.341204e-003 0.000000e+000 -2.462019e-002
         vertex -1.589588e-002 0.000000e+000 -3.118207e-002
      endloop
   endfacet
   facet normal 0.000000e+000 -1.000000e+000 0.000000e+000
      outer loop
         vertex -1.589588e-002 0.000000e+000 -3.118207e-002
         vertex -4.341204e-003 0.000000e+000 -2.462019e-002
         vertex -1.250000e-002 0.000000e+000 -2.165063e-002
      endloop
   endfacet
   facet normal 0.000000e+000 -1.000000e+000 0.000000e+000
      outer loop
         vertex -1.589588e-002 0.000000e+000 -3.118207e-002
         vertex -1.250000e-002 0.000000e+000 -2.165063e-002
         vertex -2.403698e-002 0.000000e+000 -2.544059e-002
      endloop
   endfacet
   facet normal 0.000000e+000 -1.000000e+000 0.000000e+000
      outer loop
         vertex -2.403698e-002 0.000000e+000 -2.544059e-002
         vertex -1.250000e-002 0.000000e+000 -2.165063e-002
         vertex -1.915111e-002 0.000000e+000 -1.606970e-002
      endloop
   endfacet
   facet normal 0.000000e+000 -1.000000e+000 0.000000e+000
      outer loop
         vertex 7.852656e-002 0.000000e+000 6.677012e-002
         vertex 5.984877e-002 0.000000e+000 5.466145e-002
         vertex 1.250000e-002 0.000000e+000 2.165064e-002
      endloop
   endfacet
   facet normal 0.000000e+000 -1.000000e+000 0.000000e+000
      outer loop
         vertex 1.250000e-002 0.000000e+000 2.165064e-002
         vertex 5.984877e-002 0.000000e+000 5.466145e-002
         vertex 3.970333e-002 0.000000e+000 4.519357e-002
      endloop
   endfacet
   facet normal 0.000000e+000 -1.000000e+000 0.000000e+000
      outer loop
         vertex 1.250000e-002 0.000000e+000 2.165064e-002
         vertex 3.970333e-002 0.000000e+000 4.519357e-002
         vertex 4.341204e-003 0.000000e+000 2.462019e-002
      endloop
   endfacet
   facet normal 0.000000e+000 -1.000000e+000 0.000000e+000
      outer loop
         vertex 4.341204e-003 0.000000e+000 2.462019e-002
         vertex 3.970333e-002 0.000000e+000 4.519357e-002
         vertex 1.846135e-002 0.000000e+000 3.854090e-002
      endloop
   endfacet
   facet normal 0.000000e+000 -1.000000e+000 0.000000e+000
      outer loop
         vertex 4.341204e-003 0.000000e+000 2.462019e-002
         vertex 1.846135e-002 0.000000e+000 3.854090e-002
         vertex -4.341204e-003 0.000000e+000 2.462019e-002
      endloop
   endfacet
   facet normal 0.000000e+000 -1.000000e+000 0.000000e+000
      outer loop
         vertex -4.341204e-003 0.000000e+000 2.462019e-002
         vertex 1.846135e-002 0.000000e+000 3.854090e-002
         vertex -3.485836e-003 0.000000e+000 3.482598e-002
      endloop
   endfacet
   facet normal 0.000000e+000 -1.000000e+000 0.000000e+000
      outer loop
         vertex -4.341204e-003 0.000000e+000 2.462019e-002
         vertex -3.485836e-003 0.000000e+000 3.482598e-002
         vertex -1.250000e-002 0.000000e+000 2.165064e-002
      endloop
   endfacet
   facet normal 0.000000e+000 -1.000000e+000 0.000000e+000
      outer loop
         vertex -3.485836e-003 0.000000e+000 3.482598e-002
         vertex -1.315625e-002 0.000000e+000 3.243321e-002
         vertex -1.250000e-002 0.000000e+000 2.165064e-002
      endloop
   endfacet
   facet normal 0.000000e+000 -1.000000e+000 0.000000e+000
      outer loop
         vertex -1.250000e-002 0.000000e+000 2.165064e-002
         vertex -1.315625e-002 0.000000e+000 3.243321e-002
         vertex -2.176082e-002 0.000000e+000 2.741289e-002
      endloop
   endfacet
   facet normal 0.000000e+000 -1.000000e+000 0.000000e+000
      outer loop
         vertex -1.250000e-002 0.000000e+000 2.165064e-002
         vertex -2.176082e-002 0.000000e+000 2.741289e-002
         vertex -1.915111e-002 0.000000e+000 1.606969e-002
      endloop
   endfacet
   facet normal 0.000000e+000 -1.000000e+000 0.000000e+000
      outer loop
         vertex -1.915111e-002 0.000000e+000 1.606969e-002
         vertex -2.176082e-002 0.000000e+000 2.741289e-002
         vertex -2.860246e-002 0.000000e+000 2.017174e-002
      endloop
   endfacet
   facet normal 0.000000e+000 -1.000000e+000 0.000000e+000
      outer loop
         vertex -1.915111e-002 0.000000e+000 1.606969e-002
         vertex -2.860246e-002 0.000000e+000 2.017174e-002
         vertex -2.349232e-002 0.000000e+000 8.550508e-003
      endloop
   endfacet
   facet normal 0.000000e+000 -1.000000e+000 0.000000e+000
      outer loop
         vertex -2.349232e-002 0.000000e+000 8.550508e-003
         vertex -2.860246e-002 0.000000e+000 2.017174e-002
         vertex -3.312689e-002 0.000000e+000 1.129640e-002
      endloop
   endfacet
   facet normal 0.000000e+000 -1.000000e+000 0.000000e+000
      outer loop
         vertex -2.349232e-002 0.000000e+000 8.550508e-003
         vertex -3.312689e-002 0.000000e+000 1.129640e-002
         vertex -2.500000e-002 0.000000e+000 -1.710162e-009
      endloop
   endfacet
   facet normal 0.000000e+000 -1.000000e+000 0.000000e+000
      outer loop
         vertex -2.500000e-002 0.000000e+000 -1.710162e-009
         vertex -3.312689e-002 0.000000e+000 1.129640e-002
         vertex -3.496759e-002 0.000000e+000 1.505895e-003
      endloop
   endfacet
   facet normal 0.000000e+000 -1.000000e+000 0.000000e+000
      outer loop
         vertex -2.500000e-002 0.000000e+000 -1.710162e-009
         vertex -3.496759e-002 0.000000e+000 1.505895e-003
         vertex -2.349232e-002 0.000000e+000 -8.550497e-003
      endloop
   endfacet
   facet normal 0.000000e+000 -1.000000e+000 0.000000e+000
      outer loop
         vertex -2.349232e-002 0.000000e+000 -8.550497e-003
         vertex -3.496759e-002 0.000000e+000 1.505895e-003
         vertex -3.397541e-002 0.000000e+000 -8.406611e-003
      endloop
   endfacet
   facet normal 0.000000e+000 -1.000000e+000 0.000000e+000
      outer loop
         vertex -2.349232e-002 0.000000e+000 -8.550497e-003
         vertex -3.397541e-002 0.000000e+000 -8.406611e-003
         vertex -1.915111e-002 0.000000e+000 -1.606970e-002
      endloop
   endfacet
   facet normal 0.000000e+000 -1.000000e+000 0.000000e+000
      outer loop
         vertex -1.915111e-002 0.000000e+000 -1.606970e-002
         vertex -3.397541e-002 0.000000e+000 -8.406611e-003
         vertex -3.023076e-002 0.000000e+000 -1.763806e-002
      endloop
   endfacet
   facet normal 0.000000e+000 -1.000000e+000 0.000000e+000
      outer loop
         vertex -1.915111e-002 0.000000e+000 -1.606970e-002
         vertex -3.023076e-002 0.000000e+000 -1.763806e-002
         vertex -2.403698e-002 0.000000e+000 -2.544059e-002
      endloop
   endfacet
   facet normal 0.000000e+000 -1.000000e+000 0.000000e+000
      outer loop
         vertex 7.971091e-002 0.000000e+000 -1.376692e-002
         vertex 1.029947e-001 0.000000e+000 -1.169475e-003
         vertex 1.654178e-001 0.000000e+000 1.539775e-001
      endloop
   endfacet
   facet normal 0.000000e+000 -1.000000e+000 0.000000e+000
      outer loop
         vertex 1.735766e-001 0.000000e+000 1.510080e-001
         vertex 1.777532e-001 0.000000e+000 7.262702e-002
         vertex 1.822590e-001 0.000000e+000 1.510080e-001
      endloop
   endfacet
   facet normal 0.000000e+000 -1.000000e+000 0.000000e+000
      outer loop
         vertex 1.822590e-001 0.000000e+000 1.510080e-001
         vertex 1.777532e-001 0.000000e+000 7.262702e-002
         vertex 1.906512e-001 0.000000e+000 9.574565e-002
      endloop
   endfacet
   facet normal 0.000000e+000 -1.000000e+000 0.000000e+000
      outer loop
         vertex 1.822590e-001 0.000000e+000 1.510080e-001
         vertex 1.906512e-001 0.000000e+000 9.574565e-002
         vertex 1.904178e-001 0.000000e+000 1.539775e-001
      endloop
   endfacet
   facet normal 0.000000e+000 -1.000000e+000 0.000000e+000
      outer loop
         vertex 1.904178e-001 0.000000e+000 1.539775e-001
         vertex 1.906512e-001 0.000000e+000 9.574565e-002
         vertex 2.008553e-001 0.000000e+000 1.201732e-001
      endloop
   endfacet
   facet normal 0.000000e+000 -1.000000e+000 0.000000e+000
      outer loop
         vertex 1.904178e-001 0.000000e+000 1.539775e-001
         vertex 2.008553e-001 0.000000e+000 1.201732e-001
         vertex 1.970689e-001 0.000000e+000 1.595585e-001
      endloop
   endfacet
   facet normal 0.000000e+000 -1.000000e+000 0.000000e+000
      outer loop
         vertex 1.970689e-001 0.000000e+000 1.595585e-001
         vertex 2.008553e-001 0.000000e+000 1.201732e-001
         vertex 2.082349e-001 0.000000e+000 1.455970e-001
      endloop
   endfacet
   facet normal 0.000000e+000 -1.000000e+000 0.000000e+000
      outer loop
         vertex 1.970689e-001 0.000000e+000 1.595585e-001
         vertex 2.082349e-001 0.000000e+000 1.455970e-001
         vertex 2.014101e-001 0.000000e+000 1.670777e-001
      endloop
   endfacet
   facet normal 0.000000e+000 -1.000000e+000 0.000000e+000
      outer loop
         vertex 2.014101e-001 0.000000e+000 1.670777e-001
         vertex 2.082349e-001 0.000000e+000 1.455970e-001
         vertex 2.126957e-001 0.000000e+000 1.716916e-001
      endloop
   endfacet
   facet normal 0.000000e+000 -1.000000e+000 0.000000e+000
      outer loop
         vertex 2.014101e-001 0.000000e+000 1.670777e-001
         vertex 2.126957e-001 0.000000e+000 1.716916e-001
         vertex 2.029178e-001 0.000000e+000 1.756282e-001
      endloop
   endfacet
   facet normal 0.000000e+000 -1.000000e+000 0.000000e+000
      outer loop
         vertex 2.029178e-001 0.000000e+000 1.756282e-001
         vertex 2.126957e-001 0.000000e+000 1.716916e-001
         vertex 2.123960e-001 0.000000e+000 1.816491e-001
      endloop
   endfacet
   facet normal 0.000000e+000 -1.000000e+000 0.000000e+000
      outer loop
         vertex 2.029178e-001 0.000000e+000 1.756282e-001
         vertex 2.123960e-001 0.000000e+000 1.816491e-001
         vertex 2.014101e-001 0.000000e+000 1.841787e-001
      endloop
   endfacet
   facet normal 0.000000e+000 -1.000000e+000 0.000000e+000
      outer loop
         vertex 2.014101e-001 0.000000e+000 1.841787e-001
         vertex 2.123960e-001 0.000000e+000 1.816491e-001
         vertex 2.093031e-001 0.000000e+000 1.911189e-001
      endloop
   endfacet
   facet normal 0.000000e+000 -1.000000e+000 0.000000e+000
      outer loop
         vertex 2.014101e-001 0.000000e+000 1.841787e-001
         vertex 2.093031e-001 0.000000e+000 1.911189e-001
         vertex 1.970689e-001 0.000000e+000 1.916979e-001
      endloop
   endfacet
   facet normal 0.000000e+000 -1.000000e+000 0.000000e+000
      outer loop
         vertex 1.970689e-001 0.000000e+000 1.916979e-001
         vertex 2.093031e-001 0.000000e+000 1.911189e-001
         vertex 2.036676e-001 0.000000e+000 1.993336e-001
      endloop
   endfacet
   facet normal 0.000000e+000 -1.000000e+000 0.000000e+000
      outer loop
         vertex 1.970689e-001 0.000000e+000 1.916979e-001
         vertex 2.036676e-001 0.000000e+000 1.993336e-001
         vertex 1.904178e-001 0.000000e+000 1.972788e-001
      endloop
   endfacet
   facet normal 0.000000e+000 -1.000000e+000 0.000000e+000
      outer loop
         vertex 1.904178e-001 0.000000e+000 1.972788e-001
         vertex 2.036676e-001 0.000000e+000 1.993336e-001
         vertex 1.959459e-001 0.000000e+000 2.056279e-001
      endloop
   endfacet
   facet normal 0.000000e+000 -1.000000e+000 0.000000e+000
      outer loop
         vertex 1.904178e-001 0.000000e+000 1.972788e-001
         vertex 1.959459e-001 0.000000e+000 2.056279e-001
         vertex 1.822590e-001 0.000000e+000 2.002484e-001
      endloop
   endfacet
   facet normal 0.000000e+000 -1.000000e+000 0.000000e+000
      outer loop
         vertex 1.029947e-001 0.000000e+000 -1.169475e-003
         vertex 1.247065e-001 0.000000e+000 1.397729e-002
         vertex 1.654178e-001 0.000000e+000 1.539775e-001
      endloop
   endfacet
   facet normal 0.000000e+000 -1.000000e+000 0.000000e+000
      outer loop
         vertex 1.654178e-001 0.000000e+000 1.539775e-001
         vertex 1.247065e-001 0.000000e+000 1.397729e-002
         vertex 1.445685e-001 0.000000e+000 3.147952e-002
      endloop
   endfacet
   facet normal 0.000000e+000 -1.000000e+000 0.000000e+000
      outer loop
         vertex 1.654178e-001 0.000000e+000 1.539775e-001
         vertex 1.445685e-001 0.000000e+000 3.147952e-002
         vertex 1.735766e-001 0.000000e+000 1.510080e-001
      endloop
   endfacet
   facet normal 0.000000e+000 -1.000000e+000 0.000000e+000
      outer loop
         vertex 1.735766e-001 0.000000e+000 1.510080e-001
         vertex 1.445685e-001 0.000000e+000 3.147952e-002
         vertex 1.623265e-001 0.000000e+000 5.111319e-002
      endloop
   endfacet
   facet normal 0.000000e+000 -1.000000e+000 0.000000e+000
      outer loop
         vertex 1.735766e-001 0.000000e+000 1.510080e-001
         vertex 1.623265e-001 0.000000e+000 5.111319e-002
         vertex 1.777532e-001 0.000000e+000 7.262702e-002
      endloop
   endfacet
   facet normal 0.000000e+000 -1.000000e+000 0.000000e+000
      outer loop
         vertex 7.971091e-002 0.000000e+000 -1.376692e-002
         vertex 1.654178e-001 0.000000e+000 1.539775e-001
         vertex 5.515327e-002 0.000000e+000 -2.365378e-002
      endloop
   endfacet
   facet normal 0.000000e+000 -1.000000e+000 0.000000e+000
      outer loop
         vertex 5.515327e-002 0.000000e+000 -2.365378e-002
         vertex 1.654178e-001 0.000000e+000 1.539775e-001
         vertex 1.101362e-001 0.000000e+000 9.797300e-002
      endloop
   endfacet
   facet normal 0.000000e+000 -1.000000e+000 0.000000e+000
      outer loop
         vertex 5.515327e-002 0.000000e+000 -2.365378e-002
         vertex 1.101362e-001 0.000000e+000 9.797300e-002
         vertex 9.539261e-002 0.000000e+000 8.129650e-002
      endloop
   endfacet
   facet normal 0.000000e+000 -1.000000e+000 0.000000e+000
      outer loop
         vertex 1.959459e-001 0.000000e+000 2.056279e-001
         vertex 1.867637e-001 0.000000e+000 2.094919e-001
         vertex 1.822590e-001 0.000000e+000 2.002484e-001
      endloop
   endfacet
   facet normal 0.000000e+000 -1.000000e+000 0.000000e+000
      outer loop
         vertex 1.822590e-001 0.000000e+000 2.002484e-001
         vertex 1.867637e-001 0.000000e+000 2.094919e-001
         vertex 1.768649e-001 0.000000e+000 2.106123e-001
      endloop
   endfacet
   facet normal 0.000000e+000 -1.000000e+000 0.000000e+000
      outer loop
         vertex 1.822590e-001 0.000000e+000 2.002484e-001
         vertex 1.768649e-001 0.000000e+000 2.106123e-001
         vertex 1.735766e-001 0.000000e+000 2.002484e-001
      endloop
   endfacet
   facet normal 0.000000e+000 -1.000000e+000 0.000000e+000
      outer loop
         vertex 1.735766e-001 0.000000e+000 2.002484e-001
         vertex 1.768649e-001 0.000000e+000 2.106123e-001
         vertex 1.670514e-001 0.000000e+000 2.088986e-001
      endloop
   endfacet
   facet normal 0.000000e+000 -1.000000e+000 0.000000e+000
      outer loop
         vertex 1.735766e-001 0.000000e+000 2.002484e-001
         vertex 1.670514e-001 0.000000e+000 2.088986e-001
         vertex 1.654178e-001 0.000000e+000 1.972788e-001
      endloop
   endfacet
   facet normal 0.000000e+000 -1.000000e+000 0.000000e+000
      outer loop
         vertex 1.654178e-001 0.000000e+000 1.972788e-001
         vertex 1.670514e-001 0.000000e+000 2.088986e-001
         vertex 1.581182e-001 0.000000e+000 2.044895e-001
      endloop
   endfacet
   facet normal 0.000000e+000 -1.000000e+000 0.000000e+000
      outer loop
         vertex 1.654178e-001 0.000000e+000 1.972788e-001
         vertex 1.581182e-001 0.000000e+000 2.044895e-001
         vertex 1.587667e-001 0.000000e+000 1.916979e-001
      endloop
   endfacet
   facet normal 0.000000e+000 -1.000000e+000 0.000000e+000
      outer loop
         vertex 1.587667e-001 0.000000e+000 1.916979e-001
         vertex 1.581182e-001 0.000000e+000 2.044895e-001
         vertex 1.507891e-001 0.000000e+000 1.977422e-001
      endloop
   endfacet
   facet normal 0.000000e+000 -1.000000e+000 0.000000e+000
      outer loop
         vertex 1.587667e-001 0.000000e+000 1.916979e-001
         vertex 1.507891e-001 0.000000e+000 1.977422e-001
         vertex 1.544255e-001 0.000000e+000 1.841787e-001
      endloop
   endfacet
   facet normal 0.000000e+000 -1.000000e+000 0.000000e+000
      outer loop
         vertex 1.544255e-001 0.000000e+000 1.841787e-001
         vertex 1.507891e-001 0.000000e+000 1.977422e-001
         vertex 1.456577e-001 0.000000e+000 1.892034e-001
      endloop
   endfacet
   facet normal 0.000000e+000 -1.000000e+000 0.000000e+000
      outer loop
         vertex 1.544255e-001 0.000000e+000 1.841787e-001
         vertex 1.456577e-001 0.000000e+000 1.892034e-001
         vertex 1.529178e-001 0.000000e+000 1.756282e-001
      endloop
   endfacet
   facet normal 0.000000e+000 -1.000000e+000 0.000000e+000
      outer loop
         vertex 1.529178e-001 0.000000e+000 1.756282e-001
         vertex 1.456577e-001 0.000000e+000 1.892034e-001
         vertex 1.431399e-001 0.000000e+000 1.795648e-001
      endloop
   endfacet
   facet normal 0.000000e+000 -1.000000e+000 0.000000e+000
      outer loop
         vertex 1.529178e-001 0.000000e+000 1.756282e-001
         vertex 1.431399e-001 0.000000e+000 1.795648e-001
         vertex 1.544255e-001 0.000000e+000 1.670777e-001
      endloop
   endfacet
   facet normal 0.000000e+000 -1.000000e+000 0.000000e+000
      outer loop
         vertex 1.544255e-001 0.000000e+000 1.670777e-001
         vertex 1.431399e-001 0.000000e+000 1.795648e-001
         vertex 1.391410e-001 0.000000e+000 1.576675e-001
      endloop
   endfacet
   facet normal 0.000000e+000 -1.000000e+000 0.000000e+000
      outer loop
         vertex 1.544255e-001 0.000000e+000 1.670777e-001
         vertex 1.391410e-001 0.000000e+000 1.576675e-001
         vertex 1.587667e-001 0.000000e+000 1.595585e-001
      endloop
   endfacet
   facet normal 0.000000e+000 -1.000000e+000 0.000000e+000
      outer loop
         vertex 1.587667e-001 0.000000e+000 1.595585e-001
         vertex 1.391410e-001 0.000000e+000 1.576675e-001
         vertex 1.322138e-001 0.000000e+000 1.365135e-001
      endloop
   endfacet
   facet normal 0.000000e+000 -1.000000e+000 0.000000e+000
      outer loop
         vertex 1.587667e-001 0.000000e+000 1.595585e-001
         vertex 1.322138e-001 0.000000e+000 1.365135e-001
         vertex 1.654178e-001 0.000000e+000 1.539775e-001
      endloop
   endfacet
   facet normal 0.000000e+000 -1.000000e+000 0.000000e+000
      outer loop
         vertex 1.654178e-001 0.000000e+000 1.539775e-001
         vertex 1.322138e-001 0.000000e+000 1.365135e-001
         vertex 1.224858e-001 0.000000e+000 1.164924e-001
      endloop
   endfacet
   facet normal 0.000000e+000 -1.000000e+000 0.000000e+000
      outer loop
         vertex 1.654178e-001 0.000000e+000 1.539775e-001
         vertex 1.224858e-001 0.000000e+000 1.164924e-001
         vertex 1.101362e-001 0.000000e+000 9.797300e-002
      endloop
   endfacet
   facet normal 0.000000e+000 -1.000000e+000 0.000000e+000
      outer loop
         vertex 1.250000e-002 0.000000e+000 2.165064e-002
         vertex 1.915111e-002 0.000000e+000 1.606969e-002
         vertex 7.852656e-002 0.000000e+000 6.677012e-002
      endloop
   endfacet
   facet normal 0.000000e+000 -1.000000e+000 0.000000e+000
      outer loop
         vertex 7.852656e-002 0.000000e+000 6.677012e-002
         vertex 1.915111e-002 0.000000e+000 1.606969e-002
         vertex 2.349232e-002 0.000000e+000 8.550508e-003
      endloop
   endfacet
   facet normal 0.000000e+000 -1.000000e+000 0.000000e+000
      outer loop
         vertex 7.852656e-002 0.000000e+000 6.677012e-002
         vertex 2.349232e-002 0.000000e+000 8.550508e-003
         vertex 9.539261e-002 0.000000e+000 8.129650e-002
      endloop
   endfacet
   facet normal 0.000000e+000 -1.000000e+000 0.000000e+000
      outer loop
         vertex 9.539261e-002 0.000000e+000 8.129650e-002
         vertex 2.349232e-002 0.000000e+000 8.550508e-003
         vertex 2.500000e-002 0.000000e+000 -1.710162e-009
      endloop
   endfacet
   facet normal 0.000000e+000 -1.000000e+000 0.000000e+000
      outer loop
         vertex 9.539261e-002 0.000000e+000 8.129650e-002
         vertex 2.500000e-002 0.000000e+000 -1.710162e-009
         vertex 5.515327e-002 0.000000e+000 -2.365378e-002
      endloop
   endfacet
   facet normal 0.000000e+000 -1.000000e+000 0.000000e+000
      outer loop
         vertex 5.515327e-002 0.000000e+000 -2.365378e-002
         vertex 2.500000e-002 0.000000e+000 -1.710162e-009
         vertex 2.349232e-002 0.000000e+000 -8.550497e-003
      endloop
   endfacet
   facet normal 0.000000e+000 -1.000000e+000 0.000000e+000
      outer loop
         vertex 5.515327e-002 0.000000e+000 -2.365378e-002
         vertex 2.349232e-002 0.000000e+000 -8.550497e-003
         vertex 2.963605e-002 0.000000e+000 -3.070355e-002
      endloop
   endfacet
   facet normal 0.000000e+000 -1.000000e+000 0.000000e+000
      outer loop
         vertex 2.963605e-002 0.000000e+000 -3.070355e-002
         vertex 2.349232e-002 0.000000e+000 -8.550497e-003
         vertex 1.915111e-002 0.000000e+000 -1.606970e-002
      endloop
   endfacet
   facet normal 0.000000e+000 -1.000000e+000 0.000000e+000
      outer loop
         vertex 2.963605e-002 0.000000e+000 -3.070355e-002
         vertex 1.915111e-002 0.000000e+000 -1.606970e-002
         vertex 1.250000e-002 0.000000e+000 -2.165063e-002
      endloop
   endfacet
   facet normal -9.932998e-001 0.000000e+000 -1.155660e-001
      outer loop
         vertex 2.349232e-002 0.000000e+000 8.550508e-003
         vertex 2.500000e-002 1.200000e-002 -1.710162e-009
         vertex 2.500000e-002 0.000000e+000 -1.710162e-009
      endloop
   endfacet
   facet normal -9.932998e-001 0.000000e+000 1.155660e-001
      outer loop
         vertex 2.500000e-002 0.000000e+000 -1.710162e-009
         vertex 2.500000e-002 1.200000e-002 -1.710162e-009
         vertex 2.349232e-002 1.200000e-002 -8.550497e-003
      endloop
   endfacet
   facet normal -9.729224e-001 0.000000e+000 2.311320e-001
      outer loop
         vertex 2.500000e-002 0.000000e+000 -1.710162e-009
         vertex 2.349232e-002 1.200000e-002 -8.550497e-003
         vertex 2.349232e-002 0.000000e+000 -8.550497e-003
      endloop
   endfacet
   facet normal -8.938706e-001 0.000000e+000 4.483251e-001
      outer loop
         vertex 2.349232e-002 0.000000e+000 -8.550497e-003
         vertex 2.349232e-002 1.200000e-002 -8.550497e-003
         vertex 1.915111e-002 1.200000e-002 -1.606970e-002
      endloop
   endfacet
   facet normal -8.351962e-001 0.000000e+000 5.499521e-001
      outer loop
         vertex 2.349232e-002 0.000000e+000 -8.550497e-003
         vertex 1.915111e-002 1.200000e-002 -1.606970e-002
         vertex 1.915111e-002 0.000000e+000 -1.606970e-002
      endloop
   endfacet
   facet normal -6.866274e-001 0.000000e+000 7.270095e-001
      outer loop
         vertex 1.915111e-002 0.000000e+000 -1.606970e-002
         vertex 1.915111e-002 1.200000e-002 -1.606970e-002
         vertex 1.250000e-002 1.200000e-002 -2.165063e-002
      endloop
   endfacet
   facet normal -5.967330e-001 0.000000e+000 8.024399e-001
      outer loop
         vertex 1.915111e-002 0.000000e+000 -1.606970e-002
         vertex 1.250000e-002 1.200000e-002 -2.165063e-002
         vertex 1.250000e-002 0.000000e+000 -2.165063e-002
      endloop
   endfacet
   facet normal -3.965668e-001 0.000000e+000 9.180059e-001
      outer loop
         vertex 1.250000e-002 0.000000e+000 -2.165063e-002
         vertex 1.250000e-002 1.200000e-002 -2.165063e-002
         vertex 4.341204e-003 1.200000e-002 -2.462019e-002
      endloop
   endfacet
   facet normal -2.862950e-001 0.000000e+000 9.581415e-001
      outer loop
         vertex 1.250000e-002 0.000000e+000 -2.165063e-002
         vertex 4.341204e-003 1.200000e-002 -2.462019e-002
         vertex 4.341204e-003 0.000000e+000 -2.462019e-002
      endloop
   endfacet
   facet normal -5.867440e-002 0.000000e+000 9.982772e-001
      outer loop
         vertex 4.341204e-003 0.000000e+000 -2.462019e-002
         vertex 4.341204e-003 1.200000e-002 -2.462019e-002
         vertex -4.341204e-003 1.200000e-002 -2.462019e-002
      endloop
   endfacet
   facet normal 5.867440e-002 0.000000e+000 9.982772e-001
      outer loop
         vertex 4.341204e-003 0.000000e+000 -2.462019e-002
         vertex -4.341204e-003 1.200000e-002 -2.462019e-002
         vertex -4.341204e-003 0.000000e+000 -2.462019e-002
      endloop
   endfacet
   facet normal 2.862950e-001 0.000000e+000 9.581415e-001
      outer loop
         vertex -4.341204e-003 0.000000e+000 -2.462019e-002
         vertex -4.341204e-003 1.200000e-002 -2.462019e-002
         vertex -1.250000e-002 1.200000e-002 -2.165063e-002
      endloop
   endfacet
   facet normal 3.965668e-001 0.000000e+000 9.180059e-001
      outer loop
         vertex -4.341204e-003 0.000000e+000 -2.462019e-002
         vertex -1.250000e-002 1.200000e-002 -2.165063e-002
         vertex -1.250000e-002 0.000000e+000 -2.165063e-002
      endloop
   endfacet
   facet normal 5.967330e-001 0.000000e+000 8.024399e-001
      outer loop
         vertex -1.250000e-002 0.000000e+000 -2.165063e-002
         vertex -1.250000e-002 1.200000e-002 -2.165063e-002
         vertex -1.915111e-002 1.200000e-002 -1.606970e-002
      endloop
   endfacet
   facet normal 6.866274e-001 0.000000e+000 7.270095e-001
      outer loop
         vertex -1.250000e-002 0.000000e+000 -2.165063e-002
         vertex -1.915111e-002 1.200000e-002 -1.606970e-002
         vertex -1.915111e-002 0.000000e+000 -1.606970e-002
      endloop
   endfacet
   facet normal 8.351962e-001 0.000000e+000 5.499521e-001
      outer loop
         vertex -1.915111e-002 0.000000e+000 -1.606970e-002
         vertex -1.915111e-002 1.200000e-002 -1.606970e-002
         vertex -2.349232e-002 1.200000e-002 -8.550497e-003
      endloop
   endfacet
   facet normal 8.938706e-001 0.000000e+000 4.483251e-001
      outer loop
         vertex -1.915111e-002 0.000000e+000 -1.606970e-002
         vertex -2.349232e-002 1.200000e-002 -8.550497e-003
         vertex -2.349232e-002 0.000000e+000 -8.550497e-003
      endloop
   endfacet
   facet normal 9.729224e-001 0.000000e+000 2.311320e-001
      outer loop
         vertex -2.349232e-002 0.000000e+000 -8.550497e-003
         vertex -2.349232e-002 1.200000e-002 -8.550497e-003
         vertex -2.500000e-002 1.200000e-002 -1.710162e-009
      endloop
   endfacet
   facet normal 9.932998e-001 0.000000e+000 1.155660e-001
      outer loop
         vertex -2.349232e-002 0.000000e+000 -8.550497e-003
         vertex -2.500000e-002 1.200000e-002 -1.710162e-009
         vertex -2.500000e-002 0.000000e+000 -1.710162e-009
      endloop
   endfacet
   facet normal 9.932998e-001 0.000000e+000 -1.155660e-001
      outer loop
         vertex -2.500000e-002 0.000000e+000 -1.710162e-009
         vertex -2.500000e-002 1.200000e-002 -1.710162e-009
         vertex -2.349232e-002 1.200000e-002 8.550508e-003
      endloop
   endfacet
   facet normal 9.729224e-001 0.000000e+000 -2.311320e-001
      outer loop
         vertex -2.500000e-002 0.000000e+000 -1.710162e-009
         vertex -2.349232e-002 1.200000e-002 8.550508e-003
         vertex -2.349232e-002 0.000000e+000 8.550508e-003
      endloop
   endfacet
   facet normal 8.938706e-001 0.000000e+000 -4.483251e-001
      outer loop
         vertex -2.349232e-002 0.000000e+000 8.550508e-003
         vertex -2.349232e-002 1.200000e-002 8.550508e-003
         vertex -1.915111e-002 1.200000e-002 1.606969e-002
      endloop
   endfacet
   facet normal 8.351962e-001 0.000000e+000 -5.499521e-001
      outer loop
         vertex -2.349232e-002 0.000000e+000 8.550508e-003
         vertex -1.915111e-002 1.200000e-002 1.606969e-002
         vertex -1.915111e-002 0.000000e+000 1.606969e-002
      endloop
   endfacet
   facet normal 6.866274e-001 0.000000e+000 -7.270095e-001
      outer loop
         vertex -1.915111e-002 0.000000e+000 1.606969e-002
         vertex -1.915111e-002 1.200000e-002 1.606969e-002
         vertex -1.250000e-002 1.200000e-002 2.165064e-002
      endloop
   endfacet
   facet normal 5.967330e-001 0.000000e+000 -8.024399e-001
      outer loop
         vertex -1.915111e-002 0.000000e+000 1.606969e-002
         vertex -1.250000e-002 1.200000e-002 2.165064e-002
         vertex -1.250000e-002 0.000000e+000 2.165064e-002
      endloop
   endfacet
   facet normal 3.965668e-001 0.000000e+000 -9.180059e-001
      outer loop
         vertex -1.250000e-002 0.000000e+000 2.165064e-002
         vertex -1.250000e-002 1.200000e-002 2.165064e-002
         vertex -4.341204e-003 1.200000e-002 2.462019e-002
      endloop
   endfacet
   facet normal 2.862950e-001 0.000000e+000 -9.581415e-001
      outer loop
         vertex -1.250000e-002 0.000000e+000 2.165064e-002
         vertex -4.341204e-003 1.200000e-002 2.462019e-002
         vertex -4.341204e-003 0.000000e+000 2.462019e-002
      endloop
   endfacet
   facet normal 5.867440e-002 0.000000e+000 -9.982772e-001
      outer loop
         vertex -4.341204e-003 0.000000e+000 2.462019e-002
         vertex -4.341204e-003 1.200000e-002 2.462019e-002
         vertex 4.341204e-003 1.200000e-002 2.462019e-002
      endloop
   endfacet
   facet normal -5.867440e-002 0.000000e+000 -9.982772e-001
      outer loop
         vertex -4.341204e-003 0.000000e+000 2.462019e-002
         vertex 4.341204e-003 1.200000e-002 2.462019e-002
         vertex 4.341204e-003 0.000000e+000 2.462019e-002
      endloop
   endfacet
   facet normal -2.862950e-001 0.000000e+000 -9.581415e-001
      outer loop
         vertex 4.341204e-003 0.000000e+000 2.462019e-002
         vertex 4.341204e-003 1.200000e-002 2.462019e-002
         vertex 1.250000e-002 1.200000e-002 2.165064e-002
      endloop
   endfacet
   facet normal -3.965668e-001 0.000000e+000 -9.180059e-001
      outer loop
         vertex 4.341204e-003 0.000000e+000 2.462019e-002
         vertex 1.250000e-002 1.200000e-002 2.165064e-002
         vertex 1.250000e-002 0.000000e+000 2.165064e-002
      endloop
   endfacet
   facet normal -5.967330e-001 0.000000e+000 -8.024399e-001
      outer loop
         vertex 1.250000e-002 0.000000e+000 2.165064e-002
         vertex 1.250000e-002 1.200000e-002 2.165064e-002
         vertex 1.915111e-002 1.200000e-002 1.606969e-002
      endloop
   endfacet
   facet normal -6.866274e-001 0.000000e+000 -7.270095e-001
      outer loop
         vertex 1.250000e-002 0.000000e+000 2.165064e-002
         vertex 1.915111e-002 1.200000e-002 1.606969e-002
         vertex 1.915111e-002 0.000000e+000 1.606969e-002
      endloop
   endfacet
   facet normal -8.351962e-001 0.000000e+000 -5.499521e-001
      outer loop
         vertex 1.915111e-002 0.000000e+000 1.606969e-002
         vertex 1.915111e-002 1.200000e-002 1.606969e-002
         vertex 2.349232e-002 1.200000e-002 8.550508e-003
      endloop
   endfacet
   facet normal -8.938706e-001 0.000000e+000 -4.483251e-001
      outer loop
         vertex 1.915111e-002 0.000000e+000 1.606969e-002
         vertex 2.349232e-002 1.200000e-002 8.550508e-003
         vertex 2.349232e-002 0.000000e+000 8.550508e-003
      endloop
   endfacet
   facet normal -9.729224e-001 0.000000e+000 -2.311320e-001
      outer loop
         vertex 2.349232e-002 0.000000e+000 8.550508e-003
         vertex 2.349232e-002 1.200000e-002 8.550508e-003
         vertex 2.500000e-002 1.200000e-002 -1.710162e-009
      endloop
   endfacet
endsolid