solid rod1
   facet normal 0.000000e+000 0.000000e+000 1.000000e+000
      outer loop
         vertex 1.732051e-002 -1.000000e-002 5.625000e-001
         vertex 2.000000e-002 -1.734723e-017 5.625000e-001
         vertex 1.000000e-002 -1.732051e-002 5.625000e-001
      endloop
   endfacet
   facet normal 0.000000e+000 0.000000e+000 1.000000e+000
      outer loop
         vertex 1.000000e-002 -1.732051e-002 5.625000e-001
         vertex 2.000000e-002 -1.734723e-017 5.625000e-001
         vertex 1.732051e-002 1.000000e-002 5.625000e-001
      endloop
   endfacet
   facet normal 0.000000e+000 0.000000e+000 1.000000e+000
      outer loop
         vertex 1.000000e-002 -1.732051e-002 5.625000e-001
         vertex 1.732051e-002 1.000000e-002 5.625000e-001
         vertex -1.387779e-017 -2.000000e-002 5.625000e-001
      endloop
   endfacet
   facet normal 0.000000e+000 0.000000e+000 1.000000e+000
      outer loop
         vertex -1.732051e-002 1.000000e-002 5.625000e-001
         vertex -2.000000e-002 6.938894e-018 5.625000e-001
         vertex -1.000000e-002 1.732051e-002 5.625000e-001
      endloop
   endfacet
   facet normal 0.000000e+000 0.000000e+000 1.000000e+000
      outer loop
         vertex -1.000000e-002 1.732051e-002 5.625000e-001
         vertex -2.000000e-002 6.938894e-018 5.625000e-001
         vertex -1.732051e-002 -1.000000e-002 5.625000e-001
      endloop
   endfacet
   facet normal 0.000000e+000 0.000000e+000 1.000000e+000
      outer loop
         vertex -1.000000e-002 1.732051e-002 5.625000e-001
         vertex -1.732051e-002 -1.000000e-002 5.625000e-001
         vertex 3.469447e-018 2.000000e-002 5.625000e-001
      endloop
   endfacet
   facet normal 0.000000e+000 0.000000e+000 1.000000e+000
      outer loop
         vertex 3.469447e-018 2.000000e-002 5.625000e-001
         vertex -1.732051e-002 -1.000000e-002 5.625000e-001
         vertex 1.000000e-002 1.732051e-002 5.625000e-001
      endloop
   endfacet
   facet normal 0.000000e+000 0.000000e+000 1.000000e+000
      outer loop
         vertex 1.000000e-002 1.732051e-002 5.625000e-001
         vertex -1.732051e-002 -1.000000e-002 5.625000e-001
         vertex 1.732051e-002 1.000000e-002 5.625000e-001
      endloop
   endfacet
   facet normal 0.000000e+000 0.000000e+000 1.000000e+000
      outer loop
         vertex 1.732051e-002 1.000000e-002 5.625000e-001
         vertex -1.732051e-002 -1.000000e-002 5.625000e-001
         vertex -1.000000e-002 -1.732051e-002 5.625000e-001
      endloop
   endfacet
   facet normal 0.000000e+000 0.000000e+000 1.000000e+000
      outer loop
         vertex 1.732051e-002 1.000000e-002 5.625000e-001
         vertex -1.000000e-002 -1.732051e-002 5.625000e-001
         vertex -1.387779e-017 -2.000000e-002 5.625000e-001
      endloop
   endfacet
   facet normal -1.718619e-001 9.851211e-001 0.000000e+000
      outer loop
         vertex -1.000000e-002 1.732051e-002 4.875000e-001
         vertex -2.959330e-018 2.000000e-002 5.625000e-001
         vertex -2.959330e-018 2.000000e-002 4.875000e-001
      endloop
   endfacet
   facet normal 1.718619e-001 9.851211e-001 -0.000000e+000
      outer loop
         vertex -2.959330e-018 2.000000e-002 4.875000e-001
         vertex -2.959330e-018 2.000000e-002 5.625000e-001
         vertex 1.000000e-002 1.732051e-002 5.625000e-001
      endloop
   endfacet
   facet normal 3.437238e-001 9.390708e-001 -0.000000e+000
      outer loop
         vertex -2.959330e-018 2.000000e-002 4.875000e-001
         vertex 1.000000e-002 1.732051e-002 5.625000e-001
         vertex 1.000000e-002 1.732051e-002 4.875000e-001
      endloop
   endfacet
   facet normal 6.413973e-001 7.672089e-001 -0.000000e+000
      outer loop
         vertex 1.000000e-002 1.732051e-002 4.875000e-001
         vertex 1.000000e-002 1.732051e-002 5.625000e-001
         vertex 1.732051e-002 1.000000e-002 5.625000e-001
      endloop
   endfacet
   facet normal 7.672089e-001 6.413973e-001 -0.000000e+000
      outer loop
         vertex 1.000000e-002 1.732051e-002 4.875000e-001
         vertex 1.732051e-002 1.000000e-002 5.625000e-001
         vertex 1.732051e-002 1.000000e-002 4.875000e-001
      endloop
   endfacet
   facet normal 9.390708e-001 3.437238e-001 -0.000000e+000
      outer loop
         vertex 1.732051e-002 1.000000e-002 4.875000e-001
         vertex 1.732051e-002 1.000000e-002 5.625000e-001
         vertex 2.000000e-002 -1.847818e-017 5.625000e-001
      endloop
   endfacet
   facet normal 9.851211e-001 1.718619e-001 -0.000000e+000
      outer loop
         vertex 1.732051e-002 1.000000e-002 4.875000e-001
         vertex 2.000000e-002 -1.847818e-017 5.625000e-001
         vertex 2.000000e-002 -1.847818e-017 4.875000e-001
      endloop
   endfacet
   facet normal 9.851211e-001 -1.718619e-001 0.000000e+000
      outer loop
         vertex 2.000000e-002 -1.847818e-017 4.875000e-001
         vertex 2.000000e-002 -1.847818e-017 5.625000e-001
         vertex 1.732051e-002 -1.000000e-002 5.625000e-001
      endloop
   endfacet
   facet normal 9.390708e-001 -3.437238e-001 0.000000e+000
      outer loop
         vertex 2.000000e-002 -1.847818e-017 4.875000e-001
         vertex 1.732051e-002 -1.000000e-002 5.625000e-001
         vertex 1.732051e-002 -1.000000e-002 4.875000e-001
      endloop
   endfacet
   facet normal 7.672089e-001 -6.413973e-001 0.000000e+000
      outer loop
         vertex 1.732051e-002 -1.000000e-002 4.875000e-001
         vertex 1.732051e-002 -1.000000e-002 5.625000e-001
         vertex 1.000000e-002 -1.732051e-002 5.625000e-001
      endloop
   endfacet
   facet normal 6.413973e-001 -7.672089e-001 0.000000e+000
      outer loop
         vertex 1.732051e-002 -1.000000e-002 4.875000e-001
         vertex 1.000000e-002 -1.732051e-002 5.625000e-001
         vertex 1.000000e-002 -1.732051e-002 4.875000e-001
      endloop
   endfacet
   facet normal 3.437238e-001 -9.390708e-001 0.000000e+000
      outer loop
         vertex 1.000000e-002 -1.732051e-002 4.875000e-001
         vertex 1.000000e-002 -1.732051e-002 5.625000e-001
         vertex -1.429041e-017 -2.000000e-002 5.625000e-001
      endloop
   endfacet
   facet normal 1.718619e-001 -9.851211e-001 0.000000e+000
      outer loop
         vertex 1.000000e-002 -1.732051e-002 4.875000e-001
         vertex -1.429041e-017 -2.000000e-002 5.625000e-001
         vertex -1.429041e-017 -2.000000e-002 4.875000e-001
      endloop
   endfacet
   facet normal -1.718619e-001 -9.851211e-001 0.000000e+000
      outer loop
         vertex -1.429041e-017 -2.000000e-002 4.875000e-001
         vertex -1.429041e-017 -2.000000e-002 5.625000e-001
         vertex -1.000000e-002 -1.732051e-002 5.625000e-001
      endloop
   endfacet
   facet normal -3.437238e-001 -9.390708e-001 0.000000e+000
      outer loop
         vertex -1.429041e-017 -2.000000e-002 4.875000e-001
         vertex -1.000000e-002 -1.732051e-002 5.625000e-001
         vertex -1.000000e-002 -1.732051e-002 4.875000e-001
      endloop
   endfacet
   facet normal -6.413973e-001 -7.672089e-001 0.000000e+000
      outer loop
         vertex -1.000000e-002 -1.732051e-002 4.875000e-001
         vertex -1.000000e-002 -1.732051e-002 5.625000e-001
         vertex -1.732051e-002 -1.000000e-002 5.625000e-001
      endloop
   endfacet
   facet normal -7.672089e-001 -6.413973e-001 0.000000e+000
      outer loop
         vertex -1.000000e-002 -1.732051e-002 4.875000e-001
         vertex -1.732051e-002 -1.000000e-002 5.625000e-001
         vertex -1.732051e-002 -1.000000e-002 4.875000e-001
      endloop
   endfacet
   facet normal -9.390708e-001 -3.437238e-001 0.000000e+000
      outer loop
         vertex -1.732051e-002 -1.000000e-002 4.875000e-001
         vertex -1.732051e-002 -1.000000e-002 5.625000e-001
         vertex -2.000000e-002 8.624868e-018 5.625000e-001
      endloop
   endfacet
   facet normal -9.851211e-001 -1.718619e-001 0.000000e+000
      outer loop
         vertex -1.732051e-002 -1.000000e-002 4.875000e-001
         vertex -2.000000e-002 8.624868e-018 5.625000e-001
         vertex -2.000000e-002 8.624868e-018 4.875000e-001
      endloop
   endfacet
   facet normal -9.851211e-001 1.718619e-001 0.000000e+000
      outer loop
         vertex -2.000000e-002 8.624868e-018 4.875000e-001
         vertex -2.000000e-002 8.624868e-018 5.625000e-001
         vertex -1.732051e-002 1.000000e-002 5.625000e-001
      endloop
   endfacet
   facet normal -9.390708e-001 3.437238e-001 0.000000e+000
      outer loop
         vertex -2.000000e-002 8.624868e-018 4.875000e-001
         vertex -1.732051e-002 1.000000e-002 5.625000e-001
         vertex -1.732051e-002 1.000000e-002 4.875000e-001
      endloop
   endfacet
   facet normal -7.672089e-001 6.413973e-001 0.000000e+000
      outer loop
         vertex -1.732051e-002 1.000000e-002 4.875000e-001
         vertex -1.732051e-002 1.000000e-002 5.625000e-001
         vertex -1.000000e-002 1.732051e-002 5.625000e-001
      endloop
   endfacet
   facet normal -6.413973e-001 7.672089e-001 0.000000e+000
      outer loop
         vertex -1.732051e-002 1.000000e-002 4.875000e-001
         vertex -1.000000e-002 1.732051e-002 5.625000e-001
         vertex -1.000000e-002 1.732051e-002 4.875000e-001
      endloop
   endfacet
   facet normal -3.437238e-001 9.390708e-001 0.000000e+000
      outer loop
         vertex -1.000000e-002 1.732051e-002 4.875000e-001
         vertex -1.000000e-002 1.732051e-002 5.625000e-001
         vertex -2.959330e-018 2.000000e-002 5.625000e-001
      endloop
   endfacet
   facet normal 0.000000e+000 0.000000e+000 1.000000e+000
      outer loop
         vertex 1.732051e-002 1.000000e-002 4.875000e-001
         vertex 2.694783e-002 2.956036e-002 4.875000e-001
         vertex 1.000000e-002 1.732051e-002 4.875000e-001
      endloop
   endfacet
   facet normal 0.000000e+000 0.000000e+000 1.000000e+000
      outer loop
         vertex 1.000000e-002 1.732051e-002 4.875000e-001
         vertex 2.694783e-002 2.956036e-002 4.875000e-001
         vertex 1.444967e-002 3.729889e-002 4.875000e-001
      endloop
   endfacet
   facet normal 0.000000e+000 0.000000e+000 1.000000e+000
      outer loop
         vertex 1.000000e-002 1.732051e-002 4.875000e-001
         vertex 1.444967e-002 3.729889e-002 4.875000e-001
         vertex 0.000000e+000 2.000000e-002 4.875000e-001
      endloop
   endfacet
   facet normal 0.000000e+000 0.000000e+000 1.000000e+000
      outer loop
         vertex -2.000000e-002 6.938894e-018 4.875000e-001
         vertex -3.847302e-002 -1.094652e-002 4.875000e-001
         vertex -1.732051e-002 -1.000000e-002 4.875000e-001
      endloop
   endfacet
   facet normal 0.000000e+000 0.000000e+000 1.000000e+000
      outer loop
         vertex -1.732051e-002 -1.000000e-002 4.875000e-001
         vertex -3.847302e-002 -1.094652e-002 4.875000e-001
         vertex -3.192069e-002 -2.410538e-002 4.875000e-001
      endloop
   endfacet
   facet normal 0.000000e+000 0.000000e+000 1.000000e+000
      outer loop
         vertex -1.732051e-002 -1.000000e-002 4.875000e-001
         vertex -3.192069e-002 -2.410538e-002 4.875000e-001
         vertex -1.000000e-002 -1.732051e-002 4.875000e-001
      endloop
   endfacet
   facet normal 0.000000e+000 0.000000e+000 1.000000e+000
      outer loop
         vertex -1.000000e-002 -1.732051e-002 4.875000e-001
         vertex -3.192069e-002 -2.410538e-002 4.875000e-001
         vertex -2.105729e-002 -3.400869e-002 4.875000e-001
      endloop
   endfacet
   facet normal 0.000000e+000 0.000000e+000 1.000000e+000
      outer loop
         vertex -1.000000e-002 -1.732051e-002 4.875000e-001
         vertex -2.105729e-002 -3.400869e-002 4.875000e-001
         vertex -1.387779e-017 -2.000000e-002 4.875000e-001
      endloop
   endfacet
   facet normal 0.000000e+000 0.000000e+000 1.000000e+000
      outer loop
         vertex 1.444967e-002 3.729889e-002 4.875000e-001
         vertex 1.387779e-017 4.000000e-002 4.875000e-001
         vertex 0.000000e+000 2.000000e-002 4.875000e-001
      endloop
   endfacet
   facet normal 0.000000e+000 0.000000e+000 1.000000e+000
      outer loop
         vertex 0.000000e+000 2.000000e-002 4.875000e-001
         vertex 1.387779e-017 4.000000e-002 4.875000e-001
         vertex -1.444967e-002 3.729889e-002 4.875000e-001
      endloop
   endfacet
   facet normal 0.000000e+000 0.000000e+000 1.000000e+000
      outer loop
         vertex 0.000000e+000 2.000000e-002 4.875000e-001
         vertex -1.444967e-002 3.729889e-002 4.875000e-001
         vertex -1.000000e-002 1.732051e-002 4.875000e-001
      endloop
   endfacet
   facet normal 0.000000e+000 0.000000e+000 1.000000e+000
      outer loop
         vertex -1.000000e-002 1.732051e-002 4.875000e-001
         vertex -1.444967e-002 3.729889e-002 4.875000e-001
         vertex -2.694783e-002 2.956036e-002 4.875000e-001
      endloop
   endfacet
   facet normal 0.000000e+000 0.000000e+000 1.000000e+000
      outer loop
         vertex -1.000000e-002 1.732051e-002 4.875000e-001
         vertex -2.694783e-002 2.956036e-002 4.875000e-001
         vertex -1.732051e-002 1.000000e-002 4.875000e-001
      endloop
   endfacet
   facet normal 0.000000e+000 0.000000e+000 1.000000e+000
      outer loop
         vertex -1.732051e-002 1.000000e-002 4.875000e-001
         vertex -2.694783e-002 2.956036e-002 4.875000e-001
         vertex -3.580653e-002 1.782953e-002 4.875000e-001
      endloop
   endfacet
   facet normal 0.000000e+000 0.000000e+000 1.000000e+000
      outer loop
         vertex -1.732051e-002 1.000000e-002 4.875000e-001
         vertex -3.580653e-002 1.782953e-002 4.875000e-001
         vertex -2.000000e-002 6.938894e-018 4.875000e-001
      endloop
   endfacet
   facet normal 0.000000e+000 0.000000e+000 1.000000e+000
      outer loop
         vertex -2.000000e-002 6.938894e-018 4.875000e-001
         vertex -3.580653e-002 1.782953e-002 4.875000e-001
         vertex -3.982937e-002 3.690734e-003 4.875000e-001
      endloop
   endfacet
   facet normal 0.000000e+000 0.000000e+000 1.000000e+000
      outer loop
         vertex -2.000000e-002 6.938894e-018 4.875000e-001
         vertex -3.982937e-002 3.690734e-003 4.875000e-001
         vertex -3.847302e-002 -1.094652e-002 4.875000e-001
      endloop
   endfacet
   facet normal 0.000000e+000 0.000000e+000 1.000000e+000
      outer loop
         vertex 1.732051e-002 -1.000000e-002 4.875000e-001
         vertex 3.847302e-002 -1.094652e-002 4.875000e-001
         vertex 2.000000e-002 -2.081668e-017 4.875000e-001
      endloop
   endfacet
   facet normal 0.000000e+000 0.000000e+000 1.000000e+000
      outer loop
         vertex 2.000000e-002 -2.081668e-017 4.875000e-001
         vertex 3.847302e-002 -1.094652e-002 4.875000e-001
         vertex 3.982937e-002 3.690734e-003 4.875000e-001
      endloop
   endfacet
   facet normal 0.000000e+000 0.000000e+000 1.000000e+000
      outer loop
         vertex 2.000000e-002 -2.081668e-017 4.875000e-001
         vertex 3.982937e-002 3.690734e-003 4.875000e-001
         vertex 1.732051e-002 1.000000e-002 4.875000e-001
      endloop
   endfacet
   facet normal 0.000000e+000 0.000000e+000 1.000000e+000
      outer loop
         vertex 1.732051e-002 1.000000e-002 4.875000e-001
         vertex 3.982937e-002 3.690734e-003 4.875000e-001
         vertex 3.580653e-002 1.782953e-002 4.875000e-001
      endloop
   endfacet
   facet normal 0.000000e+000 0.000000e+000 1.000000e+000
      outer loop
         vertex 1.732051e-002 1.000000e-002 4.875000e-001
         vertex 3.580653e-002 1.782953e-002 4.875000e-001
         vertex 2.694783e-002 2.956036e-002 4.875000e-001
      endloop
   endfacet
   facet normal 0.000000e+000 0.000000e+000 1.000000e+000
      outer loop
         vertex -2.105729e-002 -3.400869e-002 4.875000e-001
         vertex -7.349981e-003 -3.931892e-002 4.875000e-001
         vertex -1.387779e-017 -2.000000e-002 4.875000e-001
      endloop
   endfacet
   facet normal 0.000000e+000 0.000000e+000 1.000000e+000
      outer loop
         vertex -1.387779e-017 -2.000000e-002 4.875000e-001
         vertex -7.349981e-003 -3.931892e-002 4.875000e-001
         vertex 7.349981e-003 -3.931892e-002 4.875000e-001
      endloop
   endfacet
   facet normal 0.000000e+000 0.000000e+000 1.000000e+000
      outer loop
         vertex -1.387779e-017 -2.000000e-002 4.875000e-001
         vertex 7.349981e-003 -3.931892e-002 4.875000e-001
         vertex 1.000000e-002 -1.732051e-002 4.875000e-001
      endloop
   endfacet
   facet normal 0.000000e+000 0.000000e+000 1.000000e+000
      outer loop
         vertex 1.000000e-002 -1.732051e-002 4.875000e-001
         vertex 7.349981e-003 -3.931892e-002 4.875000e-001
         vertex 2.105729e-002 -3.400869e-002 4.875000e-001
      endloop
   endfacet
   facet normal 0.000000e+000 0.000000e+000 1.000000e+000
      outer loop
         vertex 1.000000e-002 -1.732051e-002 4.875000e-001
         vertex 2.105729e-002 -3.400869e-002 4.875000e-001
         vertex 1.732051e-002 -1.000000e-002 4.875000e-001
      endloop
   endfacet
   facet normal 0.000000e+000 0.000000e+000 1.000000e+000
      outer loop
         vertex 1.732051e-002 -1.000000e-002 4.875000e-001
         vertex 2.105729e-002 -3.400869e-002 4.875000e-001
         vertex 3.192069e-002 -2.410538e-002 4.875000e-001
      endloop
   endfacet
   facet normal 0.000000e+000 0.000000e+000 1.000000e+000
      outer loop
         vertex 1.732051e-002 -1.000000e-002 4.875000e-001
         vertex 3.192069e-002 -2.410538e-002 4.875000e-001
         vertex 3.847302e-002 -1.094652e-002 4.875000e-001
      endloop
   endfacet
   facet normal -1.222626e-001 9.924978e-001 0.000000e+000
      outer loop
         vertex -1.444967e-002 3.729889e-002 4.775000e-001
         vertex 5.918660e-018 4.000000e-002 4.875000e-001
         vertex 5.918660e-018 4.000000e-002 4.775000e-001
      endloop
   endfacet
   facet normal 1.222626e-001 9.924978e-001 -0.000000e+000
      outer loop
         vertex 5.918660e-018 4.000000e-002 4.775000e-001
         vertex 5.918660e-018 4.000000e-002 4.875000e-001
         vertex 1.444967e-002 3.729889e-002 4.875000e-001
      endloop
   endfacet
   facet normal 2.445251e-001 9.696429e-001 -0.000000e+000
      outer loop
         vertex 5.918660e-018 4.000000e-002 4.775000e-001
         vertex 1.444967e-002 3.729889e-002 4.875000e-001
         vertex 1.444967e-002 3.729889e-002 4.775000e-001
      endloop
   endfacet
   facet normal 4.725380e-001 8.813103e-001 -0.000000e+000
      outer loop
         vertex 1.444967e-002 3.729889e-002 4.775000e-001
         vertex 1.444967e-002 3.729889e-002 4.875000e-001
         vertex 2.694783e-002 2.956036e-002 4.875000e-001
      endloop
   endfacet
   facet normal 5.782883e-001 8.158324e-001 -0.000000e+000
      outer loop
         vertex 1.444967e-002 3.729889e-002 4.775000e-001
         vertex 2.694783e-002 2.956036e-002 4.875000e-001
         vertex 2.694783e-002 2.956036e-002 4.775000e-001
      endloop
   endfacet
   facet normal 7.589946e-001 6.510969e-001 -0.000000e+000
      outer loop
         vertex 2.694783e-002 2.956036e-002 4.775000e-001
         vertex 2.694783e-002 2.956036e-002 4.875000e-001
         vertex 3.580653e-002 1.782953e-002 4.875000e-001
      endloop
   endfacet
   facet normal 8.339505e-001 5.518393e-001 -0.000000e+000
      outer loop
         vertex 2.694783e-002 2.956036e-002 4.775000e-001
         vertex 3.580653e-002 1.782953e-002 4.875000e-001
         vertex 3.580653e-002 1.782953e-002 4.775000e-001
      endloop
   endfacet
   facet normal 9.429447e-001 3.329494e-001 -0.000000e+000
      outer loop
         vertex 3.580653e-002 1.782953e-002 4.775000e-001
         vertex 3.580653e-002 1.782953e-002 4.875000e-001
         vertex 3.982937e-002 3.690734e-003 4.875000e-001
      endloop
   endfacet
   facet normal 9.769830e-001 2.133171e-001 -0.000000e+000
      outer loop
         vertex 3.580653e-002 1.782953e-002 4.775000e-001
         vertex 3.982937e-002 3.690734e-003 4.875000e-001
         vertex 3.982937e-002 3.690734e-003 4.775000e-001
      endloop
   endfacet
   facet normal 9.995449e-001 -3.016486e-002 0.000000e+000
      outer loop
         vertex 3.982937e-002 3.690734e-003 4.775000e-001
         vertex 3.982937e-002 3.690734e-003 4.875000e-001
         vertex 3.847302e-002 -1.094652e-002 4.875000e-001
      endloop
   endfacet
   facet normal 9.880686e-001 -1.540147e-001 0.000000e+000
      outer loop
         vertex 3.982937e-002 3.690734e-003 4.775000e-001
         vertex 3.847302e-002 -1.094652e-002 4.875000e-001
         vertex 3.847302e-002 -1.094652e-002 4.775000e-001
      endloop
   endfacet
   facet normal 9.211511e-001 -3.892052e-001 0.000000e+000
      outer loop
         vertex 3.847302e-002 -1.094652e-002 4.775000e-001
         vertex 3.847302e-002 -1.094652e-002 4.875000e-001
         vertex 3.192069e-002 -2.410538e-002 4.875000e-001
      endloop
   endfacet
   facet normal 8.657100e-001 -5.005459e-001 0.000000e+000
      outer loop
         vertex 3.847302e-002 -1.094652e-002 4.775000e-001
         vertex 3.192069e-002 -2.410538e-002 4.875000e-001
         vertex 3.192069e-002 -2.410538e-002 4.775000e-001
      endloop
   endfacet
   facet normal 7.183506e-001 -6.956812e-001 0.000000e+000
      outer loop
         vertex 3.192069e-002 -2.410538e-002 4.775000e-001
         vertex 3.192069e-002 -2.410538e-002 4.875000e-001
         vertex 2.105729e-002 -3.400869e-002 4.875000e-001
      endloop
   endfacet
   facet normal 6.264324e-001 -7.794757e-001 0.000000e+000
      outer loop
         vertex 3.192069e-002 -2.410538e-002 4.775000e-001
         vertex 2.105729e-002 -3.400869e-002 4.875000e-001
         vertex 2.105729e-002 -3.400869e-002 4.775000e-001
      endloop
   endfacet
   facet normal 4.185331e-001 -9.082016e-001 0.000000e+000
      outer loop
         vertex 2.105729e-002 -3.400869e-002 4.775000e-001
         vertex 2.105729e-002 -3.400869e-002 4.875000e-001
         vertex 7.349981e-003 -3.931892e-002 4.875000e-001
      endloop
   endfacet
   facet normal 3.025518e-001 -9.531329e-001 0.000000e+000
      outer loop
         vertex 2.105729e-002 -3.400869e-002 4.775000e-001
         vertex 7.349981e-003 -3.931892e-002 4.875000e-001
         vertex 7.349981e-003 -3.931892e-002 4.775000e-001
      endloop
   endfacet
   facet normal 6.219018e-002 -9.980643e-001 0.000000e+000
      outer loop
         vertex 7.349981e-003 -3.931892e-002 4.775000e-001
         vertex 7.349981e-003 -3.931892e-002 4.875000e-001
         vertex -7.349981e-003 -3.931892e-002 4.875000e-001
      endloop
   endfacet
   facet normal -6.219018e-002 -9.980643e-001 0.000000e+000
      outer loop
         vertex 7.349981e-003 -3.931892e-002 4.775000e-001
         vertex -7.349981e-003 -3.931892e-002 4.875000e-001
         vertex -7.349981e-003 -3.931892e-002 4.775000e-001
      endloop
   endfacet
   facet normal -3.025518e-001 -9.531329e-001 0.000000e+000
      outer loop
         vertex -7.349981e-003 -3.931892e-002 4.775000e-001
         vertex -7.349981e-003 -3.931892e-002 4.875000e-001
         vertex -2.105729e-002 -3.400869e-002 4.875000e-001
      endloop
   endfacet
   facet normal -4.185330e-001 -9.082016e-001 0.000000e+000
      outer loop
         vertex -7.349981e-003 -3.931892e-002 4.775000e-001
         vertex -2.105729e-002 -3.400869e-002 4.875000e-001
         vertex -2.105729e-002 -3.400869e-002 4.775000e-001
      endloop
   endfacet
   facet normal -6.264325e-001 -7.794757e-001 0.000000e+000
      outer loop
         vertex -2.105729e-002 -3.400869e-002 4.775000e-001
         vertex -2.105729e-002 -3.400869e-002 4.875000e-001
         vertex -3.192069e-002 -2.410538e-002 4.875000e-001
      endloop
   endfacet
   facet normal -7.183506e-001 -6.956812e-001 0.000000e+000
      outer loop
         vertex -2.105729e-002 -3.400869e-002 4.775000e-001
         vertex -3.192069e-002 -2.410538e-002 4.875000e-001
         vertex -3.192069e-002 -2.410538e-002 4.775000e-001
      endloop
   endfacet
   facet normal -8.657100e-001 -5.005459e-001 0.000000e+000
      outer loop
         vertex -3.192069e-002 -2.410538e-002 4.775000e-001
         vertex -3.192069e-002 -2.410538e-002 4.875000e-001
         vertex -3.847302e-002 -1.094652e-002 4.875000e-001
      endloop
   endfacet
   facet normal -9.211511e-001 -3.892052e-001 0.000000e+000
      outer loop
         vertex -3.192069e-002 -2.410538e-002 4.775000e-001
         vertex -3.847302e-002 -1.094652e-002 4.875000e-001
         vertex -3.847302e-002 -1.094652e-002 4.775000e-001
      endloop
   endfacet
   facet normal -9.880686e-001 -1.540147e-001 0.000000e+000
      outer loop
         vertex -3.847302e-002 -1.094652e-002 4.775000e-001
         vertex -3.847302e-002 -1.094652e-002 4.875000e-001
         vertex -3.982937e-002 3.690734e-003 4.875000e-001
      endloop
   endfacet
   facet normal -9.995449e-001 -3.016486e-002 0.000000e+000
      outer loop
         vertex -3.847302e-002 -1.094652e-002 4.775000e-001
         vertex -3.982937e-002 3.690734e-003 4.875000e-001
         vertex -3.982937e-002 3.690734e-003 4.775000e-001
      endloop
   endfacet
   facet normal -9.769830e-001 2.133172e-001 0.000000e+000
      outer loop
         vertex -3.982937e-002 3.690734e-003 4.775000e-001
         vertex -3.982937e-002 3.690734e-003 4.875000e-001
         vertex -3.580653e-002 1.782953e-002 4.875000e-001
      endloop
   endfacet
   facet normal -9.429447e-001 3.329494e-001 0.000000e+000
      outer loop
         vertex -3.982937e-002 3.690734e-003 4.775000e-001
         vertex -3.580653e-002 1.782953e-002 4.875000e-001
         vertex -3.580653e-002 1.782953e-002 4.775000e-001
      endloop
   endfacet
   facet normal -8.339505e-001 5.518393e-001 0.000000e+000
      outer loop
         vertex -3.580653e-002 1.782953e-002 4.775000e-001
         vertex -3.580653e-002 1.782953e-002 4.875000e-001
         vertex -2.694783e-002 2.956036e-002 4.875000e-001
      endloop
   endfacet
   facet normal -7.589945e-001 6.510970e-001 0.000000e+000
      outer loop
         vertex -3.580653e-002 1.782953e-002 4.775000e-001
         vertex -2.694783e-002 2.956036e-002 4.875000e-001
         vertex -2.694783e-002 2.956036e-002 4.775000e-001
      endloop
   endfacet
   facet normal -5.782883e-001 8.158324e-001 0.000000e+000
      outer loop
         vertex -2.694783e-002 2.956036e-002 4.775000e-001
         vertex -2.694783e-002 2.956036e-002 4.875000e-001
         vertex -1.444967e-002 3.729889e-002 4.875000e-001
      endloop
   endfacet
   facet normal -4.725380e-001 8.813103e-001 0.000000e+000
      outer loop
         vertex -2.694783e-002 2.956036e-002 4.775000e-001
         vertex -1.444967e-002 3.729889e-002 4.875000e-001
         vertex -1.444967e-002 3.729889e-002 4.775000e-001
      endloop
   endfacet
   facet normal -2.445251e-001 9.696429e-001 0.000000e+000
      outer loop
         vertex -1.444967e-002 3.729889e-002 4.775000e-001
         vertex -1.444967e-002 3.729889e-002 4.875000e-001
         vertex 5.918660e-018 4.000000e-002 4.875000e-001
      endloop
   endfacet
   facet normal -0.000000e+000 0.000000e+000 -1.000000e+000
      outer loop
         vertex 2.000000e-002 -2.081668e-017 4.775000e-001
         vertex 3.847302e-002 -1.094652e-002 4.775000e-001
         vertex 1.732051e-002 -1.000000e-002 4.775000e-001
      endloop
   endfacet
   facet normal -0.000000e+000 0.000000e+000 -1.000000e+000
      outer loop
         vertex 1.732051e-002 -1.000000e-002 4.775000e-001
         vertex 3.847302e-002 -1.094652e-002 4.775000e-001
         vertex 3.192069e-002 -2.410538e-002 4.775000e-001
      endloop
   endfacet
   facet normal -0.000000e+000 0.000000e+000 -1.000000e+000
      outer loop
         vertex 1.732051e-002 -1.000000e-002 4.775000e-001
         vertex 3.192069e-002 -2.410538e-002 4.775000e-001
         vertex 1.000000e-002 -1.732051e-002 4.775000e-001
      endloop
   endfacet
   facet normal -0.000000e+000 0.000000e+000 -1.000000e+000
      outer loop
         vertex 3.192069e-002 -2.410538e-002 4.775000e-001
         vertex 2.105729e-002 -3.400869e-002 4.775000e-001
         vertex 1.000000e-002 -1.732051e-002 4.775000e-001
      endloop
   endfacet
   facet normal -0.000000e+000 0.000000e+000 -1.000000e+000
      outer loop
         vertex 1.000000e-002 -1.732051e-002 4.775000e-001
         vertex 2.105729e-002 -3.400869e-002 4.775000e-001
         vertex 7.349981e-003 -3.931892e-002 4.775000e-001
      endloop
   endfacet
   facet normal -0.000000e+000 0.000000e+000 -1.000000e+000
      outer loop
         vertex 1.000000e-002 -1.732051e-002 4.775000e-001
         vertex 7.349981e-003 -3.931892e-002 4.775000e-001
         vertex -1.387779e-017 -2.000000e-002 4.775000e-001
      endloop
   endfacet
   facet normal -0.000000e+000 0.000000e+000 -1.000000e+000
      outer loop
         vertex -1.387779e-017 -2.000000e-002 4.775000e-001
         vertex 7.349981e-003 -3.931892e-002 4.775000e-001
         vertex -7.349981e-003 -3.931892e-002 4.775000e-001
      endloop
   endfacet
   facet normal -0.000000e+000 0.000000e+000 -1.000000e+000
      outer loop
         vertex -1.387779e-017 -2.000000e-002 4.775000e-001
         vertex -7.349981e-003 -3.931892e-002 4.775000e-001
         vertex -1.000000e-002 -1.732051e-002 4.775000e-001
      endloop
   endfacet
   facet normal -0.000000e+000 0.000000e+000 -1.000000e+000
      outer loop
         vertex -1.000000e-002 -1.732051e-002 4.775000e-001
         vertex -7.349981e-003 -3.931892e-002 4.775000e-001
         vertex -2.105729e-002 -3.400869e-002 4.775000e-001
      endloop
   endfacet
   facet normal -0.000000e+000 0.000000e+000 -1.000000e+000
      outer loop
         vertex -1.000000e-002 -1.732051e-002 4.775000e-001
         vertex -2.105729e-002 -3.400869e-002 4.775000e-001
         vertex -1.732051e-002 -1.000000e-002 4.775000e-001
      endloop
   endfacet
   facet normal -0.000000e+000 0.000000e+000 -1.000000e+000
      outer loop
         vertex -2.105729e-002 -3.400869e-002 4.775000e-001
         vertex -3.192069e-002 -2.410538e-002 4.775000e-001
         vertex -1.732051e-002 -1.000000e-002 4.775000e-001
      endloop
   endfacet
   facet normal -0.000000e+000 0.000000e+000 -1.000000e+000
      outer loop
         vertex -1.732051e-002 -1.000000e-002 4.775000e-001
         vertex -3.192069e-002 -2.410538e-002 4.775000e-001
         vertex -3.847302e-002 -1.094652e-002 4.775000e-001
      endloop
   endfacet
   facet normal -0.000000e+000 0.000000e+000 -1.000000e+000
      outer loop
         vertex -1.732051e-002 -1.000000e-002 4.775000e-001
         vertex -3.847302e-002 -1.094652e-002 4.775000e-001
         vertex -2.000000e-002 6.938894e-018 4.775000e-001
      endloop
   endfacet
   facet normal -0.000000e+000 0.000000e+000 -1.000000e+000
      outer loop
         vertex -2.000000e-002 6.938894e-018 4.775000e-001
         vertex -3.847302e-002 -1.094652e-002 4.775000e-001
         vertex -3.982937e-002 3.690734e-003 4.775000e-001
      endloop
   endfacet
   facet normal -0.000000e+000 0.000000e+000 -1.000000e+000
      outer loop
         vertex -2.000000e-002 6.938894e-018 4.775000e-001
         vertex -3.982937e-002 3.690734e-003 4.775000e-001
         vertex -1.732051e-002 1.000000e-002 4.775000e-001
      endloop
   endfacet
   facet normal -0.000000e+000 0.000000e+000 -1.000000e+000
      outer loop
         vertex -3.982937e-002 3.690734e-003 4.775000e-001
         vertex -3.580653e-002 1.782953e-002 4.775000e-001
         vertex -1.732051e-002 1.000000e-002 4.775000e-001
      endloop
   endfacet
   facet normal -0.000000e+000 0.000000e+000 -1.000000e+000
      outer loop
         vertex -1.732051e-002 1.000000e-002 4.775000e-001
         vertex -3.580653e-002 1.782953e-002 4.775000e-001
         vertex -2.694783e-002 2.956036e-002 4.775000e-001
      endloop
   endfacet
   facet normal -0.000000e+000 0.000000e+000 -1.000000e+000
      outer loop
         vertex -1.732051e-002 1.000000e-002 4.775000e-001
         vertex -2.694783e-002 2.956036e-002 4.775000e-001
         vertex -1.000000e-002 1.732051e-002 4.775000e-001
      endloop
   endfacet
   facet normal -0.000000e+000 0.000000e+000 -1.000000e+000
      outer loop
         vertex -1.000000e-002 1.732051e-002 4.775000e-001
         vertex -2.694783e-002 2.956036e-002 4.775000e-001
         vertex -1.444967e-002 3.729889e-002 4.775000e-001
      endloop
   endfacet
   facet normal -0.000000e+000 0.000000e+000 -1.000000e+000
      outer loop
         vertex -1.000000e-002 1.732051e-002 4.775000e-001
         vertex -1.444967e-002 3.729889e-002 4.775000e-001
         vertex 0.000000e+000 2.000000e-002 4.775000e-001
      endloop
   endfacet
   facet normal -0.000000e+000 0.000000e+000 -1.000000e+000
      outer loop
         vertex 0.000000e+000 2.000000e-002 4.775000e-001
         vertex -1.444967e-002 3.729889e-002 4.775000e-001
         vertex 6.938894e-018 4.000000e-002 4.775000e-001
      endloop
   endfacet
   facet normal -0.000000e+000 0.000000e+000 -1.000000e+000
      outer loop
         vertex 0.000000e+000 2.000000e-002 4.775000e-001
         vertex 6.938894e-018 4.000000e-002 4.775000e-001
         vertex 1.000000e-002 1.732051e-002 4.775000e-001
      endloop
   endfacet
   facet normal -0.000000e+000 0.000000e+000 -1.000000e+000
      outer loop
         vertex 6.938894e-018 4.000000e-002 4.775000e-001
         vertex 1.444967e-002 3.729889e-002 4.775000e-001
         vertex 1.000000e-002 1.732051e-002 4.775000e-001
      endloop
   endfacet
   facet normal -0.000000e+000 0.000000e+000 -1.000000e+000
      outer loop
         vertex 1.000000e-002 1.732051e-002 4.775000e-001
         vertex 1.444967e-002 3.729889e-002 4.775000e-001
         vertex 2.694783e-002 2.956036e-002 4.775000e-001
      endloop
   endfacet
   facet normal -0.000000e+000 0.000000e+000 -1.000000e+000
      outer loop
         vertex 1.000000e-002 1.732051e-002 4.775000e-001
         vertex 2.694783e-002 2.956036e-002 4.775000e-001
         vertex 1.732051e-002 1.000000e-002 4.775000e-001
      endloop
   endfacet
   facet normal -0.000000e+000 0.000000e+000 -1.000000e+000
      outer loop
         vertex 1.732051e-002 1.000000e-002 4.775000e-001
         vertex 2.694783e-002 2.956036e-002 4.775000e-001
         vertex 3.580653e-002 1.782953e-002 4.775000e-001
      endloop
   endfacet
   facet normal -0.000000e+000 0.000000e+000 -1.000000e+000
      outer loop
         vertex 1.732051e-002 1.000000e-002 4.775000e-001
         vertex 3.580653e-002 1.782953e-002 4.775000e-001
         vertex 2.000000e-002 -2.081668e-017 4.775000e-001
      endloop
   endfacet
   facet normal -0.000000e+000 0.000000e+000 -1.000000e+000
      outer loop
         vertex 2.000000e-002 -2.081668e-017 4.775000e-001
         vertex 3.580653e-002 1.782953e-002 4.775000e-001
         vertex 3.982937e-002 3.690734e-003 4.775000e-001
      endloop
   endfacet
   facet normal -0.000000e+000 0.000000e+000 -1.000000e+000
      outer loop
         vertex 2.000000e-002 -2.081668e-017 4.775000e-001
         vertex 3.982937e-002 3.690734e-003 4.775000e-001
         vertex 3.847302e-002 -1.094652e-002 4.775000e-001
      endloop
   endfacet
   facet normal 8.244088e-001 -5.659947e-001 0.000000e+000
      outer loop
         vertex 1.452149e-002 -1.375233e-002 2.035010e-002
         vertex 1.732051e-002 -1.000000e-002 1.802778e-002
         vertex 1.732051e-002 -1.000000e-002 4.775000e-001
      endloop
   endfacet
   facet normal 9.128388e-001 -4.083200e-001 0.000000e+000
      outer loop
         vertex 1.732051e-002 -1.000000e-002 4.775000e-001
         vertex 1.732051e-002 -1.000000e-002 1.802778e-002
         vertex 1.954579e-002 -4.238185e-003 1.558727e-002
      endloop
   endfacet
   facet normal 9.700557e-001 -2.428826e-001 0.000000e+000
      outer loop
         vertex 1.732051e-002 -1.000000e-002 4.775000e-001
         vertex 1.954579e-002 -4.238185e-003 1.558727e-002
         vertex 2.000000e-002 -1.847818e-017 4.775000e-001
      endloop
   endfacet
   facet normal 7.253680e-001 -6.883612e-001 0.000000e+000
      outer loop
         vertex 1.452149e-002 -1.375233e-002 2.035010e-002
         vertex 1.732051e-002 -1.000000e-002 4.775000e-001
         vertex 1.080835e-002 -1.668259e-002 2.245468e-002
      endloop
   endfacet
   facet normal 6.546408e-001 -7.559401e-001 0.000000e+000
      outer loop
         vertex 1.080835e-002 -1.668259e-002 2.245468e-002
         vertex 1.732051e-002 -1.000000e-002 4.775000e-001
         vertex 1.000000e-002 -1.732051e-002 4.775000e-001
      endloop
   endfacet
   facet normal 5.147297e-001 -8.573525e-001 0.000000e+000
      outer loop
         vertex 1.080835e-002 -1.668259e-002 2.245468e-002
         vertex 1.000000e-002 -1.732051e-002 4.775000e-001
         vertex 1.000000e-002 -1.732051e-002 2.291286e-002
      endloop
   endfacet
   facet normal -2.603057e-001 -9.655262e-001 0.000000e+000
      outer loop
         vertex -1.000000e-002 -1.732051e-002 4.775000e-001
         vertex -5.263520e-003 -1.929496e-002 2.443963e-002
         vertex -1.429041e-017 -2.000000e-002 4.775000e-001
      endloop
   endfacet
   facet normal -8.842074e-002 -9.960832e-001 0.000000e+000
      outer loop
         vertex -1.429041e-017 -2.000000e-002 4.775000e-001
         vertex -5.263520e-003 -1.929496e-002 2.443963e-002
         vertex -5.408623e-018 -2.000000e-002 2.499998e-002
      endloop
   endfacet
   facet normal 1.718619e-001 -9.851211e-001 0.000000e+000
      outer loop
         vertex -1.429041e-017 -2.000000e-002 4.775000e-001
         vertex -5.408623e-018 -2.000000e-002 2.499998e-002
         vertex 1.000000e-002 -1.732051e-002 4.775000e-001
      endloop
   endfacet
   facet normal 2.603753e-001 -9.655075e-001 0.000000e+000
      outer loop
         vertex 1.000000e-002 -1.732051e-002 4.775000e-001
         vertex -5.408623e-018 -2.000000e-002 2.499998e-002
         vertex 5.267595e-003 -1.929384e-002 2.443874e-002
      endloop
   endfacet
   facet normal 4.242361e-001 -9.055516e-001 0.000000e+000
      outer loop
         vertex 1.000000e-002 -1.732051e-002 4.775000e-001
         vertex 5.267595e-003 -1.929384e-002 2.443874e-002
         vertex 1.000000e-002 -1.732051e-002 2.291286e-002
      endloop
   endfacet
   facet normal -8.243408e-001 -5.660939e-001 0.000000e+000
      outer loop
         vertex -1.732051e-002 -1.000000e-002 1.802778e-002
         vertex -1.451649e-002 -1.375760e-002 2.035367e-002
         vertex -1.732051e-002 -1.000000e-002 4.775000e-001
      endloop
   endfacet
   facet normal -7.249087e-001 -6.888449e-001 0.000000e+000
      outer loop
         vertex -1.732051e-002 -1.000000e-002 4.775000e-001
         vertex -1.451649e-002 -1.375760e-002 2.035367e-002
         vertex -1.084709e-002 -1.680299e-002 2.252424e-002
      endloop
   endfacet
   facet normal -6.542180e-001 -7.563061e-001 0.000000e+000
      outer loop
         vertex -1.732051e-002 -1.000000e-002 4.775000e-001
         vertex -1.084709e-002 -1.680299e-002 2.252424e-002
         vertex -1.000000e-002 -1.732051e-002 4.775000e-001
      endloop
   endfacet
   facet normal -5.144432e-001 -8.575245e-001 0.000000e+000
      outer loop
         vertex -1.000000e-002 -1.732051e-002 4.775000e-001
         vertex -1.084709e-002 -1.680299e-002 2.252424e-002
         vertex -9.947739e-003 -1.720438e-002 2.283275e-002
      endloop
   endfacet
   facet normal -4.243680e-001 -9.054898e-001 0.000000e+000
      outer loop
         vertex -1.000000e-002 -1.732051e-002 4.775000e-001
         vertex -9.947739e-003 -1.720438e-002 2.283275e-002
         vertex -5.263520e-003 -1.929496e-002 2.443963e-002
      endloop
   endfacet
   facet normal -9.128388e-001 -4.083200e-001 0.000000e+000
      outer loop
         vertex -1.732051e-002 -1.000000e-002 1.802778e-002
         vertex -1.732051e-002 -1.000000e-002 4.775000e-001
         vertex -1.954579e-002 -4.238185e-003 1.558727e-002
      endloop
   endfacet
   facet normal -9.700557e-001 -2.428826e-001 0.000000e+000
      outer loop
         vertex -1.954579e-002 -4.238185e-003 1.558727e-002
         vertex -1.732051e-002 -1.000000e-002 4.775000e-001
         vertex -2.000000e-002 8.624868e-018 4.775000e-001
      endloop
   endfacet
   facet normal -9.974766e-001 -7.099561e-002 0.000000e+000
      outer loop
         vertex -1.954579e-002 -4.238185e-003 1.558727e-002
         vertex -2.000000e-002 8.624868e-018 4.775000e-001
         vertex -2.000000e-002 8.624868e-018 1.499999e-002
      endloop
   endfacet
   facet normal -9.974766e-001 7.099561e-002 0.000000e+000
      outer loop
         vertex -2.000000e-002 8.624868e-018 1.499999e-002
         vertex -2.000000e-002 8.624868e-018 4.775000e-001
         vertex -1.954579e-002 4.238185e-003 1.558727e-002
      endloop
   endfacet
   facet normal -9.700557e-001 2.428826e-001 0.000000e+000
      outer loop
         vertex -1.954579e-002 4.238185e-003 1.558727e-002
         vertex -2.000000e-002 8.624868e-018 4.775000e-001
         vertex -1.732051e-002 1.000000e-002 4.775000e-001
      endloop
   endfacet
   facet normal -9.128388e-001 4.083200e-001 0.000000e+000
      outer loop
         vertex -1.954579e-002 4.238185e-003 1.558727e-002
         vertex -1.732051e-002 1.000000e-002 4.775000e-001
         vertex -1.732051e-002 1.000000e-002 1.802778e-002
      endloop
   endfacet
   facet normal -4.242977e-001 9.055228e-001 0.000000e+000
      outer loop
         vertex -5.271563e-003 1.929276e-002 2.443790e-002
         vertex -1.000000e-002 1.732051e-002 2.291286e-002
         vertex -1.000000e-002 1.732051e-002 4.775000e-001
      endloop
   endfacet
   facet normal -5.147290e-001 8.573529e-001 0.000000e+000
      outer loop
         vertex -1.000000e-002 1.732051e-002 4.775000e-001
         vertex -1.000000e-002 1.732051e-002 2.291286e-002
         vertex -1.080840e-002 1.668276e-002 2.245480e-002
      endloop
   endfacet
   facet normal -6.546403e-001 7.559406e-001 0.000000e+000
      outer loop
         vertex -1.000000e-002 1.732051e-002 4.775000e-001
         vertex -1.080840e-002 1.668276e-002 2.245480e-002
         vertex -1.732051e-002 1.000000e-002 4.775000e-001
      endloop
   endfacet
   facet normal -7.252905e-001 6.884429e-001 0.000000e+000
      outer loop
         vertex -1.732051e-002 1.000000e-002 4.775000e-001
         vertex -1.080840e-002 1.668276e-002 2.245480e-002
         vertex -1.451695e-002 1.375711e-002 2.035332e-002
      endloop
   endfacet
   facet normal -8.243470e-001 5.660847e-001 0.000000e+000
      outer loop
         vertex -1.732051e-002 1.000000e-002 4.775000e-001
         vertex -1.451695e-002 1.375711e-002 2.035332e-002
         vertex -1.732051e-002 1.000000e-002 1.802778e-002
      endloop
   endfacet
   facet normal -2.604430e-001 9.654892e-001 0.000000e+000
      outer loop
         vertex -5.271563e-003 1.929276e-002 2.443790e-002
         vertex -1.000000e-002 1.732051e-002 4.775000e-001
         vertex -2.959330e-018 2.000000e-002 2.499998e-002
      endloop
   endfacet
   facet normal -1.718619e-001 9.851211e-001 0.000000e+000
      outer loop
         vertex -2.959330e-018 2.000000e-002 2.499998e-002
         vertex -1.000000e-002 1.732051e-002 4.775000e-001
         vertex -2.959330e-018 2.000000e-002 4.775000e-001
      endloop
   endfacet
   facet normal 8.842417e-002 9.960829e-001 -0.000000e+000
      outer loop
         vertex -2.959330e-018 2.000000e-002 2.499998e-002
         vertex -2.959330e-018 2.000000e-002 4.775000e-001
         vertex 5.263721e-003 1.929490e-002 2.443957e-002
      endloop
   endfacet
   facet normal 2.603091e-001 9.655253e-001 -0.000000e+000
      outer loop
         vertex 5.263721e-003 1.929490e-002 2.443957e-002
         vertex -2.959330e-018 2.000000e-002 4.775000e-001
         vertex 1.000000e-002 1.732051e-002 4.775000e-001
      endloop
   endfacet
   facet normal 4.243711e-001 9.054884e-001 -0.000000e+000
      outer loop
         vertex 5.263721e-003 1.929490e-002 2.443957e-002
         vertex 1.000000e-002 1.732051e-002 4.775000e-001
         vertex 9.947740e-003 1.720438e-002 2.283275e-002
      endloop
   endfacet
   facet normal 5.144433e-001 8.575244e-001 -0.000000e+000
      outer loop
         vertex 9.947740e-003 1.720438e-002 2.283275e-002
         vertex 1.000000e-002 1.732051e-002 4.775000e-001
         vertex 1.084709e-002 1.680299e-002 2.252424e-002
      endloop
   endfacet
   facet normal 6.542180e-001 7.563061e-001 -0.000000e+000
      outer loop
         vertex 1.084709e-002 1.680299e-002 2.252424e-002
         vertex 1.000000e-002 1.732051e-002 4.775000e-001
         vertex 1.732051e-002 1.000000e-002 4.775000e-001
      endloop
   endfacet
   facet normal 7.249032e-001 6.888508e-001 -0.000000e+000
      outer loop
         vertex 1.084709e-002 1.680299e-002 2.252424e-002
         vertex 1.732051e-002 1.000000e-002 4.775000e-001
         vertex 1.451617e-002 1.375794e-002 2.035391e-002
      endloop
   endfacet
   facet normal 9.974766e-001 -7.099561e-002 0.000000e+000
      outer loop
         vertex 1.954579e-002 -4.238185e-003 1.558727e-002
         vertex 2.000000e-002 -7.146106e-019 1.499999e-002
         vertex 2.000000e-002 -1.847818e-017 4.775000e-001
      endloop
   endfacet
   facet normal 9.974766e-001 7.099561e-002 -0.000000e+000
      outer loop
         vertex 2.000000e-002 -1.847818e-017 4.775000e-001
         vertex 2.000000e-002 -7.146106e-019 1.499999e-002
         vertex 1.954579e-002 4.238185e-003 1.558727e-002
      endloop
   endfacet
   facet normal 9.700557e-001 2.428826e-001 -0.000000e+000
      outer loop
         vertex 2.000000e-002 -1.847818e-017 4.775000e-001
         vertex 1.954579e-002 4.238185e-003 1.558727e-002
         vertex 1.732051e-002 1.000000e-002 4.775000e-001
      endloop
   endfacet
   facet normal 9.128388e-001 4.083200e-001 -0.000000e+000
      outer loop
         vertex 1.732051e-002 1.000000e-002 4.775000e-001
         vertex 1.954579e-002 4.238185e-003 1.558727e-002
         vertex 1.732051e-002 1.000000e-002 1.802778e-002
      endloop
   endfacet
   facet normal 8.243363e-001 5.661004e-001 -0.000000e+000
      outer loop
         vertex 1.732051e-002 1.000000e-002 4.775000e-001
         vertex 1.732051e-002 1.000000e-002 1.802778e-002
         vertex 1.451617e-002 1.375794e-002 2.035391e-002
      endloop
   endfacet
   facet normal 4.224623e-001 -0.000000e+000 9.063805e-001
      outer loop
         vertex 9.947740e-003 1.720438e-002 2.283275e-002
         vertex 1.084709e-002 1.680299e-002 2.252424e-002
         vertex 1.084709e-002 3.900000e-002 2.252424e-002
      endloop
   endfacet
   facet normal 8.654574e-001 -0.000000e+000 5.009826e-001
      outer loop
         vertex 1.954579e-002 -4.238185e-003 1.558727e-002
         vertex 1.954579e-002 -3.900000e-002 1.558727e-002
         vertex 2.437320e-002 -3.900000e-002 5.563021e-003
      endloop
   endfacet
   facet normal 8.704336e-001 -0.000000e+000 4.922858e-001
      outer loop
         vertex 2.000000e-002 0.000000e+000 1.499999e-002
         vertex 2.437320e-002 3.900000e-002 5.563021e-003
         vertex 1.954579e-002 4.238185e-003 1.558727e-002
      endloop
   endfacet
   facet normal 8.654574e-001 -0.000000e+000 5.009826e-001
      outer loop
         vertex 1.954579e-002 4.238185e-003 1.558727e-002
         vertex 2.437320e-002 3.900000e-002 5.563021e-003
         vertex 1.954579e-002 3.900000e-002 1.558727e-002
      endloop
   endfacet
   facet normal 7.536240e-001 -0.000000e+000 6.573058e-001
      outer loop
         vertex 1.954579e-002 4.238185e-003 1.558727e-002
         vertex 1.954579e-002 3.900000e-002 1.558727e-002
         vertex 1.732051e-002 1.000000e-002 1.802778e-002
      endloop
   endfacet
   facet normal 5.623819e-001 -0.000000e+000 8.268776e-001
      outer loop
         vertex 1.084709e-002 3.900000e-002 2.252424e-002
         vertex 1.084709e-002 1.680299e-002 2.252424e-002
         vertex 1.954579e-002 3.900000e-002 1.558727e-002
      endloop
   endfacet
   facet normal 6.091626e-001 -0.000000e+000 7.930454e-001
      outer loop
         vertex 1.954579e-002 3.900000e-002 1.558727e-002
         vertex 1.084709e-002 1.680299e-002 2.252424e-002
         vertex 1.451617e-002 1.375794e-002 2.035391e-002
      endloop
   endfacet
   facet normal 6.895391e-001 -0.000000e+000 7.242484e-001
      outer loop
         vertex 1.954579e-002 3.900000e-002 1.558727e-002
         vertex 1.451617e-002 1.375794e-002 2.035391e-002
         vertex 1.732051e-002 1.000000e-002 1.802778e-002
      endloop
   endfacet
   facet normal -4.225971e-001 0.000000e+000 9.063177e-001
      outer loop
         vertex -1.080840e-002 1.668276e-002 2.245480e-002
         vertex -1.000000e-002 1.732051e-002 2.291286e-002
         vertex -1.084709e-002 3.900000e-002 2.252424e-002
      endloop
   endfacet
   facet normal -3.501306e-001 0.000000e+000 9.367009e-001
      outer loop
         vertex -1.084709e-002 3.900000e-002 2.252424e-002
         vertex -1.000000e-002 1.732051e-002 2.291286e-002
         vertex -5.271563e-003 1.929276e-002 2.443790e-002
      endloop
   endfacet
   facet normal -2.185722e-001 0.000000e+000 9.758208e-001
      outer loop
         vertex -1.084709e-002 3.900000e-002 2.252424e-002
         vertex -5.271563e-003 1.929276e-002 2.443790e-002
         vertex -3.061617e-018 3.900000e-002 2.499998e-002
      endloop
   endfacet
   facet normal -7.064135e-002 0.000000e+000 9.975018e-001
      outer loop
         vertex -3.061617e-018 3.900000e-002 2.499998e-002
         vertex -5.271563e-003 1.929276e-002 2.443790e-002
         vertex -3.061617e-018 2.000000e-002 2.499998e-002
      endloop
   endfacet
   facet normal 1.479198e-001 -0.000000e+000 9.889994e-001
      outer loop
         vertex -3.061617e-018 3.900000e-002 2.499998e-002
         vertex -3.061617e-018 2.000000e-002 2.499998e-002
         vertex 1.084709e-002 3.900000e-002 2.252424e-002
      endloop
   endfacet
   facet normal 2.184661e-001 -0.000000e+000 9.758446e-001
      outer loop
         vertex 1.084709e-002 3.900000e-002 2.252424e-002
         vertex -3.061617e-018 2.000000e-002 2.499998e-002
         vertex 5.263721e-003 1.929490e-002 2.443957e-002
      endloop
   endfacet
   facet normal 3.498315e-001 -0.000000e+000 9.368126e-001
      outer loop
         vertex 1.084709e-002 3.900000e-002 2.252424e-002
         vertex 5.263721e-003 1.929490e-002 2.443957e-002
         vertex 9.947740e-003 1.720438e-002 2.283275e-002
      endloop
   endfacet
   facet normal -4.843279e-001 0.000000e+000 8.748866e-001
      outer loop
         vertex -1.080840e-002 1.668276e-002 2.245480e-002
         vertex -1.084709e-002 3.900000e-002 2.252424e-002
         vertex -1.451695e-002 1.375711e-002 2.035332e-002
      endloop
   endfacet
   facet normal -6.091729e-001 0.000000e+000 7.930374e-001
      outer loop
         vertex -1.451695e-002 1.375711e-002 2.035332e-002
         vertex -1.084709e-002 3.900000e-002 2.252424e-002
         vertex -1.954579e-002 3.900000e-002 1.558727e-002
      endloop
   endfacet
   facet normal -6.895484e-001 0.000000e+000 7.242396e-001
      outer loop
         vertex -1.451695e-002 1.375711e-002 2.035332e-002
         vertex -1.954579e-002 3.900000e-002 1.558727e-002
         vertex -1.732051e-002 1.000000e-002 1.802778e-002
      endloop
   endfacet
   facet normal -8.704336e-001 0.000000e+000 4.922858e-001
      outer loop
         vertex -2.000000e-002 6.938894e-018 1.499999e-002
         vertex -2.437320e-002 -3.900000e-002 5.563021e-003
         vertex -1.954579e-002 -4.238185e-003 1.558727e-002
      endloop
   endfacet
   facet normal -8.654574e-001 0.000000e+000 5.009826e-001
      outer loop
         vertex -1.954579e-002 -4.238185e-003 1.558727e-002
         vertex -2.437320e-002 -3.900000e-002 5.563021e-003
         vertex -1.954579e-002 -3.900000e-002 1.558727e-002
      endloop
   endfacet
   facet normal -7.536240e-001 0.000000e+000 6.573058e-001
      outer loop
         vertex -1.954579e-002 -4.238185e-003 1.558727e-002
         vertex -1.954579e-002 -3.900000e-002 1.558727e-002
         vertex -1.732051e-002 -1.000000e-002 1.802778e-002
      endloop
   endfacet
   facet normal -7.536240e-001 0.000000e+000 6.573058e-001
      outer loop
         vertex -1.732051e-002 1.000000e-002 1.802778e-002
         vertex -1.954579e-002 3.900000e-002 1.558727e-002
         vertex -1.954579e-002 4.238185e-003 1.558727e-002
      endloop
   endfacet
   facet normal -8.654574e-001 0.000000e+000 5.009826e-001
      outer loop
         vertex -1.954579e-002 4.238185e-003 1.558727e-002
         vertex -1.954579e-002 3.900000e-002 1.558727e-002
         vertex -2.437320e-002 3.900000e-002 5.563021e-003
      endloop
   endfacet
   facet normal -8.704336e-001 0.000000e+000 4.922858e-001
      outer loop
         vertex -1.954579e-002 4.238185e-003 1.558727e-002
         vertex -2.437320e-002 3.900000e-002 5.563021e-003
         vertex -2.000000e-002 6.938894e-018 1.499999e-002
      endloop
   endfacet
   facet normal -3.498289e-001 0.000000e+000 9.368137e-001
      outer loop
         vertex -5.263520e-003 -1.929496e-002 2.443963e-002
         vertex -9.947739e-003 -1.720438e-002 2.283275e-002
         vertex -1.084709e-002 -3.900000e-002 2.252424e-002
      endloop
   endfacet
   facet normal -4.224623e-001 0.000000e+000 9.063805e-001
      outer loop
         vertex -1.084709e-002 -3.900000e-002 2.252424e-002
         vertex -9.947739e-003 -1.720438e-002 2.283275e-002
         vertex -1.084709e-002 -1.680299e-002 2.252424e-002
      endloop
   endfacet
   facet normal -5.623819e-001 0.000000e+000 8.268776e-001
      outer loop
         vertex -1.084709e-002 -3.900000e-002 2.252424e-002
         vertex -1.084709e-002 -1.680299e-002 2.252424e-002
         vertex -1.954579e-002 -3.900000e-002 1.558727e-002
      endloop
   endfacet
   facet normal -6.091669e-001 0.000000e+000 7.930421e-001
      outer loop
         vertex -1.954579e-002 -3.900000e-002 1.558727e-002
         vertex -1.084709e-002 -1.680299e-002 2.252424e-002
         vertex -1.451649e-002 -1.375760e-002 2.035367e-002
      endloop
   endfacet
   facet normal -6.895430e-001 0.000000e+000 7.242447e-001
      outer loop
         vertex -1.954579e-002 -3.900000e-002 1.558727e-002
         vertex -1.451649e-002 -1.375760e-002 2.035367e-002
         vertex -1.732051e-002 -1.000000e-002 1.802778e-002
      endloop
   endfacet
   facet normal -2.184633e-001 0.000000e+000 9.758452e-001
      outer loop
         vertex -5.263520e-003 -1.929496e-002 2.443963e-002
         vertex -1.084709e-002 -3.900000e-002 2.252424e-002
         vertex -3.061617e-018 -2.000000e-002 2.499998e-002
      endloop
   endfacet
   facet normal -1.479198e-001 0.000000e+000 9.889994e-001
      outer loop
         vertex -3.061617e-018 -2.000000e-002 2.499998e-002
         vertex -1.084709e-002 -3.900000e-002 2.252424e-002
         vertex -3.061617e-018 -3.900000e-002 2.499998e-002
      endloop
   endfacet
   facet normal 7.058764e-002 -0.000000e+000 9.975056e-001
      outer loop
         vertex -3.061617e-018 -2.000000e-002 2.499998e-002
         vertex -3.061617e-018 -3.900000e-002 2.499998e-002
         vertex 5.267595e-003 -1.929384e-002 2.443874e-002
      endloop
   endfacet
   facet normal 2.185185e-001 -0.000000e+000 9.758328e-001
      outer loop
         vertex 5.267595e-003 -1.929384e-002 2.443874e-002
         vertex -3.061617e-018 -3.900000e-002 2.499998e-002
         vertex 1.084709e-002 -3.900000e-002 2.252424e-002
      endloop
   endfacet
   facet normal 3.500801e-001 -0.000000e+000 9.367198e-001
      outer loop
         vertex 5.267595e-003 -1.929384e-002 2.443874e-002
         vertex 1.084709e-002 -3.900000e-002 2.252424e-002
         vertex 1.000000e-002 -1.732051e-002 2.291286e-002
      endloop
   endfacet
   facet normal 7.536240e-001 -0.000000e+000 6.573058e-001
      outer loop
         vertex 1.954579e-002 -4.238185e-003 1.558727e-002
         vertex 1.732051e-002 -1.000000e-002 1.802778e-002
         vertex 1.954579e-002 -3.900000e-002 1.558727e-002
      endloop
   endfacet
   facet normal 6.896020e-001 -0.000000e+000 7.241885e-001
      outer loop
         vertex 1.954579e-002 -3.900000e-002 1.558727e-002
         vertex 1.732051e-002 -1.000000e-002 1.802778e-002
         vertex 1.452149e-002 -1.375233e-002 2.035010e-002
      endloop
   endfacet
   facet normal 6.092328e-001 -0.000000e+000 7.929914e-001
      outer loop
         vertex 1.954579e-002 -3.900000e-002 1.558727e-002
         vertex 1.452149e-002 -1.375233e-002 2.035010e-002
         vertex 1.084709e-002 -3.900000e-002 2.252424e-002
      endloop
   endfacet
   facet normal 4.843924e-001 -0.000000e+000 8.748509e-001
      outer loop
         vertex 1.084709e-002 -3.900000e-002 2.252424e-002
         vertex 1.452149e-002 -1.375233e-002 2.035010e-002
         vertex 1.080835e-002 -1.668259e-002 2.245468e-002
      endloop
   endfacet
   facet normal 4.225969e-001 -0.000000e+000 9.063178e-001
      outer loop
         vertex 1.084709e-002 -3.900000e-002 2.252424e-002
         vertex 1.080835e-002 -1.668259e-002 2.245468e-002
         vertex 1.000000e-002 -1.732051e-002 2.291286e-002
      endloop
   endfacet
   facet normal -9.347727e-001 0.000000e+000 3.552465e-001
      outer loop
         vertex -2.000000e-002 6.938894e-018 1.499999e-002
         vertex -2.437320e-002 3.900000e-002 5.563021e-003
         vertex -2.437320e-002 -3.900000e-002 5.563021e-003
      endloop
   endfacet
   facet normal -9.971184e-001 0.000000e+000 7.586192e-002
      outer loop
         vertex -2.437320e-002 -3.900000e-002 5.563021e-003
         vertex -2.437320e-002 3.900000e-002 5.563021e-003
         vertex -2.437320e-002 3.900000e-002 -5.563021e-003
      endloop
   endfacet
   facet normal -9.971184e-001 0.000000e+000 -7.586192e-002
      outer loop
         vertex -2.437320e-002 -3.900000e-002 5.563021e-003
         vertex -2.437320e-002 3.900000e-002 -5.563021e-003
         vertex -2.437320e-002 -3.900000e-002 -5.563021e-003
      endloop
   endfacet
   facet normal -9.312878e-001 0.000000e+000 -3.642842e-001
      outer loop
         vertex -2.437320e-002 -3.900000e-002 -5.563021e-003
         vertex -2.437320e-002 3.900000e-002 -5.563021e-003
         vertex -1.954579e-002 3.900000e-002 -1.558727e-002
      endloop
   endfacet
   facet normal -8.654574e-001 0.000000e+000 -5.009826e-001
      outer loop
         vertex -2.437320e-002 -3.900000e-002 -5.563021e-003
         vertex -1.954579e-002 3.900000e-002 -1.558727e-002
         vertex -1.954579e-002 -3.900000e-002 -1.558727e-002
      endloop
   endfacet
   facet normal -6.810043e-001 0.000000e+000 -7.322794e-001
      outer loop
         vertex -1.954579e-002 -3.900000e-002 -1.558727e-002
         vertex -1.954579e-002 3.900000e-002 -1.558727e-002
         vertex -1.084709e-002 3.900000e-002 -2.252424e-002
      endloop
   endfacet
   facet normal -5.623819e-001 0.000000e+000 -8.268777e-001
      outer loop
         vertex -1.954579e-002 -3.900000e-002 -1.558727e-002
         vertex -1.084709e-002 3.900000e-002 -2.252424e-002
         vertex -1.084709e-002 -3.900000e-002 -2.252424e-002
      endloop
   endfacet
   facet normal -2.958396e-001 0.000000e+000 -9.552376e-001
      outer loop
         vertex -1.084709e-002 -3.900000e-002 -2.252424e-002
         vertex -1.084709e-002 3.900000e-002 -2.252424e-002
         vertex 0.000000e+000 3.900000e-002 -2.499998e-002
      endloop
   endfacet
   facet normal -1.479198e-001 0.000000e+000 -9.889994e-001
      outer loop
         vertex -1.084709e-002 -3.900000e-002 -2.252424e-002
         vertex 0.000000e+000 3.900000e-002 -2.499998e-002
         vertex 0.000000e+000 -3.900000e-002 -2.499998e-002
      endloop
   endfacet
   facet normal 1.479198e-001 0.000000e+000 -9.889994e-001
      outer loop
         vertex 0.000000e+000 -3.900000e-002 -2.499998e-002
         vertex 0.000000e+000 3.900000e-002 -2.499998e-002
         vertex 1.084709e-002 3.900000e-002 -2.252424e-002
      endloop
   endfacet
   facet normal 2.958396e-001 0.000000e+000 -9.552376e-001
      outer loop
         vertex 0.000000e+000 -3.900000e-002 -2.499998e-002
         vertex 1.084709e-002 3.900000e-002 -2.252424e-002
         vertex 1.084709e-002 -3.900000e-002 -2.252424e-002
      endloop
   endfacet
   facet normal 5.623819e-001 0.000000e+000 -8.268776e-001
      outer loop
         vertex 1.084709e-002 -3.900000e-002 -2.252424e-002
         vertex 1.084709e-002 3.900000e-002 -2.252424e-002
         vertex 1.954579e-002 3.900000e-002 -1.558727e-002
      endloop
   endfacet
   facet normal 6.810043e-001 0.000000e+000 -7.322794e-001
      outer loop
         vertex 1.084709e-002 -3.900000e-002 -2.252424e-002
         vertex 1.954579e-002 3.900000e-002 -1.558727e-002
         vertex 1.954579e-002 -3.900000e-002 -1.558727e-002
      endloop
   endfacet
   facet normal 8.654574e-001 0.000000e+000 -5.009826e-001
      outer loop
         vertex 1.954579e-002 -3.900000e-002 -1.558727e-002
         vertex 1.954579e-002 3.900000e-002 -1.558727e-002
         vertex 2.437320e-002 3.900000e-002 -5.563021e-003
      endloop
   endfacet
   facet normal 9.312878e-001 0.000000e+000 -3.642842e-001
      outer loop
         vertex 1.954579e-002 -3.900000e-002 -1.558727e-002
         vertex 2.437320e-002 3.900000e-002 -5.563021e-003
         vertex 2.437320e-002 -3.900000e-002 -5.563021e-003
      endloop
   endfacet
   facet normal 9.971184e-001 0.000000e+000 -7.586192e-002
      outer loop
         vertex 2.437320e-002 -3.900000e-002 -5.563021e-003
         vertex 2.437320e-002 3.900000e-002 -5.563021e-003
         vertex 2.437320e-002 3.900000e-002 5.563021e-003
      endloop
   endfacet
   facet normal 9.971184e-001 -0.000000e+000 7.586192e-002
      outer loop
         vertex 2.437320e-002 -3.900000e-002 -5.563021e-003
         vertex 2.437320e-002 3.900000e-002 5.563021e-003
         vertex 2.437320e-002 -3.900000e-002 5.563021e-003
      endloop
   endfacet
   facet normal 9.347727e-001 -0.000000e+000 3.552465e-001
      outer loop
         vertex 2.437320e-002 -3.900000e-002 5.563021e-003
         vertex 2.437320e-002 3.900000e-002 5.563021e-003
         vertex 2.000000e-002 0.000000e+000 1.499999e-002
      endloop
   endfacet
   facet normal 8.704336e-001 -0.000000e+000 4.922858e-001
      outer loop
         vertex 2.437320e-002 -3.900000e-002 5.563021e-003
         vertex 2.000000e-002 0.000000e+000 1.499999e-002
         vertex 1.954579e-002 -4.238185e-003 1.558727e-002
      endloop
   endfacet
   facet normal 0.000000e+000 1.000000e+000 0.000000e+000
      outer loop
         vertex 1.500000e-002 3.900000e-002 0.000000e+000
         vertex 2.437320e-002 3.900000e-002 -5.563021e-003
         vertex 1.299038e-002 3.900000e-002 -7.499993e-003
      endloop
   endfacet
   facet normal 0.000000e+000 1.000000e+000 0.000000e+000
      outer loop
         vertex 1.299038e-002 3.900000e-002 -7.499993e-003
         vertex 2.437320e-002 3.900000e-002 -5.563021e-003
         vertex 1.954579e-002 3.900000e-002 -1.558727e-002
      endloop
   endfacet
   facet normal 0.000000e+000 1.000000e+000 0.000000e+000
      outer loop
         vertex 1.299038e-002 3.900000e-002 -7.499993e-003
         vertex 1.954579e-002 3.900000e-002 -1.558727e-002
         vertex 7.500000e-003 3.900000e-002 -1.299036e-002
      endloop
   endfacet
   facet normal 0.000000e+000 1.000000e+000 0.000000e+000
      outer loop
         vertex 7.500000e-003 3.900000e-002 -1.299036e-002
         vertex 1.954579e-002 3.900000e-002 -1.558727e-002
         vertex 1.084709e-002 3.900000e-002 -2.252424e-002
      endloop
   endfacet
   facet normal 0.000000e+000 1.000000e+000 0.000000e+000
      outer loop
         vertex 7.500000e-003 3.900000e-002 -1.299036e-002
         vertex 1.084709e-002 3.900000e-002 -2.252424e-002
         vertex -6.938894e-018 3.900000e-002 -1.499999e-002
      endloop
   endfacet
   facet normal 0.000000e+000 1.000000e+000 0.000000e+000
      outer loop
         vertex -6.938894e-018 3.900000e-002 -1.499999e-002
         vertex 1.084709e-002 3.900000e-002 -2.252424e-002
         vertex 6.938894e-018 3.900000e-002 -2.499998e-002
      endloop
   endfacet
   facet normal 0.000000e+000 1.000000e+000 0.000000e+000
      outer loop
         vertex -6.938894e-018 3.900000e-002 -1.499999e-002
         vertex 6.938894e-018 3.900000e-002 -2.499998e-002
         vertex -7.500000e-003 3.900000e-002 -1.299036e-002
      endloop
   endfacet
   facet normal 0.000000e+000 1.000000e+000 0.000000e+000
      outer loop
         vertex -7.500000e-003 3.900000e-002 -1.299036e-002
         vertex 6.938894e-018 3.900000e-002 -2.499998e-002
         vertex -1.084709e-002 3.900000e-002 -2.252424e-002
      endloop
   endfacet
   facet normal 0.000000e+000 1.000000e+000 0.000000e+000
      outer loop
         vertex -7.500000e-003 3.900000e-002 -1.299036e-002
         vertex -1.084709e-002 3.900000e-002 -2.252424e-002
         vertex -1.299038e-002 3.900000e-002 -7.499993e-003
      endloop
   endfacet
   facet normal 0.000000e+000 1.000000e+000 0.000000e+000
      outer loop
         vertex -1.299038e-002 3.900000e-002 -7.499993e-003
         vertex -1.084709e-002 3.900000e-002 -2.252424e-002
         vertex -1.954579e-002 3.900000e-002 -1.558727e-002
      endloop
   endfacet
   facet normal 0.000000e+000 1.000000e+000 0.000000e+000
      outer loop
         vertex -1.299038e-002 3.900000e-002 -7.499993e-003
         vertex -1.954579e-002 3.900000e-002 -1.558727e-002
         vertex -1.500000e-002 3.900000e-002 0.000000e+000
      endloop
   endfacet
   facet normal 0.000000e+000 1.000000e+000 0.000000e+000
      outer loop
         vertex -1.954579e-002 3.900000e-002 -1.558727e-002
         vertex -2.437320e-002 3.900000e-002 -5.563021e-003
         vertex -1.500000e-002 3.900000e-002 0.000000e+000
      endloop
   endfacet
   facet normal 0.000000e+000 1.000000e+000 0.000000e+000
      outer loop
         vertex -1.500000e-002 3.900000e-002 0.000000e+000
         vertex -2.437320e-002 3.900000e-002 -5.563021e-003
         vertex -2.437320e-002 3.900000e-002 5.563021e-003
      endloop
   endfacet
   facet normal 0.000000e+000 1.000000e+000 0.000000e+000
      outer loop
         vertex -1.500000e-002 3.900000e-002 0.000000e+000
         vertex -2.437320e-002 3.900000e-002 5.563021e-003
         vertex -1.299038e-002 3.900000e-002 7.499993e-003
      endloop
   endfacet
   facet normal 0.000000e+000 1.000000e+000 0.000000e+000
      outer loop
         vertex -1.299038e-002 3.900000e-002 7.499993e-003
         vertex -2.437320e-002 3.900000e-002 5.563021e-003
         vertex -1.954579e-002 3.900000e-002 1.558727e-002
      endloop
   endfacet
   facet normal 0.000000e+000 1.000000e+000 0.000000e+000
      outer loop
         vertex -1.299038e-002 3.900000e-002 7.499993e-003
         vertex -1.954579e-002 3.900000e-002 1.558727e-002
         vertex -7.500000e-003 3.900000e-002 1.299036e-002
      endloop
   endfacet
   facet normal 0.000000e+000 1.000000e+000 0.000000e+000
      outer loop
         vertex -7.500000e-003 3.900000e-002 1.299036e-002
         vertex -1.954579e-002 3.900000e-002 1.558727e-002
         vertex -1.084709e-002 3.900000e-002 2.252424e-002
      endloop
   endfacet
   facet normal 0.000000e+000 1.000000e+000 0.000000e+000
      outer loop
         vertex -7.500000e-003 3.900000e-002 1.299036e-002
         vertex -1.084709e-002 3.900000e-002 2.252424e-002
         vertex 3.469447e-018 3.900000e-002 1.499999e-002
      endloop
   endfacet
   facet normal 0.000000e+000 1.000000e+000 0.000000e+000
      outer loop
         vertex 3.469447e-018 3.900000e-002 1.499999e-002
         vertex -1.084709e-002 3.900000e-002 2.252424e-002
         vertex -3.469447e-018 3.900000e-002 2.499998e-002
      endloop
   endfacet
   facet normal 0.000000e+000 1.000000e+000 0.000000e+000
      outer loop
         vertex 3.469447e-018 3.900000e-002 1.499999e-002
         vertex -3.469447e-018 3.900000e-002 2.499998e-002
         vertex 7.500000e-003 3.900000e-002 1.299036e-002
      endloop
   endfacet
   facet normal 0.000000e+000 1.000000e+000 0.000000e+000
      outer loop
         vertex 7.500000e-003 3.900000e-002 1.299036e-002
         vertex -3.469447e-018 3.900000e-002 2.499998e-002
         vertex 1.084709e-002 3.900000e-002 2.252424e-002
      endloop
   endfacet
   facet normal 0.000000e+000 1.000000e+000 0.000000e+000
      outer loop
         vertex 7.500000e-003 3.900000e-002 1.299036e-002
         vertex 1.084709e-002 3.900000e-002 2.252424e-002
         vertex 1.299038e-002 3.900000e-002 7.499993e-003
      endloop
   endfacet
   facet normal 0.000000e+000 1.000000e+000 0.000000e+000
      outer loop
         vertex 1.299038e-002 3.900000e-002 7.499993e-003
         vertex 1.084709e-002 3.900000e-002 2.252424e-002
         vertex 1.954579e-002 3.900000e-002 1.558727e-002
      endloop
   endfacet
   facet normal 0.000000e+000 1.000000e+000 0.000000e+000
      outer loop
         vertex 1.299038e-002 3.900000e-002 7.499993e-003
         vertex 1.954579e-002 3.900000e-002 1.558727e-002
         vertex 1.500000e-002 3.900000e-002 0.000000e+000
      endloop
   endfacet
   facet normal 0.000000e+000 1.000000e+000 0.000000e+000
      outer loop
         vertex 1.500000e-002 3.900000e-002 0.000000e+000
         vertex 1.954579e-002 3.900000e-002 1.558727e-002
         vertex 2.437320e-002 3.900000e-002 5.563021e-003
      endloop
   endfacet
   facet normal 0.000000e+000 1.000000e+000 0.000000e+000
      outer loop
         vertex 1.500000e-002 3.900000e-002 0.000000e+000
         vertex 2.437320e-002 3.900000e-002 5.563021e-003
         vertex 2.437320e-002 3.900000e-002 -5.563021e-003
      endloop
   endfacet
   facet normal -0.000000e+000 -1.000000e+000 0.000000e+000
      outer loop
         vertex -1.500000e-002 -3.900000e-002 0.000000e+000
         vertex -2.437320e-002 -3.900000e-002 -5.563021e-003
         vertex -1.299038e-002 -3.900000e-002 -7.499993e-003
      endloop
   endfacet
   facet normal -0.000000e+000 -1.000000e+000 0.000000e+000
      outer loop
         vertex -1.299038e-002 -3.900000e-002 -7.499993e-003
         vertex -2.437320e-002 -3.900000e-002 -5.563021e-003
         vertex -1.954579e-002 -3.900000e-002 -1.558727e-002
      endloop
   endfacet
   facet normal -0.000000e+000 -1.000000e+000 0.000000e+000
      outer loop
         vertex -1.299038e-002 -3.900000e-002 -7.499993e-003
         vertex -1.954579e-002 -3.900000e-002 -1.558727e-002
         vertex -7.500000e-003 -3.900000e-002 -1.299036e-002
      endloop
   endfacet
   facet normal -0.000000e+000 -1.000000e+000 0.000000e+000
      outer loop
         vertex -7.500000e-003 -3.900000e-002 -1.299036e-002
         vertex -1.954579e-002 -3.900000e-002 -1.558727e-002
         vertex -1.084709e-002 -3.900000e-002 -2.252424e-002
      endloop
   endfacet
   facet normal -0.000000e+000 -1.000000e+000 0.000000e+000
      outer loop
         vertex -7.500000e-003 -3.900000e-002 -1.299036e-002
         vertex -1.084709e-002 -3.900000e-002 -2.252424e-002
         vertex -6.938894e-018 -3.900000e-002 -1.499999e-002
      endloop
   endfacet
   facet normal -0.000000e+000 -1.000000e+000 0.000000e+000
      outer loop
         vertex -6.938894e-018 -3.900000e-002 -1.499999e-002
         vertex -1.084709e-002 -3.900000e-002 -2.252424e-002
         vertex 0.000000e+000 -3.900000e-002 -2.499998e-002
      endloop
   endfacet
   facet normal -0.000000e+000 -1.000000e+000 0.000000e+000
      outer loop
         vertex -6.938894e-018 -3.900000e-002 -1.499999e-002
         vertex 0.000000e+000 -3.900000e-002 -2.499998e-002
         vertex 7.500000e-003 -3.900000e-002 -1.299036e-002
      endloop
   endfacet
   facet normal -0.000000e+000 -1.000000e+000 0.000000e+000
      outer loop
         vertex 7.500000e-003 -3.900000e-002 -1.299036e-002
         vertex 0.000000e+000 -3.900000e-002 -2.499998e-002
         vertex 1.084709e-002 -3.900000e-002 -2.252424e-002
      endloop
   endfacet
   facet normal -0.000000e+000 -1.000000e+000 0.000000e+000
      outer loop
         vertex 7.500000e-003 -3.900000e-002 -1.299036e-002
         vertex 1.084709e-002 -3.900000e-002 -2.252424e-002
         vertex 1.299038e-002 -3.900000e-002 -7.499993e-003
      endloop
   endfacet
   facet normal -0.000000e+000 -1.000000e+000 0.000000e+000
      outer loop
         vertex 1.299038e-002 -3.900000e-002 -7.499993e-003
         vertex 1.084709e-002 -3.900000e-002 -2.252424e-002
         vertex 1.954579e-002 -3.900000e-002 -1.558727e-002
      endloop
   endfacet
   facet normal -0.000000e+000 -1.000000e+000 0.000000e+000
      outer loop
         vertex 1.299038e-002 -3.900000e-002 -7.499993e-003
         vertex 1.954579e-002 -3.900000e-002 -1.558727e-002
         vertex 1.500000e-002 -3.900000e-002 0.000000e+000
      endloop
   endfacet
   facet normal -0.000000e+000 -1.000000e+000 0.000000e+000
      outer loop
         vertex 1.954579e-002 -3.900000e-002 -1.558727e-002
         vertex 2.437320e-002 -3.900000e-002 -5.563021e-003
         vertex 1.500000e-002 -3.900000e-002 0.000000e+000
      endloop
   endfacet
   facet normal -0.000000e+000 -1.000000e+000 0.000000e+000
      outer loop
         vertex 1.500000e-002 -3.900000e-002 0.000000e+000
         vertex 2.437320e-002 -3.900000e-002 -5.563021e-003
         vertex 2.437320e-002 -3.900000e-002 5.563021e-003
      endloop
   endfacet
   facet normal -0.000000e+000 -1.000000e+000 0.000000e+000
      outer loop
         vertex 1.500000e-002 -3.900000e-002 0.000000e+000
         vertex 2.437320e-002 -3.900000e-002 5.563021e-003
         vertex 1.299038e-002 -3.900000e-002 7.499993e-003
      endloop
   endfacet
   facet normal -0.000000e+000 -1.000000e+000 0.000000e+000
      outer loop
         vertex 1.299038e-002 -3.900000e-002 7.499993e-003
         vertex 2.437320e-002 -3.900000e-002 5.563021e-003
         vertex 1.954579e-002 -3.900000e-002 1.558727e-002
      endloop
   endfacet
   facet normal -0.000000e+000 -1.000000e+000 0.000000e+000
      outer loop
         vertex 1.299038e-002 -3.900000e-002 7.499993e-003
         vertex 1.954579e-002 -3.900000e-002 1.558727e-002
         vertex 7.500000e-003 -3.900000e-002 1.299036e-002
      endloop
   endfacet
   facet normal -0.000000e+000 -1.000000e+000 0.000000e+000
      outer loop
         vertex 7.500000e-003 -3.900000e-002 1.299036e-002
         vertex 1.954579e-002 -3.900000e-002 1.558727e-002
         vertex 1.084709e-002 -3.900000e-002 2.252424e-002
      endloop
   endfacet
   facet normal -0.000000e+000 -1.000000e+000 0.000000e+000
      outer loop
         vertex 7.500000e-003 -3.900000e-002 1.299036e-002
         vertex 1.084709e-002 -3.900000e-002 2.252424e-002
         vertex 0.000000e+000 -3.900000e-002 1.499999e-002
      endloop
   endfacet
   facet normal -0.000000e+000 -1.000000e+000 0.000000e+000
      outer loop
         vertex 0.000000e+000 -3.900000e-002 1.499999e-002
         vertex 1.084709e-002 -3.900000e-002 2.252424e-002
         vertex -3.469447e-018 -3.900000e-002 2.499998e-002
      endloop
   endfacet
   facet normal -0.000000e+000 -1.000000e+000 0.000000e+000
      outer loop
         vertex 0.000000e+000 -3.900000e-002 1.499999e-002
         vertex -3.469447e-018 -3.900000e-002 2.499998e-002
         vertex -7.500000e-003 -3.900000e-002 1.299036e-002
      endloop
   endfacet
   facet normal -0.000000e+000 -1.000000e+000 0.000000e+000
      outer loop
         vertex -7.500000e-003 -3.900000e-002 1.299036e-002
         vertex -3.469447e-018 -3.900000e-002 2.499998e-002
         vertex -1.084709e-002 -3.900000e-002 2.252424e-002
      endloop
   endfacet
   facet normal -0.000000e+000 -1.000000e+000 0.000000e+000
      outer loop
         vertex -7.500000e-003 -3.900000e-002 1.299036e-002
         vertex -1.084709e-002 -3.900000e-002 2.252424e-002
         vertex -1.299038e-002 -3.900000e-002 7.499993e-003
      endloop
   endfacet
   facet normal -0.000000e+000 -1.000000e+000 0.000000e+000
      outer loop
         vertex -1.299038e-002 -3.900000e-002 7.499993e-003
         vertex -1.084709e-002 -3.900000e-002 2.252424e-002
         vertex -1.954579e-002 -3.900000e-002 1.558727e-002
      endloop
   endfacet
   facet normal -0.000000e+000 -1.000000e+000 0.000000e+000
      outer loop
         vertex -1.299038e-002 -3.900000e-002 7.499993e-003
         vertex -1.954579e-002 -3.900000e-002 1.558727e-002
         vertex -1.500000e-002 -3.900000e-002 0.000000e+000
      endloop
   endfacet
   facet normal -0.000000e+000 -1.000000e+000 0.000000e+000
      outer loop
         vertex -1.500000e-002 -3.900000e-002 0.000000e+000
         vertex -1.954579e-002 -3.900000e-002 1.558727e-002
         vertex -2.437320e-002 -3.900000e-002 5.563021e-003
      endloop
   endfacet
   facet normal -0.000000e+000 -1.000000e+000 0.000000e+000
      outer loop
         vertex -1.500000e-002 -3.900000e-002 0.000000e+000
         vertex -2.437320e-002 -3.900000e-002 5.563021e-003
         vertex -2.437320e-002 -3.900000e-002 -5.563021e-003
      endloop
   endfacet
   facet normal -1.718619e-001 0.000000e+000 -9.851211e-001
      outer loop
         vertex 7.500000e-003 3.900000e-002 1.299036e-002
         vertex 3.673940e-018 -3.900000e-002 1.499999e-002
         vertex 3.673940e-018 3.900000e-002 1.499999e-002
      endloop
   endfacet
   facet normal 1.718619e-001 0.000000e+000 -9.851211e-001
      outer loop
         vertex 3.673940e-018 3.900000e-002 1.499999e-002
         vertex 3.673940e-018 -3.900000e-002 1.499999e-002
         vertex -7.500000e-003 -3.900000e-002 1.299036e-002
      endloop
   endfacet
   facet normal 3.437238e-001 0.000000e+000 -9.390708e-001
      outer loop
         vertex 3.673940e-018 3.900000e-002 1.499999e-002
         vertex -7.500000e-003 -3.900000e-002 1.299036e-002
         vertex -7.500000e-003 3.900000e-002 1.299036e-002
      endloop
   endfacet
   facet normal 6.413973e-001 0.000000e+000 -7.672089e-001
      outer loop
         vertex -7.500000e-003 3.900000e-002 1.299036e-002
         vertex -7.500000e-003 -3.900000e-002 1.299036e-002
         vertex -1.299038e-002 -3.900000e-002 7.499993e-003
      endloop
   endfacet
   facet normal 7.672089e-001 0.000000e+000 -6.413973e-001
      outer loop
         vertex -7.500000e-003 3.900000e-002 1.299036e-002
         vertex -1.299038e-002 -3.900000e-002 7.499993e-003
         vertex -1.299038e-002 3.900000e-002 7.499993e-003
      endloop
   endfacet
   facet normal 9.390708e-001 0.000000e+000 -3.437238e-001
      outer loop
         vertex -1.299038e-002 3.900000e-002 7.499993e-003
         vertex -1.299038e-002 -3.900000e-002 7.499993e-003
         vertex -1.500000e-002 -3.900000e-002 0.000000e+000
      endloop
   endfacet
   facet normal 9.851211e-001 0.000000e+000 -1.718619e-001
      outer loop
         vertex -1.299038e-002 3.900000e-002 7.499993e-003
         vertex -1.500000e-002 -3.900000e-002 0.000000e+000
         vertex -1.500000e-002 3.900000e-002 0.000000e+000
      endloop
   endfacet
   facet normal 9.851211e-001 -0.000000e+000 1.718619e-001
      outer loop
         vertex -1.500000e-002 3.900000e-002 0.000000e+000
         vertex -1.500000e-002 -3.900000e-002 0.000000e+000
         vertex -1.299038e-002 -3.900000e-002 -7.499993e-003
      endloop
   endfacet
   facet normal 9.390708e-001 -0.000000e+000 3.437238e-001
      outer loop
         vertex -1.500000e-002 3.900000e-002 0.000000e+000
         vertex -1.299038e-002 -3.900000e-002 -7.499993e-003
         vertex -1.299038e-002 3.900000e-002 -7.499993e-003
      endloop
   endfacet
   facet normal 7.672089e-001 -0.000000e+000 6.413973e-001
      outer loop
         vertex -1.299038e-002 3.900000e-002 -7.499993e-003
         vertex -1.299038e-002 -3.900000e-002 -7.499993e-003
         vertex -7.500000e-003 -3.900000e-002 -1.299036e-002
      endloop
   endfacet
   facet normal 6.413973e-001 -0.000000e+000 7.672089e-001
      outer loop
         vertex -1.299038e-002 3.900000e-002 -7.499993e-003
         vertex -7.500000e-003 -3.900000e-002 -1.299036e-002
         vertex -7.500000e-003 3.900000e-002 -1.299036e-002
      endloop
   endfacet
   facet normal 3.437238e-001 -0.000000e+000 9.390708e-001
      outer loop
         vertex -7.500000e-003 3.900000e-002 -1.299036e-002
         vertex -7.500000e-003 -3.900000e-002 -1.299036e-002
         vertex -8.498308e-018 -3.900000e-002 -1.499999e-002
      endloop
   endfacet
   facet normal 1.718619e-001 -0.000000e+000 9.851211e-001
      outer loop
         vertex -7.500000e-003 3.900000e-002 -1.299036e-002
         vertex -8.498308e-018 -3.900000e-002 -1.499999e-002
         vertex -8.498308e-018 3.900000e-002 -1.499999e-002
      endloop
   endfacet
   facet normal -1.718619e-001 0.000000e+000 9.851211e-001
      outer loop
         vertex -8.498308e-018 3.900000e-002 -1.499999e-002
         vertex -8.498308e-018 -3.900000e-002 -1.499999e-002
         vertex 7.500000e-003 -3.900000e-002 -1.299036e-002
      endloop
   endfacet
   facet normal -3.437238e-001 0.000000e+000 9.390708e-001
      outer loop
         vertex -8.498308e-018 3.900000e-002 -1.499999e-002
         vertex 7.500000e-003 -3.900000e-002 -1.299036e-002
         vertex 7.500000e-003 3.900000e-002 -1.299036e-002
      endloop
   endfacet
   facet normal -6.413973e-001 0.000000e+000 7.672089e-001
      outer loop
         vertex 7.500000e-003 3.900000e-002 -1.299036e-002
         vertex 7.500000e-003 -3.900000e-002 -1.299036e-002
         vertex 1.299038e-002 -3.900000e-002 -7.499993e-003
      endloop
   endfacet
   facet normal -7.672089e-001 0.000000e+000 6.413973e-001
      outer loop
         vertex 7.500000e-003 3.900000e-002 -1.299036e-002
         vertex 1.299038e-002 -3.900000e-002 -7.499993e-003
         vertex 1.299038e-002 3.900000e-002 -7.499993e-003
      endloop
   endfacet
   facet normal -9.390708e-001 0.000000e+000 3.437238e-001
      outer loop
         vertex 1.299038e-002 3.900000e-002 -7.499993e-003
         vertex 1.299038e-002 -3.900000e-002 -7.499993e-003
         vertex 1.500000e-002 -3.900000e-002 0.000000e+000
      endloop
   endfacet
   facet normal -9.851211e-001 0.000000e+000 1.718619e-001
      outer loop
         vertex 1.299038e-002 3.900000e-002 -7.499993e-003
         vertex 1.500000e-002 -3.900000e-002 0.000000e+000
         vertex 1.500000e-002 3.900000e-002 0.000000e+000
      endloop
   endfacet
   facet normal -9.851211e-001 0.000000e+000 -1.718619e-001
      outer loop
         vertex 1.500000e-002 3.900000e-002 0.000000e+000
         vertex 1.500000e-002 -3.900000e-002 0.000000e+000
         vertex 1.299038e-002 -3.900000e-002 7.499993e-003
      endloop
   endfacet
   facet normal -9.390708e-001 0.000000e+000 -3.437238e-001
      outer loop
         vertex 1.500000e-002 3.900000e-002 0.000000e+000
         vertex 1.299038e-002 -3.900000e-002 7.499993e-003
         vertex 1.299038e-002 3.900000e-002 7.499993e-003
      endloop
   endfacet
   facet normal -7.672089e-001 0.000000e+000 -6.413973e-001
      outer loop
         vertex 1.299038e-002 3.900000e-002 7.499993e-003
         vertex 1.299038e-002 -3.900000e-002 7.499993e-003
         vertex 7.500000e-003 -3.900000e-002 1.299036e-002
      endloop
   endfacet
   facet normal -6.413973e-001 0.000000e+000 -7.672089e-001
      outer loop
         vertex 1.299038e-002 3.900000e-002 7.499993e-003
         vertex 7.500000e-003 -3.900000e-002 1.299036e-002
         vertex 7.500000e-003 3.900000e-002 1.299036e-002
      endloop
   endfacet
   facet normal -3.437238e-001 0.000000e+000 -9.390708e-001
      outer loop
         vertex 7.500000e-003 3.900000e-002 1.299036e-002
         vertex 7.500000e-003 -3.900000e-002 1.299036e-002
         vertex 3.673940e-018 -3.900000e-002 1.499999e-002
      endloop
   endfacet
endsolid