solid rod2
   facet normal -2.775558e-015 -2.775558e-015 1.000000e+000
      outer loop
         vertex -1.732051e-002 -1.000000e-002 7.025000e-001
         vertex -1.000000e-002 -1.732051e-002 7.025000e-001
         vertex 1.000000e-002 1.732051e-002 7.025000e-001
      endloop
   endfacet
   facet normal -2.775558e-015 -2.775558e-015 1.000000e+000
      outer loop
         vertex 1.000000e-002 1.732051e-002 7.025000e-001
         vertex -1.000000e-002 -1.732051e-002 7.025000e-001
         vertex -2.026361e-015 -2.000000e-002 7.025000e-001
      endloop
   endfacet
   facet normal -2.775558e-015 -2.775558e-015 1.000000e+000
      outer loop
         vertex 1.000000e-002 1.732051e-002 7.025000e-001
         vertex -2.026361e-015 -2.000000e-002 7.025000e-001
         vertex 1.000000e-002 -1.732051e-002 7.025000e-001
      endloop
   endfacet
   facet normal -2.775558e-015 -2.775558e-015 1.000000e+000
      outer loop
         vertex 1.000000e-002 -1.732051e-002 7.025000e-001
         vertex 1.732051e-002 -1.000000e-002 7.025000e-001
         vertex 1.000000e-002 1.732051e-002 7.025000e-001
      endloop
   endfacet
   facet normal -2.775558e-015 -2.775558e-015 1.000000e+000
      outer loop
         vertex 1.000000e-002 1.732051e-002 7.025000e-001
         vertex 1.732051e-002 -1.000000e-002 7.025000e-001
         vertex 2.000000e-002 -1.953299e-015 7.025000e-001
      endloop
   endfacet
   facet normal -2.775558e-015 -2.775558e-015 1.000000e+000
      outer loop
         vertex 1.000000e-002 1.732051e-002 7.025000e-001
         vertex 2.000000e-002 -1.953299e-015 7.025000e-001
         vertex 1.732051e-002 1.000000e-002 7.025000e-001
      endloop
   endfacet
   facet normal -2.775558e-015 -2.775558e-015 1.000000e+000
      outer loop
         vertex -1.732051e-002 1.000000e-002 7.025000e-001
         vertex -2.000000e-002 -1.935951e-015 7.025000e-001
         vertex -1.000000e-002 1.732051e-002 7.025000e-001
      endloop
   endfacet
   facet normal -2.775558e-015 -2.775558e-015 1.000000e+000
      outer loop
         vertex -1.000000e-002 1.732051e-002 7.025000e-001
         vertex -2.000000e-002 -1.935951e-015 7.025000e-001
         vertex -1.732051e-002 -1.000000e-002 7.025000e-001
      endloop
   endfacet
   facet normal -2.775558e-015 -2.775558e-015 1.000000e+000
      outer loop
         vertex -1.000000e-002 1.732051e-002 7.025000e-001
         vertex -1.732051e-002 -1.000000e-002 7.025000e-001
         vertex -1.998605e-015 2.000000e-002 7.025000e-001
      endloop
   endfacet
   facet normal -2.775558e-015 -2.775558e-015 1.000000e+000
      outer loop
         vertex -1.998605e-015 2.000000e-002 7.025000e-001
         vertex -1.732051e-002 -1.000000e-002 7.025000e-001
         vertex 1.000000e-002 1.732051e-002 7.025000e-001
      endloop
   endfacet
   facet normal 9.851211e-001 1.718619e-001 3.211273e-015
      outer loop
         vertex 1.732051e-002 1.000000e-002 6.075000e-001
         vertex 2.000000e-002 -1.946870e-015 7.025000e-001
         vertex 2.000000e-002 -1.683192e-015 6.075000e-001
      endloop
   endfacet
   facet normal 9.851211e-001 -1.718619e-001 2.257248e-015
      outer loop
         vertex 2.000000e-002 -1.683192e-015 6.075000e-001
         vertex 2.000000e-002 -1.946870e-015 7.025000e-001
         vertex 1.732051e-002 -1.000000e-002 7.025000e-001
      endloop
   endfacet
   facet normal 9.390708e-001 -3.437238e-001 1.652420e-015
      outer loop
         vertex 2.000000e-002 -1.683192e-015 6.075000e-001
         vertex 1.732051e-002 -1.000000e-002 7.025000e-001
         vertex 1.732051e-002 -1.000000e-002 6.075000e-001
      endloop
   endfacet
   facet normal 7.672089e-001 -6.413973e-001 3.491973e-016
      outer loop
         vertex 1.732051e-002 -1.000000e-002 6.075000e-001
         vertex 1.732051e-002 -1.000000e-002 7.025000e-001
         vertex 1.000000e-002 -1.732051e-002 7.025000e-001
      endloop
   endfacet
   facet normal 6.413973e-001 -7.672089e-001 -3.491973e-016
      outer loop
         vertex 1.732051e-002 -1.000000e-002 6.075000e-001
         vertex 1.000000e-002 -1.732051e-002 7.025000e-001
         vertex 1.000000e-002 -1.732051e-002 6.075000e-001
      endloop
   endfacet
   facet normal 3.437238e-001 -9.390708e-001 -1.652420e-015
      outer loop
         vertex 1.000000e-002 -1.732051e-002 6.075000e-001
         vertex 1.000000e-002 -1.732051e-002 7.025000e-001
         vertex -2.026472e-015 -2.000000e-002 7.025000e-001
      endloop
   endfacet
   facet normal 1.718619e-001 -9.851211e-001 -2.257248e-015
      outer loop
         vertex 1.000000e-002 -1.732051e-002 6.075000e-001
         vertex -2.026472e-015 -2.000000e-002 7.025000e-001
         vertex -1.762794e-015 -2.000000e-002 6.075000e-001
      endloop
   endfacet
   facet normal -1.718619e-001 -9.851211e-001 -3.211273e-015
      outer loop
         vertex -1.762794e-015 -2.000000e-002 6.075000e-001
         vertex -2.026472e-015 -2.000000e-002 7.025000e-001
         vertex -1.000000e-002 -1.732051e-002 7.025000e-001
      endloop
   endfacet
   facet normal -3.437238e-001 -9.390708e-001 -3.560470e-015
      outer loop
         vertex -1.762794e-015 -2.000000e-002 6.075000e-001
         vertex -1.000000e-002 -1.732051e-002 7.025000e-001
         vertex -1.000000e-002 -1.732051e-002 6.075000e-001
      endloop
   endfacet
   facet normal -6.413973e-001 -7.672089e-001 -3.909668e-015
      outer loop
         vertex -1.000000e-002 -1.732051e-002 6.075000e-001
         vertex -1.000000e-002 -1.732051e-002 7.025000e-001
         vertex -1.732051e-002 -1.000000e-002 7.025000e-001
      endloop
   endfacet
   facet normal -7.672089e-001 -6.413973e-001 -3.909668e-015
      outer loop
         vertex -1.000000e-002 -1.732051e-002 6.075000e-001
         vertex -1.732051e-002 -1.000000e-002 7.025000e-001
         vertex -1.732051e-002 -1.000000e-002 6.075000e-001
      endloop
   endfacet
   facet normal -9.390708e-001 -3.437238e-001 -3.560470e-015
      outer loop
         vertex -1.732051e-002 -1.000000e-002 6.075000e-001
         vertex -1.732051e-002 -1.000000e-002 7.025000e-001
         vertex -2.000000e-002 -1.935539e-015 7.025000e-001
      endloop
   endfacet
   facet normal -9.851211e-001 -1.718619e-001 -3.211273e-015
      outer loop
         vertex -1.732051e-002 -1.000000e-002 6.075000e-001
         vertex -2.000000e-002 -1.935539e-015 7.025000e-001
         vertex -2.000000e-002 -1.671861e-015 6.075000e-001
      endloop
   endfacet
   facet normal -9.851211e-001 1.718619e-001 -2.257248e-015
      outer loop
         vertex -2.000000e-002 -1.671861e-015 6.075000e-001
         vertex -2.000000e-002 -1.935539e-015 7.025000e-001
         vertex -1.732051e-002 1.000000e-002 7.025000e-001
      endloop
   endfacet
   facet normal -9.390708e-001 3.437238e-001 -1.652420e-015
      outer loop
         vertex -2.000000e-002 -1.671861e-015 6.075000e-001
         vertex -1.732051e-002 1.000000e-002 7.025000e-001
         vertex -1.732051e-002 1.000000e-002 6.075000e-001
      endloop
   endfacet
   facet normal -7.672089e-001 6.413973e-001 -3.491973e-016
      outer loop
         vertex -1.732051e-002 1.000000e-002 6.075000e-001
         vertex -1.732051e-002 1.000000e-002 7.025000e-001
         vertex -1.000000e-002 1.732051e-002 7.025000e-001
      endloop
   endfacet
   facet normal -6.413973e-001 7.672089e-001 3.491973e-016
      outer loop
         vertex -1.732051e-002 1.000000e-002 6.075000e-001
         vertex -1.000000e-002 1.732051e-002 7.025000e-001
         vertex -1.000000e-002 1.732051e-002 6.075000e-001
      endloop
   endfacet
   facet normal -3.437238e-001 9.390708e-001 1.652420e-015
      outer loop
         vertex -1.000000e-002 1.732051e-002 6.075000e-001
         vertex -1.000000e-002 1.732051e-002 7.025000e-001
         vertex -1.999369e-015 2.000000e-002 7.025000e-001
      endloop
   endfacet
   facet normal -1.718619e-001 9.851211e-001 2.257248e-015
      outer loop
         vertex -1.000000e-002 1.732051e-002 6.075000e-001
         vertex -1.999369e-015 2.000000e-002 7.025000e-001
         vertex -1.735691e-015 2.000000e-002 6.075000e-001
      endloop
   endfacet
   facet normal 1.718619e-001 9.851211e-001 3.211273e-015
      outer loop
         vertex -1.735691e-015 2.000000e-002 6.075000e-001
         vertex -1.999369e-015 2.000000e-002 7.025000e-001
         vertex 1.000000e-002 1.732051e-002 7.025000e-001
      endloop
   endfacet
   facet normal 3.437238e-001 9.390708e-001 3.560470e-015
      outer loop
         vertex -1.735691e-015 2.000000e-002 6.075000e-001
         vertex 1.000000e-002 1.732051e-002 7.025000e-001
         vertex 1.000000e-002 1.732051e-002 6.075000e-001
      endloop
   endfacet
   facet normal 6.413973e-001 7.672089e-001 3.909668e-015
      outer loop
         vertex 1.000000e-002 1.732051e-002 6.075000e-001
         vertex 1.000000e-002 1.732051e-002 7.025000e-001
         vertex 1.732051e-002 1.000000e-002 7.025000e-001
      endloop
   endfacet
   facet normal 7.672089e-001 6.413973e-001 3.909668e-015
      outer loop
         vertex 1.000000e-002 1.732051e-002 6.075000e-001
         vertex 1.732051e-002 1.000000e-002 7.025000e-001
         vertex 1.732051e-002 1.000000e-002 6.075000e-001
      endloop
   endfacet
   facet normal 9.390708e-001 3.437238e-001 3.560470e-015
      outer loop
         vertex 1.732051e-002 1.000000e-002 6.075000e-001
         vertex 1.732051e-002 1.000000e-002 7.025000e-001
         vertex 2.000000e-002 -1.946870e-015 7.025000e-001
      endloop
   endfacet
   facet normal -2.775558e-015 -2.775558e-015 1.000000e+000
      outer loop
         vertex -2.000000e-002 -1.672273e-015 6.075000e-001
         vertex -1.732051e-002 1.000000e-002 6.075000e-001
         vertex -2.058404e-002 1.823587e-002 6.075000e-001
      endloop
   endfacet
   facet normal -2.775558e-015 -2.775558e-015 1.000000e+000
      outer loop
         vertex -2.058404e-002 1.823587e-002 6.075000e-001
         vertex -1.732051e-002 1.000000e-002 6.075000e-001
         vertex -9.751635e-003 2.571295e-002 6.075000e-001
      endloop
   endfacet
   facet normal -2.775558e-015 -2.775558e-015 1.000000e+000
      outer loop
         vertex -9.751635e-003 2.571295e-002 6.075000e-001
         vertex -1.732051e-002 1.000000e-002 6.075000e-001
         vertex -1.000000e-002 1.732051e-002 6.075000e-001
      endloop
   endfacet
   facet normal -2.775558e-015 -2.775558e-015 1.000000e+000
      outer loop
         vertex -9.751635e-003 2.571295e-002 6.075000e-001
         vertex -1.000000e-002 1.732051e-002 6.075000e-001
         vertex 3.314759e-003 2.729949e-002 6.075000e-001
      endloop
   endfacet
   facet normal -2.775558e-015 -2.775558e-015 1.000000e+000
      outer loop
         vertex 3.314759e-003 2.729949e-002 6.075000e-001
         vertex -1.000000e-002 1.732051e-002 6.075000e-001
         vertex -1.734927e-015 2.000000e-002 6.075000e-001
      endloop
   endfacet
   facet normal -2.775558e-015 -2.775558e-015 1.000000e+000
      outer loop
         vertex 3.314759e-003 2.729949e-002 6.075000e-001
         vertex -1.734927e-015 2.000000e-002 6.075000e-001
         vertex 1.562178e-002 2.263206e-002 6.075000e-001
      endloop
   endfacet
   facet normal -2.775558e-015 -2.775558e-015 1.000000e+000
      outer loop
         vertex 1.562178e-002 2.263206e-002 6.075000e-001
         vertex -1.734927e-015 2.000000e-002 6.075000e-001
         vertex 1.000000e-002 1.732051e-002 6.075000e-001
      endloop
   endfacet
   facet normal -2.775558e-015 -2.775558e-015 1.000000e+000
      outer loop
         vertex 1.562178e-002 2.263206e-002 6.075000e-001
         vertex 1.000000e-002 1.732051e-002 6.075000e-001
         vertex 2.435004e-002 1.277989e-002 6.075000e-001
      endloop
   endfacet
   facet normal -2.775558e-015 -2.775558e-015 1.000000e+000
      outer loop
         vertex 2.435004e-002 1.277989e-002 6.075000e-001
         vertex 1.000000e-002 1.732051e-002 6.075000e-001
         vertex 1.732051e-002 1.000000e-002 6.075000e-001
      endloop
   endfacet
   facet normal -2.775558e-015 -2.775558e-015 1.000000e+000
      outer loop
         vertex 2.435004e-002 1.277989e-002 6.075000e-001
         vertex 1.732051e-002 1.000000e-002 6.075000e-001
         vertex 2.000000e-002 -1.682682e-015 6.075000e-001
      endloop
   endfacet
   facet normal -2.775558e-015 -2.775558e-015 1.000000e+000
      outer loop
         vertex -2.058404e-002 1.823587e-002 6.075000e-001
         vertex -2.670090e-002 6.581181e-003 6.075000e-001
         vertex -2.000000e-002 -1.672273e-015 6.075000e-001
      endloop
   endfacet
   facet normal -2.775558e-015 -2.775558e-015 1.000000e+000
      outer loop
         vertex -2.000000e-002 -1.672273e-015 6.075000e-001
         vertex -2.670090e-002 6.581181e-003 6.075000e-001
         vertex -2.670090e-002 -6.581181e-003 6.075000e-001
      endloop
   endfacet
   facet normal -2.775558e-015 -2.775558e-015 1.000000e+000
      outer loop
         vertex -2.000000e-002 -1.672273e-015 6.075000e-001
         vertex -2.670090e-002 -6.581181e-003 6.075000e-001
         vertex -1.732051e-002 -1.000000e-002 6.075000e-001
      endloop
   endfacet
   facet normal -2.775558e-015 -2.775558e-015 1.000000e+000
      outer loop
         vertex -1.732051e-002 -1.000000e-002 6.075000e-001
         vertex -2.670090e-002 -6.581181e-003 6.075000e-001
         vertex -2.058404e-002 -1.823587e-002 6.075000e-001
      endloop
   endfacet
   facet normal -2.775558e-015 -2.775558e-015 1.000000e+000
      outer loop
         vertex -1.732051e-002 -1.000000e-002 6.075000e-001
         vertex -2.058404e-002 -1.823587e-002 6.075000e-001
         vertex -1.000000e-002 -1.732051e-002 6.075000e-001
      endloop
   endfacet
   facet normal -2.775558e-015 -2.775558e-015 1.000000e+000
      outer loop
         vertex -1.000000e-002 -1.732051e-002 6.075000e-001
         vertex -2.058404e-002 -1.823587e-002 6.075000e-001
         vertex -9.751635e-003 -2.571295e-002 6.075000e-001
      endloop
   endfacet
   facet normal -2.775558e-015 -2.775558e-015 1.000000e+000
      outer loop
         vertex -1.000000e-002 -1.732051e-002 6.075000e-001
         vertex -9.751635e-003 -2.571295e-002 6.075000e-001
         vertex -1.762683e-015 -2.000000e-002 6.075000e-001
      endloop
   endfacet
   facet normal -2.775558e-015 -2.775558e-015 1.000000e+000
      outer loop
         vertex -1.762683e-015 -2.000000e-002 6.075000e-001
         vertex -9.751635e-003 -2.571295e-002 6.075000e-001
         vertex 3.314759e-003 -2.729949e-002 6.075000e-001
      endloop
   endfacet
   facet normal -2.775558e-015 -2.775558e-015 1.000000e+000
      outer loop
         vertex -1.762683e-015 -2.000000e-002 6.075000e-001
         vertex 3.314759e-003 -2.729949e-002 6.075000e-001
         vertex 1.000000e-002 -1.732051e-002 6.075000e-001
      endloop
   endfacet
   facet normal -2.775558e-015 -2.775558e-015 1.000000e+000
      outer loop
         vertex 1.000000e-002 -1.732051e-002 6.075000e-001
         vertex 3.314759e-003 -2.729949e-002 6.075000e-001
         vertex 1.562178e-002 -2.263206e-002 6.075000e-001
      endloop
   endfacet
   facet normal -2.775558e-015 -2.775558e-015 1.000000e+000
      outer loop
         vertex 1.000000e-002 -1.732051e-002 6.075000e-001
         vertex 1.562178e-002 -2.263206e-002 6.075000e-001
         vertex 1.732051e-002 -1.000000e-002 6.075000e-001
      endloop
   endfacet
   facet normal -2.775558e-015 -2.775558e-015 1.000000e+000
      outer loop
         vertex 1.732051e-002 -1.000000e-002 6.075000e-001
         vertex 1.562178e-002 -2.263206e-002 6.075000e-001
         vertex 2.435004e-002 -1.277989e-002 6.075000e-001
      endloop
   endfacet
   facet normal -2.775558e-015 -2.775558e-015 1.000000e+000
      outer loop
         vertex 1.732051e-002 -1.000000e-002 6.075000e-001
         vertex 2.435004e-002 -1.277989e-002 6.075000e-001
         vertex 2.000000e-002 -1.682682e-015 6.075000e-001
      endloop
   endfacet
   facet normal -2.775558e-015 -2.775558e-015 1.000000e+000
      outer loop
         vertex 2.000000e-002 -1.682682e-015 6.075000e-001
         vertex 2.435004e-002 -1.277989e-002 6.075000e-001
         vertex 2.750000e-002 -1.696560e-015 6.075000e-001
      endloop
   endfacet
   facet normal -2.775558e-015 -2.775558e-015 1.000000e+000
      outer loop
         vertex 2.000000e-002 -1.682682e-015 6.075000e-001
         vertex 2.750000e-002 -1.696560e-015 6.075000e-001
         vertex 2.435004e-002 1.277989e-002 6.075000e-001
      endloop
   endfacet
   facet normal 9.872773e-001 1.590080e-001 3.181581e-015
      outer loop
         vertex 2.435004e-002 1.277989e-002 5.975000e-001
         vertex 2.750000e-002 -1.689570e-015 6.075000e-001
         vertex 2.750000e-002 -1.661814e-015 5.975000e-001
      endloop
   endfacet
   facet normal 9.872773e-001 -1.590080e-001 2.298909e-015
      outer loop
         vertex 2.750000e-002 -1.661814e-015 5.975000e-001
         vertex 2.750000e-002 -1.689570e-015 6.075000e-001
         vertex 2.435004e-002 -1.277989e-002 6.075000e-001
      endloop
   endfacet
   facet normal 9.480854e-001 -3.180160e-001 1.748794e-015
      outer loop
         vertex 2.750000e-002 -1.661814e-015 5.975000e-001
         vertex 2.435004e-002 -1.277989e-002 6.075000e-001
         vertex 2.435004e-002 -1.277989e-002 5.975000e-001
      endloop
   endfacet
   facet normal 8.002959e-001 -5.996052e-001 5.570286e-016
      outer loop
         vertex 2.435004e-002 -1.277989e-002 5.975000e-001
         vertex 2.435004e-002 -1.277989e-002 6.075000e-001
         vertex 1.562178e-002 -2.263206e-002 6.075000e-001
      endloop
   endfacet
   facet normal 6.916984e-001 -7.221865e-001 -8.462140e-017
      outer loop
         vertex 2.435004e-002 -1.277989e-002 5.975000e-001
         vertex 1.562178e-002 -2.263206e-002 6.075000e-001
         vertex 1.562178e-002 -2.263206e-002 5.975000e-001
      endloop
   endfacet
   facet normal 4.299764e-001 -9.028401e-001 -1.312461e-015
      outer loop
         vertex 1.562178e-002 -2.263206e-002 5.975000e-001
         vertex 1.562178e-002 -2.263206e-002 6.075000e-001
         vertex 3.314759e-003 -2.729949e-002 6.075000e-001
      endloop
   endfacet
   facet normal 2.768518e-001 -9.609126e-001 -1.898650e-015
      outer loop
         vertex 1.562178e-002 -2.263206e-002 5.975000e-001
         vertex 3.314759e-003 -2.729949e-002 6.075000e-001
         vertex 3.314759e-003 -2.729949e-002 5.975000e-001
      endloop
   endfacet
   facet normal -3.884555e-002 -9.992452e-001 -2.881281e-015
      outer loop
         vertex 3.314759e-003 -2.729949e-002 5.975000e-001
         vertex 3.314759e-003 -2.729949e-002 6.075000e-001
         vertex -9.751635e-003 -2.571295e-002 6.075000e-001
      endloop
   endfacet
   facet normal -2.014183e-001 -9.795053e-001 -3.277721e-015
      outer loop
         vertex 3.314759e-003 -2.729949e-002 5.975000e-001
         vertex -9.751635e-003 -2.571295e-002 6.075000e-001
         vertex -9.751635e-003 -2.571295e-002 5.975000e-001
      endloop
   endfacet
   facet normal -4.987684e-001 -8.667353e-001 -3.790034e-015
      outer loop
         vertex -9.751635e-003 -2.571295e-002 5.975000e-001
         vertex -9.751635e-003 -2.571295e-002 6.075000e-001
         vertex -2.058404e-002 -1.823587e-002 6.075000e-001
      endloop
   endfacet
   facet normal -6.335458e-001 -7.737052e-001 -3.905906e-015
      outer loop
         vertex -9.751635e-003 -2.571295e-002 5.975000e-001
         vertex -2.058404e-002 -1.823587e-002 6.075000e-001
         vertex -2.058404e-002 -1.823587e-002 5.975000e-001
      endloop
   endfacet
   facet normal -8.444295e-001 -5.356667e-001 -3.830536e-015
      outer loop
         vertex -2.058404e-002 -1.823587e-002 5.975000e-001
         vertex -2.058404e-002 -1.823587e-002 6.075000e-001
         vertex -2.670090e-002 -6.581181e-003 6.075000e-001
      endloop
   endfacet
   facet normal -9.205357e-001 -3.906584e-001 -3.639295e-015
      outer loop
         vertex -2.058404e-002 -1.823587e-002 5.975000e-001
         vertex -2.670090e-002 -6.581181e-003 6.075000e-001
         vertex -2.670090e-002 -6.581181e-003 5.975000e-001
      endloop
   endfacet
   facet normal -9.966419e-001 -8.188339e-002 -2.993509e-015
      outer loop
         vertex -2.670090e-002 -6.581181e-003 5.975000e-001
         vertex -2.670090e-002 -6.581181e-003 6.075000e-001
         vertex -2.670090e-002 6.581181e-003 6.075000e-001
      endloop
   endfacet
   facet normal -9.966419e-001 8.188339e-002 -2.538965e-015
      outer loop
         vertex -2.670090e-002 -6.581181e-003 5.975000e-001
         vertex -2.670090e-002 6.581181e-003 6.075000e-001
         vertex -2.670090e-002 6.581181e-003 5.975000e-001
      endloop
   endfacet
   facet normal -9.205357e-001 3.906584e-001 -1.470705e-015
      outer loop
         vertex -2.670090e-002 6.581181e-003 5.975000e-001
         vertex -2.670090e-002 6.581181e-003 6.075000e-001
         vertex -2.058404e-002 1.823587e-002 6.075000e-001
      endloop
   endfacet
   facet normal -8.444295e-001 5.356667e-001 -8.569890e-016
      outer loop
         vertex -2.670090e-002 6.581181e-003 5.975000e-001
         vertex -2.058404e-002 1.823587e-002 6.075000e-001
         vertex -2.058404e-002 1.823587e-002 5.975000e-001
      endloop
   endfacet
   facet normal -6.335458e-001 7.737052e-001 3.890202e-016
      outer loop
         vertex -2.058404e-002 1.823587e-002 5.975000e-001
         vertex -2.058404e-002 1.823587e-002 6.075000e-001
         vertex -9.751635e-003 2.571295e-002 6.075000e-001
      endloop
   endfacet
   facet normal -4.987684e-001 8.667353e-001 1.021313e-015
      outer loop
         vertex -2.058404e-002 1.823587e-002 5.975000e-001
         vertex -9.751635e-003 2.571295e-002 6.075000e-001
         vertex -9.751635e-003 2.571295e-002 5.975000e-001
      endloop
   endfacet
   facet normal -2.014183e-001 9.795053e-001 2.159625e-015
      outer loop
         vertex -9.751635e-003 2.571295e-002 5.975000e-001
         vertex -9.751635e-003 2.571295e-002 6.075000e-001
         vertex 3.314759e-003 2.729949e-002 6.075000e-001
      endloop
   endfacet
   facet normal -3.884554e-002 9.992452e-001 2.665645e-015
      outer loop
         vertex -9.751635e-003 2.571295e-002 5.975000e-001
         vertex 3.314759e-003 2.729949e-002 6.075000e-001
         vertex 3.314759e-003 2.729949e-002 5.975000e-001
      endloop
   endfacet
   facet normal 2.768518e-001 9.609126e-001 3.435486e-015
      outer loop
         vertex 3.314759e-003 2.729949e-002 5.975000e-001
         vertex 3.314759e-003 2.729949e-002 6.075000e-001
         vertex 1.562178e-002 2.263206e-002 6.075000e-001
      endloop
   endfacet
   facet normal 4.299764e-001 9.028401e-001 3.699309e-015
      outer loop
         vertex 3.314759e-003 2.729949e-002 5.975000e-001
         vertex 1.562178e-002 2.263206e-002 6.075000e-001
         vertex 1.562178e-002 2.263206e-002 5.975000e-001
      endloop
   endfacet
   facet normal 6.916984e-001 7.221864e-001 3.924319e-015
      outer loop
         vertex 1.562178e-002 2.263206e-002 5.975000e-001
         vertex 1.562178e-002 2.263206e-002 6.075000e-001
         vertex 2.435004e-002 1.277989e-002 6.075000e-001
      endloop
   endfacet
   facet normal 8.002959e-001 5.996052e-001 3.885506e-015
      outer loop
         vertex 1.562178e-002 2.263206e-002 5.975000e-001
         vertex 2.435004e-002 1.277989e-002 6.075000e-001
         vertex 2.435004e-002 1.277989e-002 5.975000e-001
      endloop
   endfacet
   facet normal 9.480854e-001 3.180160e-001 3.514137e-015
      outer loop
         vertex 2.435004e-002 1.277989e-002 5.975000e-001
         vertex 2.435004e-002 1.277989e-002 6.075000e-001
         vertex 2.750000e-002 -1.689570e-015 6.075000e-001
      endloop
   endfacet
   facet normal 2.775558e-015 2.775558e-015 -1.000000e+000
      outer loop
         vertex -2.058404e-002 -1.823587e-002 5.975000e-001
         vertex -2.670090e-002 -6.581181e-003 5.975000e-001
         vertex -2.000000e-002 -1.040835e-017 5.975000e-001
      endloop
   endfacet
   facet normal 2.775558e-015 2.775558e-015 -1.000000e+000
      outer loop
         vertex -2.000000e-002 -1.040835e-017 5.975000e-001
         vertex -2.670090e-002 -6.581181e-003 5.975000e-001
         vertex -2.670090e-002 6.581181e-003 5.975000e-001
      endloop
   endfacet
   facet normal 2.775558e-015 2.775558e-015 -1.000000e+000
      outer loop
         vertex -2.000000e-002 -1.040835e-017 5.975000e-001
         vertex -2.670090e-002 6.581181e-003 5.975000e-001
         vertex -1.732051e-002 1.000000e-002 5.975000e-001
      endloop
   endfacet
   facet normal 2.775558e-015 2.775558e-015 -1.000000e+000
      outer loop
         vertex -1.732051e-002 1.000000e-002 5.975000e-001
         vertex -2.670090e-002 6.581181e-003 5.975000e-001
         vertex -2.058404e-002 1.823587e-002 5.975000e-001
      endloop
   endfacet
   facet normal 2.775558e-015 2.775558e-015 -1.000000e+000
      outer loop
         vertex -1.732051e-002 1.000000e-002 5.975000e-001
         vertex -2.058404e-002 1.823587e-002 5.975000e-001
         vertex -1.000000e-002 1.732051e-002 5.975000e-001
      endloop
   endfacet
   facet normal 2.775558e-015 2.775558e-015 -1.000000e+000
      outer loop
         vertex -1.000000e-002 1.732051e-002 5.975000e-001
         vertex -2.058404e-002 1.823587e-002 5.975000e-001
         vertex -9.751635e-003 2.571295e-002 5.975000e-001
      endloop
   endfacet
   facet normal 2.775558e-015 2.775558e-015 -1.000000e+000
      outer loop
         vertex -1.000000e-002 1.732051e-002 5.975000e-001
         vertex -9.751635e-003 2.571295e-002 5.975000e-001
         vertex -7.653181e-017 2.000000e-002 5.975000e-001
      endloop
   endfacet
   facet normal 2.775558e-015 2.775558e-015 -1.000000e+000
      outer loop
         vertex -7.653181e-017 2.000000e-002 5.975000e-001
         vertex -9.751635e-003 2.571295e-002 5.975000e-001
         vertex 3.314759e-003 2.729949e-002 5.975000e-001
      endloop
   endfacet
   facet normal 2.775558e-015 2.775558e-015 -1.000000e+000
      outer loop
         vertex -7.653181e-017 2.000000e-002 5.975000e-001
         vertex 3.314759e-003 2.729949e-002 5.975000e-001
         vertex 1.000000e-002 1.732051e-002 5.975000e-001
      endloop
   endfacet
   facet normal 2.775558e-015 2.775558e-015 -1.000000e+000
      outer loop
         vertex 1.000000e-002 1.732051e-002 5.975000e-001
         vertex 3.314759e-003 2.729949e-002 5.975000e-001
         vertex 1.562178e-002 2.263206e-002 5.975000e-001
      endloop
   endfacet
   facet normal 2.775558e-015 2.775558e-015 -1.000000e+000
      outer loop
         vertex 1.000000e-002 1.732051e-002 5.975000e-001
         vertex 1.562178e-002 2.263206e-002 5.975000e-001
         vertex 1.732051e-002 1.000000e-002 5.975000e-001
      endloop
   endfacet
   facet normal 2.775558e-015 2.775558e-015 -1.000000e+000
      outer loop
         vertex 1.732051e-002 1.000000e-002 5.975000e-001
         vertex 1.562178e-002 2.263206e-002 5.975000e-001
         vertex 2.435004e-002 1.277989e-002 5.975000e-001
      endloop
   endfacet
   facet normal 2.775558e-015 2.775558e-015 -1.000000e+000
      outer loop
         vertex 1.732051e-002 1.000000e-002 5.975000e-001
         vertex 2.435004e-002 1.277989e-002 5.975000e-001
         vertex 2.000000e-002 -2.775559e-017 5.975000e-001
      endloop
   endfacet
   facet normal 2.775558e-015 2.775558e-015 -1.000000e+000
      outer loop
         vertex 2.000000e-002 -2.775559e-017 5.975000e-001
         vertex 2.435004e-002 1.277989e-002 5.975000e-001
         vertex 2.750000e-002 -1.661865e-015 5.975000e-001
      endloop
   endfacet
   facet normal 2.775558e-015 2.775558e-015 -1.000000e+000
      outer loop
         vertex 2.000000e-002 -2.775559e-017 5.975000e-001
         vertex 2.750000e-002 -1.661865e-015 5.975000e-001
         vertex 1.732051e-002 -1.000000e-002 5.975000e-001
      endloop
   endfacet
   facet normal 2.775558e-015 2.775558e-015 -1.000000e+000
      outer loop
         vertex 1.732051e-002 -1.000000e-002 5.975000e-001
         vertex 2.750000e-002 -1.661865e-015 5.975000e-001
         vertex 2.435004e-002 -1.277989e-002 5.975000e-001
      endloop
   endfacet
   facet normal 2.775558e-015 2.775558e-015 -1.000000e+000
      outer loop
         vertex 1.732051e-002 -1.000000e-002 5.975000e-001
         vertex 2.435004e-002 -1.277989e-002 5.975000e-001
         vertex 1.000000e-002 -1.732051e-002 5.975000e-001
      endloop
   endfacet
   facet normal 2.775558e-015 2.775558e-015 -1.000000e+000
      outer loop
         vertex 1.000000e-002 -1.732051e-002 5.975000e-001
         vertex 2.435004e-002 -1.277989e-002 5.975000e-001
         vertex 1.562178e-002 -2.263206e-002 5.975000e-001
      endloop
   endfacet
   facet normal 2.775558e-015 2.775558e-015 -1.000000e+000
      outer loop
         vertex 1.000000e-002 -1.732051e-002 5.975000e-001
         vertex 1.562178e-002 -2.263206e-002 5.975000e-001
         vertex -1.008179e-016 -2.000000e-002 5.975000e-001
      endloop
   endfacet
   facet normal 2.775558e-015 2.775558e-015 -1.000000e+000
      outer loop
         vertex -1.008179e-016 -2.000000e-002 5.975000e-001
         vertex 1.562178e-002 -2.263206e-002 5.975000e-001
         vertex 3.314759e-003 -2.729949e-002 5.975000e-001
      endloop
   endfacet
   facet normal 2.775558e-015 2.775558e-015 -1.000000e+000
      outer loop
         vertex -1.008179e-016 -2.000000e-002 5.975000e-001
         vertex 3.314759e-003 -2.729949e-002 5.975000e-001
         vertex -1.000000e-002 -1.732051e-002 5.975000e-001
      endloop
   endfacet
   facet normal 2.775558e-015 2.775558e-015 -1.000000e+000
      outer loop
         vertex -1.000000e-002 -1.732051e-002 5.975000e-001
         vertex 3.314759e-003 -2.729949e-002 5.975000e-001
         vertex -9.751635e-003 -2.571295e-002 5.975000e-001
      endloop
   endfacet
   facet normal 2.775558e-015 2.775558e-015 -1.000000e+000
      outer loop
         vertex -1.000000e-002 -1.732051e-002 5.975000e-001
         vertex -9.751635e-003 -2.571295e-002 5.975000e-001
         vertex -1.732051e-002 -1.000000e-002 5.975000e-001
      endloop
   endfacet
   facet normal 2.775558e-015 2.775558e-015 -1.000000e+000
      outer loop
         vertex -1.732051e-002 -1.000000e-002 5.975000e-001
         vertex -9.751635e-003 -2.571295e-002 5.975000e-001
         vertex -2.058404e-002 -1.823587e-002 5.975000e-001
      endloop
   endfacet
   facet normal 2.775558e-015 2.775558e-015 -1.000000e+000
      outer loop
         vertex -1.732051e-002 -1.000000e-002 5.975000e-001
         vertex -2.058404e-002 -1.823587e-002 5.975000e-001
         vertex -2.000000e-002 -1.040835e-017 5.975000e-001
      endloop
   endfacet
   facet normal -4.242361e-001 9.055516e-001 -2.461655e-017
      outer loop
         vertex -5.267595e-003 1.929384e-002 2.443876e-002
         vertex -1.000000e-002 1.732051e-002 2.291288e-002
         vertex -1.000000e-002 1.732051e-002 5.975000e-001
      endloop
   endfacet
   facet normal -9.050205e-001 4.253680e-001 1.438053e-017
      outer loop
         vertex -1.732051e-002 1.000000e-002 1.802775e-002
         vertex -1.927380e-002 5.340466e-003 1.592233e-002
         vertex -1.732051e-002 1.000000e-002 5.975000e-001
      endloop
   endfacet
   facet normal -9.651711e-001 2.616195e-001 6.114010e-018
      outer loop
         vertex -1.732051e-002 1.000000e-002 5.975000e-001
         vertex -1.927380e-002 5.340466e-003 1.592233e-002
         vertex -2.000000e-002 -1.117534e-017 5.975000e-001
      endloop
   endfacet
   facet normal -6.413973e-001 7.672089e-001 -8.562127e-018
      outer loop
         vertex -1.000000e-002 1.732051e-002 5.975000e-001
         vertex -1.000000e-002 1.732051e-002 2.291288e-002
         vertex -1.732051e-002 1.000000e-002 5.975000e-001
      endloop
   endfacet
   facet normal -6.800305e-001 7.331839e-001 -9.100257e-018
      outer loop
         vertex -1.732051e-002 1.000000e-002 5.975000e-001
         vertex -1.000000e-002 1.732051e-002 2.291288e-002
         vertex -1.250000e-002 1.561250e-002 2.165063e-002
      endloop
   endfacet
   facet normal -7.979094e-001 6.027774e-001 7.844670e-018
      outer loop
         vertex -1.732051e-002 1.000000e-002 5.975000e-001
         vertex -1.250000e-002 1.561250e-002 2.165063e-002
         vertex -1.732051e-002 1.000000e-002 1.802775e-002
      endloop
   endfacet
   facet normal -2.603753e-001 9.655075e-001 -1.650804e-017
      outer loop
         vertex -5.267595e-003 1.929384e-002 2.443876e-002
         vertex -1.000000e-002 1.732051e-002 5.975000e-001
         vertex -3.947806e-017 2.000000e-002 2.500000e-002
      endloop
   endfacet
   facet normal -1.718619e-001 9.851211e-001 -3.944305e-031
      outer loop
         vertex -3.947806e-017 2.000000e-002 2.500000e-002
         vertex -1.000000e-002 1.732051e-002 5.975000e-001
         vertex -7.446621e-017 2.000000e-002 5.975000e-001
      endloop
   endfacet
   facet normal 8.842074e-002 9.960832e-001 8.554833e-018
      outer loop
         vertex -3.947806e-017 2.000000e-002 2.500000e-002
         vertex -7.446621e-017 2.000000e-002 5.975000e-001
         vertex 5.263520e-003 1.929496e-002 2.443963e-002
      endloop
   endfacet
   facet normal 2.603057e-001 9.655262e-001 8.684923e-018
      outer loop
         vertex 5.263520e-003 1.929496e-002 2.443963e-002
         vertex -7.446621e-017 2.000000e-002 5.975000e-001
         vertex 1.000000e-002 1.732051e-002 5.975000e-001
      endloop
   endfacet
   facet normal 4.241728e-001 9.055813e-001 1.855730e-019
      outer loop
         vertex 5.263520e-003 1.929496e-002 2.443963e-002
         vertex 1.000000e-002 1.732051e-002 5.975000e-001
         vertex 1.000000e-002 1.732051e-002 2.291288e-002
      endloop
   endfacet
   facet normal 5.430513e-001 8.396995e-001 -8.904228e-018
      outer loop
         vertex 1.000000e-002 1.732051e-002 2.291288e-002
         vertex 1.000000e-002 1.732051e-002 5.975000e-001
         vertex 1.250000e-002 1.561250e-002 2.165063e-002
      endloop
   endfacet
   facet normal 6.800305e-001 7.331838e-001 -5.927510e-019
      outer loop
         vertex 1.250000e-002 1.561250e-002 2.165063e-002
         vertex 1.000000e-002 1.732051e-002 5.975000e-001
         vertex 1.732051e-002 1.000000e-002 5.975000e-001
      endloop
   endfacet
   facet normal 7.979094e-001 6.027774e-001 -9.019624e-018
      outer loop
         vertex 1.250000e-002 1.561250e-002 2.165063e-002
         vertex 1.732051e-002 1.000000e-002 5.975000e-001
         vertex 1.732051e-002 1.000000e-002 1.802775e-002
      endloop
   endfacet
   facet normal 9.049996e-001 4.254124e-001 -1.167885e-017
      outer loop
         vertex 1.732051e-002 1.000000e-002 1.802775e-002
         vertex 1.732051e-002 1.000000e-002 5.975000e-001
         vertex 1.927301e-002 5.343323e-003 1.592328e-002
      endloop
   endfacet
   facet normal 9.651579e-001 2.616683e-001 -3.368680e-018
      outer loop
         vertex 1.927301e-002 5.343323e-003 1.592328e-002
         vertex 1.732051e-002 1.000000e-002 5.975000e-001
         vertex 2.000000e-002 -2.250642e-017 5.975000e-001
      endloop
   endfacet
   facet normal 9.959613e-001 8.978359e-002 -3.319182e-018
      outer loop
         vertex 1.927301e-002 5.343323e-003 1.592328e-002
         vertex 2.000000e-002 -2.250642e-017 5.975000e-001
         vertex 2.000000e-002 -2.021696e-017 1.500001e-002
      endloop
   endfacet
   facet normal 9.959741e-001 -8.964089e-002 -5.696572e-018
      outer loop
         vertex 2.000000e-002 -2.021696e-017 1.500001e-002
         vertex 2.000000e-002 -2.250642e-017 5.975000e-001
         vertex 1.927532e-002 -5.334971e-003 1.592048e-002
      endloop
   endfacet
   facet normal 9.651965e-001 -2.615256e-001 -5.781748e-018
      outer loop
         vertex 1.927532e-002 -5.334971e-003 1.592048e-002
         vertex 2.000000e-002 -2.250642e-017 5.975000e-001
         vertex 1.732051e-002 -1.000000e-002 5.975000e-001
      endloop
   endfacet
   facet normal 9.050606e-001 -4.252827e-001 -1.405390e-017
      outer loop
         vertex 1.927532e-002 -5.334971e-003 1.592048e-002
         vertex 1.732051e-002 -1.000000e-002 5.975000e-001
         vertex 1.732051e-002 -1.000000e-002 1.802775e-002
      endloop
   endfacet
   facet normal 6.413973e-001 -7.672089e-001 8.562127e-018
      outer loop
         vertex 1.000000e-002 -1.732051e-002 5.975000e-001
         vertex 1.000000e-002 -1.732051e-002 2.291288e-002
         vertex 1.732051e-002 -1.000000e-002 5.975000e-001
      endloop
   endfacet
   facet normal 6.800305e-001 -7.331839e-001 9.100257e-018
      outer loop
         vertex 1.732051e-002 -1.000000e-002 5.975000e-001
         vertex 1.000000e-002 -1.732051e-002 2.291288e-002
         vertex 1.250000e-002 -1.561250e-002 2.165063e-002
      endloop
   endfacet
   facet normal 7.979094e-001 -6.027774e-001 -7.844670e-018
      outer loop
         vertex 1.732051e-002 -1.000000e-002 5.975000e-001
         vertex 1.250000e-002 -1.561250e-002 2.165063e-002
         vertex 1.732051e-002 -1.000000e-002 1.802775e-002
      endloop
   endfacet
   facet normal -2.603091e-001 -9.655253e-001 -8.691706e-018
      outer loop
         vertex -1.000000e-002 -1.732051e-002 5.975000e-001
         vertex -5.263721e-003 -1.929490e-002 2.443960e-002
         vertex -1.015693e-016 -2.000000e-002 5.975000e-001
      endloop
   endfacet
   facet normal -8.842417e-002 -9.960829e-001 -8.561613e-018
      outer loop
         vertex -1.015693e-016 -2.000000e-002 5.975000e-001
         vertex -5.263721e-003 -1.929490e-002 2.443960e-002
         vertex -1.021082e-016 -2.000000e-002 2.500000e-002
      endloop
   endfacet
   facet normal 1.718619e-001 -9.851211e-001 3.944305e-031
      outer loop
         vertex -1.015693e-016 -2.000000e-002 5.975000e-001
         vertex -1.021082e-016 -2.000000e-002 2.500000e-002
         vertex 1.000000e-002 -1.732051e-002 5.975000e-001
      endloop
   endfacet
   facet normal 2.604430e-001 -9.654892e-001 1.674719e-017
      outer loop
         vertex 1.000000e-002 -1.732051e-002 5.975000e-001
         vertex -1.021082e-016 -2.000000e-002 2.500000e-002
         vertex 5.271563e-003 -1.929276e-002 2.443790e-002
      endloop
   endfacet
   facet normal 4.242977e-001 -9.055228e-001 2.485168e-017
      outer loop
         vertex 1.000000e-002 -1.732051e-002 5.975000e-001
         vertex 5.271563e-003 -1.929276e-002 2.443790e-002
         vertex 1.000000e-002 -1.732051e-002 2.291288e-002
      endloop
   endfacet
   facet normal -6.800305e-001 -7.331838e-001 5.927510e-019
      outer loop
         vertex -1.732051e-002 -1.000000e-002 5.975000e-001
         vertex -1.250000e-002 -1.561250e-002 2.165063e-002
         vertex -1.000000e-002 -1.732051e-002 5.975000e-001
      endloop
   endfacet
   facet normal -5.430513e-001 -8.396995e-001 8.904228e-018
      outer loop
         vertex -1.000000e-002 -1.732051e-002 5.975000e-001
         vertex -1.250000e-002 -1.561250e-002 2.165063e-002
         vertex -1.000000e-002 -1.732051e-002 2.291288e-002
      endloop
   endfacet
   facet normal -4.241759e-001 -9.055798e-001 -1.928290e-019
      outer loop
         vertex -1.000000e-002 -1.732051e-002 5.975000e-001
         vertex -1.000000e-002 -1.732051e-002 2.291288e-002
         vertex -5.263721e-003 -1.929490e-002 2.443960e-002
      endloop
   endfacet
   facet normal -9.959657e-001 8.973477e-002 6.023825e-018
      outer loop
         vertex -1.927380e-002 5.340466e-003 1.592233e-002
         vertex -2.000000e-002 -3.782071e-017 1.500001e-002
         vertex -2.000000e-002 -1.117534e-017 5.975000e-001
      endloop
   endfacet
   facet normal -9.959589e-001 -8.981070e-002 3.265560e-018
      outer loop
         vertex -2.000000e-002 -1.117534e-017 5.975000e-001
         vertex -2.000000e-002 -3.782071e-017 1.500001e-002
         vertex -1.927257e-002 -5.344911e-003 1.592382e-002
      endloop
   endfacet
   facet normal -9.651505e-001 -2.616954e-001 3.314261e-018
      outer loop
         vertex -2.000000e-002 -1.117534e-017 5.975000e-001
         vertex -1.927257e-002 -5.344911e-003 1.592382e-002
         vertex -1.732051e-002 -1.000000e-002 5.975000e-001
      endloop
   endfacet
   facet normal -9.049880e-001 -4.254371e-001 1.162492e-017
      outer loop
         vertex -1.732051e-002 -1.000000e-002 5.975000e-001
         vertex -1.927257e-002 -5.344911e-003 1.592382e-002
         vertex -1.732051e-002 -1.000000e-002 1.802775e-002
      endloop
   endfacet
   facet normal -7.979094e-001 -6.027774e-001 9.019624e-018
      outer loop
         vertex -1.732051e-002 -1.000000e-002 5.975000e-001
         vertex -1.732051e-002 -1.000000e-002 1.802775e-002
         vertex -1.250000e-002 -1.561250e-002 2.165063e-002
      endloop
   endfacet
   facet normal 4.673187e-001 -2.453840e-015 8.840889e-001
      outer loop
         vertex 1.000000e-002 1.732051e-002 2.291288e-002
         vertex 1.250000e-002 1.561250e-002 2.165063e-002
         vertex 1.250000e-002 3.200000e-002 2.165063e-002
      endloop
   endfacet
   facet normal -8.143195e-001 -1.610981e-015 5.804169e-001
      outer loop
         vertex -1.927257e-002 -5.344911e-003 1.592382e-002
         vertex -2.000000e-002 -4.163339e-017 1.500001e-002
         vertex -2.165063e-002 -3.200000e-002 1.250001e-002
      endloop
   endfacet
   facet normal -5.679569e-001 -2.284446e-015 8.230583e-001
      outer loop
         vertex -1.250000e-002 1.561250e-002 2.165063e-002
         vertex -1.250000e-002 3.200000e-002 2.165063e-002
         vertex -1.732051e-002 1.000000e-002 1.802775e-002
      endloop
   endfacet
   facet normal -7.022655e-001 -1.975961e-015 7.119151e-001
      outer loop
         vertex -1.732051e-002 1.000000e-002 1.802775e-002
         vertex -1.250000e-002 3.200000e-002 2.165063e-002
         vertex -2.165063e-002 3.200000e-002 1.250001e-002
      endloop
   endfacet
   facet normal -7.818230e-001 -1.730561e-015 6.235005e-001
      outer loop
         vertex -1.732051e-002 1.000000e-002 1.802775e-002
         vertex -2.165063e-002 3.200000e-002 1.250001e-002
         vertex -1.927380e-002 5.340466e-003 1.592233e-002
      endloop
   endfacet
   facet normal -3.732731e-001 -2.574944e-015 9.277215e-001
      outer loop
         vertex -5.263721e-003 -1.929490e-002 2.443960e-002
         vertex -1.000000e-002 -1.732051e-002 2.291288e-002
         vertex -1.250000e-002 -3.200000e-002 2.165063e-002
      endloop
   endfacet
   facet normal -4.673187e-001 -2.453840e-015 8.840889e-001
      outer loop
         vertex -1.250000e-002 -3.200000e-002 2.165063e-002
         vertex -1.000000e-002 -1.732051e-002 2.291288e-002
         vertex -1.250000e-002 -1.561250e-002 2.165063e-002
      endloop
   endfacet
   facet normal -6.413973e-001 -2.129432e-015 7.672089e-001
      outer loop
         vertex -1.250000e-002 -3.200000e-002 2.165063e-002
         vertex -1.250000e-002 -1.561250e-002 2.165063e-002
         vertex -2.165063e-002 -3.200000e-002 1.250001e-002
      endloop
   endfacet
   facet normal -7.022655e-001 -1.975961e-015 7.119151e-001
      outer loop
         vertex -2.165063e-002 -3.200000e-002 1.250001e-002
         vertex -1.250000e-002 -1.561250e-002 2.165063e-002
         vertex -1.732051e-002 -1.000000e-002 1.802775e-002
      endloop
   endfacet
   facet normal -7.818068e-001 -1.730618e-015 6.235207e-001
      outer loop
         vertex -2.165063e-002 -3.200000e-002 1.250001e-002
         vertex -1.732051e-002 -1.000000e-002 1.802775e-002
         vertex -1.927257e-002 -5.344911e-003 1.592382e-002
      endloop
   endfacet
   facet normal -2.424222e-001 -2.692765e-015 9.701709e-001
      outer loop
         vertex -5.263721e-003 -1.929490e-002 2.443960e-002
         vertex -1.250000e-002 -3.200000e-002 2.165063e-002
         vertex -1.092054e-016 -2.000000e-002 2.500000e-002
      endloop
   endfacet
   facet normal -1.718619e-001 -2.734260e-015 9.851211e-001
      outer loop
         vertex -1.092054e-016 -2.000000e-002 2.500000e-002
         vertex -1.250000e-002 -3.200000e-002 2.165063e-002
         vertex -4.259205e-017 -3.200000e-002 2.500000e-002
      endloop
   endfacet
   facet normal 7.064135e-002 -2.768624e-015 9.975018e-001
      outer loop
         vertex -1.092054e-016 -2.000000e-002 2.500000e-002
         vertex -4.259205e-017 -3.200000e-002 2.500000e-002
         vertex 5.271563e-003 -1.929276e-002 2.443790e-002
      endloop
   endfacet
   facet normal 2.425283e-001 -2.692691e-015 9.701443e-001
      outer loop
         vertex 5.271563e-003 -1.929276e-002 2.443790e-002
         vertex -4.259205e-017 -3.200000e-002 2.500000e-002
         vertex 1.250000e-002 -3.200000e-002 2.165063e-002
      endloop
   endfacet
   facet normal 3.733717e-001 -2.574834e-015 9.276818e-001
      outer loop
         vertex 5.271563e-003 -1.929276e-002 2.443790e-002
         vertex 1.250000e-002 -3.200000e-002 2.165063e-002
         vertex 1.000000e-002 -1.732051e-002 2.291288e-002
      endloop
   endfacet
   facet normal 8.143248e-001 -1.610960e-015 5.804095e-001
      outer loop
         vertex 1.927301e-002 5.343323e-003 1.592328e-002
         vertex 2.000000e-002 -2.081670e-017 1.500001e-002
         vertex 2.165063e-002 3.200000e-002 1.250001e-002
      endloop
   endfacet
   facet normal 6.413973e-001 -2.129432e-015 7.672089e-001
      outer loop
         vertex 1.250000e-002 3.200000e-002 2.165063e-002
         vertex 1.250000e-002 1.561250e-002 2.165063e-002
         vertex 2.165063e-002 3.200000e-002 1.250001e-002
      endloop
   endfacet
   facet normal 7.022655e-001 -1.975961e-015 7.119151e-001
      outer loop
         vertex 2.165063e-002 3.200000e-002 1.250001e-002
         vertex 1.250000e-002 1.561250e-002 2.165063e-002
         vertex 1.732051e-002 1.000000e-002 1.802775e-002
      endloop
   endfacet
   facet normal 7.818126e-001 -1.730597e-015 6.235135e-001
      outer loop
         vertex 2.165063e-002 3.200000e-002 1.250001e-002
         vertex 1.732051e-002 1.000000e-002 1.802775e-002
         vertex 1.927301e-002 5.343323e-003 1.592328e-002
      endloop
   endfacet
   facet normal 8.143529e-001 -1.610850e-015 5.803700e-001
      outer loop
         vertex 2.000000e-002 -2.081670e-017 1.500001e-002
         vertex 1.927532e-002 -5.334971e-003 1.592048e-002
         vertex 2.165063e-002 -3.200000e-002 1.250001e-002
      endloop
   endfacet
   facet normal 7.818431e-001 -1.730492e-015 6.234753e-001
      outer loop
         vertex 2.165063e-002 -3.200000e-002 1.250001e-002
         vertex 1.927532e-002 -5.334971e-003 1.592048e-002
         vertex 1.732051e-002 -1.000000e-002 1.802775e-002
      endloop
   endfacet
   facet normal 7.022655e-001 -1.975961e-015 7.119151e-001
      outer loop
         vertex 2.165063e-002 -3.200000e-002 1.250001e-002
         vertex 1.732051e-002 -1.000000e-002 1.802775e-002
         vertex 1.250000e-002 -3.200000e-002 2.165063e-002
      endloop
   endfacet
   facet normal 5.679569e-001 -2.284446e-015 8.230583e-001
      outer loop
         vertex 1.250000e-002 -3.200000e-002 2.165063e-002
         vertex 1.732051e-002 -1.000000e-002 1.802775e-002
         vertex 1.250000e-002 -1.561250e-002 2.165063e-002
      endloop
   endfacet
   facet normal 4.673188e-001 -2.453840e-015 8.840889e-001
      outer loop
         vertex 1.250000e-002 -3.200000e-002 2.165063e-002
         vertex 1.250000e-002 -1.561250e-002 2.165063e-002
         vertex 1.000000e-002 -1.732051e-002 2.291288e-002
      endloop
   endfacet
   facet normal -4.673187e-001 -2.453840e-015 8.840889e-001
      outer loop
         vertex -1.250000e-002 1.561250e-002 2.165063e-002
         vertex -1.000000e-002 1.732051e-002 2.291288e-002
         vertex -1.250000e-002 3.200000e-002 2.165063e-002
      endloop
   endfacet
   facet normal -3.733218e-001 -2.574890e-015 9.277019e-001
      outer loop
         vertex -1.250000e-002 3.200000e-002 2.165063e-002
         vertex -1.000000e-002 1.732051e-002 2.291288e-002
         vertex -5.267595e-003 1.929384e-002 2.443876e-002
      endloop
   endfacet
   facet normal -2.424746e-001 -2.692729e-015 9.701577e-001
      outer loop
         vertex -1.250000e-002 3.200000e-002 2.165063e-002
         vertex -5.267595e-003 1.929384e-002 2.443876e-002
         vertex -4.259205e-017 3.200000e-002 2.500000e-002
      endloop
   endfacet
   facet normal -7.058764e-002 -2.768634e-015 9.975056e-001
      outer loop
         vertex -4.259205e-017 3.200000e-002 2.500000e-002
         vertex -5.267595e-003 1.929384e-002 2.443876e-002
         vertex -4.259205e-017 2.000000e-002 2.500000e-002
      endloop
   endfacet
   facet normal 1.718619e-001 -2.734260e-015 9.851211e-001
      outer loop
         vertex -4.259205e-017 3.200000e-002 2.500000e-002
         vertex -4.259205e-017 2.000000e-002 2.500000e-002
         vertex 1.250000e-002 3.200000e-002 2.165063e-002
      endloop
   endfacet
   facet normal 2.424194e-001 -2.692767e-015 9.701716e-001
      outer loop
         vertex 1.250000e-002 3.200000e-002 2.165063e-002
         vertex -4.259205e-017 2.000000e-002 2.500000e-002
         vertex 5.263520e-003 1.929496e-002 2.443963e-002
      endloop
   endfacet
   facet normal 3.732706e-001 -2.574947e-015 9.277225e-001
      outer loop
         vertex 1.250000e-002 3.200000e-002 2.165063e-002
         vertex 5.263520e-003 1.929496e-002 2.443963e-002
         vertex 1.000000e-002 1.732051e-002 2.291288e-002
      endloop
   endfacet
   facet normal 8.453668e-001 -1.482665e-015 5.341863e-001
      outer loop
         vertex 2.000000e-002 -2.081670e-017 1.500001e-002
         vertex 2.165063e-002 -3.200000e-002 1.250001e-002
         vertex 2.165063e-002 3.200000e-002 1.250001e-002
      endloop
   endfacet
   facet normal 9.390708e-001 -9.540252e-016 3.437238e-001
      outer loop
         vertex 2.165063e-002 3.200000e-002 1.250001e-002
         vertex 2.165063e-002 -3.200000e-002 1.250001e-002
         vertex 2.500000e-002 -3.200000e-002 -7.152558e-009
      endloop
   endfacet
   facet normal 9.851211e-001 -4.770126e-016 1.718619e-001
      outer loop
         vertex 2.165063e-002 3.200000e-002 1.250001e-002
         vertex 2.500000e-002 -3.200000e-002 -7.152558e-009
         vertex 2.500000e-002 3.200000e-002 -7.152557e-009
      endloop
   endfacet
   facet normal 9.851211e-001 4.770126e-016 -1.718619e-001
      outer loop
         vertex 2.500000e-002 3.200000e-002 -7.152557e-009
         vertex 2.500000e-002 -3.200000e-002 -7.152558e-009
         vertex 2.165063e-002 -3.200000e-002 -1.250000e-002
      endloop
   endfacet
   facet normal 9.390708e-001 9.540252e-016 -3.437238e-001
      outer loop
         vertex 2.500000e-002 3.200000e-002 -7.152557e-009
         vertex 2.165063e-002 -3.200000e-002 -1.250000e-002
         vertex 2.165063e-002 3.200000e-002 -1.250000e-002
      endloop
   endfacet
   facet normal 7.672089e-001 1.780235e-015 -6.413973e-001
      outer loop
         vertex 2.165063e-002 3.200000e-002 -1.250000e-002
         vertex 2.165063e-002 -3.200000e-002 -1.250000e-002
         vertex 1.250000e-002 -3.200000e-002 -2.165065e-002
      endloop
   endfacet
   facet normal 6.413973e-001 2.129432e-015 -7.672089e-001
      outer loop
         vertex 2.165063e-002 3.200000e-002 -1.250000e-002
         vertex 1.250000e-002 -3.200000e-002 -2.165065e-002
         vertex 1.250000e-002 3.200000e-002 -2.165065e-002
      endloop
   endfacet
   facet normal 3.437238e-001 2.606445e-015 -9.390708e-001
      outer loop
         vertex 1.250000e-002 3.200000e-002 -2.165065e-002
         vertex 1.250000e-002 -3.200000e-002 -2.165065e-002
         vertex 6.230706e-017 -3.200000e-002 -2.500001e-002
      endloop
   endfacet
   facet normal 1.718619e-001 2.734260e-015 -9.851211e-001
      outer loop
         vertex 1.250000e-002 3.200000e-002 -2.165065e-002
         vertex 6.230706e-017 -3.200000e-002 -2.500001e-002
         vertex 6.230706e-017 3.200000e-002 -2.500001e-002
      endloop
   endfacet
   facet normal -1.718619e-001 2.734260e-015 -9.851211e-001
      outer loop
         vertex 6.230706e-017 3.200000e-002 -2.500001e-002
         vertex 6.230706e-017 -3.200000e-002 -2.500001e-002
         vertex -1.250000e-002 -3.200000e-002 -2.165065e-002
      endloop
   endfacet
   facet normal -3.437238e-001 2.606445e-015 -9.390708e-001
      outer loop
         vertex 6.230706e-017 3.200000e-002 -2.500001e-002
         vertex -1.250000e-002 -3.200000e-002 -2.165065e-002
         vertex -1.250000e-002 3.200000e-002 -2.165065e-002
      endloop
   endfacet
   facet normal -6.413973e-001 2.129432e-015 -7.672089e-001
      outer loop
         vertex -1.250000e-002 3.200000e-002 -2.165065e-002
         vertex -1.250000e-002 -3.200000e-002 -2.165065e-002
         vertex -2.165063e-002 -3.200000e-002 -1.250000e-002
      endloop
   endfacet
   facet normal -7.672089e-001 1.780235e-015 -6.413973e-001
      outer loop
         vertex -1.250000e-002 3.200000e-002 -2.165065e-002
         vertex -2.165063e-002 -3.200000e-002 -1.250000e-002
         vertex -2.165063e-002 3.200000e-002 -1.250000e-002
      endloop
   endfacet
   facet normal -9.390708e-001 9.540252e-016 -3.437238e-001
      outer loop
         vertex -2.165063e-002 3.200000e-002 -1.250000e-002
         vertex -2.165063e-002 -3.200000e-002 -1.250000e-002
         vertex -2.500000e-002 -3.200000e-002 -7.152558e-009
      endloop
   endfacet
   facet normal -9.851211e-001 4.770126e-016 -1.718619e-001
      outer loop
         vertex -2.165063e-002 3.200000e-002 -1.250000e-002
         vertex -2.500000e-002 -3.200000e-002 -7.152558e-009
         vertex -2.500000e-002 3.200000e-002 -7.152557e-009
      endloop
   endfacet
   facet normal -9.851211e-001 -4.770126e-016 1.718619e-001
      outer loop
         vertex -2.500000e-002 3.200000e-002 -7.152557e-009
         vertex -2.500000e-002 -3.200000e-002 -7.152558e-009
         vertex -2.165063e-002 -3.200000e-002 1.250001e-002
      endloop
   endfacet
   facet normal -9.390708e-001 -9.540252e-016 3.437238e-001
      outer loop
         vertex -2.500000e-002 3.200000e-002 -7.152557e-009
         vertex -2.165063e-002 -3.200000e-002 1.250001e-002
         vertex -2.165063e-002 3.200000e-002 1.250001e-002
      endloop
   endfacet
   facet normal -8.453668e-001 -1.482665e-015 5.341863e-001
      outer loop
         vertex -2.165063e-002 3.200000e-002 1.250001e-002
         vertex -2.165063e-002 -3.200000e-002 1.250001e-002
         vertex -2.000000e-002 -4.163339e-017 1.500001e-002
      endloop
   endfacet
   facet normal -8.143344e-001 -1.610923e-015 5.803960e-001
      outer loop
         vertex -2.165063e-002 3.200000e-002 1.250001e-002
         vertex -2.000000e-002 -4.163339e-017 1.500001e-002
         vertex -1.927380e-002 5.340466e-003 1.592233e-002
      endloop
   endfacet
   facet normal 0.000000e+000 -1.000000e+000 -2.775558e-015
      outer loop
         vertex -1.299038e-002 -3.200000e-002 -7.500000e-003
         vertex -1.500000e-002 -3.200000e-002 -7.152558e-009
         vertex -2.165063e-002 -3.200000e-002 -1.250000e-002
      endloop
   endfacet
   facet normal 0.000000e+000 -1.000000e+000 -2.775558e-015
      outer loop
         vertex -1.299038e-002 -3.200000e-002 -7.500000e-003
         vertex -2.165063e-002 -3.200000e-002 -1.250000e-002
         vertex -7.500000e-003 -3.200000e-002 -1.299039e-002
      endloop
   endfacet
   facet normal 0.000000e+000 -1.000000e+000 -2.775558e-015
      outer loop
         vertex -7.500000e-003 -3.200000e-002 -1.299039e-002
         vertex -2.165063e-002 -3.200000e-002 -1.250000e-002
         vertex -1.250000e-002 -3.200000e-002 -2.165065e-002
      endloop
   endfacet
   facet normal 0.000000e+000 -1.000000e+000 -2.775558e-015
      outer loop
         vertex -7.500000e-003 -3.200000e-002 -1.299039e-002
         vertex -1.250000e-002 -3.200000e-002 -2.165065e-002
         vertex -7.142879e-018 -3.200000e-002 -1.499999e-002
      endloop
   endfacet
   facet normal 0.000000e+000 -1.000000e+000 -2.775558e-015
      outer loop
         vertex -7.142879e-018 -3.200000e-002 -1.499999e-002
         vertex -1.250000e-002 -3.200000e-002 -2.165065e-002
         vertex 6.224612e-017 -3.200000e-002 -2.500001e-002
      endloop
   endfacet
   facet normal 0.000000e+000 -1.000000e+000 -2.775558e-015
      outer loop
         vertex -7.142879e-018 -3.200000e-002 -1.499999e-002
         vertex 6.224612e-017 -3.200000e-002 -2.500001e-002
         vertex 7.500000e-003 -3.200000e-002 -1.299039e-002
      endloop
   endfacet
   facet normal 0.000000e+000 -1.000000e+000 -2.775558e-015
      outer loop
         vertex 7.500000e-003 -3.200000e-002 -1.299039e-002
         vertex 6.224612e-017 -3.200000e-002 -2.500001e-002
         vertex 1.250000e-002 -3.200000e-002 -2.165065e-002
      endloop
   endfacet
   facet normal 0.000000e+000 -1.000000e+000 -2.775558e-015
      outer loop
         vertex 7.500000e-003 -3.200000e-002 -1.299039e-002
         vertex 1.250000e-002 -3.200000e-002 -2.165065e-002
         vertex 1.299038e-002 -3.200000e-002 -7.500000e-003
      endloop
   endfacet
   facet normal 0.000000e+000 -1.000000e+000 -2.775558e-015
      outer loop
         vertex 1.299038e-002 -3.200000e-002 -7.500000e-003
         vertex 1.250000e-002 -3.200000e-002 -2.165065e-002
         vertex 2.165063e-002 -3.200000e-002 -1.250000e-002
      endloop
   endfacet
   facet normal 0.000000e+000 -1.000000e+000 -2.775558e-015
      outer loop
         vertex 1.299038e-002 -3.200000e-002 -7.500000e-003
         vertex 2.165063e-002 -3.200000e-002 -1.250000e-002
         vertex 1.500000e-002 -3.200000e-002 -7.152558e-009
      endloop
   endfacet
   facet normal 0.000000e+000 -1.000000e+000 -2.775558e-015
      outer loop
         vertex 1.500000e-002 -3.200000e-002 -7.152558e-009
         vertex 2.165063e-002 -3.200000e-002 -1.250000e-002
         vertex 2.500000e-002 -3.200000e-002 -7.152558e-009
      endloop
   endfacet
   facet normal 0.000000e+000 -1.000000e+000 -2.775558e-015
      outer loop
         vertex 1.500000e-002 -3.200000e-002 -7.152558e-009
         vertex 2.500000e-002 -3.200000e-002 -7.152558e-009
         vertex 1.299038e-002 -3.200000e-002 7.499986e-003
      endloop
   endfacet
   facet normal 0.000000e+000 -1.000000e+000 -2.775558e-015
      outer loop
         vertex 1.299038e-002 -3.200000e-002 7.499986e-003
         vertex 2.500000e-002 -3.200000e-002 -7.152558e-009
         vertex 2.165063e-002 -3.200000e-002 1.250001e-002
      endloop
   endfacet
   facet normal 0.000000e+000 -1.000000e+000 -2.775558e-015
      outer loop
         vertex 1.299038e-002 -3.200000e-002 7.499986e-003
         vertex 2.165063e-002 -3.200000e-002 1.250001e-002
         vertex 7.500000e-003 -3.200000e-002 1.299038e-002
      endloop
   endfacet
   facet normal 0.000000e+000 -1.000000e+000 -2.775558e-015
      outer loop
         vertex 7.500000e-003 -3.200000e-002 1.299038e-002
         vertex 2.165063e-002 -3.200000e-002 1.250001e-002
         vertex 1.250000e-002 -3.200000e-002 2.165063e-002
      endloop
   endfacet
   facet normal 0.000000e+000 -1.000000e+000 -2.775558e-015
      outer loop
         vertex 7.500000e-003 -3.200000e-002 1.299038e-002
         vertex 1.250000e-002 -3.200000e-002 2.165063e-002
         vertex -1.112263e-016 -3.200000e-002 1.500001e-002
      endloop
   endfacet
   facet normal 0.000000e+000 -1.000000e+000 -2.775558e-015
      outer loop
         vertex -1.112263e-016 -3.200000e-002 1.500001e-002
         vertex 1.250000e-002 -3.200000e-002 2.165063e-002
         vertex -4.183733e-017 -3.200000e-002 2.500000e-002
      endloop
   endfacet
   facet normal 0.000000e+000 -1.000000e+000 -2.775558e-015
      outer loop
         vertex -1.112263e-016 -3.200000e-002 1.500001e-002
         vertex -4.183733e-017 -3.200000e-002 2.500000e-002
         vertex -7.500000e-003 -3.200000e-002 1.299038e-002
      endloop
   endfacet
   facet normal 0.000000e+000 -1.000000e+000 -2.775558e-015
      outer loop
         vertex -7.500000e-003 -3.200000e-002 1.299038e-002
         vertex -4.183733e-017 -3.200000e-002 2.500000e-002
         vertex -1.250000e-002 -3.200000e-002 2.165063e-002
      endloop
   endfacet
   facet normal 0.000000e+000 -1.000000e+000 -2.775558e-015
      outer loop
         vertex -7.500000e-003 -3.200000e-002 1.299038e-002
         vertex -1.250000e-002 -3.200000e-002 2.165063e-002
         vertex -1.299038e-002 -3.200000e-002 7.499986e-003
      endloop
   endfacet
   facet normal 0.000000e+000 -1.000000e+000 -2.775558e-015
      outer loop
         vertex -1.299038e-002 -3.200000e-002 7.499986e-003
         vertex -1.250000e-002 -3.200000e-002 2.165063e-002
         vertex -2.165063e-002 -3.200000e-002 1.250001e-002
      endloop
   endfacet
   facet normal 0.000000e+000 -1.000000e+000 -2.775558e-015
      outer loop
         vertex -1.299038e-002 -3.200000e-002 7.499986e-003
         vertex -2.165063e-002 -3.200000e-002 1.250001e-002
         vertex -1.500000e-002 -3.200000e-002 -7.152558e-009
      endloop
   endfacet
   facet normal 0.000000e+000 -1.000000e+000 -2.775558e-015
      outer loop
         vertex -1.500000e-002 -3.200000e-002 -7.152558e-009
         vertex -2.165063e-002 -3.200000e-002 1.250001e-002
         vertex -2.500000e-002 -3.200000e-002 -7.152558e-009
      endloop
   endfacet
   facet normal 0.000000e+000 -1.000000e+000 -2.775558e-015
      outer loop
         vertex -1.500000e-002 -3.200000e-002 -7.152558e-009
         vertex -2.500000e-002 -3.200000e-002 -7.152558e-009
         vertex -2.165063e-002 -3.200000e-002 -1.250000e-002
      endloop
   endfacet
   facet normal 0.000000e+000 1.000000e+000 2.775558e-015
      outer loop
         vertex 7.500000e-003 3.200000e-002 -1.299039e-002
         vertex 1.250000e-002 3.200000e-002 -2.165065e-002
         vertex -7.142879e-018 3.200000e-002 -1.499999e-002
      endloop
   endfacet
   facet normal 0.000000e+000 1.000000e+000 2.775558e-015
      outer loop
         vertex -7.142879e-018 3.200000e-002 -1.499999e-002
         vertex 1.250000e-002 3.200000e-002 -2.165065e-002
         vertex 6.224612e-017 3.200000e-002 -2.500001e-002
      endloop
   endfacet
   facet normal 0.000000e+000 1.000000e+000 2.775558e-015
      outer loop
         vertex -7.142879e-018 3.200000e-002 -1.499999e-002
         vertex 6.224612e-017 3.200000e-002 -2.500001e-002
         vertex -7.500000e-003 3.200000e-002 -1.299039e-002
      endloop
   endfacet
   facet normal 0.000000e+000 1.000000e+000 2.775558e-015
      outer loop
         vertex -7.500000e-003 3.200000e-002 -1.299039e-002
         vertex 6.224612e-017 3.200000e-002 -2.500001e-002
         vertex -1.250000e-002 3.200000e-002 -2.165065e-002
      endloop
   endfacet
   facet normal 0.000000e+000 1.000000e+000 2.775558e-015
      outer loop
         vertex -7.500000e-003 3.200000e-002 -1.299039e-002
         vertex -1.250000e-002 3.200000e-002 -2.165065e-002
         vertex -1.299038e-002 3.200000e-002 -7.500000e-003
      endloop
   endfacet
   facet normal 0.000000e+000 1.000000e+000 2.775558e-015
      outer loop
         vertex -1.299038e-002 3.200000e-002 -7.500000e-003
         vertex -1.250000e-002 3.200000e-002 -2.165065e-002
         vertex -2.165063e-002 3.200000e-002 -1.250000e-002
      endloop
   endfacet
   facet normal 0.000000e+000 1.000000e+000 2.775558e-015
      outer loop
         vertex -1.299038e-002 3.200000e-002 -7.500000e-003
         vertex -2.165063e-002 3.200000e-002 -1.250000e-002
         vertex -1.500000e-002 3.200000e-002 -7.152557e-009
      endloop
   endfacet
   facet normal 0.000000e+000 1.000000e+000 2.775558e-015
      outer loop
         vertex -1.500000e-002 3.200000e-002 -7.152557e-009
         vertex -2.165063e-002 3.200000e-002 -1.250000e-002
         vertex -2.500000e-002 3.200000e-002 -7.152557e-009
      endloop
   endfacet
   facet normal 0.000000e+000 1.000000e+000 2.775558e-015
      outer loop
         vertex -1.500000e-002 3.200000e-002 -7.152557e-009
         vertex -2.500000e-002 3.200000e-002 -7.152557e-009
         vertex -1.299038e-002 3.200000e-002 7.499986e-003
      endloop
   endfacet
   facet normal 0.000000e+000 1.000000e+000 2.775558e-015
      outer loop
         vertex -1.299038e-002 3.200000e-002 7.499986e-003
         vertex -2.500000e-002 3.200000e-002 -7.152557e-009
         vertex -2.165063e-002 3.200000e-002 1.250001e-002
      endloop
   endfacet
   facet normal 0.000000e+000 1.000000e+000 2.775558e-015
      outer loop
         vertex -1.299038e-002 3.200000e-002 7.499986e-003
         vertex -2.165063e-002 3.200000e-002 1.250001e-002
         vertex -7.500000e-003 3.200000e-002 1.299038e-002
      endloop
   endfacet
   facet normal 0.000000e+000 1.000000e+000 2.775558e-015
      outer loop
         vertex -7.500000e-003 3.200000e-002 1.299038e-002
         vertex -2.165063e-002 3.200000e-002 1.250001e-002
         vertex -1.250000e-002 3.200000e-002 2.165063e-002
      endloop
   endfacet
   facet normal 0.000000e+000 1.000000e+000 2.775558e-015
      outer loop
         vertex -7.500000e-003 3.200000e-002 1.299038e-002
         vertex -1.250000e-002 3.200000e-002 2.165063e-002
         vertex -1.112263e-016 3.200000e-002 1.500001e-002
      endloop
   endfacet
   facet normal 0.000000e+000 1.000000e+000 2.775558e-015
      outer loop
         vertex -1.112263e-016 3.200000e-002 1.500001e-002
         vertex -1.250000e-002 3.200000e-002 2.165063e-002
         vertex -4.183733e-017 3.200000e-002 2.500000e-002
      endloop
   endfacet
   facet normal 0.000000e+000 1.000000e+000 2.775558e-015
      outer loop
         vertex -1.112263e-016 3.200000e-002 1.500001e-002
         vertex -4.183733e-017 3.200000e-002 2.500000e-002
         vertex 7.500000e-003 3.200000e-002 1.299038e-002
      endloop
   endfacet
   facet normal 0.000000e+000 1.000000e+000 2.775558e-015
      outer loop
         vertex 7.500000e-003 3.200000e-002 1.299038e-002
         vertex -4.183733e-017 3.200000e-002 2.500000e-002
         vertex 1.250000e-002 3.200000e-002 2.165063e-002
      endloop
   endfacet
   facet normal 0.000000e+000 1.000000e+000 2.775558e-015
      outer loop
         vertex 7.500000e-003 3.200000e-002 1.299038e-002
         vertex 1.250000e-002 3.200000e-002 2.165063e-002
         vertex 1.299038e-002 3.200000e-002 7.499986e-003
      endloop
   endfacet
   facet normal 0.000000e+000 1.000000e+000 2.775558e-015
      outer loop
         vertex 1.299038e-002 3.200000e-002 7.499986e-003
         vertex 1.250000e-002 3.200000e-002 2.165063e-002
         vertex 2.165063e-002 3.200000e-002 1.250001e-002
      endloop
   endfacet
   facet normal 0.000000e+000 1.000000e+000 2.775558e-015
      outer loop
         vertex 1.299038e-002 3.200000e-002 7.499986e-003
         vertex 2.165063e-002 3.200000e-002 1.250001e-002
         vertex 1.500000e-002 3.200000e-002 -7.152557e-009
      endloop
   endfacet
   facet normal 0.000000e+000 1.000000e+000 2.775558e-015
      outer loop
         vertex 1.500000e-002 3.200000e-002 -7.152557e-009
         vertex 2.165063e-002 3.200000e-002 1.250001e-002
         vertex 2.500000e-002 3.200000e-002 -7.152557e-009
      endloop
   endfacet
   facet normal 0.000000e+000 1.000000e+000 2.775558e-015
      outer loop
         vertex 1.500000e-002 3.200000e-002 -7.152557e-009
         vertex 2.500000e-002 3.200000e-002 -7.152557e-009
         vertex 1.299038e-002 3.200000e-002 -7.500000e-003
      endloop
   endfacet
   facet normal 0.000000e+000 1.000000e+000 2.775558e-015
      outer loop
         vertex 1.299038e-002 3.200000e-002 -7.500000e-003
         vertex 2.500000e-002 3.200000e-002 -7.152557e-009
         vertex 2.165063e-002 3.200000e-002 -1.250000e-002
      endloop
   endfacet
   facet normal 0.000000e+000 1.000000e+000 2.775558e-015
      outer loop
         vertex 1.299038e-002 3.200000e-002 -7.500000e-003
         vertex 2.165063e-002 3.200000e-002 -1.250000e-002
         vertex 7.500000e-003 3.200000e-002 -1.299039e-002
      endloop
   endfacet
   facet normal 0.000000e+000 1.000000e+000 2.775558e-015
      outer loop
         vertex 7.500000e-003 3.200000e-002 -1.299039e-002
         vertex 2.165063e-002 3.200000e-002 -1.250000e-002
         vertex 1.250000e-002 3.200000e-002 -2.165065e-002
      endloop
   endfacet
   facet normal -9.851211e-001 4.770126e-016 -1.718619e-001
      outer loop
         vertex 1.299038e-002 -3.200000e-002 7.499986e-003
         vertex 1.500000e-002 3.200000e-002 -7.152557e-009
         vertex 1.500000e-002 -3.200000e-002 -7.152558e-009
      endloop
   endfacet
   facet normal -9.851211e-001 -4.770126e-016 1.718619e-001
      outer loop
         vertex 1.500000e-002 -3.200000e-002 -7.152558e-009
         vertex 1.500000e-002 3.200000e-002 -7.152557e-009
         vertex 1.299038e-002 3.200000e-002 -7.500000e-003
      endloop
   endfacet
   facet normal -9.390708e-001 -9.540252e-016 3.437238e-001
      outer loop
         vertex 1.500000e-002 -3.200000e-002 -7.152558e-009
         vertex 1.299038e-002 3.200000e-002 -7.500000e-003
         vertex 1.299038e-002 -3.200000e-002 -7.500000e-003
      endloop
   endfacet
   facet normal -7.672089e-001 -1.780235e-015 6.413973e-001
      outer loop
         vertex 1.299038e-002 -3.200000e-002 -7.500000e-003
         vertex 1.299038e-002 3.200000e-002 -7.500000e-003
         vertex 7.500000e-003 3.200000e-002 -1.299039e-002
      endloop
   endfacet
   facet normal -6.413973e-001 -2.129432e-015 7.672089e-001
      outer loop
         vertex 1.299038e-002 -3.200000e-002 -7.500000e-003
         vertex 7.500000e-003 3.200000e-002 -1.299039e-002
         vertex 7.500000e-003 -3.200000e-002 -1.299039e-002
      endloop
   endfacet
   facet normal -3.437238e-001 -2.606445e-015 9.390708e-001
      outer loop
         vertex 7.500000e-003 -3.200000e-002 -1.299039e-002
         vertex 7.500000e-003 3.200000e-002 -1.299039e-002
         vertex -8.148989e-018 3.200000e-002 -1.499999e-002
      endloop
   endfacet
   facet normal -1.718619e-001 -2.734260e-015 9.851211e-001
      outer loop
         vertex 7.500000e-003 -3.200000e-002 -1.299039e-002
         vertex -8.148989e-018 3.200000e-002 -1.499999e-002
         vertex -8.148989e-018 -3.200000e-002 -1.499999e-002
      endloop
   endfacet
   facet normal 1.718619e-001 -2.734260e-015 9.851211e-001
      outer loop
         vertex -8.148989e-018 -3.200000e-002 -1.499999e-002
         vertex -8.148989e-018 3.200000e-002 -1.499999e-002
         vertex -7.500000e-003 3.200000e-002 -1.299039e-002
      endloop
   endfacet
   facet normal 3.437238e-001 -2.606445e-015 9.390708e-001
      outer loop
         vertex -8.148989e-018 -3.200000e-002 -1.499999e-002
         vertex -7.500000e-003 3.200000e-002 -1.299039e-002
         vertex -7.500000e-003 -3.200000e-002 -1.299039e-002
      endloop
   endfacet
   facet normal 6.413973e-001 -2.129432e-015 7.672089e-001
      outer loop
         vertex -7.500000e-003 -3.200000e-002 -1.299039e-002
         vertex -7.500000e-003 3.200000e-002 -1.299039e-002
         vertex -1.299038e-002 3.200000e-002 -7.500000e-003
      endloop
   endfacet
   facet normal 7.672089e-001 -1.780235e-015 6.413973e-001
      outer loop
         vertex -7.500000e-003 -3.200000e-002 -1.299039e-002
         vertex -1.299038e-002 3.200000e-002 -7.500000e-003
         vertex -1.299038e-002 -3.200000e-002 -7.500000e-003
      endloop
   endfacet
   facet normal 9.390708e-001 -9.540252e-016 3.437238e-001
      outer loop
         vertex -1.299038e-002 -3.200000e-002 -7.500000e-003
         vertex -1.299038e-002 3.200000e-002 -7.500000e-003
         vertex -1.500000e-002 3.200000e-002 -7.152557e-009
      endloop
   endfacet
   facet normal 9.851211e-001 -4.770126e-016 1.718619e-001
      outer loop
         vertex -1.299038e-002 -3.200000e-002 -7.500000e-003
         vertex -1.500000e-002 3.200000e-002 -7.152557e-009
         vertex -1.500000e-002 -3.200000e-002 -7.152558e-009
      endloop
   endfacet
   facet normal 9.851211e-001 4.770126e-016 -1.718619e-001
      outer loop
         vertex -1.500000e-002 -3.200000e-002 -7.152558e-009
         vertex -1.500000e-002 3.200000e-002 -7.152557e-009
         vertex -1.299038e-002 3.200000e-002 7.499986e-003
      endloop
   endfacet
   facet normal 9.390708e-001 9.540252e-016 -3.437238e-001
      outer loop
         vertex -1.500000e-002 -3.200000e-002 -7.152558e-009
         vertex -1.299038e-002 3.200000e-002 7.499986e-003
         vertex -1.299038e-002 -3.200000e-002 7.499986e-003
      endloop
   endfacet
   facet normal 7.672089e-001 1.780235e-015 -6.413973e-001
      outer loop
         vertex -1.299038e-002 -3.200000e-002 7.499986e-003
         vertex -1.299038e-002 3.200000e-002 7.499986e-003
         vertex -7.500000e-003 3.200000e-002 1.299038e-002
      endloop
   endfacet
   facet normal 6.413973e-001 2.129432e-015 -7.672089e-001
      outer loop
         vertex -1.299038e-002 -3.200000e-002 7.499986e-003
         vertex -7.500000e-003 3.200000e-002 1.299038e-002
         vertex -7.500000e-003 -3.200000e-002 1.299038e-002
      endloop
   endfacet
   facet normal 3.437238e-001 2.606445e-015 -9.390708e-001
      outer loop
         vertex -7.500000e-003 -3.200000e-002 1.299038e-002
         vertex -7.500000e-003 3.200000e-002 1.299038e-002
         vertex -1.117430e-016 3.200000e-002 1.500001e-002
      endloop
   endfacet
   facet normal 1.718619e-001 2.734260e-015 -9.851211e-001
      outer loop
         vertex -7.500000e-003 -3.200000e-002 1.299038e-002
         vertex -1.117430e-016 3.200000e-002 1.500001e-002
         vertex -1.117430e-016 -3.200000e-002 1.500001e-002
      endloop
   endfacet
   facet normal -1.718619e-001 2.734260e-015 -9.851211e-001
      outer loop
         vertex -1.117430e-016 -3.200000e-002 1.500001e-002
         vertex -1.117430e-016 3.200000e-002 1.500001e-002
         vertex 7.500000e-003 3.200000e-002 1.299038e-002
      endloop
   endfacet
   facet normal -3.437238e-001 2.606445e-015 -9.390708e-001
      outer loop
         vertex -1.117430e-016 -3.200000e-002 1.500001e-002
         vertex 7.500000e-003 3.200000e-002 1.299038e-002
         vertex 7.500000e-003 -3.200000e-002 1.299038e-002
      endloop
   endfacet
   facet normal -6.413973e-001 2.129432e-015 -7.672089e-001
      outer loop
         vertex 7.500000e-003 -3.200000e-002 1.299038e-002
         vertex 7.500000e-003 3.200000e-002 1.299038e-002
         vertex 1.299038e-002 3.200000e-002 7.499986e-003
      endloop
   endfacet
   facet normal -7.672089e-001 1.780235e-015 -6.413973e-001
      outer loop
         vertex 7.500000e-003 -3.200000e-002 1.299038e-002
         vertex 1.299038e-002 3.200000e-002 7.499986e-003
         vertex 1.299038e-002 -3.200000e-002 7.499986e-003
      endloop
   endfacet
   facet normal -9.390708e-001 9.540252e-016 -3.437238e-001
      outer loop
         vertex 1.299038e-002 -3.200000e-002 7.499986e-003
         vertex 1.299038e-002 3.200000e-002 7.499986e-003
         vertex 1.500000e-002 3.200000e-002 -7.152557e-009
      endloop
   endfacet
endsolid