solid rod3
   facet normal 0.000000e+000 0.000000e+000 1.000000e+000
      outer loop
         vertex 1.500000e-002 -5.204170e-018 4.750000e-001
         vertex -1.299038e-002 7.500000e-003 4.750000e-001
         vertex 1.299038e-002 -7.500000e-003 4.750000e-001
      endloop
   endfacet
   facet normal 0.000000e+000 0.000000e+000 1.000000e+000
      outer loop
         vertex 1.299038e-002 -7.500000e-003 4.750000e-001
         vertex -1.299038e-002 7.500000e-003 4.750000e-001
         vertex -1.500000e-002 1.387779e-017 4.750000e-001
      endloop
   endfacet
   facet normal 0.000000e+000 0.000000e+000 1.000000e+000
      outer loop
         vertex 5.153078e-018 1.500000e-002 4.750000e-001
         vertex -7.500000e-003 1.299038e-002 4.750000e-001
         vertex 7.500000e-003 1.299038e-002 4.750000e-001
      endloop
   endfacet
   facet normal 0.000000e+000 0.000000e+000 1.000000e+000
      outer loop
         vertex 7.500000e-003 1.299038e-002 4.750000e-001
         vertex -7.500000e-003 1.299038e-002 4.750000e-001
         vertex -1.299038e-002 7.500000e-003 4.750000e-001
      endloop
   endfacet
   facet normal 0.000000e+000 0.000000e+000 1.000000e+000
      outer loop
         vertex 7.500000e-003 1.299038e-002 4.750000e-001
         vertex -1.299038e-002 7.500000e-003 4.750000e-001
         vertex 1.299038e-002 7.500000e-003 4.750000e-001
      endloop
   endfacet
   facet normal 0.000000e+000 0.000000e+000 1.000000e+000
      outer loop
         vertex 1.299038e-002 7.500000e-003 4.750000e-001
         vertex -1.299038e-002 7.500000e-003 4.750000e-001
         vertex 1.500000e-002 -5.204170e-018 4.750000e-001
      endloop
   endfacet
   facet normal 0.000000e+000 0.000000e+000 1.000000e+000
      outer loop
         vertex -6.989987e-018 -1.500000e-002 4.750000e-001
         vertex 7.500000e-003 -1.299038e-002 4.750000e-001
         vertex -7.500000e-003 -1.299038e-002 4.750000e-001
      endloop
   endfacet
   facet normal 0.000000e+000 0.000000e+000 1.000000e+000
      outer loop
         vertex -7.500000e-003 -1.299038e-002 4.750000e-001
         vertex 7.500000e-003 -1.299038e-002 4.750000e-001
         vertex 1.299038e-002 -7.500000e-003 4.750000e-001
      endloop
   endfacet
   facet normal 0.000000e+000 0.000000e+000 1.000000e+000
      outer loop
         vertex -7.500000e-003 -1.299038e-002 4.750000e-001
         vertex 1.299038e-002 -7.500000e-003 4.750000e-001
         vertex -1.299038e-002 -7.500000e-003 4.750000e-001
      endloop
   endfacet
   facet normal 0.000000e+000 0.000000e+000 1.000000e+000
      outer loop
         vertex -1.299038e-002 -7.500000e-003 4.750000e-001
         vertex 1.299038e-002 -7.500000e-003 4.750000e-001
         vertex -1.500000e-002 1.387779e-017 4.750000e-001
      endloop
   endfacet
   facet normal 1.718619e-001 0.000000e+000 9.851211e-001
      outer loop
         vertex -7.500000e-003 2.500000e-002 -1.299039e-002
         vertex -3.673940e-018 -2.500000e-002 -1.499999e-002
         vertex -3.673940e-018 2.500000e-002 -1.499999e-002
      endloop
   endfacet
   facet normal -1.718619e-001 0.000000e+000 9.851211e-001
      outer loop
         vertex -3.673940e-018 2.500000e-002 -1.499999e-002
         vertex -3.673940e-018 -2.500000e-002 -1.499999e-002
         vertex 7.500000e-003 -2.500000e-002 -1.299039e-002
      endloop
   endfacet
   facet normal -3.437238e-001 0.000000e+000 9.390708e-001
      outer loop
         vertex -3.673940e-018 2.500000e-002 -1.499999e-002
         vertex 7.500000e-003 -2.500000e-002 -1.299039e-002
         vertex 7.500000e-003 2.500000e-002 -1.299039e-002
      endloop
   endfacet
   facet normal -6.413973e-001 0.000000e+000 7.672089e-001
      outer loop
         vertex 7.500000e-003 2.500000e-002 -1.299039e-002
         vertex 7.500000e-003 -2.500000e-002 -1.299039e-002
         vertex 1.299038e-002 -2.500000e-002 -7.499993e-003
      endloop
   endfacet
   facet normal -7.672089e-001 0.000000e+000 6.413973e-001
      outer loop
         vertex 7.500000e-003 2.500000e-002 -1.299039e-002
         vertex 1.299038e-002 -2.500000e-002 -7.499993e-003
         vertex 1.299038e-002 2.500000e-002 -7.499993e-003
      endloop
   endfacet
   facet normal -9.390708e-001 0.000000e+000 3.437238e-001
      outer loop
         vertex 1.299038e-002 2.500000e-002 -7.499993e-003
         vertex 1.299038e-002 -2.500000e-002 -7.499993e-003
         vertex 1.500000e-002 -2.500000e-002 0.000000e+000
      endloop
   endfacet
   facet normal -9.851211e-001 0.000000e+000 1.718619e-001
      outer loop
         vertex 1.299038e-002 2.500000e-002 -7.499993e-003
         vertex 1.500000e-002 -2.500000e-002 0.000000e+000
         vertex 1.500000e-002 2.500000e-002 0.000000e+000
      endloop
   endfacet
   facet normal -9.851211e-001 -0.000000e+000 -1.718619e-001
      outer loop
         vertex 1.500000e-002 2.500000e-002 0.000000e+000
         vertex 1.500000e-002 -2.500000e-002 0.000000e+000
         vertex 1.299038e-002 -2.500000e-002 7.499993e-003
      endloop
   endfacet
   facet normal -9.390708e-001 -0.000000e+000 -3.437238e-001
      outer loop
         vertex 1.500000e-002 2.500000e-002 0.000000e+000
         vertex 1.299038e-002 -2.500000e-002 7.499993e-003
         vertex 1.299038e-002 2.500000e-002 7.499993e-003
      endloop
   endfacet
   facet normal -7.672089e-001 -0.000000e+000 -6.413973e-001
      outer loop
         vertex 1.299038e-002 2.500000e-002 7.499993e-003
         vertex 1.299038e-002 -2.500000e-002 7.499993e-003
         vertex 7.500000e-003 -2.500000e-002 1.299039e-002
      endloop
   endfacet
   facet normal -6.413973e-001 -0.000000e+000 -7.672089e-001
      outer loop
         vertex 1.299038e-002 2.500000e-002 7.499993e-003
         vertex 7.500000e-003 -2.500000e-002 1.299039e-002
         vertex 7.500000e-003 2.500000e-002 1.299039e-002
      endloop
   endfacet
   facet normal -3.437238e-001 -0.000000e+000 -9.390708e-001
      outer loop
         vertex 7.500000e-003 2.500000e-002 1.299039e-002
         vertex 7.500000e-003 -2.500000e-002 1.299039e-002
         vertex 8.498308e-018 -2.500000e-002 1.500000e-002
      endloop
   endfacet
   facet normal -1.718619e-001 -0.000000e+000 -9.851211e-001
      outer loop
         vertex 7.500000e-003 2.500000e-002 1.299039e-002
         vertex 8.498308e-018 -2.500000e-002 1.500000e-002
         vertex 8.498308e-018 2.500000e-002 1.500000e-002
      endloop
   endfacet
   facet normal 1.718619e-001 0.000000e+000 -9.851211e-001
      outer loop
         vertex 8.498308e-018 2.500000e-002 1.500000e-002
         vertex 8.498308e-018 -2.500000e-002 1.500000e-002
         vertex -7.500000e-003 -2.500000e-002 1.299039e-002
      endloop
   endfacet
   facet normal 3.437238e-001 0.000000e+000 -9.390708e-001
      outer loop
         vertex 8.498308e-018 2.500000e-002 1.500000e-002
         vertex -7.500000e-003 -2.500000e-002 1.299039e-002
         vertex -7.500000e-003 2.500000e-002 1.299039e-002
      endloop
   endfacet
   facet normal 6.413973e-001 0.000000e+000 -7.672089e-001
      outer loop
         vertex -7.500000e-003 2.500000e-002 1.299039e-002
         vertex -7.500000e-003 -2.500000e-002 1.299039e-002
         vertex -1.299038e-002 -2.500000e-002 7.499993e-003
      endloop
   endfacet
   facet normal 7.672089e-001 0.000000e+000 -6.413973e-001
      outer loop
         vertex -7.500000e-003 2.500000e-002 1.299039e-002
         vertex -1.299038e-002 -2.500000e-002 7.499993e-003
         vertex -1.299038e-002 2.500000e-002 7.499993e-003
      endloop
   endfacet
   facet normal 9.390708e-001 0.000000e+000 -3.437238e-001
      outer loop
         vertex -1.299038e-002 2.500000e-002 7.499993e-003
         vertex -1.299038e-002 -2.500000e-002 7.499993e-003
         vertex -1.500000e-002 -2.500000e-002 0.000000e+000
      endloop
   endfacet
   facet normal 9.851211e-001 0.000000e+000 -1.718619e-001
      outer loop
         vertex -1.299038e-002 2.500000e-002 7.499993e-003
         vertex -1.500000e-002 -2.500000e-002 0.000000e+000
         vertex -1.500000e-002 2.500000e-002 0.000000e+000
      endloop
   endfacet
   facet normal 9.851211e-001 0.000000e+000 1.718619e-001
      outer loop
         vertex -1.500000e-002 2.500000e-002 0.000000e+000
         vertex -1.500000e-002 -2.500000e-002 0.000000e+000
         vertex -1.299038e-002 -2.500000e-002 -7.499993e-003
      endloop
   endfacet
   facet normal 9.390708e-001 0.000000e+000 3.437238e-001
      outer loop
         vertex -1.500000e-002 2.500000e-002 0.000000e+000
         vertex -1.299038e-002 -2.500000e-002 -7.499993e-003
         vertex -1.299038e-002 2.500000e-002 -7.499993e-003
      endloop
   endfacet
   facet normal 7.672089e-001 0.000000e+000 6.413973e-001
      outer loop
         vertex -1.299038e-002 2.500000e-002 -7.499993e-003
         vertex -1.299038e-002 -2.500000e-002 -7.499993e-003
         vertex -7.500000e-003 -2.500000e-002 -1.299039e-002
      endloop
   endfacet
   facet normal 6.413973e-001 0.000000e+000 7.672089e-001
      outer loop
         vertex -1.299038e-002 2.500000e-002 -7.499993e-003
         vertex -7.500000e-003 -2.500000e-002 -1.299039e-002
         vertex -7.500000e-003 2.500000e-002 -1.299039e-002
      endloop
   endfacet
   facet normal 3.437238e-001 0.000000e+000 9.390708e-001
      outer loop
         vertex -7.500000e-003 2.500000e-002 -1.299039e-002
         vertex -7.500000e-003 -2.500000e-002 -1.299039e-002
         vertex -3.673940e-018 -2.500000e-002 -1.499999e-002
      endloop
   endfacet
   facet normal 1.718619e-001 -9.851211e-001 0.000000e+000
      outer loop
         vertex 7.500000e-003 -1.299038e-002 4.062500e-001
         vertex -3.571633e-018 -1.500000e-002 4.750000e-001
         vertex -3.571633e-018 -1.500000e-002 4.062500e-001
      endloop
   endfacet
   facet normal -1.718619e-001 -9.851211e-001 0.000000e+000
      outer loop
         vertex -3.571633e-018 -1.500000e-002 4.062500e-001
         vertex -3.571633e-018 -1.500000e-002 4.750000e-001
         vertex -7.500000e-003 -1.299038e-002 4.750000e-001
      endloop
   endfacet
   facet normal -3.437238e-001 -9.390708e-001 0.000000e+000
      outer loop
         vertex -3.571633e-018 -1.500000e-002 4.062500e-001
         vertex -7.500000e-003 -1.299038e-002 4.750000e-001
         vertex -7.500000e-003 -1.299038e-002 4.062500e-001
      endloop
   endfacet
   facet normal -6.413973e-001 -7.672089e-001 0.000000e+000
      outer loop
         vertex -7.500000e-003 -1.299038e-002 4.062500e-001
         vertex -7.500000e-003 -1.299038e-002 4.750000e-001
         vertex -1.299038e-002 -7.500000e-003 4.750000e-001
      endloop
   endfacet
   facet normal -7.672089e-001 -6.413973e-001 0.000000e+000
      outer loop
         vertex -7.500000e-003 -1.299038e-002 4.062500e-001
         vertex -1.299038e-002 -7.500000e-003 4.750000e-001
         vertex -1.299038e-002 -7.500000e-003 4.062500e-001
      endloop
   endfacet
   facet normal -9.390708e-001 -3.437238e-001 0.000000e+000
      outer loop
         vertex -1.299038e-002 -7.500000e-003 4.062500e-001
         vertex -1.299038e-002 -7.500000e-003 4.750000e-001
         vertex -1.500000e-002 1.429231e-017 4.750000e-001
      endloop
   endfacet
   facet normal -9.851211e-001 -1.718619e-001 0.000000e+000
      outer loop
         vertex -1.299038e-002 -7.500000e-003 4.062500e-001
         vertex -1.500000e-002 1.429231e-017 4.750000e-001
         vertex -1.500000e-002 1.429231e-017 4.062500e-001
      endloop
   endfacet
   facet normal -9.851211e-001 1.718619e-001 0.000000e+000
      outer loop
         vertex -1.500000e-002 1.429231e-017 4.062500e-001
         vertex -1.500000e-002 1.429231e-017 4.750000e-001
         vertex -1.299038e-002 7.500000e-003 4.750000e-001
      endloop
   endfacet
   facet normal -9.390708e-001 3.437238e-001 0.000000e+000
      outer loop
         vertex -1.500000e-002 1.429231e-017 4.062500e-001
         vertex -1.299038e-002 7.500000e-003 4.750000e-001
         vertex -1.299038e-002 7.500000e-003 4.062500e-001
      endloop
   endfacet
   facet normal -7.672089e-001 6.413973e-001 0.000000e+000
      outer loop
         vertex -1.299038e-002 7.500000e-003 4.062500e-001
         vertex -1.299038e-002 7.500000e-003 4.750000e-001
         vertex -7.500000e-003 1.299038e-002 4.750000e-001
      endloop
   endfacet
   facet normal -6.413973e-001 7.672089e-001 0.000000e+000
      outer loop
         vertex -1.299038e-002 7.500000e-003 4.062500e-001
         vertex -7.500000e-003 1.299038e-002 4.750000e-001
         vertex -7.500000e-003 1.299038e-002 4.062500e-001
      endloop
   endfacet
   facet normal -3.437238e-001 9.390708e-001 0.000000e+000
      outer loop
         vertex -7.500000e-003 1.299038e-002 4.062500e-001
         vertex -7.500000e-003 1.299038e-002 4.750000e-001
         vertex 4.926675e-018 1.500000e-002 4.750000e-001
      endloop
   endfacet
   facet normal -1.718619e-001 9.851211e-001 0.000000e+000
      outer loop
         vertex -7.500000e-003 1.299038e-002 4.062500e-001
         vertex 4.926675e-018 1.500000e-002 4.750000e-001
         vertex 4.926675e-018 1.500000e-002 4.062500e-001
      endloop
   endfacet
   facet normal 1.718619e-001 9.851211e-001 -0.000000e+000
      outer loop
         vertex 4.926675e-018 1.500000e-002 4.062500e-001
         vertex 4.926675e-018 1.500000e-002 4.750000e-001
         vertex 7.500000e-003 1.299038e-002 4.750000e-001
      endloop
   endfacet
   facet normal 3.437238e-001 9.390708e-001 -0.000000e+000
      outer loop
         vertex 4.926675e-018 1.500000e-002 4.062500e-001
         vertex 7.500000e-003 1.299038e-002 4.750000e-001
         vertex 7.500000e-003 1.299038e-002 4.062500e-001
      endloop
   endfacet
   facet normal 6.413973e-001 7.672089e-001 -0.000000e+000
      outer loop
         vertex 7.500000e-003 1.299038e-002 4.062500e-001
         vertex 7.500000e-003 1.299038e-002 4.750000e-001
         vertex 1.299038e-002 7.500000e-003 4.750000e-001
      endloop
   endfacet
   facet normal 7.672089e-001 6.413973e-001 -0.000000e+000
      outer loop
         vertex 7.500000e-003 1.299038e-002 4.062500e-001
         vertex 1.299038e-002 7.500000e-003 4.750000e-001
         vertex 1.299038e-002 7.500000e-003 4.062500e-001
      endloop
   endfacet
   facet normal 9.390708e-001 3.437238e-001 -0.000000e+000
      outer loop
         vertex 1.299038e-002 7.500000e-003 4.062500e-001
         vertex 1.299038e-002 7.500000e-003 4.750000e-001
         vertex 1.500000e-002 -6.034971e-018 4.750000e-001
      endloop
   endfacet
   facet normal 9.851211e-001 1.718619e-001 -0.000000e+000
      outer loop
         vertex 1.299038e-002 7.500000e-003 4.062500e-001
         vertex 1.500000e-002 -6.034971e-018 4.750000e-001
         vertex 1.500000e-002 -6.034971e-018 4.062500e-001
      endloop
   endfacet
   facet normal 9.851211e-001 -1.718619e-001 0.000000e+000
      outer loop
         vertex 1.500000e-002 -6.034971e-018 4.062500e-001
         vertex 1.500000e-002 -6.034971e-018 4.750000e-001
         vertex 1.299038e-002 -7.500000e-003 4.750000e-001
      endloop
   endfacet
   facet normal 9.390708e-001 -3.437238e-001 0.000000e+000
      outer loop
         vertex 1.500000e-002 -6.034971e-018 4.062500e-001
         vertex 1.299038e-002 -7.500000e-003 4.750000e-001
         vertex 1.299038e-002 -7.500000e-003 4.062500e-001
      endloop
   endfacet
   facet normal 7.672089e-001 -6.413973e-001 0.000000e+000
      outer loop
         vertex 1.299038e-002 -7.500000e-003 4.062500e-001
         vertex 1.299038e-002 -7.500000e-003 4.750000e-001
         vertex 7.500000e-003 -1.299038e-002 4.750000e-001
      endloop
   endfacet
   facet normal 6.413973e-001 -7.672089e-001 0.000000e+000
      outer loop
         vertex 1.299038e-002 -7.500000e-003 4.062500e-001
         vertex 7.500000e-003 -1.299038e-002 4.750000e-001
         vertex 7.500000e-003 -1.299038e-002 4.062500e-001
      endloop
   endfacet
   facet normal 3.437238e-001 -9.390708e-001 0.000000e+000
      outer loop
         vertex 7.500000e-003 -1.299038e-002 4.062500e-001
         vertex 7.500000e-003 -1.299038e-002 4.750000e-001
         vertex -3.571633e-018 -1.500000e-002 4.750000e-001
      endloop
   endfacet
   facet normal 0.000000e+000 -1.000000e+000 0.000000e+000
      outer loop
         vertex 1.500000e-002 -2.500000e-002 0.000000e+000
         vertex 2.377641e-002 -2.500000e-002 7.725418e-003
         vertex 1.299038e-002 -2.500000e-002 7.499993e-003
      endloop
   endfacet
   facet normal 0.000000e+000 -1.000000e+000 0.000000e+000
      outer loop
         vertex 1.299038e-002 -2.500000e-002 7.499993e-003
         vertex 2.377641e-002 -2.500000e-002 7.725418e-003
         vertex 1.857862e-002 -2.500000e-002 1.672827e-002
      endloop
   endfacet
   facet normal 0.000000e+000 -1.000000e+000 0.000000e+000
      outer loop
         vertex 1.299038e-002 -2.500000e-002 7.499993e-003
         vertex 1.857862e-002 -2.500000e-002 1.672827e-002
         vertex 7.500000e-003 -2.500000e-002 1.299039e-002
      endloop
   endfacet
   facet normal 0.000000e+000 -1.000000e+000 0.000000e+000
      outer loop
         vertex 7.500000e-003 -2.500000e-002 1.299039e-002
         vertex 1.857862e-002 -2.500000e-002 1.672827e-002
         vertex 1.016842e-002 -2.500000e-002 2.283864e-002
      endloop
   endfacet
   facet normal 0.000000e+000 -1.000000e+000 0.000000e+000
      outer loop
         vertex 7.500000e-003 -2.500000e-002 1.299039e-002
         vertex 1.016842e-002 -2.500000e-002 2.283864e-002
         vertex 8.622524e-018 -2.500000e-002 1.500000e-002
      endloop
   endfacet
   facet normal 0.000000e+000 -1.000000e+000 0.000000e+000
      outer loop
         vertex 8.622524e-018 -2.500000e-002 1.500000e-002
         vertex 1.016842e-002 -2.500000e-002 2.283864e-002
         vertex 1.683630e-018 -2.500000e-002 2.500001e-002
      endloop
   endfacet
   facet normal 0.000000e+000 -1.000000e+000 0.000000e+000
      outer loop
         vertex 8.622524e-018 -2.500000e-002 1.500000e-002
         vertex 1.683630e-018 -2.500000e-002 2.500001e-002
         vertex -7.500000e-003 -2.500000e-002 1.299039e-002
      endloop
   endfacet
   facet normal 0.000000e+000 -1.000000e+000 0.000000e+000
      outer loop
         vertex -7.500000e-003 -2.500000e-002 1.299039e-002
         vertex 1.683630e-018 -2.500000e-002 2.500001e-002
         vertex -1.016842e-002 -2.500000e-002 2.283864e-002
      endloop
   endfacet
   facet normal 0.000000e+000 -1.000000e+000 0.000000e+000
      outer loop
         vertex -7.500000e-003 -2.500000e-002 1.299039e-002
         vertex -1.016842e-002 -2.500000e-002 2.283864e-002
         vertex -1.299038e-002 -2.500000e-002 7.499993e-003
      endloop
   endfacet
   facet normal 0.000000e+000 -1.000000e+000 0.000000e+000
      outer loop
         vertex -1.016842e-002 -2.500000e-002 2.283864e-002
         vertex -1.857862e-002 -2.500000e-002 1.672827e-002
         vertex -1.299038e-002 -2.500000e-002 7.499993e-003
      endloop
   endfacet
   facet normal 0.000000e+000 -1.000000e+000 0.000000e+000
      outer loop
         vertex -1.299038e-002 -2.500000e-002 7.499993e-003
         vertex -1.857862e-002 -2.500000e-002 1.672827e-002
         vertex -2.377641e-002 -2.500000e-002 7.725418e-003
      endloop
   endfacet
   facet normal 0.000000e+000 -1.000000e+000 0.000000e+000
      outer loop
         vertex -1.299038e-002 -2.500000e-002 7.499993e-003
         vertex -2.377641e-002 -2.500000e-002 7.725418e-003
         vertex -1.500000e-002 -2.500000e-002 0.000000e+000
      endloop
   endfacet
   facet normal 0.000000e+000 -1.000000e+000 0.000000e+000
      outer loop
         vertex -1.500000e-002 -2.500000e-002 0.000000e+000
         vertex -2.377641e-002 -2.500000e-002 7.725418e-003
         vertex -2.486305e-002 -2.500000e-002 -2.613217e-003
      endloop
   endfacet
   facet normal 0.000000e+000 -1.000000e+000 0.000000e+000
      outer loop
         vertex -1.500000e-002 -2.500000e-002 0.000000e+000
         vertex -2.486305e-002 -2.500000e-002 -2.613217e-003
         vertex -1.299038e-002 -2.500000e-002 -7.499993e-003
      endloop
   endfacet
   facet normal 0.000000e+000 -1.000000e+000 0.000000e+000
      outer loop
         vertex -1.299038e-002 -2.500000e-002 -7.499993e-003
         vertex -2.486305e-002 -2.500000e-002 -2.613217e-003
         vertex -2.165063e-002 -2.500000e-002 -1.249999e-002
      endloop
   endfacet
   facet normal 0.000000e+000 -1.000000e+000 0.000000e+000
      outer loop
         vertex -1.299038e-002 -2.500000e-002 -7.499993e-003
         vertex -2.165063e-002 -2.500000e-002 -1.249999e-002
         vertex -7.500000e-003 -2.500000e-002 -1.299039e-002
      endloop
   endfacet
   facet normal 0.000000e+000 -1.000000e+000 0.000000e+000
      outer loop
         vertex -7.500000e-003 -2.500000e-002 -1.299039e-002
         vertex -2.165063e-002 -2.500000e-002 -1.249999e-002
         vertex -1.469463e-002 -2.500000e-002 -2.022544e-002
      endloop
   endfacet
   facet normal 0.000000e+000 -1.000000e+000 0.000000e+000
      outer loop
         vertex -7.500000e-003 -2.500000e-002 -1.299039e-002
         vertex -1.469463e-002 -2.500000e-002 -2.022544e-002
         vertex 1.683630e-018 -2.500000e-002 -1.499999e-002
      endloop
   endfacet
   facet normal 0.000000e+000 -1.000000e+000 0.000000e+000
      outer loop
         vertex -1.469463e-002 -2.500000e-002 -2.022544e-002
         vertex -5.197792e-003 -2.500000e-002 -2.445370e-002
         vertex 1.683630e-018 -2.500000e-002 -1.499999e-002
      endloop
   endfacet
   facet normal 0.000000e+000 -1.000000e+000 0.000000e+000
      outer loop
         vertex 1.683630e-018 -2.500000e-002 -1.499999e-002
         vertex -5.197792e-003 -2.500000e-002 -2.445370e-002
         vertex 5.197792e-003 -2.500000e-002 -2.445370e-002
      endloop
   endfacet
   facet normal 0.000000e+000 -1.000000e+000 0.000000e+000
      outer loop
         vertex 1.683630e-018 -2.500000e-002 -1.499999e-002
         vertex 5.197792e-003 -2.500000e-002 -2.445370e-002
         vertex 7.500000e-003 -2.500000e-002 -1.299039e-002
      endloop
   endfacet
   facet normal 0.000000e+000 -1.000000e+000 0.000000e+000
      outer loop
         vertex 7.500000e-003 -2.500000e-002 -1.299039e-002
         vertex 5.197792e-003 -2.500000e-002 -2.445370e-002
         vertex 1.469463e-002 -2.500000e-002 -2.022544e-002
      endloop
   endfacet
   facet normal 0.000000e+000 -1.000000e+000 0.000000e+000
      outer loop
         vertex 7.500000e-003 -2.500000e-002 -1.299039e-002
         vertex 1.469463e-002 -2.500000e-002 -2.022544e-002
         vertex 1.299038e-002 -2.500000e-002 -7.499993e-003
      endloop
   endfacet
   facet normal 0.000000e+000 -1.000000e+000 0.000000e+000
      outer loop
         vertex 1.299038e-002 -2.500000e-002 -7.499993e-003
         vertex 1.469463e-002 -2.500000e-002 -2.022544e-002
         vertex 2.165063e-002 -2.500000e-002 -1.249999e-002
      endloop
   endfacet
   facet normal 0.000000e+000 -1.000000e+000 0.000000e+000
      outer loop
         vertex 1.299038e-002 -2.500000e-002 -7.499993e-003
         vertex 2.165063e-002 -2.500000e-002 -1.249999e-002
         vertex 1.500000e-002 -2.500000e-002 0.000000e+000
      endloop
   endfacet
   facet normal 0.000000e+000 -1.000000e+000 0.000000e+000
      outer loop
         vertex 1.500000e-002 -2.500000e-002 0.000000e+000
         vertex 2.165063e-002 -2.500000e-002 -1.249999e-002
         vertex 2.486305e-002 -2.500000e-002 -2.613217e-003
      endloop
   endfacet
   facet normal 0.000000e+000 -1.000000e+000 0.000000e+000
      outer loop
         vertex 1.500000e-002 -2.500000e-002 0.000000e+000
         vertex 2.486305e-002 -2.500000e-002 -2.613217e-003
         vertex 2.377641e-002 -2.500000e-002 7.725418e-003
      endloop
   endfacet
   facet normal 0.000000e+000 1.000000e+000 -0.000000e+000
      outer loop
         vertex -1.500000e-002 2.500000e-002 0.000000e+000
         vertex -2.377641e-002 2.500000e-002 7.725418e-003
         vertex -1.299038e-002 2.500000e-002 7.499993e-003
      endloop
   endfacet
   facet normal 0.000000e+000 1.000000e+000 -0.000000e+000
      outer loop
         vertex -1.299038e-002 2.500000e-002 7.499993e-003
         vertex -2.377641e-002 2.500000e-002 7.725418e-003
         vertex -1.857862e-002 2.500000e-002 1.672827e-002
      endloop
   endfacet
   facet normal 0.000000e+000 1.000000e+000 -0.000000e+000
      outer loop
         vertex -1.299038e-002 2.500000e-002 7.499993e-003
         vertex -1.857862e-002 2.500000e-002 1.672827e-002
         vertex -7.500000e-003 2.500000e-002 1.299039e-002
      endloop
   endfacet
   facet normal 0.000000e+000 1.000000e+000 -0.000000e+000
      outer loop
         vertex -7.500000e-003 2.500000e-002 1.299039e-002
         vertex -1.857862e-002 2.500000e-002 1.672827e-002
         vertex -1.016842e-002 2.500000e-002 2.283864e-002
      endloop
   endfacet
   facet normal 0.000000e+000 1.000000e+000 -0.000000e+000
      outer loop
         vertex -7.500000e-003 2.500000e-002 1.299039e-002
         vertex -1.016842e-002 2.500000e-002 2.283864e-002
         vertex 8.622524e-018 2.500000e-002 1.500000e-002
      endloop
   endfacet
   facet normal 0.000000e+000 1.000000e+000 -0.000000e+000
      outer loop
         vertex -1.016842e-002 2.500000e-002 2.283864e-002
         vertex -5.255263e-018 2.500000e-002 2.500001e-002
         vertex 8.622524e-018 2.500000e-002 1.500000e-002
      endloop
   endfacet
   facet normal 0.000000e+000 1.000000e+000 -0.000000e+000
      outer loop
         vertex 8.622524e-018 2.500000e-002 1.500000e-002
         vertex -5.255263e-018 2.500000e-002 2.500001e-002
         vertex 1.016842e-002 2.500000e-002 2.283864e-002
      endloop
   endfacet
   facet normal 0.000000e+000 1.000000e+000 -0.000000e+000
      outer loop
         vertex 8.622524e-018 2.500000e-002 1.500000e-002
         vertex 1.016842e-002 2.500000e-002 2.283864e-002
         vertex 7.500000e-003 2.500000e-002 1.299039e-002
      endloop
   endfacet
   facet normal 0.000000e+000 1.000000e+000 -0.000000e+000
      outer loop
         vertex 7.500000e-003 2.500000e-002 1.299039e-002
         vertex 1.016842e-002 2.500000e-002 2.283864e-002
         vertex 1.299038e-002 2.500000e-002 7.499993e-003
      endloop
   endfacet
   facet normal 0.000000e+000 1.000000e+000 -0.000000e+000
      outer loop
         vertex 7.500000e-003 2.500000e-002 -1.299039e-002
         vertex 5.197792e-003 2.500000e-002 -2.445370e-002
         vertex -5.255263e-018 2.500000e-002 -1.499999e-002
      endloop
   endfacet
   facet normal 0.000000e+000 1.000000e+000 -0.000000e+000
      outer loop
         vertex -5.255263e-018 2.500000e-002 -1.499999e-002
         vertex 5.197792e-003 2.500000e-002 -2.445370e-002
         vertex -5.197792e-003 2.500000e-002 -2.445370e-002
      endloop
   endfacet
   facet normal 0.000000e+000 1.000000e+000 -0.000000e+000
      outer loop
         vertex -5.255263e-018 2.500000e-002 -1.499999e-002
         vertex -5.197792e-003 2.500000e-002 -2.445370e-002
         vertex -7.500000e-003 2.500000e-002 -1.299039e-002
      endloop
   endfacet
   facet normal 0.000000e+000 1.000000e+000 -0.000000e+000
      outer loop
         vertex -7.500000e-003 2.500000e-002 -1.299039e-002
         vertex -5.197792e-003 2.500000e-002 -2.445370e-002
         vertex -1.469463e-002 2.500000e-002 -2.022544e-002
      endloop
   endfacet
   facet normal 0.000000e+000 1.000000e+000 -0.000000e+000
      outer loop
         vertex -7.500000e-003 2.500000e-002 -1.299039e-002
         vertex -1.469463e-002 2.500000e-002 -2.022544e-002
         vertex -1.299038e-002 2.500000e-002 -7.499993e-003
      endloop
   endfacet
   facet normal 0.000000e+000 1.000000e+000 -0.000000e+000
      outer loop
         vertex -1.299038e-002 2.500000e-002 -7.499993e-003
         vertex -1.469463e-002 2.500000e-002 -2.022544e-002
         vertex -2.165063e-002 2.500000e-002 -1.249999e-002
      endloop
   endfacet
   facet normal 0.000000e+000 1.000000e+000 -0.000000e+000
      outer loop
         vertex -1.299038e-002 2.500000e-002 -7.499993e-003
         vertex -2.165063e-002 2.500000e-002 -1.249999e-002
         vertex -1.500000e-002 2.500000e-002 0.000000e+000
      endloop
   endfacet
   facet normal 0.000000e+000 1.000000e+000 -0.000000e+000
      outer loop
         vertex -1.500000e-002 2.500000e-002 0.000000e+000
         vertex -2.165063e-002 2.500000e-002 -1.249999e-002
         vertex -2.486305e-002 2.500000e-002 -2.613217e-003
      endloop
   endfacet
   facet normal 0.000000e+000 1.000000e+000 -0.000000e+000
      outer loop
         vertex -1.500000e-002 2.500000e-002 0.000000e+000
         vertex -2.486305e-002 2.500000e-002 -2.613217e-003
         vertex -2.377641e-002 2.500000e-002 7.725418e-003
      endloop
   endfacet
   facet normal 0.000000e+000 1.000000e+000 -0.000000e+000
      outer loop
         vertex 1.016842e-002 2.500000e-002 2.283864e-002
         vertex 1.857862e-002 2.500000e-002 1.672827e-002
         vertex 1.299038e-002 2.500000e-002 7.499993e-003
      endloop
   endfacet
   facet normal 0.000000e+000 1.000000e+000 -0.000000e+000
      outer loop
         vertex 1.299038e-002 2.500000e-002 7.499993e-003
         vertex 1.857862e-002 2.500000e-002 1.672827e-002
         vertex 2.377641e-002 2.500000e-002 7.725418e-003
      endloop
   endfacet
   facet normal 0.000000e+000 1.000000e+000 -0.000000e+000
      outer loop
         vertex 1.299038e-002 2.500000e-002 7.499993e-003
         vertex 2.377641e-002 2.500000e-002 7.725418e-003
         vertex 1.500000e-002 2.500000e-002 0.000000e+000
      endloop
   endfacet
   facet normal 0.000000e+000 1.000000e+000 -0.000000e+000
      outer loop
         vertex 1.500000e-002 2.500000e-002 0.000000e+000
         vertex 2.377641e-002 2.500000e-002 7.725418e-003
         vertex 2.486305e-002 2.500000e-002 -2.613217e-003
      endloop
   endfacet
   facet normal 0.000000e+000 1.000000e+000 -0.000000e+000
      outer loop
         vertex 1.500000e-002 2.500000e-002 0.000000e+000
         vertex 2.486305e-002 2.500000e-002 -2.613217e-003
         vertex 1.299038e-002 2.500000e-002 -7.499993e-003
      endloop
   endfacet
   facet normal 0.000000e+000 1.000000e+000 -0.000000e+000
      outer loop
         vertex 1.299038e-002 2.500000e-002 -7.499993e-003
         vertex 2.486305e-002 2.500000e-002 -2.613217e-003
         vertex 2.165063e-002 2.500000e-002 -1.249999e-002
      endloop
   endfacet
   facet normal 0.000000e+000 1.000000e+000 -0.000000e+000
      outer loop
         vertex 1.299038e-002 2.500000e-002 -7.499993e-003
         vertex 2.165063e-002 2.500000e-002 -1.249999e-002
         vertex 7.500000e-003 2.500000e-002 -1.299039e-002
      endloop
   endfacet
   facet normal 0.000000e+000 1.000000e+000 -0.000000e+000
      outer loop
         vertex 7.500000e-003 2.500000e-002 -1.299039e-002
         vertex 2.165063e-002 2.500000e-002 -1.249999e-002
         vertex 1.469463e-002 2.500000e-002 -2.022544e-002
      endloop
   endfacet
   facet normal 0.000000e+000 1.000000e+000 -0.000000e+000
      outer loop
         vertex 7.500000e-003 2.500000e-002 -1.299039e-002
         vertex 1.469463e-002 2.500000e-002 -2.022544e-002
         vertex 5.197792e-003 2.500000e-002 -2.445370e-002
      endloop
   endfacet
   facet normal 0.000000e+000 0.000000e+000 1.000000e+000
      outer loop
         vertex -1.500000e-002 1.387779e-017 4.062500e-001
         vertex -2.377641e-002 -7.725425e-003 4.062500e-001
         vertex -1.299038e-002 -7.500000e-003 4.062500e-001
      endloop
   endfacet
   facet normal 0.000000e+000 0.000000e+000 1.000000e+000
      outer loop
         vertex -1.299038e-002 -7.500000e-003 4.062500e-001
         vertex -2.377641e-002 -7.725425e-003 4.062500e-001
         vertex -1.857862e-002 -1.672827e-002 4.062500e-001
      endloop
   endfacet
   facet normal 0.000000e+000 0.000000e+000 1.000000e+000
      outer loop
         vertex -1.299038e-002 -7.500000e-003 4.062500e-001
         vertex -1.857862e-002 -1.672827e-002 4.062500e-001
         vertex -7.500000e-003 -1.299038e-002 4.062500e-001
      endloop
   endfacet
   facet normal 0.000000e+000 0.000000e+000 1.000000e+000
      outer loop
         vertex -7.500000e-003 -1.299038e-002 4.062500e-001
         vertex -1.857862e-002 -1.672827e-002 4.062500e-001
         vertex -1.016842e-002 -2.283864e-002 4.062500e-001
      endloop
   endfacet
   facet normal 0.000000e+000 0.000000e+000 1.000000e+000
      outer loop
         vertex -7.500000e-003 -1.299038e-002 4.062500e-001
         vertex -1.016842e-002 -2.283864e-002 4.062500e-001
         vertex -5.255263e-018 -1.500000e-002 4.062500e-001
      endloop
   endfacet
   facet normal 0.000000e+000 0.000000e+000 1.000000e+000
      outer loop
         vertex -5.255263e-018 -1.500000e-002 4.062500e-001
         vertex -1.016842e-002 -2.283864e-002 4.062500e-001
         vertex -1.219416e-017 -2.500000e-002 4.062500e-001
      endloop
   endfacet
   facet normal 0.000000e+000 0.000000e+000 1.000000e+000
      outer loop
         vertex -5.255263e-018 -1.500000e-002 4.062500e-001
         vertex -1.219416e-017 -2.500000e-002 4.062500e-001
         vertex 7.500000e-003 -1.299038e-002 4.062500e-001
      endloop
   endfacet
   facet normal 0.000000e+000 0.000000e+000 1.000000e+000
      outer loop
         vertex 7.500000e-003 -1.299038e-002 4.062500e-001
         vertex -1.219416e-017 -2.500000e-002 4.062500e-001
         vertex 1.016842e-002 -2.283864e-002 4.062500e-001
      endloop
   endfacet
   facet normal 0.000000e+000 0.000000e+000 1.000000e+000
      outer loop
         vertex 7.500000e-003 -1.299038e-002 4.062500e-001
         vertex 1.016842e-002 -2.283864e-002 4.062500e-001
         vertex 1.299038e-002 -7.500000e-003 4.062500e-001
      endloop
   endfacet
   facet normal 0.000000e+000 0.000000e+000 1.000000e+000
      outer loop
         vertex 5.153078e-018 1.500000e-002 4.062500e-001
         vertex -5.197792e-003 2.445369e-002 4.062500e-001
         vertex -7.500000e-003 1.299038e-002 4.062500e-001
      endloop
   endfacet
   facet normal 0.000000e+000 0.000000e+000 1.000000e+000
      outer loop
         vertex -7.500000e-003 1.299038e-002 4.062500e-001
         vertex -5.197792e-003 2.445369e-002 4.062500e-001
         vertex -1.469463e-002 2.022542e-002 4.062500e-001
      endloop
   endfacet
   facet normal 0.000000e+000 0.000000e+000 1.000000e+000
      outer loop
         vertex -7.500000e-003 1.299038e-002 4.062500e-001
         vertex -1.469463e-002 2.022542e-002 4.062500e-001
         vertex -1.299038e-002 7.500000e-003 4.062500e-001
      endloop
   endfacet
   facet normal 0.000000e+000 0.000000e+000 1.000000e+000
      outer loop
         vertex -1.299038e-002 7.500000e-003 4.062500e-001
         vertex -1.469463e-002 2.022542e-002 4.062500e-001
         vertex -2.165063e-002 1.250000e-002 4.062500e-001
      endloop
   endfacet
   facet normal 0.000000e+000 0.000000e+000 1.000000e+000
      outer loop
         vertex -1.299038e-002 7.500000e-003 4.062500e-001
         vertex -2.165063e-002 1.250000e-002 4.062500e-001
         vertex -1.500000e-002 1.387779e-017 4.062500e-001
      endloop
   endfacet
   facet normal 0.000000e+000 0.000000e+000 1.000000e+000
      outer loop
         vertex -1.500000e-002 1.387779e-017 4.062500e-001
         vertex -2.165063e-002 1.250000e-002 4.062500e-001
         vertex -2.486305e-002 2.613212e-003 4.062500e-001
      endloop
   endfacet
   facet normal 0.000000e+000 0.000000e+000 1.000000e+000
      outer loop
         vertex -1.500000e-002 1.387779e-017 4.062500e-001
         vertex -2.486305e-002 2.613212e-003 4.062500e-001
         vertex -2.377641e-002 -7.725425e-003 4.062500e-001
      endloop
   endfacet
   facet normal 0.000000e+000 0.000000e+000 1.000000e+000
      outer loop
         vertex 1.016842e-002 -2.283864e-002 4.062500e-001
         vertex 1.857862e-002 -1.672827e-002 4.062500e-001
         vertex 1.299038e-002 -7.500000e-003 4.062500e-001
      endloop
   endfacet
   facet normal 0.000000e+000 0.000000e+000 1.000000e+000
      outer loop
         vertex 1.299038e-002 -7.500000e-003 4.062500e-001
         vertex 1.857862e-002 -1.672827e-002 4.062500e-001
         vertex 2.377641e-002 -7.725425e-003 4.062500e-001
      endloop
   endfacet
   facet normal 0.000000e+000 0.000000e+000 1.000000e+000
      outer loop
         vertex 1.299038e-002 -7.500000e-003 4.062500e-001
         vertex 2.377641e-002 -7.725425e-003 4.062500e-001
         vertex 1.500000e-002 -6.938894e-018 4.062500e-001
      endloop
   endfacet
   facet normal 0.000000e+000 0.000000e+000 1.000000e+000
      outer loop
         vertex 1.500000e-002 -6.938894e-018 4.062500e-001
         vertex 2.377641e-002 -7.725425e-003 4.062500e-001
         vertex 2.486305e-002 2.613212e-003 4.062500e-001
      endloop
   endfacet
   facet normal 0.000000e+000 0.000000e+000 1.000000e+000
      outer loop
         vertex 1.500000e-002 -6.938894e-018 4.062500e-001
         vertex 2.486305e-002 2.613212e-003 4.062500e-001
         vertex 1.299038e-002 7.500000e-003 4.062500e-001
      endloop
   endfacet
   facet normal 0.000000e+000 0.000000e+000 1.000000e+000
      outer loop
         vertex 1.299038e-002 7.500000e-003 4.062500e-001
         vertex 2.486305e-002 2.613212e-003 4.062500e-001
         vertex 2.165063e-002 1.250000e-002 4.062500e-001
      endloop
   endfacet
   facet normal 0.000000e+000 0.000000e+000 1.000000e+000
      outer loop
         vertex 1.299038e-002 7.500000e-003 4.062500e-001
         vertex 2.165063e-002 1.250000e-002 4.062500e-001
         vertex 7.500000e-003 1.299038e-002 4.062500e-001
      endloop
   endfacet
   facet normal 0.000000e+000 0.000000e+000 1.000000e+000
      outer loop
         vertex 7.500000e-003 1.299038e-002 4.062500e-001
         vertex 2.165063e-002 1.250000e-002 4.062500e-001
         vertex 1.469463e-002 2.022542e-002 4.062500e-001
      endloop
   endfacet
   facet normal 0.000000e+000 0.000000e+000 1.000000e+000
      outer loop
         vertex 7.500000e-003 1.299038e-002 4.062500e-001
         vertex 1.469463e-002 2.022542e-002 4.062500e-001
         vertex 5.153078e-018 1.500000e-002 4.062500e-001
      endloop
   endfacet
   facet normal 0.000000e+000 0.000000e+000 1.000000e+000
      outer loop
         vertex 5.153078e-018 1.500000e-002 4.062500e-001
         vertex 1.469463e-002 2.022542e-002 4.062500e-001
         vertex 5.197792e-003 2.445369e-002 4.062500e-001
      endloop
   endfacet
   facet normal 0.000000e+000 0.000000e+000 1.000000e+000
      outer loop
         vertex 5.153078e-018 1.500000e-002 4.062500e-001
         vertex 5.197792e-003 2.445369e-002 4.062500e-001
         vertex -5.197792e-003 2.445369e-002 4.062500e-001
      endloop
   endfacet
   facet normal 3.716961e-001 0.000000e+000 9.283545e-001
      outer loop
         vertex 7.500000e-003 1.299038e-002 2.384847e-002
         vertex 1.016842e-002 1.102739e-002 2.283864e-002
         vertex 1.016842e-002 2.500000e-002 2.283864e-002
      endloop
   endfacet
   facet normal -3.716961e-001 0.000000e+000 9.283545e-001
      outer loop
         vertex -7.500000e-003 -1.299038e-002 2.384847e-002
         vertex -1.016842e-002 -1.102739e-002 2.283864e-002
         vertex -1.016842e-002 -2.500000e-002 2.283864e-002
      endloop
   endfacet
   facet normal -5.291381e-001 0.000000e+000 8.485357e-001
      outer loop
         vertex -1.016842e-002 -2.500000e-002 2.283864e-002
         vertex -1.016842e-002 -1.102739e-002 2.283864e-002
         vertex -1.857862e-002 -2.500000e-002 1.672827e-002
      endloop
   endfacet
   facet normal -5.651504e-001 0.000000e+000 8.249879e-001
      outer loop
         vertex -1.016842e-002 -1.102739e-002 2.283864e-002
         vertex -1.299038e-002 -7.500000e-003 2.136001e-002
         vertex -1.857862e-002 -2.500000e-002 1.672827e-002
      endloop
   endfacet
   facet normal -6.186946e-001 0.000000e+000 7.856316e-001
      outer loop
         vertex -1.857862e-002 -2.500000e-002 1.672827e-002
         vertex -1.299038e-002 -7.500000e-003 2.136001e-002
         vertex -1.447692e-002 -3.926663e-003 2.038182e-002
      endloop
   endfacet
   facet normal -6.438444e-001 0.000000e+000 7.651564e-001
      outer loop
         vertex -1.857862e-002 -2.500000e-002 1.672827e-002
         vertex -1.447692e-002 -3.926663e-003 2.038182e-002
         vertex -1.500000e-002 1.387779e-017 2.000000e-002
      endloop
   endfacet
   facet normal -4.451668e-001 0.000000e+000 8.954477e-001
      outer loop
         vertex -1.016842e-002 1.102739e-002 2.283864e-002
         vertex -1.016842e-002 2.500000e-002 2.283864e-002
         vertex -1.299038e-002 7.500000e-003 2.136001e-002
      endloop
   endfacet
   facet normal -5.651504e-001 0.000000e+000 8.249879e-001
      outer loop
         vertex -1.299038e-002 7.500000e-003 2.136001e-002
         vertex -1.016842e-002 2.500000e-002 2.283864e-002
         vertex -1.857862e-002 2.500000e-002 1.672827e-002
      endloop
   endfacet
   facet normal -6.186616e-001 0.000000e+000 7.856575e-001
      outer loop
         vertex -1.299038e-002 7.500000e-003 2.136001e-002
         vertex -1.857862e-002 2.500000e-002 1.672827e-002
         vertex -1.447438e-002 3.936048e-003 2.038363e-002
      endloop
   endfacet
   facet normal -6.438125e-001 0.000000e+000 7.651833e-001
      outer loop
         vertex -1.447438e-002 3.936048e-003 2.038363e-002
         vertex -1.857862e-002 2.500000e-002 1.672827e-002
         vertex -1.500000e-002 1.387779e-017 2.000000e-002
      endloop
   endfacet
   facet normal 3.716961e-001 0.000000e+000 9.283545e-001
      outer loop
         vertex 1.016842e-002 -1.102739e-002 2.283864e-002
         vertex 7.500000e-003 -1.299038e-002 2.384847e-002
         vertex 1.016842e-002 -2.500000e-002 2.283864e-002
      endloop
   endfacet
   facet normal 2.894368e-001 0.000000e+000 9.571971e-001
      outer loop
         vertex 1.016842e-002 -2.500000e-002 2.283864e-002
         vertex 7.500000e-003 -1.299038e-002 2.384847e-002
         vertex 3.915028e-003 -1.448007e-002 2.469155e-002
      endloop
   endfacet
   facet normal 1.906134e-001 0.000000e+000 9.816652e-001
      outer loop
         vertex 1.016842e-002 -2.500000e-002 2.283864e-002
         vertex 3.915028e-003 -1.448007e-002 2.469155e-002
         vertex 1.479665e-018 -2.500000e-002 2.500001e-002
      endloop
   endfacet
   facet normal 5.234409e-002 0.000000e+000 9.986291e-001
      outer loop
         vertex 1.479665e-018 -2.500000e-002 2.500001e-002
         vertex 3.915028e-003 -1.448007e-002 2.469155e-002
         vertex 1.479665e-018 -1.500000e-002 2.500001e-002
      endloop
   endfacet
   facet normal -1.382612e-001 0.000000e+000 9.903958e-001
      outer loop
         vertex 1.479665e-018 -2.500000e-002 2.500001e-002
         vertex 1.479665e-018 -1.500000e-002 2.500001e-002
         vertex -1.016842e-002 -2.500000e-002 2.283864e-002
      endloop
   endfacet
   facet normal -1.907323e-001 0.000000e+000 9.816421e-001
      outer loop
         vertex -1.016842e-002 -2.500000e-002 2.283864e-002
         vertex 1.479665e-018 -1.500000e-002 2.500001e-002
         vertex -3.923866e-003 -1.447768e-002 2.469015e-002
      endloop
   endfacet
   facet normal -2.895506e-001 0.000000e+000 9.571627e-001
      outer loop
         vertex -1.016842e-002 -2.500000e-002 2.283864e-002
         vertex -3.923866e-003 -1.447768e-002 2.469015e-002
         vertex -7.500000e-003 -1.299038e-002 2.384847e-002
      endloop
   endfacet
   facet normal 5.291381e-001 0.000000e+000 8.485357e-001
      outer loop
         vertex 1.016842e-002 2.500000e-002 2.283864e-002
         vertex 1.016842e-002 1.102739e-002 2.283864e-002
         vertex 1.857862e-002 2.500000e-002 1.672827e-002
      endloop
   endfacet
   facet normal 5.651504e-001 0.000000e+000 8.249879e-001
      outer loop
         vertex 1.016842e-002 1.102739e-002 2.283864e-002
         vertex 1.299038e-002 7.500000e-003 2.136001e-002
         vertex 1.857862e-002 2.500000e-002 1.672827e-002
      endloop
   endfacet
   facet normal 6.186946e-001 0.000000e+000 7.856316e-001
      outer loop
         vertex 1.857862e-002 2.500000e-002 1.672827e-002
         vertex 1.299038e-002 7.500000e-003 2.136001e-002
         vertex 1.447692e-002 3.926663e-003 2.038182e-002
      endloop
   endfacet
   facet normal 6.438444e-001 0.000000e+000 7.651564e-001
      outer loop
         vertex 1.857862e-002 2.500000e-002 1.672827e-002
         vertex 1.447692e-002 3.926663e-003 2.038182e-002
         vertex 1.500000e-002 -3.469447e-018 2.000000e-002
      endloop
   endfacet
   facet normal 4.451668e-001 0.000000e+000 8.954477e-001
      outer loop
         vertex 1.016842e-002 -1.102739e-002 2.283864e-002
         vertex 1.016842e-002 -2.500000e-002 2.283864e-002
         vertex 1.299038e-002 -7.500000e-003 2.136001e-002
      endloop
   endfacet
   facet normal 5.651504e-001 0.000000e+000 8.249879e-001
      outer loop
         vertex 1.299038e-002 -7.500000e-003 2.136001e-002
         vertex 1.016842e-002 -2.500000e-002 2.283864e-002
         vertex 1.857862e-002 -2.500000e-002 1.672827e-002
      endloop
   endfacet
   facet normal 6.186616e-001 0.000000e+000 7.856575e-001
      outer loop
         vertex 1.299038e-002 -7.500000e-003 2.136001e-002
         vertex 1.857862e-002 -2.500000e-002 1.672827e-002
         vertex 1.447438e-002 -3.936048e-003 2.038363e-002
      endloop
   endfacet
   facet normal -3.716961e-001 0.000000e+000 9.283545e-001
      outer loop
         vertex -1.016842e-002 1.102739e-002 2.283864e-002
         vertex -7.500000e-003 1.299038e-002 2.384847e-002
         vertex -1.016842e-002 2.500000e-002 2.283864e-002
      endloop
   endfacet
   facet normal -2.894368e-001 0.000000e+000 9.571971e-001
      outer loop
         vertex -1.016842e-002 2.500000e-002 2.283864e-002
         vertex -7.500000e-003 1.299038e-002 2.384847e-002
         vertex -3.915028e-003 1.448007e-002 2.469155e-002
      endloop
   endfacet
   facet normal -1.906134e-001 0.000000e+000 9.816652e-001
      outer loop
         vertex -1.016842e-002 2.500000e-002 2.283864e-002
         vertex -3.915028e-003 1.448007e-002 2.469155e-002
         vertex 1.479665e-018 2.500000e-002 2.500001e-002
      endloop
   endfacet
   facet normal -5.234409e-002 0.000000e+000 9.986291e-001
      outer loop
         vertex 1.479665e-018 2.500000e-002 2.500001e-002
         vertex -3.915028e-003 1.448007e-002 2.469155e-002
         vertex 1.479665e-018 1.500000e-002 2.500001e-002
      endloop
   endfacet
   facet normal 1.382612e-001 0.000000e+000 9.903958e-001
      outer loop
         vertex 1.479665e-018 2.500000e-002 2.500001e-002
         vertex 1.479665e-018 1.500000e-002 2.500001e-002
         vertex 1.016842e-002 2.500000e-002 2.283864e-002
      endloop
   endfacet
   facet normal 1.907323e-001 0.000000e+000 9.816421e-001
      outer loop
         vertex 1.016842e-002 2.500000e-002 2.283864e-002
         vertex 1.479665e-018 1.500000e-002 2.500001e-002
         vertex 3.923866e-003 1.447768e-002 2.469015e-002
      endloop
   endfacet
   facet normal 2.895506e-001 0.000000e+000 9.571627e-001
      outer loop
         vertex 1.016842e-002 2.500000e-002 2.283864e-002
         vertex 3.923866e-003 1.447768e-002 2.469015e-002
         vertex 7.500000e-003 1.299038e-002 2.384847e-002
      endloop
   endfacet
   facet normal -6.983549e-001 0.000000e+000 7.157517e-001
      outer loop
         vertex -1.500000e-002 1.387779e-017 2.000000e-002
         vertex -1.857862e-002 2.500000e-002 1.672827e-002
         vertex -1.857862e-002 -2.500000e-002 1.672827e-002
      endloop
   endfacet
   facet normal -8.285223e-001 0.000000e+000 5.599561e-001
      outer loop
         vertex -1.857862e-002 -2.500000e-002 1.672827e-002
         vertex -1.857862e-002 2.500000e-002 1.672827e-002
         vertex -2.377641e-002 2.500000e-002 7.725418e-003
      endloop
   endfacet
   facet normal -8.991973e-001 0.000000e+000 4.375433e-001
      outer loop
         vertex -1.857862e-002 -2.500000e-002 1.672827e-002
         vertex -2.377641e-002 2.500000e-002 7.725418e-003
         vertex -2.377641e-002 -2.500000e-002 7.725418e-003
      endloop
   endfacet
   facet normal -9.846475e-001 0.000000e+000 1.745549e-001
      outer loop
         vertex -2.377641e-002 -2.500000e-002 7.725418e-003
         vertex -2.377641e-002 2.500000e-002 7.725418e-003
         vertex -2.486305e-002 2.500000e-002 -2.613217e-003
      endloop
   endfacet
   facet normal -9.994226e-001 0.000000e+000 3.397924e-002
      outer loop
         vertex -2.377641e-002 -2.500000e-002 7.725418e-003
         vertex -2.486305e-002 2.500000e-002 -2.613217e-003
         vertex -2.486305e-002 -2.500000e-002 -2.613217e-003
      endloop
   endfacet
   facet normal -9.705181e-001 -0.000000e+000 -2.410283e-001
      outer loop
         vertex -2.486305e-002 -2.500000e-002 -2.613217e-003
         vertex -2.486305e-002 2.500000e-002 -2.613217e-003
         vertex -2.165063e-002 2.500000e-002 -1.249999e-002
      endloop
   endfacet
   facet normal -9.268385e-001 -0.000000e+000 -3.754602e-001
      outer loop
         vertex -2.486305e-002 -2.500000e-002 -2.613217e-003
         vertex -2.165063e-002 2.500000e-002 -1.249999e-002
         vertex -2.165063e-002 -2.500000e-002 -1.249999e-002
      endloop
   endfacet
   facet normal -7.885774e-001 -0.000000e+000 -6.149356e-001
      outer loop
         vertex -2.165063e-002 -2.500000e-002 -1.249999e-002
         vertex -2.165063e-002 2.500000e-002 -1.249999e-002
         vertex -1.469463e-002 2.500000e-002 -2.022544e-002
      endloop
   endfacet
   facet normal -6.939957e-001 -0.000000e+000 -7.199791e-001
      outer loop
         vertex -2.165063e-002 -2.500000e-002 -1.249999e-002
         vertex -1.469463e-002 2.500000e-002 -2.022544e-002
         vertex -1.469463e-002 -2.500000e-002 -2.022544e-002
      endloop
   endfacet
   facet normal -4.702844e-001 -0.000000e+000 -8.825150e-001
      outer loop
         vertex -1.469463e-002 -2.500000e-002 -2.022544e-002
         vertex -1.469463e-002 2.500000e-002 -2.022544e-002
         vertex -5.197792e-003 2.500000e-002 -2.445370e-002
      endloop
   endfacet
   facet normal -3.411547e-001 -0.000000e+000 -9.400072e-001
      outer loop
         vertex -1.469463e-002 -2.500000e-002 -2.022544e-002
         vertex -5.197792e-003 2.500000e-002 -2.445370e-002
         vertex -5.197792e-003 -2.500000e-002 -2.445370e-002
      endloop
   endfacet
   facet normal -7.067501e-002 -0.000000e+000 -9.974994e-001
      outer loop
         vertex -5.197792e-003 -2.500000e-002 -2.445370e-002
         vertex -5.197792e-003 2.500000e-002 -2.445370e-002
         vertex 5.197792e-003 2.500000e-002 -2.445370e-002
      endloop
   endfacet
   facet normal 7.067501e-002 0.000000e+000 -9.974994e-001
      outer loop
         vertex -5.197792e-003 -2.500000e-002 -2.445370e-002
         vertex 5.197792e-003 2.500000e-002 -2.445370e-002
         vertex 5.197792e-003 -2.500000e-002 -2.445370e-002
      endloop
   endfacet
   facet normal 3.411547e-001 0.000000e+000 -9.400072e-001
      outer loop
         vertex 5.197792e-003 -2.500000e-002 -2.445370e-002
         vertex 5.197792e-003 2.500000e-002 -2.445370e-002
         vertex 1.469463e-002 2.500000e-002 -2.022544e-002
      endloop
   endfacet
   facet normal 4.702844e-001 0.000000e+000 -8.825150e-001
      outer loop
         vertex 5.197792e-003 -2.500000e-002 -2.445370e-002
         vertex 1.469463e-002 2.500000e-002 -2.022544e-002
         vertex 1.469463e-002 -2.500000e-002 -2.022544e-002
      endloop
   endfacet
   facet normal 6.939957e-001 0.000000e+000 -7.199791e-001
      outer loop
         vertex 1.469463e-002 -2.500000e-002 -2.022544e-002
         vertex 1.469463e-002 2.500000e-002 -2.022544e-002
         vertex 2.165063e-002 2.500000e-002 -1.249999e-002
      endloop
   endfacet
   facet normal 7.885774e-001 0.000000e+000 -6.149356e-001
      outer loop
         vertex 1.469463e-002 -2.500000e-002 -2.022544e-002
         vertex 2.165063e-002 2.500000e-002 -1.249999e-002
         vertex 2.165063e-002 -2.500000e-002 -1.249999e-002
      endloop
   endfacet
   facet normal 9.268385e-001 0.000000e+000 -3.754602e-001
      outer loop
         vertex 2.165063e-002 -2.500000e-002 -1.249999e-002
         vertex 2.165063e-002 2.500000e-002 -1.249999e-002
         vertex 2.486305e-002 2.500000e-002 -2.613217e-003
      endloop
   endfacet
   facet normal 9.705181e-001 0.000000e+000 -2.410284e-001
      outer loop
         vertex 2.165063e-002 -2.500000e-002 -1.249999e-002
         vertex 2.486305e-002 2.500000e-002 -2.613217e-003
         vertex 2.486305e-002 -2.500000e-002 -2.613217e-003
      endloop
   endfacet
   facet normal 9.994226e-001 0.000000e+000 3.397923e-002
      outer loop
         vertex 2.486305e-002 -2.500000e-002 -2.613217e-003
         vertex 2.486305e-002 2.500000e-002 -2.613217e-003
         vertex 2.377641e-002 2.500000e-002 7.725418e-003
      endloop
   endfacet
   facet normal 9.846475e-001 0.000000e+000 1.745549e-001
      outer loop
         vertex 2.486305e-002 -2.500000e-002 -2.613217e-003
         vertex 2.377641e-002 2.500000e-002 7.725418e-003
         vertex 2.377641e-002 -2.500000e-002 7.725418e-003
      endloop
   endfacet
   facet normal 8.991973e-001 0.000000e+000 4.375433e-001
      outer loop
         vertex 2.377641e-002 -2.500000e-002 7.725418e-003
         vertex 2.377641e-002 2.500000e-002 7.725418e-003
         vertex 1.857862e-002 2.500000e-002 1.672827e-002
      endloop
   endfacet
   facet normal 8.285223e-001 0.000000e+000 5.599561e-001
      outer loop
         vertex 2.377641e-002 -2.500000e-002 7.725418e-003
         vertex 1.857862e-002 2.500000e-002 1.672827e-002
         vertex 1.857862e-002 -2.500000e-002 1.672827e-002
      endloop
   endfacet
   facet normal 6.983549e-001 0.000000e+000 7.157517e-001
      outer loop
         vertex 1.857862e-002 -2.500000e-002 1.672827e-002
         vertex 1.857862e-002 2.500000e-002 1.672827e-002
         vertex 1.500000e-002 -3.469447e-018 2.000000e-002
      endloop
   endfacet
   facet normal 6.438125e-001 0.000000e+000 7.651833e-001
      outer loop
         vertex 1.857862e-002 -2.500000e-002 1.672827e-002
         vertex 1.500000e-002 -3.469447e-018 2.000000e-002
         vertex 1.447438e-002 -3.936048e-003 2.038363e-002
      endloop
   endfacet
   facet normal 1.382612e-001 -9.903958e-001 0.000000e+000
      outer loop
         vertex 1.016842e-002 -2.283864e-002 3.962500e-001
         vertex -5.051298e-018 -2.500000e-002 4.062500e-001
         vertex -5.051298e-018 -2.500000e-002 3.962500e-001
      endloop
   endfacet
   facet normal -1.382612e-001 -9.903958e-001 0.000000e+000
      outer loop
         vertex -5.051298e-018 -2.500000e-002 3.962500e-001
         vertex -5.051298e-018 -2.500000e-002 4.062500e-001
         vertex -1.016842e-002 -2.283864e-002 4.062500e-001
      endloop
   endfacet
   facet normal -2.765224e-001 -9.610075e-001 0.000000e+000
      outer loop
         vertex -5.051298e-018 -2.500000e-002 3.962500e-001
         vertex -1.016842e-002 -2.283864e-002 4.062500e-001
         vertex -1.016842e-002 -2.283864e-002 3.962500e-001
      endloop
   endfacet
   facet normal -5.291381e-001 -8.485357e-001 0.000000e+000
      outer loop
         vertex -1.016842e-002 -2.283864e-002 3.962500e-001
         vertex -1.016842e-002 -2.283864e-002 4.062500e-001
         vertex -1.857862e-002 -1.672827e-002 4.062500e-001
      endloop
   endfacet
   facet normal -6.434927e-001 -7.654522e-001 0.000000e+000
      outer loop
         vertex -1.016842e-002 -2.283864e-002 3.962500e-001
         vertex -1.857862e-002 -1.672827e-002 4.062500e-001
         vertex -1.857862e-002 -1.672827e-002 3.962500e-001
      endloop
   endfacet
   facet normal -8.285223e-001 -5.599561e-001 0.000000e+000
      outer loop
         vertex -1.857862e-002 -1.672827e-002 3.962500e-001
         vertex -1.857862e-002 -1.672827e-002 4.062500e-001
         vertex -2.377641e-002 -7.725425e-003 4.062500e-001
      endloop
   endfacet
   facet normal -8.991973e-001 -4.375433e-001 0.000000e+000
      outer loop
         vertex -1.857862e-002 -1.672827e-002 3.962500e-001
         vertex -2.377641e-002 -7.725425e-003 4.062500e-001
         vertex -2.377641e-002 -7.725425e-003 3.962500e-001
      endloop
   endfacet
   facet normal -9.846475e-001 -1.745549e-001 0.000000e+000
      outer loop
         vertex -2.377641e-002 -7.725425e-003 3.962500e-001
         vertex -2.377641e-002 -7.725425e-003 4.062500e-001
         vertex -2.486305e-002 2.613212e-003 4.062500e-001
      endloop
   endfacet
   facet normal -9.994226e-001 -3.397924e-002 0.000000e+000
      outer loop
         vertex -2.377641e-002 -7.725425e-003 3.962500e-001
         vertex -2.486305e-002 2.613212e-003 4.062500e-001
         vertex -2.486305e-002 2.613212e-003 3.962500e-001
      endloop
   endfacet
   facet normal -9.705181e-001 2.410283e-001 0.000000e+000
      outer loop
         vertex -2.486305e-002 2.613212e-003 3.962500e-001
         vertex -2.486305e-002 2.613212e-003 4.062500e-001
         vertex -2.165063e-002 1.250000e-002 4.062500e-001
      endloop
   endfacet
   facet normal -9.268385e-001 3.754602e-001 0.000000e+000
      outer loop
         vertex -2.486305e-002 2.613212e-003 3.962500e-001
         vertex -2.165063e-002 1.250000e-002 4.062500e-001
         vertex -2.165063e-002 1.250000e-002 3.962500e-001
      endloop
   endfacet
   facet normal -7.885774e-001 6.149356e-001 0.000000e+000
      outer loop
         vertex -2.165063e-002 1.250000e-002 3.962500e-001
         vertex -2.165063e-002 1.250000e-002 4.062500e-001
         vertex -1.469463e-002 2.022542e-002 4.062500e-001
      endloop
   endfacet
   facet normal -6.939957e-001 7.199791e-001 0.000000e+000
      outer loop
         vertex -2.165063e-002 1.250000e-002 3.962500e-001
         vertex -1.469463e-002 2.022542e-002 4.062500e-001
         vertex -1.469463e-002 2.022542e-002 3.962500e-001
      endloop
   endfacet
   facet normal -4.702844e-001 8.825150e-001 0.000000e+000
      outer loop
         vertex -1.469463e-002 2.022542e-002 3.962500e-001
         vertex -1.469463e-002 2.022542e-002 4.062500e-001
         vertex -5.197792e-003 2.445369e-002 4.062500e-001
      endloop
   endfacet
   facet normal -3.411547e-001 9.400072e-001 0.000000e+000
      outer loop
         vertex -1.469463e-002 2.022542e-002 3.962500e-001
         vertex -5.197792e-003 2.445369e-002 4.062500e-001
         vertex -5.197792e-003 2.445369e-002 3.962500e-001
      endloop
   endfacet
   facet normal -7.067501e-002 9.974994e-001 0.000000e+000
      outer loop
         vertex -5.197792e-003 2.445369e-002 3.962500e-001
         vertex -5.197792e-003 2.445369e-002 4.062500e-001
         vertex 5.197792e-003 2.445369e-002 4.062500e-001
      endloop
   endfacet
   facet normal 7.067501e-002 9.974994e-001 -0.000000e+000
      outer loop
         vertex -5.197792e-003 2.445369e-002 3.962500e-001
         vertex 5.197792e-003 2.445369e-002 4.062500e-001
         vertex 5.197792e-003 2.445369e-002 3.962500e-001
      endloop
   endfacet
   facet normal 3.411547e-001 9.400072e-001 -0.000000e+000
      outer loop
         vertex 5.197792e-003 2.445369e-002 3.962500e-001
         vertex 5.197792e-003 2.445369e-002 4.062500e-001
         vertex 1.469463e-002 2.022542e-002 4.062500e-001
      endloop
   endfacet
   facet normal 4.702844e-001 8.825150e-001 -0.000000e+000
      outer loop
         vertex 5.197792e-003 2.445369e-002 3.962500e-001
         vertex 1.469463e-002 2.022542e-002 4.062500e-001
         vertex 1.469463e-002 2.022542e-002 3.962500e-001
      endloop
   endfacet
   facet normal 6.939957e-001 7.199791e-001 -0.000000e+000
      outer loop
         vertex 1.469463e-002 2.022542e-002 3.962500e-001
         vertex 1.469463e-002 2.022542e-002 4.062500e-001
         vertex 2.165063e-002 1.250000e-002 4.062500e-001
      endloop
   endfacet
   facet normal 7.885774e-001 6.149356e-001 -0.000000e+000
      outer loop
         vertex 1.469463e-002 2.022542e-002 3.962500e-001
         vertex 2.165063e-002 1.250000e-002 4.062500e-001
         vertex 2.165063e-002 1.250000e-002 3.962500e-001
      endloop
   endfacet
   facet normal 9.268385e-001 3.754602e-001 -0.000000e+000
      outer loop
         vertex 2.165063e-002 1.250000e-002 3.962500e-001
         vertex 2.165063e-002 1.250000e-002 4.062500e-001
         vertex 2.486305e-002 2.613212e-003 4.062500e-001
      endloop
   endfacet
   facet normal 9.705181e-001 2.410284e-001 -0.000000e+000
      outer loop
         vertex 2.165063e-002 1.250000e-002 3.962500e-001
         vertex 2.486305e-002 2.613212e-003 4.062500e-001
         vertex 2.486305e-002 2.613212e-003 3.962500e-001
      endloop
   endfacet
   facet normal 9.994226e-001 -3.397923e-002 0.000000e+000
      outer loop
         vertex 2.486305e-002 2.613212e-003 3.962500e-001
         vertex 2.486305e-002 2.613212e-003 4.062500e-001
         vertex 2.377641e-002 -7.725425e-003 4.062500e-001
      endloop
   endfacet
   facet normal 9.846475e-001 -1.745549e-001 0.000000e+000
      outer loop
         vertex 2.486305e-002 2.613212e-003 3.962500e-001
         vertex 2.377641e-002 -7.725425e-003 4.062500e-001
         vertex 2.377641e-002 -7.725425e-003 3.962500e-001
      endloop
   endfacet
   facet normal 8.991973e-001 -4.375433e-001 0.000000e+000
      outer loop
         vertex 2.377641e-002 -7.725425e-003 3.962500e-001
         vertex 2.377641e-002 -7.725425e-003 4.062500e-001
         vertex 1.857862e-002 -1.672827e-002 4.062500e-001
      endloop
   endfacet
   facet normal 8.285223e-001 -5.599561e-001 0.000000e+000
      outer loop
         vertex 2.377641e-002 -7.725425e-003 3.962500e-001
         vertex 1.857862e-002 -1.672827e-002 4.062500e-001
         vertex 1.857862e-002 -1.672827e-002 3.962500e-001
      endloop
   endfacet
   facet normal 6.434927e-001 -7.654523e-001 0.000000e+000
      outer loop
         vertex 1.857862e-002 -1.672827e-002 3.962500e-001
         vertex 1.857862e-002 -1.672827e-002 4.062500e-001
         vertex 1.016842e-002 -2.283864e-002 4.062500e-001
      endloop
   endfacet
   facet normal 5.291381e-001 -8.485357e-001 0.000000e+000
      outer loop
         vertex 1.857862e-002 -1.672827e-002 3.962500e-001
         vertex 1.016842e-002 -2.283864e-002 4.062500e-001
         vertex 1.016842e-002 -2.283864e-002 3.962500e-001
      endloop
   endfacet
   facet normal 2.765224e-001 -9.610075e-001 0.000000e+000
      outer loop
         vertex 1.016842e-002 -2.283864e-002 3.962500e-001
         vertex 1.016842e-002 -2.283864e-002 4.062500e-001
         vertex -5.051298e-018 -2.500000e-002 4.062500e-001
      endloop
   endfacet
   facet normal 4.234977e-001 -9.058972e-001 0.000000e+000
      outer loop
         vertex 3.915028e-003 -1.448007e-002 2.469155e-002
         vertex 7.500000e-003 -1.299038e-002 2.384847e-002
         vertex 7.500000e-003 -1.299038e-002 3.962500e-001
      endloop
   endfacet
   facet normal 8.115346e-001 5.843045e-001 -0.000000e+000
      outer loop
         vertex 1.299038e-002 7.500000e-003 3.962500e-001
         vertex 1.299038e-002 7.500000e-003 2.136001e-002
         vertex 1.016842e-002 1.102739e-002 2.283864e-002
      endloop
   endfacet
   facet normal 6.972715e-001 7.168071e-001 -0.000000e+000
      outer loop
         vertex 1.299038e-002 7.500000e-003 3.962500e-001
         vertex 1.016842e-002 1.102739e-002 2.283864e-002
         vertex 7.500000e-003 1.299038e-002 3.962500e-001
      endloop
   endfacet
   facet normal 9.057845e-001 4.237385e-001 -0.000000e+000
      outer loop
         vertex 1.299038e-002 7.500000e-003 2.136001e-002
         vertex 1.299038e-002 7.500000e-003 3.962500e-001
         vertex 1.447692e-002 3.926663e-003 2.038182e-002
      endloop
   endfacet
   facet normal 9.656548e-001 2.598284e-001 -0.000000e+000
      outer loop
         vertex 1.447692e-002 3.926663e-003 2.038182e-002
         vertex 1.299038e-002 7.500000e-003 3.962500e-001
         vertex 1.500000e-002 -6.034971e-018 3.962500e-001
      endloop
   endfacet
   facet normal 9.961255e-001 8.794334e-002 -0.000000e+000
      outer loop
         vertex 1.447692e-002 3.926663e-003 2.038182e-002
         vertex 1.500000e-002 -6.034971e-018 3.962500e-001
         vertex 1.500000e-002 -6.034971e-018 2.000000e-002
      endloop
   endfacet
   facet normal 9.961066e-001 -8.815691e-002 0.000000e+000
      outer loop
         vertex 1.500000e-002 -6.034971e-018 2.000000e-002
         vertex 1.500000e-002 -6.034971e-018 3.962500e-001
         vertex 1.447438e-002 -3.936048e-003 2.038363e-002
      endloop
   endfacet
   facet normal 9.655973e-001 -2.600419e-001 0.000000e+000
      outer loop
         vertex 1.447438e-002 -3.936048e-003 2.038363e-002
         vertex 1.500000e-002 -6.034971e-018 3.962500e-001
         vertex 1.299038e-002 -7.500000e-003 3.962500e-001
      endloop
   endfacet
   facet normal 9.056937e-001 -4.239328e-001 0.000000e+000
      outer loop
         vertex 1.447438e-002 -3.936048e-003 2.038363e-002
         vertex 1.299038e-002 -7.500000e-003 3.962500e-001
         vertex 1.299038e-002 -7.500000e-003 2.136001e-002
      endloop
   endfacet
   facet normal 6.413973e-001 -7.672089e-001 0.000000e+000
      outer loop
         vertex 7.500000e-003 -1.299038e-002 3.962500e-001
         vertex 7.500000e-003 -1.299038e-002 2.384847e-002
         vertex 1.299038e-002 -7.500000e-003 3.962500e-001
      endloop
   endfacet
   facet normal 6.972715e-001 -7.168071e-001 0.000000e+000
      outer loop
         vertex 1.299038e-002 -7.500000e-003 3.962500e-001
         vertex 7.500000e-003 -1.299038e-002 2.384847e-002
         vertex 1.016842e-002 -1.102739e-002 2.283864e-002
      endloop
   endfacet
   facet normal 8.115346e-001 -5.843045e-001 0.000000e+000
      outer loop
         vertex 1.299038e-002 -7.500000e-003 3.962500e-001
         vertex 1.016842e-002 -1.102739e-002 2.283864e-002
         vertex 1.299038e-002 -7.500000e-003 2.136001e-002
      endloop
   endfacet
   facet normal 2.595637e-001 -9.657260e-001 0.000000e+000
      outer loop
         vertex 3.915028e-003 -1.448007e-002 2.469155e-002
         vertex 7.500000e-003 -1.299038e-002 3.962500e-001
         vertex -3.571633e-018 -1.500000e-002 2.500001e-002
      endloop
   endfacet
   facet normal 1.718619e-001 -9.851211e-001 0.000000e+000
      outer loop
         vertex -3.571633e-018 -1.500000e-002 2.500001e-002
         vertex 7.500000e-003 -1.299038e-002 3.962500e-001
         vertex -3.571633e-018 -1.500000e-002 3.962500e-001
      endloop
   endfacet
   facet normal -8.787968e-002 -9.961311e-001 0.000000e+000
      outer loop
         vertex -3.571633e-018 -1.500000e-002 2.500001e-002
         vertex -3.571633e-018 -1.500000e-002 3.962500e-001
         vertex -3.923866e-003 -1.447768e-002 2.469015e-002
      endloop
   endfacet
   facet normal -2.597648e-001 -9.656720e-001 0.000000e+000
      outer loop
         vertex -3.923866e-003 -1.447768e-002 2.469015e-002
         vertex -3.571633e-018 -1.500000e-002 3.962500e-001
         vertex -7.500000e-003 -1.299038e-002 3.962500e-001
      endloop
   endfacet
   facet normal -4.236806e-001 -9.058117e-001 0.000000e+000
      outer loop
         vertex -3.923866e-003 -1.447768e-002 2.469015e-002
         vertex -7.500000e-003 -1.299038e-002 3.962500e-001
         vertex -7.500000e-003 -1.299038e-002 2.384847e-002
      endloop
   endfacet
   facet normal -5.623539e-001 -8.268967e-001 0.000000e+000
      outer loop
         vertex -7.500000e-003 -1.299038e-002 2.384847e-002
         vertex -7.500000e-003 -1.299038e-002 3.962500e-001
         vertex -1.016842e-002 -1.102739e-002 2.283864e-002
      endloop
   endfacet
   facet normal -6.972715e-001 -7.168071e-001 0.000000e+000
      outer loop
         vertex -1.016842e-002 -1.102739e-002 2.283864e-002
         vertex -7.500000e-003 -1.299038e-002 3.962500e-001
         vertex -1.299038e-002 -7.500000e-003 3.962500e-001
      endloop
   endfacet
   facet normal -8.115346e-001 -5.843045e-001 0.000000e+000
      outer loop
         vertex -1.016842e-002 -1.102739e-002 2.283864e-002
         vertex -1.299038e-002 -7.500000e-003 3.962500e-001
         vertex -1.299038e-002 -7.500000e-003 2.136001e-002
      endloop
   endfacet
   facet normal -9.057845e-001 -4.237385e-001 0.000000e+000
      outer loop
         vertex -1.299038e-002 -7.500000e-003 2.136001e-002
         vertex -1.299038e-002 -7.500000e-003 3.962500e-001
         vertex -1.447692e-002 -3.926663e-003 2.038182e-002
      endloop
   endfacet
   facet normal -9.656548e-001 -2.598284e-001 0.000000e+000
      outer loop
         vertex -1.447692e-002 -3.926663e-003 2.038182e-002
         vertex -1.299038e-002 -7.500000e-003 3.962500e-001
         vertex -1.500000e-002 1.429231e-017 3.962500e-001
      endloop
   endfacet
   facet normal -9.961255e-001 -8.794334e-002 0.000000e+000
      outer loop
         vertex -1.447692e-002 -3.926663e-003 2.038182e-002
         vertex -1.500000e-002 1.429231e-017 3.962500e-001
         vertex -1.500000e-002 1.429231e-017 2.000000e-002
      endloop
   endfacet
   facet normal -9.961066e-001 8.815691e-002 0.000000e+000
      outer loop
         vertex -1.500000e-002 1.429231e-017 2.000000e-002
         vertex -1.500000e-002 1.429231e-017 3.962500e-001
         vertex -1.447438e-002 3.936048e-003 2.038363e-002
      endloop
   endfacet
   facet normal -9.655973e-001 2.600419e-001 0.000000e+000
      outer loop
         vertex -1.447438e-002 3.936048e-003 2.038363e-002
         vertex -1.500000e-002 1.429231e-017 3.962500e-001
         vertex -1.299038e-002 7.500000e-003 3.962500e-001
      endloop
   endfacet
   facet normal -9.056937e-001 4.239328e-001 0.000000e+000
      outer loop
         vertex -1.447438e-002 3.936048e-003 2.038363e-002
         vertex -1.299038e-002 7.500000e-003 3.962500e-001
         vertex -1.299038e-002 7.500000e-003 2.136001e-002
      endloop
   endfacet
   facet normal -6.413973e-001 7.672089e-001 0.000000e+000
      outer loop
         vertex -7.500000e-003 1.299038e-002 3.962500e-001
         vertex -7.500000e-003 1.299038e-002 2.384847e-002
         vertex -1.299038e-002 7.500000e-003 3.962500e-001
      endloop
   endfacet
   facet normal -6.972715e-001 7.168071e-001 0.000000e+000
      outer loop
         vertex -1.299038e-002 7.500000e-003 3.962500e-001
         vertex -7.500000e-003 1.299038e-002 2.384847e-002
         vertex -1.016842e-002 1.102739e-002 2.283864e-002
      endloop
   endfacet
   facet normal -8.115346e-001 5.843045e-001 0.000000e+000
      outer loop
         vertex -1.299038e-002 7.500000e-003 3.962500e-001
         vertex -1.016842e-002 1.102739e-002 2.283864e-002
         vertex -1.299038e-002 7.500000e-003 2.136001e-002
      endloop
   endfacet
   facet normal 5.623539e-001 8.268967e-001 -0.000000e+000
      outer loop
         vertex 1.016842e-002 1.102739e-002 2.283864e-002
         vertex 7.500000e-003 1.299038e-002 2.384847e-002
         vertex 7.500000e-003 1.299038e-002 3.962500e-001
      endloop
   endfacet
   facet normal 4.236806e-001 9.058117e-001 -0.000000e+000
      outer loop
         vertex 7.500000e-003 1.299038e-002 3.962500e-001
         vertex 7.500000e-003 1.299038e-002 2.384847e-002
         vertex 3.923866e-003 1.447768e-002 2.469015e-002
      endloop
   endfacet
   facet normal 2.597648e-001 9.656720e-001 -0.000000e+000
      outer loop
         vertex 7.500000e-003 1.299038e-002 3.962500e-001
         vertex 3.923866e-003 1.447768e-002 2.469015e-002
         vertex 4.926675e-018 1.500000e-002 3.962500e-001
      endloop
   endfacet
   facet normal 8.787968e-002 9.961311e-001 -0.000000e+000
      outer loop
         vertex 4.926675e-018 1.500000e-002 3.962500e-001
         vertex 3.923866e-003 1.447768e-002 2.469015e-002
         vertex -1.734663e-018 1.500000e-002 2.500001e-002
      endloop
   endfacet
   facet normal -1.718619e-001 9.851211e-001 0.000000e+000
      outer loop
         vertex 4.926675e-018 1.500000e-002 3.962500e-001
         vertex -1.734663e-018 1.500000e-002 2.500001e-002
         vertex -7.500000e-003 1.299038e-002 3.962500e-001
      endloop
   endfacet
   facet normal -2.595637e-001 9.657260e-001 0.000000e+000
      outer loop
         vertex -7.500000e-003 1.299038e-002 3.962500e-001
         vertex -1.734663e-018 1.500000e-002 2.500001e-002
         vertex -3.915028e-003 1.448007e-002 2.469155e-002
      endloop
   endfacet
   facet normal -4.234977e-001 9.058972e-001 0.000000e+000
      outer loop
         vertex -7.500000e-003 1.299038e-002 3.962500e-001
         vertex -3.915028e-003 1.448007e-002 2.469155e-002
         vertex -7.500000e-003 1.299038e-002 2.384847e-002
      endloop
   endfacet
   facet normal 0.000000e+000 0.000000e+000 -1.000000e+000
      outer loop
         vertex -7.500000e-003 1.299038e-002 3.962500e-001
         vertex -5.197792e-003 2.445369e-002 3.962500e-001
         vertex 5.153078e-018 1.500000e-002 3.962500e-001
      endloop
   endfacet
   facet normal 0.000000e+000 0.000000e+000 -1.000000e+000
      outer loop
         vertex 5.153078e-018 1.500000e-002 3.962500e-001
         vertex -5.197792e-003 2.445369e-002 3.962500e-001
         vertex 5.197792e-003 2.445369e-002 3.962500e-001
      endloop
   endfacet
   facet normal 0.000000e+000 0.000000e+000 -1.000000e+000
      outer loop
         vertex 5.153078e-018 1.500000e-002 3.962500e-001
         vertex 5.197792e-003 2.445369e-002 3.962500e-001
         vertex 7.500000e-003 1.299038e-002 3.962500e-001
      endloop
   endfacet
   facet normal 0.000000e+000 0.000000e+000 -1.000000e+000
      outer loop
         vertex 7.500000e-003 1.299038e-002 3.962500e-001
         vertex 5.197792e-003 2.445369e-002 3.962500e-001
         vertex 1.469463e-002 2.022542e-002 3.962500e-001
      endloop
   endfacet
   facet normal 0.000000e+000 0.000000e+000 -1.000000e+000
      outer loop
         vertex 7.500000e-003 1.299038e-002 3.962500e-001
         vertex 1.469463e-002 2.022542e-002 3.962500e-001
         vertex 1.299038e-002 7.500000e-003 3.962500e-001
      endloop
   endfacet
   facet normal 0.000000e+000 0.000000e+000 -1.000000e+000
      outer loop
         vertex 1.299038e-002 7.500000e-003 3.962500e-001
         vertex 1.469463e-002 2.022542e-002 3.962500e-001
         vertex 2.165063e-002 1.250000e-002 3.962500e-001
      endloop
   endfacet
   facet normal 0.000000e+000 0.000000e+000 -1.000000e+000
      outer loop
         vertex 1.299038e-002 7.500000e-003 3.962500e-001
         vertex 2.165063e-002 1.250000e-002 3.962500e-001
         vertex 1.500000e-002 -6.938894e-018 3.962500e-001
      endloop
   endfacet
   facet normal 0.000000e+000 0.000000e+000 -1.000000e+000
      outer loop
         vertex -1.299038e-002 -7.500000e-003 3.962500e-001
         vertex -2.377641e-002 -7.725425e-003 3.962500e-001
         vertex -1.500000e-002 1.387779e-017 3.962500e-001
      endloop
   endfacet
   facet normal 0.000000e+000 0.000000e+000 -1.000000e+000
      outer loop
         vertex -1.500000e-002 1.387779e-017 3.962500e-001
         vertex -2.377641e-002 -7.725425e-003 3.962500e-001
         vertex -2.486305e-002 2.613212e-003 3.962500e-001
      endloop
   endfacet
   facet normal 0.000000e+000 0.000000e+000 -1.000000e+000
      outer loop
         vertex -1.500000e-002 1.387779e-017 3.962500e-001
         vertex -2.486305e-002 2.613212e-003 3.962500e-001
         vertex -1.299038e-002 7.500000e-003 3.962500e-001
      endloop
   endfacet
   facet normal 0.000000e+000 0.000000e+000 -1.000000e+000
      outer loop
         vertex -1.299038e-002 7.500000e-003 3.962500e-001
         vertex -2.486305e-002 2.613212e-003 3.962500e-001
         vertex -2.165063e-002 1.250000e-002 3.962500e-001
      endloop
   endfacet
   facet normal 0.000000e+000 0.000000e+000 -1.000000e+000
      outer loop
         vertex -1.299038e-002 7.500000e-003 3.962500e-001
         vertex -2.165063e-002 1.250000e-002 3.962500e-001
         vertex -7.500000e-003 1.299038e-002 3.962500e-001
      endloop
   endfacet
   facet normal 0.000000e+000 0.000000e+000 -1.000000e+000
      outer loop
         vertex -7.500000e-003 1.299038e-002 3.962500e-001
         vertex -2.165063e-002 1.250000e-002 3.962500e-001
         vertex -1.469463e-002 2.022542e-002 3.962500e-001
      endloop
   endfacet
   facet normal 0.000000e+000 0.000000e+000 -1.000000e+000
      outer loop
         vertex -7.500000e-003 1.299038e-002 3.962500e-001
         vertex -1.469463e-002 2.022542e-002 3.962500e-001
         vertex -5.197792e-003 2.445369e-002 3.962500e-001
      endloop
   endfacet
   facet normal 0.000000e+000 0.000000e+000 -1.000000e+000
      outer loop
         vertex 2.165063e-002 1.250000e-002 3.962500e-001
         vertex 2.486305e-002 2.613212e-003 3.962500e-001
         vertex 1.500000e-002 -6.938894e-018 3.962500e-001
      endloop
   endfacet
   facet normal 0.000000e+000 0.000000e+000 -1.000000e+000
      outer loop
         vertex 1.500000e-002 -6.938894e-018 3.962500e-001
         vertex 2.486305e-002 2.613212e-003 3.962500e-001
         vertex 2.377641e-002 -7.725425e-003 3.962500e-001
      endloop
   endfacet
   facet normal 0.000000e+000 0.000000e+000 -1.000000e+000
      outer loop
         vertex 1.500000e-002 -6.938894e-018 3.962500e-001
         vertex 2.377641e-002 -7.725425e-003 3.962500e-001
         vertex 1.299038e-002 -7.500000e-003 3.962500e-001
      endloop
   endfacet
   facet normal 0.000000e+000 0.000000e+000 -1.000000e+000
      outer loop
         vertex 1.299038e-002 -7.500000e-003 3.962500e-001
         vertex 2.377641e-002 -7.725425e-003 3.962500e-001
         vertex 1.857862e-002 -1.672827e-002 3.962500e-001
      endloop
   endfacet
   facet normal 0.000000e+000 0.000000e+000 -1.000000e+000
      outer loop
         vertex 1.299038e-002 -7.500000e-003 3.962500e-001
         vertex 1.857862e-002 -1.672827e-002 3.962500e-001
         vertex 7.500000e-003 -1.299038e-002 3.962500e-001
      endloop
   endfacet
   facet normal 0.000000e+000 0.000000e+000 -1.000000e+000
      outer loop
         vertex 7.500000e-003 -1.299038e-002 3.962500e-001
         vertex 1.857862e-002 -1.672827e-002 3.962500e-001
         vertex 1.016842e-002 -2.283864e-002 3.962500e-001
      endloop
   endfacet
   facet normal 0.000000e+000 0.000000e+000 -1.000000e+000
      outer loop
         vertex 7.500000e-003 -1.299038e-002 3.962500e-001
         vertex 1.016842e-002 -2.283864e-002 3.962500e-001
         vertex -8.724711e-018 -1.500000e-002 3.962500e-001
      endloop
   endfacet
   facet normal 0.000000e+000 0.000000e+000 -1.000000e+000
      outer loop
         vertex -8.724711e-018 -1.500000e-002 3.962500e-001
         vertex 1.016842e-002 -2.283864e-002 3.962500e-001
         vertex -5.255263e-018 -2.500000e-002 3.962500e-001
      endloop
   endfacet
   facet normal 0.000000e+000 0.000000e+000 -1.000000e+000
      outer loop
         vertex -8.724711e-018 -1.500000e-002 3.962500e-001
         vertex -5.255263e-018 -2.500000e-002 3.962500e-001
         vertex -7.500000e-003 -1.299038e-002 3.962500e-001
      endloop
   endfacet
   facet normal 0.000000e+000 0.000000e+000 -1.000000e+000
      outer loop
         vertex -7.500000e-003 -1.299038e-002 3.962500e-001
         vertex -5.255263e-018 -2.500000e-002 3.962500e-001
         vertex -1.016842e-002 -2.283864e-002 3.962500e-001
      endloop
   endfacet
   facet normal 0.000000e+000 0.000000e+000 -1.000000e+000
      outer loop
         vertex -7.500000e-003 -1.299038e-002 3.962500e-001
         vertex -1.016842e-002 -2.283864e-002 3.962500e-001
         vertex -1.299038e-002 -7.500000e-003 3.962500e-001
      endloop
   endfacet
   facet normal 0.000000e+000 0.000000e+000 -1.000000e+000
      outer loop
         vertex -1.299038e-002 -7.500000e-003 3.962500e-001
         vertex -1.016842e-002 -2.283864e-002 3.962500e-001
         vertex -1.857862e-002 -1.672827e-002 3.962500e-001
      endloop
   endfacet
   facet normal 0.000000e+000 0.000000e+000 -1.000000e+000
      outer loop
         vertex -1.299038e-002 -7.500000e-003 3.962500e-001
         vertex -1.857862e-002 -1.672827e-002 3.962500e-001
         vertex -2.377641e-002 -7.725425e-003 3.962500e-001
      endloop
   endfacet
endsolid