solid skovl3
   facet normal 5.987753e-001 0.000000e+000 -8.009171e-001
      outer loop
         vertex 2.200000e-002 1.200000e-002 -2.722131e-002
         vertex 2.200000e-002 0.000000e+000 -2.722131e-002
         vertex 2.690691e-003 0.000000e+000 -4.109616e-002
      endloop
   endfacet
   facet normal 5.680818e-001 0.000000e+000 -8.229721e-001
      outer loop
         vertex 2.200000e-002 1.200000e-002 -2.722131e-002
         vertex 2.690691e-003 0.000000e+000 -4.109616e-002
         vertex 2.690691e-003 1.200000e-002 -4.109616e-002
      endloop
   endfacet
   facet normal 5.043985e-001 0.000000e+000 -8.634710e-001
      outer loop
         vertex 2.690691e-003 1.200000e-002 -4.109616e-002
         vertex 2.690691e-003 0.000000e+000 -4.109616e-002
         vertex -1.806330e-002 0.000000e+000 -5.269926e-002
      endloop
   endfacet
   facet normal 4.714086e-001 0.000000e+000 -8.819149e-001
      outer loop
         vertex 2.690691e-003 1.200000e-002 -4.109616e-002
         vertex -1.806330e-002 0.000000e+000 -5.269926e-002
         vertex -1.806330e-002 1.200000e-002 -5.269926e-002
      endloop
   endfacet
   facet normal 4.035554e-001 0.000000e+000 -9.149552e-001
      outer loop
         vertex -1.806330e-002 1.200000e-002 -5.269926e-002
         vertex -1.806330e-002 0.000000e+000 -5.269926e-002
         vertex -3.999592e-002 0.000000e+000 -6.188188e-002
      endloop
   endfacet
   facet normal 3.686920e-001 0.000000e+000 -9.295516e-001
      outer loop
         vertex -1.806330e-002 1.200000e-002 -5.269926e-002
         vertex -3.999592e-002 0.000000e+000 -6.188188e-002
         vertex -3.999592e-002 1.200000e-002 -6.188188e-002
      endloop
   endfacet
   facet normal 2.975387e-001 0.000000e+000 -9.547098e-001
      outer loop
         vertex -3.999592e-002 1.200000e-002 -6.188188e-002
         vertex -3.999592e-002 0.000000e+000 -6.188188e-002
         vertex -6.282599e-002 0.000000e+000 -6.852631e-002
      endloop
   endfacet
   facet normal 2.612488e-001 0.000000e+000 -9.652715e-001
      outer loop
         vertex -3.999592e-002 1.200000e-002 -6.188188e-002
         vertex -6.282599e-002 0.000000e+000 -6.852631e-002
         vertex -6.282599e-002 1.200000e-002 -6.852631e-002
      endloop
   endfacet
   facet normal 1.877076e-001 0.000000e+000 -9.822249e-001
      outer loop
         vertex -6.282599e-002 1.200000e-002 -6.852631e-002
         vertex -6.282599e-002 0.000000e+000 -6.852631e-002
         vertex -8.626083e-002 0.000000e+000 -7.254732e-002
      endloop
   endfacet
   facet normal 1.504563e-001 0.000000e+000 -9.886166e-001
      outer loop
         vertex -6.282599e-002 1.200000e-002 -6.852631e-002
         vertex -8.626083e-002 0.000000e+000 -7.254732e-002
         vertex -8.626083e-002 1.200000e-002 -7.254732e-002
      endloop
   endfacet
   facet normal 7.547005e-002 0.000000e+000 -9.971481e-001
      outer loop
         vertex -8.626083e-002 1.200000e-002 -7.254732e-002
         vertex -8.626083e-002 0.000000e+000 -7.254732e-002
         vertex -1.100000e-001 0.000000e+000 -7.389342e-002
      endloop
   endfacet
   facet normal 3.773502e-002 0.000000e+000 -9.992878e-001
      outer loop
         vertex -8.626083e-002 1.200000e-002 -7.254732e-002
         vertex -1.100000e-001 0.000000e+000 -7.389342e-002
         vertex -1.100000e-001 1.200000e-002 -7.389342e-002
      endloop
   endfacet
   facet normal -3.773502e-002 0.000000e+000 -9.992878e-001
      outer loop
         vertex -1.100000e-001 1.200000e-002 -7.389342e-002
         vertex -1.100000e-001 0.000000e+000 -7.389342e-002
         vertex -1.337392e-001 0.000000e+000 -7.254732e-002
      endloop
   endfacet
   facet normal -7.547005e-002 0.000000e+000 -9.971481e-001
      outer loop
         vertex -1.100000e-001 1.200000e-002 -7.389342e-002
         vertex -1.337392e-001 0.000000e+000 -7.254732e-002
         vertex -1.337392e-001 1.200000e-002 -7.254732e-002
      endloop
   endfacet
   facet normal -1.504563e-001 0.000000e+000 -9.886166e-001
      outer loop
         vertex -1.337392e-001 1.200000e-002 -7.254732e-002
         vertex -1.337392e-001 0.000000e+000 -7.254732e-002
         vertex -1.571740e-001 0.000000e+000 -6.852631e-002
      endloop
   endfacet
   facet normal -1.877076e-001 0.000000e+000 -9.822249e-001
      outer loop
         vertex -1.337392e-001 1.200000e-002 -7.254732e-002
         vertex -1.571740e-001 0.000000e+000 -6.852631e-002
         vertex -1.571740e-001 1.200000e-002 -6.852631e-002
      endloop
   endfacet
   facet normal -2.612488e-001 0.000000e+000 -9.652715e-001
      outer loop
         vertex -1.571740e-001 1.200000e-002 -6.852631e-002
         vertex -1.571740e-001 0.000000e+000 -6.852631e-002
         vertex -1.800041e-001 0.000000e+000 -6.188188e-002
      endloop
   endfacet
   facet normal -2.975387e-001 0.000000e+000 -9.547098e-001
      outer loop
         vertex -1.571740e-001 1.200000e-002 -6.852631e-002
         vertex -1.800041e-001 0.000000e+000 -6.188188e-002
         vertex -1.800041e-001 1.200000e-002 -6.188188e-002
      endloop
   endfacet
   facet normal -3.686920e-001 0.000000e+000 -9.295516e-001
      outer loop
         vertex -1.800041e-001 1.200000e-002 -6.188188e-002
         vertex -1.800041e-001 0.000000e+000 -6.188188e-002
         vertex -2.019367e-001 0.000000e+000 -5.269926e-002
      endloop
   endfacet
   facet normal -4.035554e-001 0.000000e+000 -9.149552e-001
      outer loop
         vertex -1.800041e-001 1.200000e-002 -6.188188e-002
         vertex -2.019367e-001 0.000000e+000 -5.269926e-002
         vertex -2.019367e-001 1.200000e-002 -5.269926e-002
      endloop
   endfacet
   facet normal -4.714086e-001 0.000000e+000 -8.819149e-001
      outer loop
         vertex -2.019367e-001 1.200000e-002 -5.269926e-002
         vertex -2.019367e-001 0.000000e+000 -5.269926e-002
         vertex -2.226907e-001 0.000000e+000 -4.109616e-002
      endloop
   endfacet
   facet normal -5.043985e-001 0.000000e+000 -8.634710e-001
      outer loop
         vertex -2.019367e-001 1.200000e-002 -5.269926e-002
         vertex -2.226907e-001 0.000000e+000 -4.109616e-002
         vertex -2.226907e-001 1.200000e-002 -4.109616e-002
      endloop
   endfacet
   facet normal -5.680818e-001 0.000000e+000 -8.229721e-001
      outer loop
         vertex -2.226907e-001 1.200000e-002 -4.109616e-002
         vertex -2.226907e-001 0.000000e+000 -4.109616e-002
         vertex -2.420000e-001 0.000000e+000 -2.722131e-002
      endloop
   endfacet
   facet normal -5.987753e-001 0.000000e+000 -8.009171e-001
      outer loop
         vertex -2.226907e-001 1.200000e-002 -4.109616e-002
         vertex -2.420000e-001 0.000000e+000 -2.722131e-002
         vertex -2.420000e-001 1.200000e-002 -2.722131e-002
      endloop
   endfacet
   facet normal -5.520366e-001 0.000000e+000 8.338199e-001
      outer loop
         vertex -2.200000e-002 1.200000e-002 2.722131e-002
         vertex -2.200000e-002 0.000000e+000 2.722131e-002
         vertex -1.343971e-002 0.000000e+000 3.231677e-002
      endloop
   endfacet
   facet normal -4.697662e-001 0.000000e+000 8.827909e-001
      outer loop
         vertex -2.200000e-002 1.200000e-002 2.722131e-002
         vertex -1.343971e-002 0.000000e+000 3.231677e-002
         vertex -1.343971e-002 1.200000e-002 3.231677e-002
      endloop
   endfacet
   facet normal -2.947611e-001 0.000000e+000 9.555710e-001
      outer loop
         vertex -1.343971e-002 1.200000e-002 3.231677e-002
         vertex -1.343971e-002 0.000000e+000 3.231677e-002
         vertex -3.790621e-003 0.000000e+000 3.479413e-002
      endloop
   endfacet
   facet normal -2.020265e-001 0.000000e+000 9.793801e-001
      outer loop
         vertex -1.343971e-002 1.200000e-002 3.231677e-002
         vertex -3.790621e-003 0.000000e+000 3.479413e-002
         vertex -3.790621e-003 1.200000e-002 3.479413e-002
      endloop
   endfacet
   facet normal -1.360575e-002 0.000000e+000 9.999074e-001
      outer loop
         vertex -3.790621e-003 1.200000e-002 3.479413e-002
         vertex -3.790621e-003 0.000000e+000 3.479413e-002
         vertex 6.165559e-003 0.000000e+000 3.445266e-002
      endloop
   endfacet
   facet normal 8.208030e-002 0.000000e+000 9.966257e-001
      outer loop
         vertex -3.790621e-003 1.200000e-002 3.479413e-002
         vertex 6.165559e-003 0.000000e+000 3.445266e-002
         vertex 6.165559e-003 1.200000e-002 3.445266e-002
      endloop
   endfacet
   facet normal 2.686518e-001 0.000000e+000 9.632373e-001
      outer loop
         vertex 6.165559e-003 1.200000e-002 3.445266e-002
         vertex 6.165559e-003 0.000000e+000 3.445266e-002
         vertex 1.562225e-002 0.000000e+000 3.132005e-002
      endloop
   endfacet
   facet normal 3.595374e-001 0.000000e+000 9.331307e-001
      outer loop
         vertex 6.165559e-003 1.200000e-002 3.445266e-002
         vertex 1.562225e-002 0.000000e+000 3.132005e-002
         vertex 1.562225e-002 1.200000e-002 3.132005e-002
      endloop
   endfacet
   facet normal 5.291449e-001 0.000000e+000 8.485315e-001
      outer loop
         vertex 1.562225e-002 1.200000e-002 3.132005e-002
         vertex 1.562225e-002 0.000000e+000 3.132005e-002
         vertex 2.381332e-002 0.000000e+000 2.565007e-002
      endloop
   endfacet
   facet normal 6.078669e-001 0.000000e+000 7.940389e-001
      outer loop
         vertex 1.562225e-002 1.200000e-002 3.132005e-002
         vertex 2.381332e-002 0.000000e+000 2.565007e-002
         vertex 2.381332e-002 1.200000e-002 2.565007e-002
      endloop
   endfacet
   facet normal 7.467698e-001 0.000000e+000 6.650826e-001
      outer loop
         vertex 2.381332e-002 1.200000e-002 2.565007e-002
         vertex 2.381332e-002 0.000000e+000 2.565007e-002
         vertex 3.007517e-002 0.000000e+000 1.790208e-002
      endloop
   endfacet
   facet normal 8.069506e-001 0.000000e+000 5.906188e-001
      outer loop
         vertex 2.381332e-002 1.200000e-002 2.565007e-002
         vertex 3.007517e-002 0.000000e+000 1.790208e-002
         vertex 3.007517e-002 1.200000e-002 1.790208e-002
      endloop
   endfacet
   facet normal 9.038958e-001 0.000000e+000 4.277527e-001
      outer loop
         vertex 3.007517e-002 1.200000e-002 1.790208e-002
         vertex 3.007517e-002 0.000000e+000 1.790208e-002
         vertex 3.390051e-002 0.000000e+000 8.703761e-003
      endloop
   endfacet
   facet normal 9.406601e-001 0.000000e+000 3.393503e-001
      outer loop
         vertex 3.007517e-002 1.200000e-002 1.790208e-002
         vertex 3.390051e-002 0.000000e+000 8.703761e-003
         vertex 3.390051e-002 1.200000e-002 8.703761e-003
      endloop
   endfacet
   facet normal 9.877936e-001 0.000000e+000 1.557688e-001
      outer loop
         vertex 3.390051e-002 1.200000e-002 8.703761e-003
         vertex 3.390051e-002 0.000000e+000 8.703761e-003
         vertex 3.497943e-002 0.000000e+000 -1.199685e-003
      endloop
   endfacet
   facet normal 9.981627e-001 0.000000e+000 6.058970e-002
      outer loop
         vertex 3.390051e-002 1.200000e-002 8.703761e-003
         vertex 3.497943e-002 0.000000e+000 -1.199685e-003
         vertex 3.497943e-002 1.200000e-002 -1.199685e-003
      endloop
   endfacet
   facet normal 9.916661e-001 0.000000e+000 -1.288345e-001
      outer loop
         vertex 3.497943e-002 1.200000e-002 -1.199685e-003
         vertex 3.497943e-002 0.000000e+000 -1.199685e-003
         vertex 3.322453e-002 0.000000e+000 -1.100593e-002
      endloop
   endfacet
   facet normal 9.748002e-001 0.000000e+000 -2.230796e-001
      outer loop
         vertex 3.497943e-002 1.200000e-002 -1.199685e-003
         vertex 3.322453e-002 0.000000e+000 -1.100593e-002
         vertex 3.322453e-002 1.200000e-002 -1.100593e-002
      endloop
   endfacet
   facet normal 9.151998e-001 0.000000e+000 -4.030005e-001
      outer loop
         vertex 3.322453e-002 1.200000e-002 -1.100593e-002
         vertex 3.322453e-002 0.000000e+000 -1.100593e-002
         vertex 2.877797e-002 0.000000e+000 -1.992055e-002
      endloop
   endfacet
   facet normal 8.724653e-001 0.000000e+000 -4.886762e-001
      outer loop
         vertex 3.322453e-002 1.200000e-002 -1.100593e-002
         vertex 2.877797e-002 0.000000e+000 -1.992055e-002
         vertex 2.877797e-002 1.200000e-002 -1.992055e-002
      endloop
   endfacet
   facet normal 7.645894e-001 0.000000e+000 -6.445177e-001
      outer loop
         vertex 2.877797e-002 1.200000e-002 -1.992055e-002
         vertex 2.877797e-002 0.000000e+000 -1.992055e-002
         vertex 2.200000e-002 0.000000e+000 -2.722131e-002
      endloop
   endfacet
   facet normal 6.994482e-001 0.000000e+000 -7.146832e-001
      outer loop
         vertex 2.877797e-002 1.200000e-002 -1.992055e-002
         vertex 2.200000e-002 0.000000e+000 -2.722131e-002
         vertex 2.200000e-002 1.200000e-002 -2.722131e-002
      endloop
   endfacet
   facet normal -5.927200e-001 0.000000e+000 8.054086e-001
      outer loop
         vertex -2.200000e-002 0.000000e+000 2.722131e-002
         vertex -2.200000e-002 1.200000e-002 2.722131e-002
         vertex -3.756853e-002 1.200000e-002 1.629972e-002
      endloop
   endfacet
   facet normal -5.555758e-001 0.000000e+000 8.314659e-001
      outer loop
         vertex -2.200000e-002 0.000000e+000 2.722131e-002
         vertex -3.756853e-002 1.200000e-002 1.629972e-002
         vertex -3.756853e-002 0.000000e+000 1.629972e-002
      endloop
   endfacet
   facet normal -4.780988e-001 0.000000e+000 8.783061e-001
      outer loop
         vertex -3.756853e-002 0.000000e+000 1.629972e-002
         vertex -3.756853e-002 1.200000e-002 1.629972e-002
         vertex -5.447357e-002 1.200000e-002 7.588811e-003
      endloop
   endfacet
   facet normal -4.377659e-001 0.000000e+000 8.990890e-001
      outer loop
         vertex -3.756853e-002 0.000000e+000 1.629972e-002
         vertex -5.447357e-002 1.200000e-002 7.588811e-003
         vertex -5.447357e-002 0.000000e+000 7.588811e-003
      endloop
   endfacet
   facet normal -3.546557e-001 0.000000e+000 9.349970e-001
      outer loop
         vertex -5.447357e-002 0.000000e+000 7.588811e-003
         vertex -5.447357e-002 1.200000e-002 7.588811e-003
         vertex -7.240319e-002 1.200000e-002 1.249321e-003
      endloop
   endfacet
   facet normal -3.118783e-001 0.000000e+000 9.501221e-001
      outer loop
         vertex -5.447357e-002 0.000000e+000 7.588811e-003
         vertex -7.240319e-002 1.200000e-002 1.249321e-003
         vertex -7.240319e-002 0.000000e+000 1.249321e-003
      endloop
   endfacet
   facet normal -2.246684e-001 0.000000e+000 9.744353e-001
      outer loop
         vertex -7.240319e-002 0.000000e+000 1.249321e-003
         vertex -7.240319e-002 1.200000e-002 1.249321e-003
         vertex -9.102654e-002 1.200000e-002 -2.601780e-003
      endloop
   endfacet
   facet normal -1.802359e-001 0.000000e+000 9.836234e-001
      outer loop
         vertex -7.240319e-002 0.000000e+000 1.249321e-003
         vertex -9.102654e-002 1.200000e-002 -2.601780e-003
         vertex -9.102654e-002 0.000000e+000 -2.601780e-003
      endloop
   endfacet
   facet normal -9.053563e-002 0.000000e+000 9.958932e-001
      outer loop
         vertex -9.102654e-002 0.000000e+000 -2.601780e-003
         vertex -9.102654e-002 1.200000e-002 -2.601780e-003
         vertex -1.100000e-001 1.200000e-002 -3.893428e-003
      endloop
   endfacet
   facet normal -4.526783e-002 0.000000e+000 9.989749e-001
      outer loop
         vertex -9.102654e-002 0.000000e+000 -2.601780e-003
         vertex -1.100000e-001 1.200000e-002 -3.893428e-003
         vertex -1.100000e-001 0.000000e+000 -3.893428e-003
      endloop
   endfacet
   facet normal 4.526777e-002 0.000000e+000 9.989749e-001
      outer loop
         vertex -1.100000e-001 0.000000e+000 -3.893428e-003
         vertex -1.100000e-001 1.200000e-002 -3.893428e-003
         vertex -1.289735e-001 1.200000e-002 -2.601780e-003
      endloop
   endfacet
   facet normal 9.053557e-002 0.000000e+000 9.958932e-001
      outer loop
         vertex -1.100000e-001 0.000000e+000 -3.893428e-003
         vertex -1.289735e-001 1.200000e-002 -2.601780e-003
         vertex -1.289735e-001 0.000000e+000 -2.601780e-003
      endloop
   endfacet
   facet normal 1.802359e-001 0.000000e+000 9.836234e-001
      outer loop
         vertex -1.289735e-001 0.000000e+000 -2.601780e-003
         vertex -1.289735e-001 1.200000e-002 -2.601780e-003
         vertex -1.475968e-001 1.200000e-002 1.249321e-003
      endloop
   endfacet
   facet normal 2.246684e-001 0.000000e+000 9.744353e-001
      outer loop
         vertex -1.289735e-001 0.000000e+000 -2.601780e-003
         vertex -1.475968e-001 1.200000e-002 1.249321e-003
         vertex -1.475968e-001 0.000000e+000 1.249321e-003
      endloop
   endfacet
   facet normal 3.118783e-001 0.000000e+000 9.501221e-001
      outer loop
         vertex -1.475968e-001 0.000000e+000 1.249321e-003
         vertex -1.475968e-001 1.200000e-002 1.249321e-003
         vertex -1.655264e-001 1.200000e-002 7.588811e-003
      endloop
   endfacet
   facet normal 3.546556e-001 0.000000e+000 9.349970e-001
      outer loop
         vertex -1.475968e-001 0.000000e+000 1.249321e-003
         vertex -1.655264e-001 1.200000e-002 7.588811e-003
         vertex -1.655264e-001 0.000000e+000 7.588811e-003
      endloop
   endfacet
   facet normal 4.377658e-001 0.000000e+000 8.990890e-001
      outer loop
         vertex -1.655264e-001 0.000000e+000 7.588811e-003
         vertex -1.655264e-001 1.200000e-002 7.588811e-003
         vertex -1.824315e-001 1.200000e-002 1.629972e-002
      endloop
   endfacet
   facet normal 4.780987e-001 0.000000e+000 8.783061e-001
      outer loop
         vertex -1.655264e-001 0.000000e+000 7.588811e-003
         vertex -1.824315e-001 1.200000e-002 1.629972e-002
         vertex -1.824315e-001 0.000000e+000 1.629972e-002
      endloop
   endfacet
   facet normal 5.555758e-001 0.000000e+000 8.314659e-001
      outer loop
         vertex -1.824315e-001 0.000000e+000 1.629972e-002
         vertex -1.824315e-001 1.200000e-002 1.629972e-002
         vertex -1.980000e-001 1.200000e-002 2.722131e-002
      endloop
   endfacet
   facet normal 5.927199e-001 0.000000e+000 8.054087e-001
      outer loop
         vertex -1.824315e-001 0.000000e+000 1.629972e-002
         vertex -1.980000e-001 1.200000e-002 2.722131e-002
         vertex -1.980000e-001 0.000000e+000 2.722131e-002
      endloop
   endfacet
   facet normal -6.994483e-001 0.000000e+000 -7.146831e-001
      outer loop
         vertex -2.420000e-001 1.200000e-002 -2.722131e-002
         vertex -2.420000e-001 0.000000e+000 -2.722131e-002
         vertex -2.487780e-001 0.000000e+000 -1.992055e-002
      endloop
   endfacet
   facet normal -7.645896e-001 0.000000e+000 -6.445175e-001
      outer loop
         vertex -2.420000e-001 1.200000e-002 -2.722131e-002
         vertex -2.487780e-001 0.000000e+000 -1.992055e-002
         vertex -2.487780e-001 1.200000e-002 -1.992055e-002
      endloop
   endfacet
   facet normal -8.724653e-001 0.000000e+000 -4.886760e-001
      outer loop
         vertex -2.487780e-001 1.200000e-002 -1.992055e-002
         vertex -2.487780e-001 0.000000e+000 -1.992055e-002
         vertex -2.532245e-001 0.000000e+000 -1.100593e-002
      endloop
   endfacet
   facet normal -9.151999e-001 0.000000e+000 -4.030002e-001
      outer loop
         vertex -2.487780e-001 1.200000e-002 -1.992055e-002
         vertex -2.532245e-001 0.000000e+000 -1.100593e-002
         vertex -2.532245e-001 1.200000e-002 -1.100593e-002
      endloop
   endfacet
   facet normal -9.748003e-001 0.000000e+000 -2.230794e-001
      outer loop
         vertex -2.532245e-001 1.200000e-002 -1.100593e-002
         vertex -2.532245e-001 0.000000e+000 -1.100593e-002
         vertex -2.549794e-001 0.000000e+000 -1.199685e-003
      endloop
   endfacet
   facet normal -9.916661e-001 0.000000e+000 -1.288343e-001
      outer loop
         vertex -2.532245e-001 1.200000e-002 -1.100593e-002
         vertex -2.549794e-001 0.000000e+000 -1.199685e-003
         vertex -2.549794e-001 1.200000e-002 -1.199685e-003
      endloop
   endfacet
   facet normal -9.981627e-001 0.000000e+000 6.058989e-002
      outer loop
         vertex -2.549794e-001 1.200000e-002 -1.199685e-003
         vertex -2.549794e-001 0.000000e+000 -1.199685e-003
         vertex -2.539005e-001 0.000000e+000 8.703761e-003
      endloop
   endfacet
   facet normal -9.877935e-001 0.000000e+000 1.557690e-001
      outer loop
         vertex -2.549794e-001 1.200000e-002 -1.199685e-003
         vertex -2.539005e-001 0.000000e+000 8.703761e-003
         vertex -2.539005e-001 1.200000e-002 8.703761e-003
      endloop
   endfacet
   facet normal -9.406600e-001 0.000000e+000 3.393505e-001
      outer loop
         vertex -2.539005e-001 1.200000e-002 8.703761e-003
         vertex -2.539005e-001 0.000000e+000 8.703761e-003
         vertex -2.500752e-001 0.000000e+000 1.790207e-002
      endloop
   endfacet
   facet normal -9.038957e-001 0.000000e+000 4.277529e-001
      outer loop
         vertex -2.539005e-001 1.200000e-002 8.703761e-003
         vertex -2.500752e-001 0.000000e+000 1.790207e-002
         vertex -2.500752e-001 1.200000e-002 1.790207e-002
      endloop
   endfacet
   facet normal -8.069506e-001 0.000000e+000 5.906190e-001
      outer loop
         vertex -2.500752e-001 1.200000e-002 1.790207e-002
         vertex -2.500752e-001 0.000000e+000 1.790207e-002
         vertex -2.438133e-001 0.000000e+000 2.565006e-002
      endloop
   endfacet
   facet normal -7.467697e-001 0.000000e+000 6.650827e-001
      outer loop
         vertex -2.500752e-001 1.200000e-002 1.790207e-002
         vertex -2.438133e-001 0.000000e+000 2.565006e-002
         vertex -2.438133e-001 1.200000e-002 2.565006e-002
      endloop
   endfacet
   facet normal -6.078669e-001 0.000000e+000 7.940390e-001
      outer loop
         vertex -2.438133e-001 1.200000e-002 2.565006e-002
         vertex -2.438133e-001 0.000000e+000 2.565006e-002
         vertex -2.356222e-001 0.000000e+000 3.132004e-002
      endloop
   endfacet
   facet normal -5.291449e-001 0.000000e+000 8.485315e-001
      outer loop
         vertex -2.438133e-001 1.200000e-002 2.565006e-002
         vertex -2.356222e-001 0.000000e+000 3.132004e-002
         vertex -2.356222e-001 1.200000e-002 3.132004e-002
      endloop
   endfacet
   facet normal -3.595374e-001 0.000000e+000 9.331307e-001
      outer loop
         vertex -2.356222e-001 1.200000e-002 3.132004e-002
         vertex -2.356222e-001 0.000000e+000 3.132004e-002
         vertex -2.261656e-001 0.000000e+000 3.445265e-002
      endloop
   endfacet
   facet normal -2.686518e-001 0.000000e+000 9.632373e-001
      outer loop
         vertex -2.356222e-001 1.200000e-002 3.132004e-002
         vertex -2.261656e-001 0.000000e+000 3.445265e-002
         vertex -2.261656e-001 1.200000e-002 3.445265e-002
      endloop
   endfacet
   facet normal -8.208027e-002 0.000000e+000 9.966257e-001
      outer loop
         vertex -2.261656e-001 1.200000e-002 3.445265e-002
         vertex -2.261656e-001 0.000000e+000 3.445265e-002
         vertex -2.162094e-001 0.000000e+000 3.479412e-002
      endloop
   endfacet
   facet normal 1.360576e-002 0.000000e+000 9.999074e-001
      outer loop
         vertex -2.261656e-001 1.200000e-002 3.445265e-002
         vertex -2.162094e-001 0.000000e+000 3.479412e-002
         vertex -2.162094e-001 1.200000e-002 3.479412e-002
      endloop
   endfacet
   facet normal 2.020265e-001 0.000000e+000 9.793801e-001
      outer loop
         vertex -2.162094e-001 1.200000e-002 3.479412e-002
         vertex -2.162094e-001 0.000000e+000 3.479412e-002
         vertex -2.065603e-001 0.000000e+000 3.231677e-002
      endloop
   endfacet
   facet normal 2.947611e-001 0.000000e+000 9.555710e-001
      outer loop
         vertex -2.162094e-001 1.200000e-002 3.479412e-002
         vertex -2.065603e-001 0.000000e+000 3.231677e-002
         vertex -2.065603e-001 1.200000e-002 3.231677e-002
      endloop
   endfacet
   facet normal 4.697662e-001 0.000000e+000 8.827909e-001
      outer loop
         vertex -2.065603e-001 1.200000e-002 3.231677e-002
         vertex -2.065603e-001 0.000000e+000 3.231677e-002
         vertex -1.980000e-001 0.000000e+000 2.722131e-002
      endloop
   endfacet
   facet normal 5.520366e-001 0.000000e+000 8.338199e-001
      outer loop
         vertex -2.065603e-001 1.200000e-002 3.231677e-002
         vertex -1.980000e-001 0.000000e+000 2.722131e-002
         vertex -1.980000e-001 1.200000e-002 2.722131e-002
      endloop
   endfacet
   facet normal -9.939802e-001 0.000000e+000 -1.095604e-001
      outer loop
         vertex -1.963546e-001 0.000000e+000 8.117475e-003
         vertex -1.950000e-001 1.200000e-002 -7.717273e-009
         vertex -1.950000e-001 0.000000e+000 -7.717273e-009
      endloop
   endfacet
   facet normal -9.939802e-001 0.000000e+000 1.095604e-001
      outer loop
         vertex -1.950000e-001 0.000000e+000 -7.717273e-009
         vertex -1.950000e-001 1.200000e-002 -7.717273e-009
         vertex -1.963546e-001 1.200000e-002 -8.117490e-003
      endloop
   endfacet
   facet normal -9.756978e-001 0.000000e+000 2.191207e-001
      outer loop
         vertex -1.950000e-001 0.000000e+000 -7.717273e-009
         vertex -1.963546e-001 1.200000e-002 -8.117490e-003
         vertex -1.963546e-001 0.000000e+000 -8.117490e-003
      endloop
   endfacet
   facet normal -9.045494e-001 0.000000e+000 4.263689e-001
      outer loop
         vertex -1.963546e-001 0.000000e+000 -8.117490e-003
         vertex -1.963546e-001 1.200000e-002 -8.117490e-003
         vertex -2.002715e-001 1.200000e-002 -1.535533e-002
      endloop
   endfacet
   facet normal -8.516834e-001 0.000000e+000 5.240567e-001
      outer loop
         vertex -1.963546e-001 0.000000e+000 -8.117490e-003
         vertex -2.002715e-001 1.200000e-002 -1.535533e-002
         vertex -2.002715e-001 0.000000e+000 -1.535533e-002
      endloop
   endfacet
   facet normal -7.170966e-001 0.000000e+000 6.969737e-001
      outer loop
         vertex -2.002715e-001 0.000000e+000 -1.535533e-002
         vertex -2.002715e-001 1.200000e-002 -1.535533e-002
         vertex -2.063263e-001 1.200000e-002 -2.092917e-002
      endloop
   endfacet
   facet normal -6.353759e-001 0.000000e+000 7.722030e-001
      outer loop
         vertex -2.002715e-001 0.000000e+000 -1.535533e-002
         vertex -2.063263e-001 1.200000e-002 -2.092917e-002
         vertex -2.063263e-001 0.000000e+000 -2.092917e-002
      endloop
   endfacet
   facet normal -4.519353e-001 0.000000e+000 8.920507e-001
      outer loop
         vertex -2.063263e-001 0.000000e+000 -2.092917e-002
         vertex -2.063263e-001 1.200000e-002 -2.092917e-002
         vertex -2.138629e-001 1.200000e-002 -2.423502e-002
      endloop
   endfacet
   facet normal -3.502155e-001 0.000000e+000 9.366692e-001
      outer loop
         vertex -2.063263e-001 0.000000e+000 -2.092917e-002
         vertex -2.138629e-001 1.200000e-002 -2.423502e-002
         vertex -2.138629e-001 0.000000e+000 -2.423502e-002
      endloop
   endfacet
   facet normal -1.377998e-001 0.000000e+000 9.904601e-001
      outer loop
         vertex -2.138629e-001 0.000000e+000 -2.423502e-002
         vertex -2.138629e-001 1.200000e-002 -2.423502e-002
         vertex -2.220645e-001 1.200000e-002 -2.491461e-002
      endloop
   endfacet
   facet normal -2.710393e-002 0.000000e+000 9.996326e-001
      outer loop
         vertex -2.138629e-001 0.000000e+000 -2.423502e-002
         vertex -2.220645e-001 1.200000e-002 -2.491461e-002
         vertex -2.220645e-001 0.000000e+000 -2.491461e-002
      endloop
   endfacet
   facet normal 1.912684e-001 0.000000e+000 9.815378e-001
      outer loop
         vertex -2.220645e-001 0.000000e+000 -2.491461e-002
         vertex -2.220645e-001 1.200000e-002 -2.491461e-002
         vertex -2.300424e-001 1.200000e-002 -2.289435e-002
      endloop
   endfacet
   facet normal 2.989448e-001 0.000000e+000 9.542704e-001
      outer loop
         vertex -2.220645e-001 0.000000e+000 -2.491461e-002
         vertex -2.300424e-001 1.200000e-002 -2.289435e-002
         vertex -2.300424e-001 0.000000e+000 -2.289435e-002
      endloop
   endfacet
   facet normal 4.996097e-001 0.000000e+000 8.662506e-001
      outer loop
         vertex -2.300424e-001 0.000000e+000 -2.289435e-002
         vertex -2.300424e-001 1.200000e-002 -2.289435e-002
         vertex -2.369320e-001 1.200000e-002 -1.839311e-002
      endloop
   endfacet
   facet normal 5.925983e-001 0.000000e+000 8.054982e-001
      outer loop
         vertex -2.300424e-001 0.000000e+000 -2.289435e-002
         vertex -2.369320e-001 1.200000e-002 -1.839311e-002
         vertex -2.369320e-001 0.000000e+000 -1.839311e-002
      endloop
   endfacet
   facet normal 7.538106e-001 0.000000e+000 6.570917e-001
      outer loop
         vertex -2.369320e-001 0.000000e+000 -1.839311e-002
         vertex -2.369320e-001 1.200000e-002 -1.839311e-002
         vertex -2.419868e-001 1.200000e-002 -1.189869e-002
      endloop
   endfacet
   facet normal 8.220344e-001 0.000000e+000 5.694377e-001
      outer loop
         vertex -2.369320e-001 0.000000e+000 -1.839311e-002
         vertex -2.419868e-001 1.200000e-002 -1.189869e-002
         vertex -2.419868e-001 0.000000e+000 -1.189869e-002
      endloop
   endfacet
   facet normal 9.263244e-001 0.000000e+000 3.767268e-001
      outer loop
         vertex -2.419868e-001 0.000000e+000 -1.189869e-002
         vertex -2.419868e-001 1.200000e-002 -1.189869e-002
         vertex -2.446590e-001 1.200000e-002 -4.114874e-003
      endloop
   endfacet
   facet normal 9.623905e-001 0.000000e+000 2.716698e-001
      outer loop
         vertex -2.419868e-001 0.000000e+000 -1.189869e-002
         vertex -2.446590e-001 1.200000e-002 -4.114874e-003
         vertex -2.446590e-001 0.000000e+000 -4.114874e-003
      endloop
   endfacet
   facet normal 9.984566e-001 0.000000e+000 5.553765e-002
      outer loop
         vertex -2.446590e-001 0.000000e+000 -4.114874e-003
         vertex -2.446590e-001 1.200000e-002 -4.114874e-003
         vertex -2.446590e-001 1.200000e-002 4.114858e-003
      endloop
   endfacet
   facet normal 9.984566e-001 0.000000e+000 -5.553765e-002
      outer loop
         vertex -2.446590e-001 0.000000e+000 -4.114874e-003
         vertex -2.446590e-001 1.200000e-002 4.114858e-003
         vertex -2.446590e-001 0.000000e+000 4.114858e-003
      endloop
   endfacet
   facet normal 9.623905e-001 0.000000e+000 -2.716698e-001
      outer loop
         vertex -2.446590e-001 0.000000e+000 4.114858e-003
         vertex -2.446590e-001 1.200000e-002 4.114858e-003
         vertex -2.419868e-001 1.200000e-002 1.189868e-002
      endloop
   endfacet
   facet normal 9.263244e-001 0.000000e+000 -3.767268e-001
      outer loop
         vertex -2.446590e-001 0.000000e+000 4.114858e-003
         vertex -2.419868e-001 1.200000e-002 1.189868e-002
         vertex -2.419868e-001 0.000000e+000 1.189868e-002
      endloop
   endfacet
   facet normal 8.220344e-001 0.000000e+000 -5.694377e-001
      outer loop
         vertex -2.419868e-001 0.000000e+000 1.189868e-002
         vertex -2.419868e-001 1.200000e-002 1.189868e-002
         vertex -2.369320e-001 1.200000e-002 1.839309e-002
      endloop
   endfacet
   facet normal 7.538106e-001 0.000000e+000 -6.570917e-001
      outer loop
         vertex -2.419868e-001 0.000000e+000 1.189868e-002
         vertex -2.369320e-001 1.200000e-002 1.839309e-002
         vertex -2.369320e-001 0.000000e+000 1.839309e-002
      endloop
   endfacet
   facet normal 5.925983e-001 0.000000e+000 -8.054982e-001
      outer loop
         vertex -2.369320e-001 0.000000e+000 1.839309e-002
         vertex -2.369320e-001 1.200000e-002 1.839309e-002
         vertex -2.300424e-001 1.200000e-002 2.289433e-002
      endloop
   endfacet
   facet normal 4.996097e-001 0.000000e+000 -8.662506e-001
      outer loop
         vertex -2.369320e-001 0.000000e+000 1.839309e-002
         vertex -2.300424e-001 1.200000e-002 2.289433e-002
         vertex -2.300424e-001 0.000000e+000 2.289433e-002
      endloop
   endfacet
   facet normal 2.989448e-001 0.000000e+000 -9.542704e-001
      outer loop
         vertex -2.300424e-001 0.000000e+000 2.289433e-002
         vertex -2.300424e-001 1.200000e-002 2.289433e-002
         vertex -2.220645e-001 1.200000e-002 2.491461e-002
      endloop
   endfacet
   facet normal 1.912684e-001 0.000000e+000 -9.815378e-001
      outer loop
         vertex -2.300424e-001 0.000000e+000 2.289433e-002
         vertex -2.220645e-001 1.200000e-002 2.491461e-002
         vertex -2.220645e-001 0.000000e+000 2.491461e-002
      endloop
   endfacet
   facet normal -2.710393e-002 0.000000e+000 -9.996326e-001
      outer loop
         vertex -2.220645e-001 0.000000e+000 2.491461e-002
         vertex -2.220645e-001 1.200000e-002 2.491461e-002
         vertex -2.138629e-001 1.200000e-002 2.423500e-002
      endloop
   endfacet
   facet normal -1.377998e-001 0.000000e+000 -9.904601e-001
      outer loop
         vertex -2.220645e-001 0.000000e+000 2.491461e-002
         vertex -2.138629e-001 1.200000e-002 2.423500e-002
         vertex -2.138629e-001 0.000000e+000 2.423500e-002
      endloop
   endfacet
   facet normal -3.502155e-001 0.000000e+000 -9.366692e-001
      outer loop
         vertex -2.138629e-001 0.000000e+000 2.423500e-002
         vertex -2.138629e-001 1.200000e-002 2.423500e-002
         vertex -2.063263e-001 1.200000e-002 2.092916e-002
      endloop
   endfacet
   facet normal -4.519353e-001 0.000000e+000 -8.920507e-001
      outer loop
         vertex -2.138629e-001 0.000000e+000 2.423500e-002
         vertex -2.063263e-001 1.200000e-002 2.092916e-002
         vertex -2.063263e-001 0.000000e+000 2.092916e-002
      endloop
   endfacet
   facet normal -6.353759e-001 0.000000e+000 -7.722030e-001
      outer loop
         vertex -2.063263e-001 0.000000e+000 2.092916e-002
         vertex -2.063263e-001 1.200000e-002 2.092916e-002
         vertex -2.002715e-001 1.200000e-002 1.535531e-002
      endloop
   endfacet
   facet normal -7.170966e-001 0.000000e+000 -6.969737e-001
      outer loop
         vertex -2.063263e-001 0.000000e+000 2.092916e-002
         vertex -2.002715e-001 1.200000e-002 1.535531e-002
         vertex -2.002715e-001 0.000000e+000 1.535531e-002
      endloop
   endfacet
   facet normal -8.516834e-001 0.000000e+000 -5.240567e-001
      outer loop
         vertex -2.002715e-001 0.000000e+000 1.535531e-002
         vertex -2.002715e-001 1.200000e-002 1.535531e-002
         vertex -1.963546e-001 1.200000e-002 8.117475e-003
      endloop
   endfacet
   facet normal -9.045494e-001 0.000000e+000 -4.263689e-001
      outer loop
         vertex -2.002715e-001 0.000000e+000 1.535531e-002
         vertex -1.963546e-001 1.200000e-002 8.117475e-003
         vertex -1.963546e-001 0.000000e+000 8.117475e-003
      endloop
   endfacet
   facet normal -9.756978e-001 0.000000e+000 -2.191207e-001
      outer loop
         vertex -1.963546e-001 0.000000e+000 8.117475e-003
         vertex -1.963546e-001 1.200000e-002 8.117475e-003
         vertex -1.950000e-001 1.200000e-002 -7.717273e-009
      endloop
   endfacet
   facet normal 0.000000e+000 1.000000e+000 0.000000e+000
      outer loop
         vertex -2.138629e-001 1.200000e-002 2.423500e-002
         vertex -2.220645e-001 1.200000e-002 2.491461e-002
         vertex -2.261656e-001 1.200000e-002 3.445265e-002
      endloop
   endfacet
   facet normal 0.000000e+000 1.000000e+000 0.000000e+000
      outer loop
         vertex -2.261656e-001 1.200000e-002 3.445265e-002
         vertex -2.220645e-001 1.200000e-002 2.491461e-002
         vertex -2.356222e-001 1.200000e-002 3.132004e-002
      endloop
   endfacet
   facet normal 0.000000e+000 1.000000e+000 0.000000e+000
      outer loop
         vertex -2.356222e-001 1.200000e-002 3.132004e-002
         vertex -2.220645e-001 1.200000e-002 2.491461e-002
         vertex -2.300424e-001 1.200000e-002 2.289433e-002
      endloop
   endfacet
   facet normal 0.000000e+000 1.000000e+000 0.000000e+000
      outer loop
         vertex -2.356222e-001 1.200000e-002 3.132004e-002
         vertex -2.300424e-001 1.200000e-002 2.289433e-002
         vertex -2.438133e-001 1.200000e-002 2.565006e-002
      endloop
   endfacet
   facet normal 0.000000e+000 1.000000e+000 0.000000e+000
      outer loop
         vertex -2.438133e-001 1.200000e-002 2.565006e-002
         vertex -2.300424e-001 1.200000e-002 2.289433e-002
         vertex -2.369320e-001 1.200000e-002 1.839309e-002
      endloop
   endfacet
   facet normal 0.000000e+000 1.000000e+000 0.000000e+000
      outer loop
         vertex -2.438133e-001 1.200000e-002 2.565006e-002
         vertex -2.369320e-001 1.200000e-002 1.839309e-002
         vertex -2.500752e-001 1.200000e-002 1.790207e-002
      endloop
   endfacet
   facet normal 0.000000e+000 1.000000e+000 0.000000e+000
      outer loop
         vertex -2.500752e-001 1.200000e-002 1.790207e-002
         vertex -2.369320e-001 1.200000e-002 1.839309e-002
         vertex -2.419868e-001 1.200000e-002 1.189868e-002
      endloop
   endfacet
   facet normal 0.000000e+000 1.000000e+000 0.000000e+000
      outer loop
         vertex -2.500752e-001 1.200000e-002 1.790207e-002
         vertex -2.419868e-001 1.200000e-002 1.189868e-002
         vertex -2.539005e-001 1.200000e-002 8.703761e-003
      endloop
   endfacet
   facet normal 0.000000e+000 1.000000e+000 0.000000e+000
      outer loop
         vertex -2.539005e-001 1.200000e-002 8.703761e-003
         vertex -2.419868e-001 1.200000e-002 1.189868e-002
         vertex -2.446590e-001 1.200000e-002 4.114858e-003
      endloop
   endfacet
   facet normal 0.000000e+000 1.000000e+000 0.000000e+000
      outer loop
         vertex -2.539005e-001 1.200000e-002 8.703761e-003
         vertex -2.446590e-001 1.200000e-002 4.114858e-003
         vertex -2.549794e-001 1.200000e-002 -1.199685e-003
      endloop
   endfacet
   facet normal 0.000000e+000 1.000000e+000 0.000000e+000
      outer loop
         vertex -2.549794e-001 1.200000e-002 -1.199685e-003
         vertex -2.446590e-001 1.200000e-002 4.114858e-003
         vertex -2.446590e-001 1.200000e-002 -4.114874e-003
      endloop
   endfacet
   facet normal 0.000000e+000 1.000000e+000 0.000000e+000
      outer loop
         vertex -2.549794e-001 1.200000e-002 -1.199685e-003
         vertex -2.446590e-001 1.200000e-002 -4.114874e-003
         vertex -2.532245e-001 1.200000e-002 -1.100593e-002
      endloop
   endfacet
   facet normal 0.000000e+000 1.000000e+000 0.000000e+000
      outer loop
         vertex -1.950000e-001 1.200000e-002 -7.717273e-009
         vertex -1.963546e-001 1.200000e-002 8.117475e-003
         vertex -1.824315e-001 1.200000e-002 1.629972e-002
      endloop
   endfacet
   facet normal 0.000000e+000 1.000000e+000 0.000000e+000
      outer loop
         vertex -1.824315e-001 1.200000e-002 1.629972e-002
         vertex -1.963546e-001 1.200000e-002 8.117475e-003
         vertex -2.002715e-001 1.200000e-002 1.535531e-002
      endloop
   endfacet
   facet normal 0.000000e+000 1.000000e+000 0.000000e+000
      outer loop
         vertex -1.824315e-001 1.200000e-002 1.629972e-002
         vertex -2.002715e-001 1.200000e-002 1.535531e-002
         vertex -1.980000e-001 1.200000e-002 2.722131e-002
      endloop
   endfacet
   facet normal 0.000000e+000 1.000000e+000 0.000000e+000
      outer loop
         vertex -1.980000e-001 1.200000e-002 2.722131e-002
         vertex -2.002715e-001 1.200000e-002 1.535531e-002
         vertex -2.063263e-001 1.200000e-002 2.092916e-002
      endloop
   endfacet
   facet normal 0.000000e+000 1.000000e+000 0.000000e+000
      outer loop
         vertex -1.980000e-001 1.200000e-002 2.722131e-002
         vertex -2.063263e-001 1.200000e-002 2.092916e-002
         vertex -2.065603e-001 1.200000e-002 3.231677e-002
      endloop
   endfacet
   facet normal 0.000000e+000 1.000000e+000 0.000000e+000
      outer loop
         vertex -2.065603e-001 1.200000e-002 3.231677e-002
         vertex -2.063263e-001 1.200000e-002 2.092916e-002
         vertex -2.138629e-001 1.200000e-002 2.423500e-002
      endloop
   endfacet
   facet normal 0.000000e+000 1.000000e+000 0.000000e+000
      outer loop
         vertex -2.065603e-001 1.200000e-002 3.231677e-002
         vertex -2.138629e-001 1.200000e-002 2.423500e-002
         vertex -2.162094e-001 1.200000e-002 3.479412e-002
      endloop
   endfacet
   facet normal 0.000000e+000 1.000000e+000 0.000000e+000
      outer loop
         vertex -2.162094e-001 1.200000e-002 3.479412e-002
         vertex -2.138629e-001 1.200000e-002 2.423500e-002
         vertex -2.261656e-001 1.200000e-002 3.445265e-002
      endloop
   endfacet
   facet normal 0.000000e+000 1.000000e+000 0.000000e+000
      outer loop
         vertex -2.532245e-001 1.200000e-002 -1.100593e-002
         vertex -2.446590e-001 1.200000e-002 -4.114874e-003
         vertex -2.487780e-001 1.200000e-002 -1.992055e-002
      endloop
   endfacet
   facet normal 0.000000e+000 1.000000e+000 0.000000e+000
      outer loop
         vertex -2.487780e-001 1.200000e-002 -1.992055e-002
         vertex -2.446590e-001 1.200000e-002 -4.114874e-003
         vertex -2.419868e-001 1.200000e-002 -1.189869e-002
      endloop
   endfacet
   facet normal 0.000000e+000 1.000000e+000 0.000000e+000
      outer loop
         vertex -2.487780e-001 1.200000e-002 -1.992055e-002
         vertex -2.419868e-001 1.200000e-002 -1.189869e-002
         vertex -2.420000e-001 1.200000e-002 -2.722131e-002
      endloop
   endfacet
   facet normal 0.000000e+000 1.000000e+000 0.000000e+000
      outer loop
         vertex -2.420000e-001 1.200000e-002 -2.722131e-002
         vertex -2.419868e-001 1.200000e-002 -1.189869e-002
         vertex -2.369320e-001 1.200000e-002 -1.839311e-002
      endloop
   endfacet
   facet normal 0.000000e+000 1.000000e+000 0.000000e+000
      outer loop
         vertex -2.420000e-001 1.200000e-002 -2.722131e-002
         vertex -2.369320e-001 1.200000e-002 -1.839311e-002
         vertex -2.226907e-001 1.200000e-002 -4.109616e-002
      endloop
   endfacet
   facet normal 0.000000e+000 1.000000e+000 0.000000e+000
      outer loop
         vertex 1.972851e-002 1.200000e-002 1.535532e-002
         vertex 3.007517e-002 1.200000e-002 1.790208e-002
         vertex 2.364543e-002 1.200000e-002 8.117490e-003
      endloop
   endfacet
   facet normal 0.000000e+000 1.000000e+000 0.000000e+000
      outer loop
         vertex 2.364543e-002 1.200000e-002 8.117490e-003
         vertex 3.007517e-002 1.200000e-002 1.790208e-002
         vertex 3.390051e-002 1.200000e-002 8.703761e-003
      endloop
   endfacet
   facet normal 0.000000e+000 1.000000e+000 0.000000e+000
      outer loop
         vertex 2.364543e-002 1.200000e-002 8.117490e-003
         vertex 3.390051e-002 1.200000e-002 8.703761e-003
         vertex 2.500000e-002 1.200000e-002 7.183888e-009
      endloop
   endfacet
   facet normal 0.000000e+000 1.000000e+000 0.000000e+000
      outer loop
         vertex 2.500000e-002 1.200000e-002 7.183888e-009
         vertex 3.390051e-002 1.200000e-002 8.703761e-003
         vertex 3.497943e-002 1.200000e-002 -1.199685e-003
      endloop
   endfacet
   facet normal 0.000000e+000 1.000000e+000 0.000000e+000
      outer loop
         vertex 2.500000e-002 1.200000e-002 7.183888e-009
         vertex 3.497943e-002 1.200000e-002 -1.199685e-003
         vertex 2.364543e-002 1.200000e-002 -8.117490e-003
      endloop
   endfacet
   facet normal 0.000000e+000 1.000000e+000 0.000000e+000
      outer loop
         vertex 2.364543e-002 1.200000e-002 -8.117490e-003
         vertex 3.497943e-002 1.200000e-002 -1.199685e-003
         vertex 3.322453e-002 1.200000e-002 -1.100593e-002
      endloop
   endfacet
   facet normal 0.000000e+000 1.000000e+000 0.000000e+000
      outer loop
         vertex 2.364543e-002 1.200000e-002 -8.117490e-003
         vertex 3.322453e-002 1.200000e-002 -1.100593e-002
         vertex 1.972851e-002 1.200000e-002 -1.535531e-002
      endloop
   endfacet
   facet normal 0.000000e+000 1.000000e+000 0.000000e+000
      outer loop
         vertex 1.972851e-002 1.200000e-002 -1.535531e-002
         vertex 3.322453e-002 1.200000e-002 -1.100593e-002
         vertex 2.877797e-002 1.200000e-002 -1.992055e-002
      endloop
   endfacet
   facet normal 0.000000e+000 1.000000e+000 0.000000e+000
      outer loop
         vertex 1.972851e-002 1.200000e-002 -1.535531e-002
         vertex 2.877797e-002 1.200000e-002 -1.992055e-002
         vertex 1.367370e-002 1.200000e-002 -2.092917e-002
      endloop
   endfacet
   facet normal 0.000000e+000 1.000000e+000 0.000000e+000
      outer loop
         vertex 1.367370e-002 1.200000e-002 -2.092917e-002
         vertex 2.877797e-002 1.200000e-002 -1.992055e-002
         vertex 2.200000e-002 1.200000e-002 -2.722131e-002
      endloop
   endfacet
   facet normal 0.000000e+000 1.000000e+000 0.000000e+000
      outer loop
         vertex 1.367370e-002 1.200000e-002 -2.092917e-002
         vertex 2.200000e-002 1.200000e-002 -2.722131e-002
         vertex 6.137135e-003 1.200000e-002 -2.423500e-002
      endloop
   endfacet
   facet normal 0.000000e+000 1.000000e+000 0.000000e+000
      outer loop
         vertex 6.137135e-003 1.200000e-002 -2.423500e-002
         vertex 2.200000e-002 1.200000e-002 -2.722131e-002
         vertex 2.690691e-003 1.200000e-002 -4.109616e-002
      endloop
   endfacet
   facet normal 0.000000e+000 1.000000e+000 0.000000e+000
      outer loop
         vertex 6.137135e-003 1.200000e-002 -2.423500e-002
         vertex 2.690691e-003 1.200000e-002 -4.109616e-002
         vertex -2.064486e-003 1.200000e-002 -2.491461e-002
      endloop
   endfacet
   facet normal 0.000000e+000 1.000000e+000 0.000000e+000
      outer loop
         vertex -1.693204e-002 1.200000e-002 -1.839309e-002
         vertex -6.282599e-002 1.200000e-002 -6.852631e-002
         vertex -2.198685e-002 1.200000e-002 -1.189869e-002
      endloop
   endfacet
   facet normal 0.000000e+000 1.000000e+000 0.000000e+000
      outer loop
         vertex -2.198685e-002 1.200000e-002 -1.189869e-002
         vertex -6.282599e-002 1.200000e-002 -6.852631e-002
         vertex -8.626083e-002 1.200000e-002 -7.254732e-002
      endloop
   endfacet
   facet normal 0.000000e+000 1.000000e+000 0.000000e+000
      outer loop
         vertex -8.626083e-002 1.200000e-002 -7.254732e-002
         vertex -1.100000e-001 1.200000e-002 -7.389342e-002
         vertex -2.198685e-002 1.200000e-002 -1.189869e-002
      endloop
   endfacet
   facet normal 0.000000e+000 1.000000e+000 0.000000e+000
      outer loop
         vertex -2.198685e-002 1.200000e-002 -1.189869e-002
         vertex -1.100000e-001 1.200000e-002 -7.389342e-002
         vertex -1.337392e-001 1.200000e-002 -7.254732e-002
      endloop
   endfacet
   facet normal 0.000000e+000 1.000000e+000 0.000000e+000
      outer loop
         vertex -2.198685e-002 1.200000e-002 -1.189869e-002
         vertex -1.337392e-001 1.200000e-002 -7.254732e-002
         vertex -2.465903e-002 1.200000e-002 -4.114859e-003
      endloop
   endfacet
   facet normal 0.000000e+000 1.000000e+000 0.000000e+000
      outer loop
         vertex -2.369320e-001 1.200000e-002 -1.839311e-002
         vertex -2.300424e-001 1.200000e-002 -2.289435e-002
         vertex -2.226907e-001 1.200000e-002 -4.109616e-002
      endloop
   endfacet
   facet normal 0.000000e+000 1.000000e+000 0.000000e+000
      outer loop
         vertex -2.226907e-001 1.200000e-002 -4.109616e-002
         vertex -2.300424e-001 1.200000e-002 -2.289435e-002
         vertex -2.220645e-001 1.200000e-002 -2.491461e-002
      endloop
   endfacet
   facet normal 0.000000e+000 1.000000e+000 0.000000e+000
      outer loop
         vertex -2.226907e-001 1.200000e-002 -4.109616e-002
         vertex -2.220645e-001 1.200000e-002 -2.491461e-002
         vertex -2.019367e-001 1.200000e-002 -5.269926e-002
      endloop
   endfacet
   facet normal 0.000000e+000 1.000000e+000 0.000000e+000
      outer loop
         vertex -2.019367e-001 1.200000e-002 -5.269926e-002
         vertex -2.220645e-001 1.200000e-002 -2.491461e-002
         vertex -2.138629e-001 1.200000e-002 -2.423502e-002
      endloop
   endfacet
   facet normal 0.000000e+000 1.000000e+000 0.000000e+000
      outer loop
         vertex -2.019367e-001 1.200000e-002 -5.269926e-002
         vertex -2.138629e-001 1.200000e-002 -2.423502e-002
         vertex -1.800041e-001 1.200000e-002 -6.188188e-002
      endloop
   endfacet
   facet normal 0.000000e+000 1.000000e+000 0.000000e+000
      outer loop
         vertex -1.800041e-001 1.200000e-002 -6.188188e-002
         vertex -2.138629e-001 1.200000e-002 -2.423502e-002
         vertex -2.063263e-001 1.200000e-002 -2.092917e-002
      endloop
   endfacet
   facet normal 0.000000e+000 1.000000e+000 0.000000e+000
      outer loop
         vertex -1.800041e-001 1.200000e-002 -6.188188e-002
         vertex -2.063263e-001 1.200000e-002 -2.092917e-002
         vertex -1.571740e-001 1.200000e-002 -6.852631e-002
      endloop
   endfacet
   facet normal 0.000000e+000 1.000000e+000 0.000000e+000
      outer loop
         vertex -1.571740e-001 1.200000e-002 -6.852631e-002
         vertex -2.063263e-001 1.200000e-002 -2.092917e-002
         vertex -2.002715e-001 1.200000e-002 -1.535533e-002
      endloop
   endfacet
   facet normal 0.000000e+000 1.000000e+000 0.000000e+000
      outer loop
         vertex -2.064486e-003 1.200000e-002 -2.491461e-002
         vertex 2.690691e-003 1.200000e-002 -4.109616e-002
         vertex -1.004239e-002 1.200000e-002 -2.289433e-002
      endloop
   endfacet
   facet normal 0.000000e+000 1.000000e+000 0.000000e+000
      outer loop
         vertex -1.004239e-002 1.200000e-002 -2.289433e-002
         vertex 2.690691e-003 1.200000e-002 -4.109616e-002
         vertex -1.806330e-002 1.200000e-002 -5.269926e-002
      endloop
   endfacet
   facet normal 0.000000e+000 1.000000e+000 0.000000e+000
      outer loop
         vertex -1.004239e-002 1.200000e-002 -2.289433e-002
         vertex -1.806330e-002 1.200000e-002 -5.269926e-002
         vertex -1.693204e-002 1.200000e-002 -1.839309e-002
      endloop
   endfacet
   facet normal 0.000000e+000 1.000000e+000 0.000000e+000
      outer loop
         vertex -1.693204e-002 1.200000e-002 -1.839309e-002
         vertex -1.806330e-002 1.200000e-002 -5.269926e-002
         vertex -3.999592e-002 1.200000e-002 -6.188188e-002
      endloop
   endfacet
   facet normal 0.000000e+000 1.000000e+000 0.000000e+000
      outer loop
         vertex -1.693204e-002 1.200000e-002 -1.839309e-002
         vertex -3.999592e-002 1.200000e-002 -6.188188e-002
         vertex -6.282599e-002 1.200000e-002 -6.852631e-002
      endloop
   endfacet
   facet normal 0.000000e+000 1.000000e+000 0.000000e+000
      outer loop
         vertex -1.289735e-001 1.200000e-002 -2.601780e-003
         vertex -1.963546e-001 1.200000e-002 -8.117490e-003
         vertex -1.475968e-001 1.200000e-002 1.249321e-003
      endloop
   endfacet
   facet normal 0.000000e+000 1.000000e+000 0.000000e+000
      outer loop
         vertex -1.475968e-001 1.200000e-002 1.249321e-003
         vertex -1.963546e-001 1.200000e-002 -8.117490e-003
         vertex -1.950000e-001 1.200000e-002 -7.717273e-009
      endloop
   endfacet
   facet normal 0.000000e+000 1.000000e+000 0.000000e+000
      outer loop
         vertex -1.475968e-001 1.200000e-002 1.249321e-003
         vertex -1.950000e-001 1.200000e-002 -7.717273e-009
         vertex -1.655264e-001 1.200000e-002 7.588811e-003
      endloop
   endfacet
   facet normal 0.000000e+000 1.000000e+000 0.000000e+000
      outer loop
         vertex -1.655264e-001 1.200000e-002 7.588811e-003
         vertex -1.950000e-001 1.200000e-002 -7.717273e-009
         vertex -1.824315e-001 1.200000e-002 1.629972e-002
      endloop
   endfacet
   facet normal 0.000000e+000 1.000000e+000 0.000000e+000
      outer loop
         vertex -1.289735e-001 1.200000e-002 -2.601780e-003
         vertex -1.100000e-001 1.200000e-002 -3.893428e-003
         vertex -1.963546e-001 1.200000e-002 -8.117490e-003
      endloop
   endfacet
   facet normal 0.000000e+000 1.000000e+000 0.000000e+000
      outer loop
         vertex -1.963546e-001 1.200000e-002 -8.117490e-003
         vertex -1.100000e-001 1.200000e-002 -3.893428e-003
         vertex -2.465903e-002 1.200000e-002 -4.114859e-003
      endloop
   endfacet
   facet normal 0.000000e+000 1.000000e+000 0.000000e+000
      outer loop
         vertex -1.963546e-001 1.200000e-002 -8.117490e-003
         vertex -2.465903e-002 1.200000e-002 -4.114859e-003
         vertex -2.002715e-001 1.200000e-002 -1.535533e-002
      endloop
   endfacet
   facet normal 0.000000e+000 1.000000e+000 0.000000e+000
      outer loop
         vertex -2.002715e-001 1.200000e-002 -1.535533e-002
         vertex -2.465903e-002 1.200000e-002 -4.114859e-003
         vertex -1.337392e-001 1.200000e-002 -7.254732e-002
      endloop
   endfacet
   facet normal 0.000000e+000 1.000000e+000 0.000000e+000
      outer loop
         vertex -2.002715e-001 1.200000e-002 -1.535533e-002
         vertex -1.337392e-001 1.200000e-002 -7.254732e-002
         vertex -1.571740e-001 1.200000e-002 -6.852631e-002
      endloop
   endfacet
   facet normal 0.000000e+000 1.000000e+000 0.000000e+000
      outer loop
         vertex -1.100000e-001 1.200000e-002 -3.893428e-003
         vertex -9.102654e-002 1.200000e-002 -2.601780e-003
         vertex -2.465903e-002 1.200000e-002 -4.114859e-003
      endloop
   endfacet
   facet normal 0.000000e+000 1.000000e+000 0.000000e+000
      outer loop
         vertex -2.465903e-002 1.200000e-002 -4.114859e-003
         vertex -9.102654e-002 1.200000e-002 -2.601780e-003
         vertex -7.240319e-002 1.200000e-002 1.249321e-003
      endloop
   endfacet
   facet normal 0.000000e+000 1.000000e+000 0.000000e+000
      outer loop
         vertex -2.465903e-002 1.200000e-002 -4.114859e-003
         vertex -7.240319e-002 1.200000e-002 1.249321e-003
         vertex -2.465903e-002 1.200000e-002 4.114858e-003
      endloop
   endfacet
   facet normal 0.000000e+000 1.000000e+000 0.000000e+000
      outer loop
         vertex -2.465903e-002 1.200000e-002 4.114858e-003
         vertex -7.240319e-002 1.200000e-002 1.249321e-003
         vertex -5.447357e-002 1.200000e-002 7.588811e-003
      endloop
   endfacet
   facet normal 0.000000e+000 1.000000e+000 0.000000e+000
      outer loop
         vertex -2.465903e-002 1.200000e-002 4.114858e-003
         vertex -5.447357e-002 1.200000e-002 7.588811e-003
         vertex -2.198685e-002 1.200000e-002 1.189868e-002
      endloop
   endfacet
   facet normal 0.000000e+000 1.000000e+000 0.000000e+000
      outer loop
         vertex -2.198685e-002 1.200000e-002 1.189868e-002
         vertex -5.447357e-002 1.200000e-002 7.588811e-003
         vertex -3.756853e-002 1.200000e-002 1.629972e-002
      endloop
   endfacet
   facet normal 0.000000e+000 1.000000e+000 0.000000e+000
      outer loop
         vertex -2.198685e-002 1.200000e-002 1.189868e-002
         vertex -3.756853e-002 1.200000e-002 1.629972e-002
         vertex -1.693204e-002 1.200000e-002 1.839310e-002
      endloop
   endfacet
   facet normal 0.000000e+000 1.000000e+000 0.000000e+000
      outer loop
         vertex -1.693204e-002 1.200000e-002 1.839310e-002
         vertex -3.756853e-002 1.200000e-002 1.629972e-002
         vertex -2.200000e-002 1.200000e-002 2.722131e-002
      endloop
   endfacet
   facet normal 0.000000e+000 1.000000e+000 0.000000e+000
      outer loop
         vertex -1.693204e-002 1.200000e-002 1.839310e-002
         vertex -2.200000e-002 1.200000e-002 2.722131e-002
         vertex -1.004239e-002 1.200000e-002 2.289433e-002
      endloop
   endfacet
   facet normal 0.000000e+000 1.000000e+000 0.000000e+000
      outer loop
         vertex -1.004239e-002 1.200000e-002 2.289433e-002
         vertex -2.200000e-002 1.200000e-002 2.722131e-002
         vertex -1.343971e-002 1.200000e-002 3.231677e-002
      endloop
   endfacet
   facet normal 0.000000e+000 1.000000e+000 0.000000e+000
      outer loop
         vertex -1.004239e-002 1.200000e-002 2.289433e-002
         vertex -1.343971e-002 1.200000e-002 3.231677e-002
         vertex -2.064486e-003 1.200000e-002 2.491461e-002
      endloop
   endfacet
   facet normal 0.000000e+000 1.000000e+000 0.000000e+000
      outer loop
         vertex -2.064486e-003 1.200000e-002 2.491461e-002
         vertex -1.343971e-002 1.200000e-002 3.231677e-002
         vertex -3.790621e-003 1.200000e-002 3.479413e-002
      endloop
   endfacet
   facet normal 0.000000e+000 1.000000e+000 0.000000e+000
      outer loop
         vertex -2.064486e-003 1.200000e-002 2.491461e-002
         vertex -3.790621e-003 1.200000e-002 3.479413e-002
         vertex 6.137135e-003 1.200000e-002 2.423501e-002
      endloop
   endfacet
   facet normal 0.000000e+000 1.000000e+000 0.000000e+000
      outer loop
         vertex 6.137135e-003 1.200000e-002 2.423501e-002
         vertex -3.790621e-003 1.200000e-002 3.479413e-002
         vertex 6.165559e-003 1.200000e-002 3.445266e-002
      endloop
   endfacet
   facet normal 0.000000e+000 1.000000e+000 0.000000e+000
      outer loop
         vertex 6.137135e-003 1.200000e-002 2.423501e-002
         vertex 6.165559e-003 1.200000e-002 3.445266e-002
         vertex 1.367370e-002 1.200000e-002 2.092917e-002
      endloop
   endfacet
   facet normal 0.000000e+000 1.000000e+000 0.000000e+000
      outer loop
         vertex 1.367370e-002 1.200000e-002 2.092917e-002
         vertex 6.165559e-003 1.200000e-002 3.445266e-002
         vertex 1.562225e-002 1.200000e-002 3.132005e-002
      endloop
   endfacet
   facet normal 0.000000e+000 1.000000e+000 0.000000e+000
      outer loop
         vertex 1.367370e-002 1.200000e-002 2.092917e-002
         vertex 1.562225e-002 1.200000e-002 3.132005e-002
         vertex 1.972851e-002 1.200000e-002 1.535532e-002
      endloop
   endfacet
   facet normal 0.000000e+000 1.000000e+000 0.000000e+000
      outer loop
         vertex 1.972851e-002 1.200000e-002 1.535532e-002
         vertex 1.562225e-002 1.200000e-002 3.132005e-002
         vertex 2.381332e-002 1.200000e-002 2.565007e-002
      endloop
   endfacet
   facet normal 0.000000e+000 1.000000e+000 0.000000e+000
      outer loop
         vertex 1.972851e-002 1.200000e-002 1.535532e-002
         vertex 2.381332e-002 1.200000e-002 2.565007e-002
         vertex 3.007517e-002 1.200000e-002 1.790208e-002
      endloop
   endfacet
   facet normal 0.000000e+000 -1.000000e+000 0.000000e+000
      outer loop
         vertex -2.446590e-001 0.000000e+000 -4.114874e-003
         vertex -2.446590e-001 0.000000e+000 4.114858e-003
         vertex -2.539005e-001 0.000000e+000 8.703761e-003
      endloop
   endfacet
   facet normal 0.000000e+000 -1.000000e+000 0.000000e+000
      outer loop
         vertex -2.539005e-001 0.000000e+000 8.703761e-003
         vertex -2.446590e-001 0.000000e+000 4.114858e-003
         vertex -2.500752e-001 0.000000e+000 1.790207e-002
      endloop
   endfacet
   facet normal 0.000000e+000 -1.000000e+000 0.000000e+000
      outer loop
         vertex -2.500752e-001 0.000000e+000 1.790207e-002
         vertex -2.446590e-001 0.000000e+000 4.114858e-003
         vertex -2.419868e-001 0.000000e+000 1.189868e-002
      endloop
   endfacet
   facet normal 0.000000e+000 -1.000000e+000 0.000000e+000
      outer loop
         vertex -2.500752e-001 0.000000e+000 1.790207e-002
         vertex -2.419868e-001 0.000000e+000 1.189868e-002
         vertex -2.438133e-001 0.000000e+000 2.565006e-002
      endloop
   endfacet
   facet normal 0.000000e+000 -1.000000e+000 0.000000e+000
      outer loop
         vertex -2.438133e-001 0.000000e+000 2.565006e-002
         vertex -2.419868e-001 0.000000e+000 1.189868e-002
         vertex -2.369320e-001 0.000000e+000 1.839309e-002
      endloop
   endfacet
   facet normal 0.000000e+000 -1.000000e+000 0.000000e+000
      outer loop
         vertex -2.438133e-001 0.000000e+000 2.565006e-002
         vertex -2.369320e-001 0.000000e+000 1.839309e-002
         vertex -2.356222e-001 0.000000e+000 3.132004e-002
      endloop
   endfacet
   facet normal 0.000000e+000 -1.000000e+000 0.000000e+000
      outer loop
         vertex -2.356222e-001 0.000000e+000 3.132004e-002
         vertex -2.369320e-001 0.000000e+000 1.839309e-002
         vertex -2.300424e-001 0.000000e+000 2.289433e-002
      endloop
   endfacet
   facet normal 0.000000e+000 -1.000000e+000 0.000000e+000
      outer loop
         vertex -2.356222e-001 0.000000e+000 3.132004e-002
         vertex -2.300424e-001 0.000000e+000 2.289433e-002
         vertex -2.261656e-001 0.000000e+000 3.445265e-002
      endloop
   endfacet
   facet normal 0.000000e+000 -1.000000e+000 0.000000e+000
      outer loop
         vertex -2.261656e-001 0.000000e+000 3.445265e-002
         vertex -2.300424e-001 0.000000e+000 2.289433e-002
         vertex -2.220645e-001 0.000000e+000 2.491461e-002
      endloop
   endfacet
   facet normal 0.000000e+000 -1.000000e+000 0.000000e+000
      outer loop
         vertex -2.261656e-001 0.000000e+000 3.445265e-002
         vertex -2.220645e-001 0.000000e+000 2.491461e-002
         vertex -2.162094e-001 0.000000e+000 3.479412e-002
      endloop
   endfacet
   facet normal 0.000000e+000 -1.000000e+000 0.000000e+000
      outer loop
         vertex -2.162094e-001 0.000000e+000 3.479412e-002
         vertex -2.220645e-001 0.000000e+000 2.491461e-002
         vertex -2.138629e-001 0.000000e+000 2.423500e-002
      endloop
   endfacet
   facet normal 0.000000e+000 -1.000000e+000 0.000000e+000
      outer loop
         vertex -2.162094e-001 0.000000e+000 3.479412e-002
         vertex -2.138629e-001 0.000000e+000 2.423500e-002
         vertex -2.065603e-001 0.000000e+000 3.231677e-002
      endloop
   endfacet
   facet normal 0.000000e+000 -1.000000e+000 0.000000e+000
      outer loop
         vertex -2.065603e-001 0.000000e+000 3.231677e-002
         vertex -2.138629e-001 0.000000e+000 2.423500e-002
         vertex -2.063263e-001 0.000000e+000 2.092916e-002
      endloop
   endfacet
   facet normal 0.000000e+000 -1.000000e+000 0.000000e+000
      outer loop
         vertex -2.065603e-001 0.000000e+000 3.231677e-002
         vertex -2.063263e-001 0.000000e+000 2.092916e-002
         vertex -1.980000e-001 0.000000e+000 2.722131e-002
      endloop
   endfacet
   facet normal 0.000000e+000 -1.000000e+000 0.000000e+000
      outer loop
         vertex -1.980000e-001 0.000000e+000 2.722131e-002
         vertex -2.063263e-001 0.000000e+000 2.092916e-002
         vertex -1.824315e-001 0.000000e+000 1.629972e-002
      endloop
   endfacet
   facet normal 0.000000e+000 -1.000000e+000 0.000000e+000
      outer loop
         vertex -1.824315e-001 0.000000e+000 1.629972e-002
         vertex -2.063263e-001 0.000000e+000 2.092916e-002
         vertex -2.002715e-001 0.000000e+000 1.535531e-002
      endloop
   endfacet
   facet normal 0.000000e+000 -1.000000e+000 0.000000e+000
      outer loop
         vertex -1.824315e-001 0.000000e+000 1.629972e-002
         vertex -2.002715e-001 0.000000e+000 1.535531e-002
         vertex -1.655264e-001 0.000000e+000 7.588811e-003
      endloop
   endfacet
   facet normal 0.000000e+000 -1.000000e+000 0.000000e+000
      outer loop
         vertex -1.963546e-001 0.000000e+000 -8.117490e-003
         vertex -2.002715e-001 0.000000e+000 -1.535533e-002
         vertex -2.465903e-002 0.000000e+000 -4.114859e-003
      endloop
   endfacet
   facet normal 0.000000e+000 -1.000000e+000 0.000000e+000
      outer loop
         vertex -2.465903e-002 0.000000e+000 -4.114859e-003
         vertex -2.002715e-001 0.000000e+000 -1.535533e-002
         vertex -2.063263e-001 0.000000e+000 -2.092917e-002
      endloop
   endfacet
   facet normal 0.000000e+000 -1.000000e+000 0.000000e+000
      outer loop
         vertex -1.655264e-001 0.000000e+000 7.588811e-003
         vertex -2.002715e-001 0.000000e+000 1.535531e-002
         vertex -1.475968e-001 0.000000e+000 1.249321e-003
      endloop
   endfacet
   facet normal 0.000000e+000 -1.000000e+000 0.000000e+000
      outer loop
         vertex -1.475968e-001 0.000000e+000 1.249321e-003
         vertex -2.002715e-001 0.000000e+000 1.535531e-002
         vertex -1.963546e-001 0.000000e+000 8.117475e-003
      endloop
   endfacet
   facet normal 0.000000e+000 -1.000000e+000 0.000000e+000
      outer loop
         vertex -1.475968e-001 0.000000e+000 1.249321e-003
         vertex -1.963546e-001 0.000000e+000 8.117475e-003
         vertex -1.289735e-001 0.000000e+000 -2.601780e-003
      endloop
   endfacet
   facet normal 0.000000e+000 -1.000000e+000 0.000000e+000
      outer loop
         vertex -1.289735e-001 0.000000e+000 -2.601780e-003
         vertex -1.963546e-001 0.000000e+000 8.117475e-003
         vertex -1.950000e-001 0.000000e+000 -7.717273e-009
      endloop
   endfacet
   facet normal 0.000000e+000 -1.000000e+000 0.000000e+000
      outer loop
         vertex -1.289735e-001 0.000000e+000 -2.601780e-003
         vertex -1.950000e-001 0.000000e+000 -7.717273e-009
         vertex -1.100000e-001 0.000000e+000 -3.893428e-003
      endloop
   endfacet
   facet normal 0.000000e+000 -1.000000e+000 0.000000e+000
      outer loop
         vertex -2.539005e-001 0.000000e+000 8.703761e-003
         vertex -2.549794e-001 0.000000e+000 -1.199685e-003
         vertex -2.446590e-001 0.000000e+000 -4.114874e-003
      endloop
   endfacet
   facet normal 0.000000e+000 -1.000000e+000 0.000000e+000
      outer loop
         vertex -2.446590e-001 0.000000e+000 -4.114874e-003
         vertex -2.549794e-001 0.000000e+000 -1.199685e-003
         vertex -2.532245e-001 0.000000e+000 -1.100593e-002
      endloop
   endfacet
   facet normal 0.000000e+000 -1.000000e+000 0.000000e+000
      outer loop
         vertex -2.446590e-001 0.000000e+000 -4.114874e-003
         vertex -2.532245e-001 0.000000e+000 -1.100593e-002
         vertex -2.419868e-001 0.000000e+000 -1.189869e-002
      endloop
   endfacet
   facet normal 0.000000e+000 -1.000000e+000 0.000000e+000
      outer loop
         vertex -2.419868e-001 0.000000e+000 -1.189869e-002
         vertex -2.532245e-001 0.000000e+000 -1.100593e-002
         vertex -2.487780e-001 0.000000e+000 -1.992055e-002
      endloop
   endfacet
   facet normal 0.000000e+000 -1.000000e+000 0.000000e+000
      outer loop
         vertex -2.419868e-001 0.000000e+000 -1.189869e-002
         vertex -2.487780e-001 0.000000e+000 -1.992055e-002
         vertex -2.369320e-001 0.000000e+000 -1.839311e-002
      endloop
   endfacet
   facet normal 0.000000e+000 -1.000000e+000 0.000000e+000
      outer loop
         vertex -2.369320e-001 0.000000e+000 -1.839311e-002
         vertex -2.487780e-001 0.000000e+000 -1.992055e-002
         vertex -2.420000e-001 0.000000e+000 -2.722131e-002
      endloop
   endfacet
   facet normal 0.000000e+000 -1.000000e+000 0.000000e+000
      outer loop
         vertex -2.369320e-001 0.000000e+000 -1.839311e-002
         vertex -2.420000e-001 0.000000e+000 -2.722131e-002
         vertex -2.300424e-001 0.000000e+000 -2.289435e-002
      endloop
   endfacet
   facet normal 0.000000e+000 -1.000000e+000 0.000000e+000
      outer loop
         vertex -2.300424e-001 0.000000e+000 -2.289435e-002
         vertex -2.420000e-001 0.000000e+000 -2.722131e-002
         vertex -2.226907e-001 0.000000e+000 -4.109616e-002
      endloop
   endfacet
   facet normal 0.000000e+000 -1.000000e+000 0.000000e+000
      outer loop
         vertex -2.300424e-001 0.000000e+000 -2.289435e-002
         vertex -2.226907e-001 0.000000e+000 -4.109616e-002
         vertex -2.220645e-001 0.000000e+000 -2.491461e-002
      endloop
   endfacet
   facet normal 0.000000e+000 -1.000000e+000 0.000000e+000
      outer loop
         vertex -2.220645e-001 0.000000e+000 -2.491461e-002
         vertex -2.226907e-001 0.000000e+000 -4.109616e-002
         vertex -2.138629e-001 0.000000e+000 -2.423502e-002
      endloop
   endfacet
   facet normal 0.000000e+000 -1.000000e+000 0.000000e+000
      outer loop
         vertex 2.690691e-003 0.000000e+000 -4.109616e-002
         vertex 2.200000e-002 0.000000e+000 -2.722131e-002
         vertex 1.367370e-002 0.000000e+000 -2.092917e-002
      endloop
   endfacet
   facet normal 0.000000e+000 -1.000000e+000 0.000000e+000
      outer loop
         vertex 1.367370e-002 0.000000e+000 -2.092917e-002
         vertex 2.200000e-002 0.000000e+000 -2.722131e-002
         vertex 1.972851e-002 0.000000e+000 -1.535531e-002
      endloop
   endfacet
   facet normal 0.000000e+000 -1.000000e+000 0.000000e+000
      outer loop
         vertex 1.972851e-002 0.000000e+000 -1.535531e-002
         vertex 2.200000e-002 0.000000e+000 -2.722131e-002
         vertex 2.877797e-002 0.000000e+000 -1.992055e-002
      endloop
   endfacet
   facet normal 0.000000e+000 -1.000000e+000 0.000000e+000
      outer loop
         vertex 1.972851e-002 0.000000e+000 -1.535531e-002
         vertex 2.877797e-002 0.000000e+000 -1.992055e-002
         vertex 2.364543e-002 0.000000e+000 -8.117490e-003
      endloop
   endfacet
   facet normal 0.000000e+000 -1.000000e+000 0.000000e+000
      outer loop
         vertex 2.364543e-002 0.000000e+000 -8.117490e-003
         vertex 2.877797e-002 0.000000e+000 -1.992055e-002
         vertex 3.322453e-002 0.000000e+000 -1.100593e-002
      endloop
   endfacet
   facet normal 0.000000e+000 -1.000000e+000 0.000000e+000
      outer loop
         vertex 2.364543e-002 0.000000e+000 -8.117490e-003
         vertex 3.322453e-002 0.000000e+000 -1.100593e-002
         vertex 2.500000e-002 0.000000e+000 7.183888e-009
      endloop
   endfacet
   facet normal 0.000000e+000 -1.000000e+000 0.000000e+000
      outer loop
         vertex 2.500000e-002 0.000000e+000 7.183888e-009
         vertex 3.322453e-002 0.000000e+000 -1.100593e-002
         vertex 3.497943e-002 0.000000e+000 -1.199685e-003
      endloop
   endfacet
   facet normal 0.000000e+000 -1.000000e+000 0.000000e+000
      outer loop
         vertex 2.500000e-002 0.000000e+000 7.183888e-009
         vertex 3.497943e-002 0.000000e+000 -1.199685e-003
         vertex 2.364543e-002 0.000000e+000 8.117490e-003
      endloop
   endfacet
   facet normal 0.000000e+000 -1.000000e+000 0.000000e+000
      outer loop
         vertex 2.364543e-002 0.000000e+000 8.117490e-003
         vertex 3.497943e-002 0.000000e+000 -1.199685e-003
         vertex 3.390051e-002 0.000000e+000 8.703761e-003
      endloop
   endfacet
   facet normal 0.000000e+000 -1.000000e+000 0.000000e+000
      outer loop
         vertex 2.364543e-002 0.000000e+000 8.117490e-003
         vertex 3.390051e-002 0.000000e+000 8.703761e-003
         vertex 1.972851e-002 0.000000e+000 1.535532e-002
      endloop
   endfacet
   facet normal 0.000000e+000 -1.000000e+000 0.000000e+000
      outer loop
         vertex 1.367370e-002 0.000000e+000 -2.092917e-002
         vertex 6.137135e-003 0.000000e+000 -2.423500e-002
         vertex 2.690691e-003 0.000000e+000 -4.109616e-002
      endloop
   endfacet
   facet normal 0.000000e+000 -1.000000e+000 0.000000e+000
      outer loop
         vertex 2.690691e-003 0.000000e+000 -4.109616e-002
         vertex 6.137135e-003 0.000000e+000 -2.423500e-002
         vertex -2.064486e-003 0.000000e+000 -2.491461e-002
      endloop
   endfacet
   facet normal 0.000000e+000 -1.000000e+000 0.000000e+000
      outer loop
         vertex 2.690691e-003 0.000000e+000 -4.109616e-002
         vertex -2.064486e-003 0.000000e+000 -2.491461e-002
         vertex -1.806330e-002 0.000000e+000 -5.269926e-002
      endloop
   endfacet
   facet normal 0.000000e+000 -1.000000e+000 0.000000e+000
      outer loop
         vertex -1.806330e-002 0.000000e+000 -5.269926e-002
         vertex -2.064486e-003 0.000000e+000 -2.491461e-002
         vertex -1.004239e-002 0.000000e+000 -2.289433e-002
      endloop
   endfacet
   facet normal 0.000000e+000 -1.000000e+000 0.000000e+000
      outer loop
         vertex -1.806330e-002 0.000000e+000 -5.269926e-002
         vertex -1.004239e-002 0.000000e+000 -2.289433e-002
         vertex -3.999592e-002 0.000000e+000 -6.188188e-002
      endloop
   endfacet
   facet normal 0.000000e+000 -1.000000e+000 0.000000e+000
      outer loop
         vertex -3.999592e-002 0.000000e+000 -6.188188e-002
         vertex -1.004239e-002 0.000000e+000 -2.289433e-002
         vertex -1.693204e-002 0.000000e+000 -1.839309e-002
      endloop
   endfacet
   facet normal 0.000000e+000 -1.000000e+000 0.000000e+000
      outer loop
         vertex -3.999592e-002 0.000000e+000 -6.188188e-002
         vertex -1.693204e-002 0.000000e+000 -1.839309e-002
         vertex -6.282599e-002 0.000000e+000 -6.852631e-002
      endloop
   endfacet
   facet normal 0.000000e+000 -1.000000e+000 0.000000e+000
      outer loop
         vertex -6.282599e-002 0.000000e+000 -6.852631e-002
         vertex -1.693204e-002 0.000000e+000 -1.839309e-002
         vertex -8.626083e-002 0.000000e+000 -7.254732e-002
      endloop
   endfacet
   facet normal 0.000000e+000 -1.000000e+000 0.000000e+000
      outer loop
         vertex -8.626083e-002 0.000000e+000 -7.254732e-002
         vertex -1.693204e-002 0.000000e+000 -1.839309e-002
         vertex -2.198685e-002 0.000000e+000 -1.189869e-002
      endloop
   endfacet
   facet normal 0.000000e+000 -1.000000e+000 0.000000e+000
      outer loop
         vertex -8.626083e-002 0.000000e+000 -7.254732e-002
         vertex -2.198685e-002 0.000000e+000 -1.189869e-002
         vertex -1.100000e-001 0.000000e+000 -7.389342e-002
      endloop
   endfacet
   facet normal 0.000000e+000 -1.000000e+000 0.000000e+000
      outer loop
         vertex -2.019367e-001 0.000000e+000 -5.269926e-002
         vertex -2.465903e-002 0.000000e+000 -4.114859e-003
         vertex -2.226907e-001 0.000000e+000 -4.109616e-002
      endloop
   endfacet
   facet normal 0.000000e+000 -1.000000e+000 0.000000e+000
      outer loop
         vertex -2.226907e-001 0.000000e+000 -4.109616e-002
         vertex -2.465903e-002 0.000000e+000 -4.114859e-003
         vertex -2.063263e-001 0.000000e+000 -2.092917e-002
      endloop
   endfacet
   facet normal 0.000000e+000 -1.000000e+000 0.000000e+000
      outer loop
         vertex -2.226907e-001 0.000000e+000 -4.109616e-002
         vertex -2.063263e-001 0.000000e+000 -2.092917e-002
         vertex -2.138629e-001 0.000000e+000 -2.423502e-002
      endloop
   endfacet
   facet normal 0.000000e+000 -1.000000e+000 0.000000e+000
      outer loop
         vertex 3.390051e-002 0.000000e+000 8.703761e-003
         vertex 3.007517e-002 0.000000e+000 1.790208e-002
         vertex 1.972851e-002 0.000000e+000 1.535532e-002
      endloop
   endfacet
   facet normal 0.000000e+000 -1.000000e+000 0.000000e+000
      outer loop
         vertex 1.972851e-002 0.000000e+000 1.535532e-002
         vertex 3.007517e-002 0.000000e+000 1.790208e-002
         vertex 2.381332e-002 0.000000e+000 2.565007e-002
      endloop
   endfacet
   facet normal 0.000000e+000 -1.000000e+000 0.000000e+000
      outer loop
         vertex 1.972851e-002 0.000000e+000 1.535532e-002
         vertex 2.381332e-002 0.000000e+000 2.565007e-002
         vertex 1.367370e-002 0.000000e+000 2.092917e-002
      endloop
   endfacet
   facet normal 0.000000e+000 -1.000000e+000 0.000000e+000
      outer loop
         vertex 1.367370e-002 0.000000e+000 2.092917e-002
         vertex 2.381332e-002 0.000000e+000 2.565007e-002
         vertex 1.562225e-002 0.000000e+000 3.132005e-002
      endloop
   endfacet
   facet normal 0.000000e+000 -1.000000e+000 0.000000e+000
      outer loop
         vertex 1.367370e-002 0.000000e+000 2.092917e-002
         vertex 1.562225e-002 0.000000e+000 3.132005e-002
         vertex 6.137135e-003 0.000000e+000 2.423501e-002
      endloop
   endfacet
   facet normal 0.000000e+000 -1.000000e+000 0.000000e+000
      outer loop
         vertex 6.137135e-003 0.000000e+000 2.423501e-002
         vertex 1.562225e-002 0.000000e+000 3.132005e-002
         vertex 6.165559e-003 0.000000e+000 3.445266e-002
      endloop
   endfacet
   facet normal 0.000000e+000 -1.000000e+000 0.000000e+000
      outer loop
         vertex 6.137135e-003 0.000000e+000 2.423501e-002
         vertex 6.165559e-003 0.000000e+000 3.445266e-002
         vertex -2.064486e-003 0.000000e+000 2.491461e-002
      endloop
   endfacet
   facet normal 0.000000e+000 -1.000000e+000 0.000000e+000
      outer loop
         vertex -2.064486e-003 0.000000e+000 2.491461e-002
         vertex 6.165559e-003 0.000000e+000 3.445266e-002
         vertex -3.790621e-003 0.000000e+000 3.479413e-002
      endloop
   endfacet
   facet normal 0.000000e+000 -1.000000e+000 0.000000e+000
      outer loop
         vertex -2.064486e-003 0.000000e+000 2.491461e-002
         vertex -3.790621e-003 0.000000e+000 3.479413e-002
         vertex -1.004239e-002 0.000000e+000 2.289433e-002
      endloop
   endfacet
   facet normal 0.000000e+000 -1.000000e+000 0.000000e+000
      outer loop
         vertex -1.004239e-002 0.000000e+000 2.289433e-002
         vertex -3.790621e-003 0.000000e+000 3.479413e-002
         vertex -1.343971e-002 0.000000e+000 3.231677e-002
      endloop
   endfacet
   facet normal 0.000000e+000 -1.000000e+000 0.000000e+000
      outer loop
         vertex -1.004239e-002 0.000000e+000 2.289433e-002
         vertex -1.343971e-002 0.000000e+000 3.231677e-002
         vertex -1.693204e-002 0.000000e+000 1.839310e-002
      endloop
   endfacet
   facet normal 0.000000e+000 -1.000000e+000 0.000000e+000
      outer loop
         vertex -1.693204e-002 0.000000e+000 1.839310e-002
         vertex -1.343971e-002 0.000000e+000 3.231677e-002
         vertex -2.200000e-002 0.000000e+000 2.722131e-002
      endloop
   endfacet
   facet normal 0.000000e+000 -1.000000e+000 0.000000e+000
      outer loop
         vertex -1.693204e-002 0.000000e+000 1.839310e-002
         vertex -2.200000e-002 0.000000e+000 2.722131e-002
         vertex -2.198685e-002 0.000000e+000 1.189868e-002
      endloop
   endfacet
   facet normal 0.000000e+000 -1.000000e+000 0.000000e+000
      outer loop
         vertex -2.198685e-002 0.000000e+000 1.189868e-002
         vertex -2.200000e-002 0.000000e+000 2.722131e-002
         vertex -3.756853e-002 0.000000e+000 1.629972e-002
      endloop
   endfacet
   facet normal 0.000000e+000 -1.000000e+000 0.000000e+000
      outer loop
         vertex -2.198685e-002 0.000000e+000 1.189868e-002
         vertex -3.756853e-002 0.000000e+000 1.629972e-002
         vertex -2.465903e-002 0.000000e+000 4.114858e-003
      endloop
   endfacet
   facet normal 0.000000e+000 -1.000000e+000 0.000000e+000
      outer loop
         vertex -2.465903e-002 0.000000e+000 4.114858e-003
         vertex -3.756853e-002 0.000000e+000 1.629972e-002
         vertex -5.447357e-002 0.000000e+000 7.588811e-003
      endloop
   endfacet
   facet normal 0.000000e+000 -1.000000e+000 0.000000e+000
      outer loop
         vertex -2.465903e-002 0.000000e+000 4.114858e-003
         vertex -5.447357e-002 0.000000e+000 7.588811e-003
         vertex -2.465903e-002 0.000000e+000 -4.114859e-003
      endloop
   endfacet
   facet normal 0.000000e+000 -1.000000e+000 0.000000e+000
      outer loop
         vertex -2.465903e-002 0.000000e+000 -4.114859e-003
         vertex -5.447357e-002 0.000000e+000 7.588811e-003
         vertex -7.240319e-002 0.000000e+000 1.249321e-003
      endloop
   endfacet
   facet normal 0.000000e+000 -1.000000e+000 0.000000e+000
      outer loop
         vertex -7.240319e-002 0.000000e+000 1.249321e-003
         vertex -9.102654e-002 0.000000e+000 -2.601780e-003
         vertex -2.465903e-002 0.000000e+000 -4.114859e-003
      endloop
   endfacet
   facet normal 0.000000e+000 -1.000000e+000 0.000000e+000
      outer loop
         vertex -2.465903e-002 0.000000e+000 -4.114859e-003
         vertex -9.102654e-002 0.000000e+000 -2.601780e-003
         vertex -1.100000e-001 0.000000e+000 -3.893428e-003
      endloop
   endfacet
   facet normal 0.000000e+000 -1.000000e+000 0.000000e+000
      outer loop
         vertex -2.465903e-002 0.000000e+000 -4.114859e-003
         vertex -1.100000e-001 0.000000e+000 -3.893428e-003
         vertex -1.963546e-001 0.000000e+000 -8.117490e-003
      endloop
   endfacet
   facet normal 0.000000e+000 -1.000000e+000 0.000000e+000
      outer loop
         vertex -1.963546e-001 0.000000e+000 -8.117490e-003
         vertex -1.100000e-001 0.000000e+000 -3.893428e-003
         vertex -1.950000e-001 0.000000e+000 -7.717273e-009
      endloop
   endfacet
   facet normal 0.000000e+000 -1.000000e+000 0.000000e+000
      outer loop
         vertex -2.019367e-001 0.000000e+000 -5.269926e-002
         vertex -1.800041e-001 0.000000e+000 -6.188188e-002
         vertex -2.465903e-002 0.000000e+000 -4.114859e-003
      endloop
   endfacet
   facet normal 0.000000e+000 -1.000000e+000 0.000000e+000
      outer loop
         vertex -2.465903e-002 0.000000e+000 -4.114859e-003
         vertex -1.800041e-001 0.000000e+000 -6.188188e-002
         vertex -1.571740e-001 0.000000e+000 -6.852631e-002
      endloop
   endfacet
   facet normal 0.000000e+000 -1.000000e+000 0.000000e+000
      outer loop
         vertex -2.465903e-002 0.000000e+000 -4.114859e-003
         vertex -1.571740e-001 0.000000e+000 -6.852631e-002
         vertex -2.198685e-002 0.000000e+000 -1.189869e-002
      endloop
   endfacet
   facet normal 0.000000e+000 -1.000000e+000 0.000000e+000
      outer loop
         vertex -2.198685e-002 0.000000e+000 -1.189869e-002
         vertex -1.571740e-001 0.000000e+000 -6.852631e-002
         vertex -1.337392e-001 0.000000e+000 -7.254732e-002
      endloop
   endfacet
   facet normal 0.000000e+000 -1.000000e+000 0.000000e+000
      outer loop
         vertex -2.198685e-002 0.000000e+000 -1.189869e-002
         vertex -1.337392e-001 0.000000e+000 -7.254732e-002
         vertex -1.100000e-001 0.000000e+000 -7.389342e-002
      endloop
   endfacet
   facet normal -9.939802e-001 0.000000e+000 -1.095604e-001
      outer loop
         vertex 2.364543e-002 0.000000e+000 8.117490e-003
         vertex 2.500000e-002 1.200000e-002 7.183888e-009
         vertex 2.500000e-002 0.000000e+000 7.183888e-009
      endloop
   endfacet
   facet normal -9.939802e-001 0.000000e+000 1.095604e-001
      outer loop
         vertex 2.500000e-002 0.000000e+000 7.183888e-009
         vertex 2.500000e-002 1.200000e-002 7.183888e-009
         vertex 2.364543e-002 1.200000e-002 -8.117490e-003
      endloop
   endfacet
   facet normal -9.756978e-001 0.000000e+000 2.191207e-001
      outer loop
         vertex 2.500000e-002 0.000000e+000 7.183888e-009
         vertex 2.364543e-002 1.200000e-002 -8.117490e-003
         vertex 2.364543e-002 0.000000e+000 -8.117490e-003
      endloop
   endfacet
   facet normal -9.045494e-001 0.000000e+000 4.263689e-001
      outer loop
         vertex 2.364543e-002 0.000000e+000 -8.117490e-003
         vertex 2.364543e-002 1.200000e-002 -8.117490e-003
         vertex 1.972851e-002 1.200000e-002 -1.535531e-002
      endloop
   endfacet
   facet normal -8.516834e-001 0.000000e+000 5.240567e-001
      outer loop
         vertex 2.364543e-002 0.000000e+000 -8.117490e-003
         vertex 1.972851e-002 1.200000e-002 -1.535531e-002
         vertex 1.972851e-002 0.000000e+000 -1.535531e-002
      endloop
   endfacet
   facet normal -7.170966e-001 0.000000e+000 6.969737e-001
      outer loop
         vertex 1.972851e-002 0.000000e+000 -1.535531e-002
         vertex 1.972851e-002 1.200000e-002 -1.535531e-002
         vertex 1.367370e-002 1.200000e-002 -2.092917e-002
      endloop
   endfacet
   facet normal -6.353759e-001 0.000000e+000 7.722030e-001
      outer loop
         vertex 1.972851e-002 0.000000e+000 -1.535531e-002
         vertex 1.367370e-002 1.200000e-002 -2.092917e-002
         vertex 1.367370e-002 0.000000e+000 -2.092917e-002
      endloop
   endfacet
   facet normal -4.519353e-001 0.000000e+000 8.920507e-001
      outer loop
         vertex 1.367370e-002 0.000000e+000 -2.092917e-002
         vertex 1.367370e-002 1.200000e-002 -2.092917e-002
         vertex 6.137135e-003 1.200000e-002 -2.423500e-002
      endloop
   endfacet
   facet normal -3.502155e-001 0.000000e+000 9.366692e-001
      outer loop
         vertex 1.367370e-002 0.000000e+000 -2.092917e-002
         vertex 6.137135e-003 1.200000e-002 -2.423500e-002
         vertex 6.137135e-003 0.000000e+000 -2.423500e-002
      endloop
   endfacet
   facet normal -1.377998e-001 0.000000e+000 9.904601e-001
      outer loop
         vertex 6.137135e-003 0.000000e+000 -2.423500e-002
         vertex 6.137135e-003 1.200000e-002 -2.423500e-002
         vertex -2.064486e-003 1.200000e-002 -2.491461e-002
      endloop
   endfacet
   facet normal -2.710393e-002 0.000000e+000 9.996326e-001
      outer loop
         vertex 6.137135e-003 0.000000e+000 -2.423500e-002
         vertex -2.064486e-003 1.200000e-002 -2.491461e-002
         vertex -2.064486e-003 0.000000e+000 -2.491461e-002
      endloop
   endfacet
   facet normal 1.912684e-001 0.000000e+000 9.815378e-001
      outer loop
         vertex -2.064486e-003 0.000000e+000 -2.491461e-002
         vertex -2.064486e-003 1.200000e-002 -2.491461e-002
         vertex -1.004239e-002 1.200000e-002 -2.289433e-002
      endloop
   endfacet
   facet normal 2.989448e-001 0.000000e+000 9.542704e-001
      outer loop
         vertex -2.064486e-003 0.000000e+000 -2.491461e-002
         vertex -1.004239e-002 1.200000e-002 -2.289433e-002
         vertex -1.004239e-002 0.000000e+000 -2.289433e-002
      endloop
   endfacet
   facet normal 4.996097e-001 0.000000e+000 8.662506e-001
      outer loop
         vertex -1.004239e-002 0.000000e+000 -2.289433e-002
         vertex -1.004239e-002 1.200000e-002 -2.289433e-002
         vertex -1.693204e-002 1.200000e-002 -1.839309e-002
      endloop
   endfacet
   facet normal 5.925983e-001 0.000000e+000 8.054982e-001
      outer loop
         vertex -1.004239e-002 0.000000e+000 -2.289433e-002
         vertex -1.693204e-002 1.200000e-002 -1.839309e-002
         vertex -1.693204e-002 0.000000e+000 -1.839309e-002
      endloop
   endfacet
   facet normal 7.538106e-001 0.000000e+000 6.570917e-001
      outer loop
         vertex -1.693204e-002 0.000000e+000 -1.839309e-002
         vertex -1.693204e-002 1.200000e-002 -1.839309e-002
         vertex -2.198685e-002 1.200000e-002 -1.189869e-002
      endloop
   endfacet
   facet normal 8.220344e-001 0.000000e+000 5.694377e-001
      outer loop
         vertex -1.693204e-002 0.000000e+000 -1.839309e-002
         vertex -2.198685e-002 1.200000e-002 -1.189869e-002
         vertex -2.198685e-002 0.000000e+000 -1.189869e-002
      endloop
   endfacet
   facet normal 9.263244e-001 0.000000e+000 3.767268e-001
      outer loop
         vertex -2.198685e-002 0.000000e+000 -1.189869e-002
         vertex -2.198685e-002 1.200000e-002 -1.189869e-002
         vertex -2.465903e-002 1.200000e-002 -4.114859e-003
      endloop
   endfacet
   facet normal 9.623905e-001 0.000000e+000 2.716698e-001
      outer loop
         vertex -2.198685e-002 0.000000e+000 -1.189869e-002
         vertex -2.465903e-002 1.200000e-002 -4.114859e-003
         vertex -2.465903e-002 0.000000e+000 -4.114859e-003
      endloop
   endfacet
   facet normal 9.984566e-001 0.000000e+000 5.553765e-002
      outer loop
         vertex -2.465903e-002 0.000000e+000 -4.114859e-003
         vertex -2.465903e-002 1.200000e-002 -4.114859e-003
         vertex -2.465903e-002 1.200000e-002 4.114858e-003
      endloop
   endfacet
   facet normal 9.984566e-001 0.000000e+000 -5.553765e-002
      outer loop
         vertex -2.465903e-002 0.000000e+000 -4.114859e-003
         vertex -2.465903e-002 1.200000e-002 4.114858e-003
         vertex -2.465903e-002 0.000000e+000 4.114858e-003
      endloop
   endfacet
   facet normal 9.623905e-001 0.000000e+000 -2.716698e-001
      outer loop
         vertex -2.465903e-002 0.000000e+000 4.114858e-003
         vertex -2.465903e-002 1.200000e-002 4.114858e-003
         vertex -2.198685e-002 1.200000e-002 1.189868e-002
      endloop
   endfacet
   facet normal 9.263244e-001 0.000000e+000 -3.767268e-001
      outer loop
         vertex -2.465903e-002 0.000000e+000 4.114858e-003
         vertex -2.198685e-002 1.200000e-002 1.189868e-002
         vertex -2.198685e-002 0.000000e+000 1.189868e-002
      endloop
   endfacet
   facet normal 8.220344e-001 0.000000e+000 -5.694377e-001
      outer loop
         vertex -2.198685e-002 0.000000e+000 1.189868e-002
         vertex -2.198685e-002 1.200000e-002 1.189868e-002
         vertex -1.693204e-002 1.200000e-002 1.839310e-002
      endloop
   endfacet
   facet normal 7.538106e-001 0.000000e+000 -6.570917e-001
      outer loop
         vertex -2.198685e-002 0.000000e+000 1.189868e-002
         vertex -1.693204e-002 1.200000e-002 1.839310e-002
         vertex -1.693204e-002 0.000000e+000 1.839310e-002
      endloop
   endfacet
   facet normal 5.925983e-001 0.000000e+000 -8.054982e-001
      outer loop
         vertex -1.693204e-002 0.000000e+000 1.839310e-002
         vertex -1.693204e-002 1.200000e-002 1.839310e-002
         vertex -1.004239e-002 1.200000e-002 2.289433e-002
      endloop
   endfacet
   facet normal 4.996097e-001 0.000000e+000 -8.662506e-001
      outer loop
         vertex -1.693204e-002 0.000000e+000 1.839310e-002
         vertex -1.004239e-002 1.200000e-002 2.289433e-002
         vertex -1.004239e-002 0.000000e+000 2.289433e-002
      endloop
   endfacet
   facet normal 2.989448e-001 0.000000e+000 -9.542704e-001
      outer loop
         vertex -1.004239e-002 0.000000e+000 2.289433e-002
         vertex -1.004239e-002 1.200000e-002 2.289433e-002
         vertex -2.064486e-003 1.200000e-002 2.491461e-002
      endloop
   endfacet
   facet normal 1.912684e-001 0.000000e+000 -9.815378e-001
      outer loop
         vertex -1.004239e-002 0.000000e+000 2.289433e-002
         vertex -2.064486e-003 1.200000e-002 2.491461e-002
         vertex -2.064486e-003 0.000000e+000 2.491461e-002
      endloop
   endfacet
   facet normal -2.710393e-002 0.000000e+000 -9.996326e-001
      outer loop
         vertex -2.064486e-003 0.000000e+000 2.491461e-002
         vertex -2.064486e-003 1.200000e-002 2.491461e-002
         vertex 6.137135e-003 1.200000e-002 2.423501e-002
      endloop
   endfacet
   facet normal -1.377998e-001 0.000000e+000 -9.904601e-001
      outer loop
         vertex -2.064486e-003 0.000000e+000 2.491461e-002
         vertex 6.137135e-003 1.200000e-002 2.423501e-002
         vertex 6.137135e-003 0.000000e+000 2.423501e-002
      endloop
   endfacet
   facet normal -3.502155e-001 0.000000e+000 -9.366692e-001
      outer loop
         vertex 6.137135e-003 0.000000e+000 2.423501e-002
         vertex 6.137135e-003 1.200000e-002 2.423501e-002
         vertex 1.367370e-002 1.200000e-002 2.092917e-002
      endloop
   endfacet
   facet normal -4.519353e-001 0.000000e+000 -8.920507e-001
      outer loop
         vertex 6.137135e-003 0.000000e+000 2.423501e-002
         vertex 1.367370e-002 1.200000e-002 2.092917e-002
         vertex 1.367370e-002 0.000000e+000 2.092917e-002
      endloop
   endfacet
   facet normal -6.353759e-001 0.000000e+000 -7.722030e-001
      outer loop
         vertex 1.367370e-002 0.000000e+000 2.092917e-002
         vertex 1.367370e-002 1.200000e-002 2.092917e-002
         vertex 1.972851e-002 1.200000e-002 1.535532e-002
      endloop
   endfacet
   facet normal -7.170966e-001 0.000000e+000 -6.969737e-001
      outer loop
         vertex 1.367370e-002 0.000000e+000 2.092917e-002
         vertex 1.972851e-002 1.200000e-002 1.535532e-002
         vertex 1.972851e-002 0.000000e+000 1.535532e-002
      endloop
   endfacet
   facet normal -8.516834e-001 0.000000e+000 -5.240567e-001
      outer loop
         vertex 1.972851e-002 0.000000e+000 1.535532e-002
         vertex 1.972851e-002 1.200000e-002 1.535532e-002
         vertex 2.364543e-002 1.200000e-002 8.117490e-003
      endloop
   endfacet
   facet normal -9.045494e-001 0.000000e+000 -4.263689e-001
      outer loop
         vertex 1.972851e-002 0.000000e+000 1.535532e-002
         vertex 2.364543e-002 1.200000e-002 8.117490e-003
         vertex 2.364543e-002 0.000000e+000 8.117490e-003
      endloop
   endfacet
   facet normal -9.756978e-001 0.000000e+000 -2.191207e-001
      outer loop
         vertex 2.364543e-002 0.000000e+000 8.117490e-003
         vertex 2.364543e-002 1.200000e-002 8.117490e-003
         vertex 2.500000e-002 1.200000e-002 7.183888e-009
      endloop
   endfacet
endsolid